<svg width="47" height="47" viewBox="0 0 47 47" fill="none" xmlns="http://www.w3.org/2000/svg">
<circle opacity="0.203892" cx="23.5" cy="23.5" r="23.5" fill="#FD5E5E"/>
<path fill-rule="evenodd" clip-rule="evenodd" d="M30.6987 19.5728L23.7565 26.515L21.3113 24.0768C21.18 23.9453 21.0018 23.8713 20.8159 23.8713C20.6301 23.8713 20.4518 23.9453 20.3205 24.0768C20.0465 24.3509 20.0465 24.7935 20.3205 25.0676L23.2576 28.0047C23.5317 28.2787 23.9743 28.2787 24.2484 28.0047L31.6895 20.5706C31.9635 20.2966 31.9635 19.8539 31.6895 19.5798H31.6825C31.4155 19.2988 30.9728 19.2988 30.6987 19.5728ZM27.7195 19.5798C27.5882 19.4483 27.41 19.3743 27.2241 19.3743C27.0383 19.3743 26.86 19.4483 26.7288 19.5798L22.7658 23.5428L23.7565 24.5336L27.7195 20.5636C27.9865 20.2966 27.9865 19.8469 27.7195 19.5798ZM19.2876 28.0117L16.3505 25.0746C16.0765 24.8006 16.0765 24.3509 16.3505 24.0768C16.4818 23.9453 16.6601 23.8713 16.8459 23.8713C17.0318 23.8713 17.21 23.9453 17.3413 24.0768L20.7702 27.5198L20.2784 28.0117C20.0043 28.2857 19.5617 28.2857 19.2876 28.0117Z" fill="#FD5E5E"/>
<mask id="mask0" mask-type="alpha" maskUnits="userSpaceOnUse" x="16" y="19" width="16" height="10">
<path fill-rule="evenodd" clip-rule="evenodd" d="M30.6987 19.5728L23.7565 26.515L21.3113 24.0768C21.18 23.9453 21.0018 23.8713 20.8159 23.8713C20.6301 23.8713 20.4518 23.9453 20.3205 24.0768C20.0465 24.3509 20.0465 24.7935 20.3205 25.0676L23.2576 28.0047C23.5317 28.2787 23.9743 28.2787 24.2484 28.0047L31.6895 20.5706C31.9635 20.2966 31.9635 19.8539 31.6895 19.5798H31.6825C31.4155 19.2988 30.9728 19.2988 30.6987 19.5728ZM27.7195 19.5798C27.5882 19.4483 27.41 19.3743 27.2241 19.3743C27.0383 19.3743 26.86 19.4483 26.7288 19.5798L22.7658 23.5428L23.7565 24.5336L27.7195 20.5636C27.9865 20.2966 27.9865 19.8469 27.7195 19.5798ZM19.2876 28.0117L16.3505 25.0746C16.0765 24.8006 16.0765 24.3509 16.3505 24.0768C16.4818 23.9453 16.6601 23.8713 16.8459 23.8713C17.0318 23.8713 17.21 23.9453 17.3413 24.0768L20.7702 27.5198L20.2784 28.0117C20.0043 28.2857 19.5617 28.2857 19.2876 28.0117Z" fill="white"/>
</mask>
<g mask="url(#mask0)">
</g>
</svg>
