<svg width="668" height="756" viewBox="0 0 668 756" fill="none" xmlns="http://www.w3.org/2000/svg">
<path fill-rule="evenodd" clip-rule="evenodd" d="M73.5412 680.182L51.1935 668.571C36.9854 645.818 25.9665 619.104 25 590.235C25 590.235 46.0543 588.907 69.9059 592.56L84.9535 610.508L86.1539 595.838C97.8357 598.834 109.216 603.322 118.235 610.013L119.864 639.339L129.176 620.977C130.942 623.458 132.451 626.134 133.659 629.023C152.252 673.495 166 731.028 166 731.028L119.782 743C119.782 743 91.1569 722.176 65.3567 688.837L73.5412 680.182Z" fill="#AD2500"/>
<path fill-rule="evenodd" clip-rule="evenodd" d="M111.999 724.044C124.642 726.691 132.664 724.669 135.489 723.697C116.283 708.692 97.7073 688.188 82.5344 669.316C81.851 669.526 81.1707 669.718 80.4935 669.893C67.8853 673.144 56.6485 670.378 48.1392 666.388C47.6573 665.596 47.1784 664.801 46.7042 664.001C55.463 668.538 67.6962 672.086 81.5209 668.05C77.0919 662.507 72.8086 656.926 68.5966 651.249C57.6698 652.615 45.5822 648.914 36.9071 645.303C36.5941 644.612 36.2841 643.921 35.9789 643.227C44.3766 646.855 56.6392 650.933 67.5645 649.855C46.1959 620.897 31.2709 596.893 31.1144 596.625L27 591.435L31.7188 594.561C31.9931 595.026 44.1937 614.455 61.3162 638.55C63.7941 625.657 53.5956 598.339 50.7148 591C51.268 591.039 51.8275 591.079 52.39 591.124C55.7667 599.749 65.9962 627.611 62.48 640.182C73.3463 655.377 86.5155 672.532 100.814 688.465C103.19 681.609 86.9665 645.398 93.9277 627.666C98.1753 616.845 96.3204 606.005 94.1446 599.039C94.7304 599.239 95.3162 599.444 95.8973 599.653C97.994 606.867 99.522 617.537 95.3317 628.211C88.3178 646.077 105.88 683.218 101.896 689.666C104.695 692.761 107.535 695.806 110.41 698.776C112.482 661.918 112.025 660.744 107.06 647.626C104.205 640.08 101.507 632.954 105.372 626.432C108.726 620.771 107.918 611.48 106.472 604.147C107.057 604.44 107.635 604.74 108.208 605.046C109.548 612.413 110.099 621.407 106.671 627.195C100.514 637.582 112.921 650.081 112.967 665.667C113.007 679.778 112.006 697.351 111.836 700.244C117.717 706.253 123.73 711.943 129.801 717.116C131.238 715.098 136.995 705.595 130.725 690.342C125.636 677.957 133.465 658.497 139.089 647.158C139.338 647.826 139.583 648.499 139.828 649.17C134.405 660.456 127.492 678.509 132.121 689.77C138.814 706.055 132.509 716.005 130.956 718.094C138.27 724.238 145.662 729.612 153 733.869L150.945 734.399C149.65 733.624 148.353 732.817 147.057 731.977C141.81 735.234 132.724 736.567 122.27 732.338C115.932 729.772 110.097 730.726 105.522 732.629C105.112 732.276 104.693 731.912 104.267 731.54C109.229 729.322 115.724 728.066 122.84 730.945C134.729 735.756 142.944 732.47 145.639 731.047C142.715 729.104 139.795 727.006 136.89 724.78C129.829 727.753 119.403 727.13 111.685 725.513C106.708 724.472 101.984 724.816 97.8422 725.783C97.4082 725.383 96.9712 724.979 96.5296 724.567C101.087 723.376 106.384 722.87 111.999 724.044Z" fill="#A7CBD3"/>
<path fill-rule="evenodd" clip-rule="evenodd" d="M124 628.705L127.967 621C129.743 623.458 131.26 626.107 132.474 628.969C151.174 673.016 165 730 165 730C165 730 135.985 693.05 124 628.705Z" fill="#195F6D"/>
<path fill-rule="evenodd" clip-rule="evenodd" d="M307.967 655.387C306.02 655.894 277.951 649.638 238.867 673.377C199.783 697.116 175 729 175 729C175 729 225.804 725.814 268.211 706.947C310.617 688.083 307.967 655.387 307.967 655.387Z" fill="#004A58"/>
<path fill-rule="evenodd" clip-rule="evenodd" d="M179.073 724.283C201.862 697.849 239.164 666.731 275 658C272.952 681.309 266.829 699.483 249.185 714.265C219.407 724.314 189.673 727.951 179.001 729C178.996 727.542 179.018 725.965 179.073 724.283Z" fill="#003842"/>
<path fill-rule="evenodd" clip-rule="evenodd" d="M130.764 541.884L153.818 556.27L136.394 518.285C140.111 505.455 144.794 493.22 150.411 482.223C165.911 451.866 195.816 405 195.816 405C209.737 421.122 220.602 437.452 228.909 453.762L213.925 479.773L236.898 471.331C288.86 600.742 190.058 723.505 190.058 723.505L164.907 730C164.907 730 125.51 623.908 126.005 588.126C126.214 573.084 127.82 557.338 130.764 541.884Z" fill="#E0AA1A"/>
<path fill-rule="evenodd" clip-rule="evenodd" d="M126.854 602.019C126.542 599.787 126.299 597.665 126.13 595.676C135.187 608.869 158.262 640.298 175.878 645.555C176.022 643.961 176.179 642.362 176.346 640.764C159.711 639.078 137.753 604.672 126 584.029C126.067 582.151 126.153 580.263 126.262 578.37C138.847 601.041 161.585 636.433 176.675 637.789C178.116 625.344 180.366 613.005 183.763 601.799C186.554 592.6 188.68 580.382 190.293 566.548C174.6 559.94 153.625 520.097 143.35 498.743C143.839 497.519 144.339 496.304 144.848 495.1C154.351 515.043 175.77 556.112 190.646 563.417C191.755 553.248 192.603 542.292 193.242 531.072C177.81 517.296 165.025 482.984 159.494 466.331C160.16 465.144 160.833 463.952 161.514 462.755C166.249 477.289 178.684 512.116 193.459 527.12C196.413 470.949 195.35 410.229 195.319 409.297L195.893 407L196.444 409.192C196.479 410.238 199.939 486.584 195.142 547.42C218.67 549.028 238.486 527.679 248.651 514.039C248.894 515.419 249.123 516.796 249.337 518.172C246.757 521.495 243.684 525.137 240.173 528.758C229.766 539.484 218.929 546.358 208.223 549.121C203.746 550.276 199.291 550.713 194.899 550.412C193.522 566.882 191.585 582.049 188.889 594.041C210.156 595.784 236.59 580.918 251 571.484C250.885 572.785 250.763 574.08 250.629 575.371C240.135 582.119 224.52 590.857 208.769 594.922C201.793 596.722 194.79 597.606 188.194 596.993C187.701 598.988 187.185 600.881 186.645 602.665C172.013 650.917 178.952 720.774 179.639 727.24L176.692 728C176.488 726.161 172.411 688.38 175.618 648.603C158.64 643.99 137.665 617.256 126.854 602.019Z" fill="#CFD5F1"/>
<path fill-rule="evenodd" clip-rule="evenodd" d="M191.049 724.911L167.595 731C167.595 731 160.126 679.114 198.107 633.431L205.977 640.807L203.439 627.391C205.701 624.972 208.102 622.578 210.649 620.218L222.322 635.423L219.794 612.411C228.159 605.828 237.828 599.619 249 594C235.513 668.193 192.664 722.873 191.049 724.911Z" fill="#6670A4"/>
<path fill-rule="evenodd" clip-rule="evenodd" d="M67.0154 662.373L77.5408 682.81L79.4569 665.714C86.6302 667.934 93.8098 670.696 100.767 674.121L105.3 684.459L110.093 679.211C129.12 690.714 145.507 708.007 154 733.902L138.966 741.499C138.478 741.625 120.077 744.473 114.177 743.932C105.348 743.12 23.6382 737.784 0 657.748C0 657.748 31.7703 654.253 67.0154 662.373Z" fill="#469AA8"/>
<path fill-rule="evenodd" clip-rule="evenodd" d="M139 737.665L137.464 741C85.1634 728.041 9.53404 664.777 6.4412 662.062L2 658L8.442 659.804C9.22336 660.489 87.1161 728.427 139 737.665Z" fill="#A7CBD3"/>
<path fill-rule="evenodd" clip-rule="evenodd" d="M200.642 645.244L207.38 651.502L205.206 640.119C207.145 638.066 209.2 636.033 211.38 634.032L221.373 646.934L219.212 627.407C230.543 618.566 244.672 610.519 262.279 604C262.279 604 272.012 657.677 254.664 686.882C237.315 716.088 199.803 721.49 199.803 721.49L174.508 728C174.508 728 168.123 684.008 200.642 645.244Z" fill="#E0AA1A"/>
<path fill-rule="evenodd" clip-rule="evenodd" d="M196.847 723.007L193 724C239.154 670.967 259.296 608.137 259.498 607.499L262 605L261.668 608.175C261.468 608.808 241.813 670.144 196.847 723.007Z" fill="#F3DDA3"/>
<path fill-rule="evenodd" clip-rule="evenodd" d="M174 727.611C174 727.611 194.847 668.875 223.225 643.636C251.606 618.398 309 619.001 309 619.001C309 619.001 303.67 631.033 294.55 647.006L273.221 650.042L288.197 657.705C273.222 681.961 251.427 710.567 227.057 721.165C181.609 740.929 174 727.611 174 727.611Z" fill="#AD2500"/>
<path fill-rule="evenodd" clip-rule="evenodd" d="M174 728C174.006 727.983 174.264 727.242 175.123 724.956C182.417 716.234 206.169 688.364 228.934 666.039C229.619 659.342 224.6 651.525 220.365 646.238C220.991 645.617 221.62 645.015 222.254 644.428C226.249 649.382 230.987 656.61 231.523 663.521C232.586 662.497 240.325 655.55 243.142 653.351C244.082 646.511 238.997 639.991 234.366 635.595C235.154 635.141 235.953 634.7 236.761 634.269C241.122 638.544 245.678 644.59 245.832 651.3C248.604 649.239 251.404 647.301 254.198 645.491C258.331 639.414 256.877 631.998 254.905 626.811C255.742 626.548 256.58 626.293 257.419 626.047C259.167 630.672 260.492 636.926 258.399 642.855C260.901 641.335 263.381 639.912 265.816 638.586C270.41 629.955 270.682 625.213 270.243 622.875C271.1 622.699 271.952 622.53 272.797 622.371C273.29 625.004 272.998 629.432 269.724 636.515C287.218 627.501 301.361 622.595 301.596 622.531L307 621L301.82 625.554C301.459 625.653 268.23 635.447 240.777 658.581C252.694 656.936 266.875 664.917 275.066 669.527C276.428 670.293 277.891 671.114 279.044 671.707C278.551 672.422 278.055 673.136 277.555 673.849C276.557 673.329 275.333 672.644 273.798 671.779C264.694 666.657 247.855 657.182 236.316 662.52C234.919 663.815 228.086 670.495 226.454 672.134C238.212 670.948 258.286 680.64 268.437 686.061C267.892 686.744 267.342 687.426 266.788 688.103C253.377 680.997 230.911 671.032 222.801 675.836C198.349 700.86 174 728 174 728Z" fill="#DE9C8C"/>
<path fill-rule="evenodd" clip-rule="evenodd" d="M57 318.011C214.668 148.77 372.334 460.025 530 290.783V237.928C372.334 389.018 214.668 59.6118 57 210.7V318.011Z" fill="#CEDEFF"/>
<path fill-rule="evenodd" clip-rule="evenodd" d="M230 210.209C277.333 230.623 324.667 262.537 372 280V273.329C324.667 255.353 277.333 222.927 230 202V210.209Z" fill="#9173F1"/>
<path fill-rule="evenodd" clip-rule="evenodd" d="M230 224.231C268 239.894 306 262.974 344 280V274.71C306 257.369 268 233.976 230 218V224.231Z" fill="#9173F1"/>
<path fill-rule="evenodd" clip-rule="evenodd" d="M168 261.246C183.333 261.752 198.667 264.627 214 269V190.415C198.667 184.491 183.333 180.059 168 178V261.246Z" fill="white"/>
<path fill-rule="evenodd" clip-rule="evenodd" d="M230 242.346C246.333 248.575 262.667 256.138 279 264V258.062C262.667 250.064 246.333 242.365 230 236V242.346Z" fill="#9173F1"/>
<path fill-rule="evenodd" clip-rule="evenodd" d="M174 250.618C183.999 251.521 194.001 253.398 204 256V195.701C194.001 192.326 183.999 189.677 174 188V250.618Z" fill="#A98FFF"/>
<path fill-rule="evenodd" clip-rule="evenodd" d="M385 335.685C400.333 339.095 415.667 340.724 431 339.694V282.707C415.667 282.172 400.333 278.975 385 274V335.685Z" fill="white"/>
<path fill-rule="evenodd" clip-rule="evenodd" d="M392 328.62C401.999 330.642 411.999 331.85 422 332V288.685C411.999 287.767 401.999 285.79 392 283V328.62Z" fill="#A98FFF"/>
<path fill-rule="evenodd" clip-rule="evenodd" d="M62 229C93.6667 199.916 125.333 189.959 157 191.234V182.173C125.333 180.552 93.6667 190.162 62 218.898V229Z" fill="#A98FFF"/>
<path fill-rule="evenodd" clip-rule="evenodd" d="M64 245C95.6667 216.642 127.333 206.904 159 208.024C159 205.065 159 202.105 159 199.145C127.333 197.683 95.6667 207.082 64 235.097V245Z" fill="#A98FFF"/>
<path fill-rule="evenodd" clip-rule="evenodd" d="M438 319C442.13 313.402 446.259 307.718 450.389 301.936C449.107 302.137 447.824 302.317 446.542 302.476C442.719 302.961 439.619 300.703 439.619 297.69V291.744C439.619 288.723 442.719 286.195 446.542 285.841C468.72 283.765 490.897 275.554 513.076 258.565C516.9 255.649 520 255.059 520 257.627V262.704C520 265.263 516.9 270.113 513.076 273.161C502.505 281.583 491.934 288.01 481.363 292.73C466.908 304.023 452.454 312.536 438 319Z" fill="#CDBDFF"/>
<path fill-rule="evenodd" clip-rule="evenodd" d="M233 256.067C233 256.072 231.152 252.708 227.5 251.356C224.244 250.154 222 252.125 222 255.323C222 259.039 225.059 264.382 233 271C240.941 270.163 244 267.25 244 263.633C244 260.533 241.754 256.92 238.498 255.602C234.848 254.131 233 256.068 233 256.067Z" fill="#A98FFF"/>
<path fill-rule="evenodd" clip-rule="evenodd" d="M384.538 281.371C384.538 281.371 392.031 278.716 398.981 285.654C405.929 292.593 441.217 347.694 441.217 347.694C441.217 347.694 492.038 305.111 495.172 301.981C498.305 298.851 497.624 288.511 498.305 286.471C498.986 284.43 505.253 279.667 506.889 279.667C508.524 279.667 503.756 286.471 503.756 286.471C503.756 286.471 509.479 285.11 511.386 279.667C513.293 274.225 512.338 260.212 514.383 260.212C516.427 260.212 516.29 267.15 516.29 267.15C516.29 267.15 515.473 255.675 518.197 257.127C520.924 258.579 520.241 267.967 520.241 267.967C520.241 267.967 521.059 260.212 522.831 260.212C524.601 260.212 523.647 269.736 523.647 269.736C523.647 269.736 525.146 264.157 526.645 264.157C528.144 264.157 524.601 286.198 521.603 291.096C518.605 295.994 501.439 307.286 501.439 307.286C501.439 307.286 452.118 373 443.942 373C435.768 373 393.53 328.374 386.718 311.504C379.906 294.633 384.538 281.371 384.538 281.371Z" fill="#FD5E5A"/>
<path fill-rule="evenodd" clip-rule="evenodd" d="M516.335 288.978L503.943 287.217C502.755 287.047 501.904 285.935 502.009 284.688L505.396 244.142C505.507 242.807 506.664 241.841 507.935 242.022L524.057 244.315C525.328 244.495 526.197 245.751 525.961 247.067L518.847 287.083C518.628 288.314 517.523 289.147 516.335 288.978Z" fill="#111F59"/>
<path fill-rule="evenodd" clip-rule="evenodd" d="M508.897 247L506 277.021L517.397 278L523 249.469L508.897 247Z" fill="#749CFE"/>
<path fill-rule="evenodd" clip-rule="evenodd" d="M493 737C493 747.492 412.188 756 312.499 756C212.814 756 132 747.492 132 737C132 726.508 212.814 718 312.499 718C412.188 718 493 726.508 493 737Z" fill="#235893"/>
<path fill-rule="evenodd" clip-rule="evenodd" d="M394.414 213C394.414 213 405.642 254.65 405.642 271.995C405.642 289.34 426.141 288.158 424.981 283.997C424.981 283.997 428.332 287.06 426.399 291.834C424.466 296.606 419.31 297.123 419.31 297.123C419.31 297.123 421.63 300.606 419.44 303.83C417.248 307.056 411.836 312.473 403.071 308.732C394.307 304.991 380 278.945 380 278.945L394.414 213Z" fill="#0E1B29"/>
<path fill-rule="evenodd" clip-rule="evenodd" d="M370.179 204.066C370.179 204.066 388.402 206.62 391.356 224.551C394.31 242.482 386.729 276.96 376.289 285.093C365.85 293.225 362.319 318.574 353.405 324.525C344.49 330.479 324.836 330.124 328.274 312.693C328.274 312.693 337.112 316.618 341.597 306.223C341.597 306.223 326.651 312.068 322.696 297.941C318.742 283.813 332.923 285.333 332.923 285.333C332.923 285.333 324.447 292.858 333 292.537C341.552 292.218 347.728 285.827 349.576 276.469C351.421 267.112 336.371 270.385 341.206 253.473C346.041 236.561 364.204 202.29 370.179 204.066Z" fill="#0E1B29"/>
<path fill-rule="evenodd" clip-rule="evenodd" d="M256.175 693C255.1 694.03 244 724.269 244 724.269L264.41 726L264.425 713.782L268 695.749L256.175 693Z" fill="#FC7575"/>
<path fill-rule="evenodd" clip-rule="evenodd" d="M456 706.504L466.261 727L480 713.094L466.435 696L456 706.504Z" fill="#FC7575"/>
<path fill-rule="evenodd" clip-rule="evenodd" d="M385 444.401C385 444.401 345.256 524.075 336.221 549.635C327.185 575.194 325.029 581.21 306.958 610.557C288.886 639.903 266.217 706 266.217 706H247C247 706 264.084 591.355 288.179 568.633C312.273 545.915 334.688 429 334.688 429L379.243 434.477L385 444.401Z" fill="#45156E"/>
<path fill-rule="evenodd" clip-rule="evenodd" d="M351.02 409C351.02 409 328 432.362 328 447.829C328 463.296 402.566 560.957 402.566 573.694C402.566 586.43 409.136 620.654 417.347 637.028C425.557 653.405 456.93 718 456.93 718L476 701.217C476 701.217 439.511 608.829 439.511 589.724C439.511 570.618 427.383 539.738 417.347 518.813C407.312 497.889 379.704 429.012 379.704 429.012L351.02 409Z" fill="#9070A9"/>
<path fill-rule="evenodd" clip-rule="evenodd" d="M376.84 279.805C376.84 279.805 352.601 276.32 348.186 286.045C343.172 297.085 352.917 314.456 355.165 333.442C359.393 369.152 357.779 393.903 348.186 402.304C334.142 414.599 320 441.827 320 441.827C320 441.827 369.813 454.38 399.406 450.117C399.406 450.117 395.94 425.402 398.475 403.995C401.804 375.85 414 345.514 414 334.918C414 316.264 409.483 313.509 392.786 281.764C390.3 277.038 376.84 279.805 376.84 279.805Z" fill="#FAC338"/>
<path fill-rule="evenodd" clip-rule="evenodd" d="M398.91 450C385.614 378.234 419.071 353.177 410.916 321.335C408.432 312.029 399.706 298.471 392 282C419.585 325.095 420.505 324.195 409.201 364.222C399.308 397.996 396.447 413.757 398.91 450Z" fill="#FFF7CF"/>
<path fill-rule="evenodd" clip-rule="evenodd" d="M357.656 398.498C357.656 390.231 376.51 394.352 365.605 383.519C354.7 372.684 368.285 343.735 368.285 328.83C368.285 313.927 347.896 285 347.896 285L345.116 294.497C345.198 305.157 351.807 319.201 353.618 334.264C357.899 369.896 356.265 394.592 346.548 402.975C332.326 415.244 318 442.412 318 442.412C318 442.412 338.035 447.385 360.353 450C366.319 431.38 357.656 406.258 357.656 398.498Z" fill="#A67076"/>
<path fill-rule="evenodd" clip-rule="evenodd" d="M399.088 247.792C399.088 247.792 390.058 285.264 392.532 287.768C395.327 290.595 400 302 400 302C400 302 379.058 287.731 376 278.275L380.524 241L399.088 247.792Z" fill="#FC7575"/>
<path fill-rule="evenodd" clip-rule="evenodd" d="M380.905 241L400 247.809C400 247.809 399.511 249.84 398.787 253C392.45 252.527 382.672 251.311 380 248.268L380.905 241Z" fill="#FD5E5A"/>
<path fill-rule="evenodd" clip-rule="evenodd" d="M379 213.001L406.752 222C406.752 222 411.973 221.092 410.839 215.249C409.705 209.405 402.214 204.942 395.069 202.888C387.925 200.833 379.496 201.003 379.496 201.003L379 213.001Z" fill="#0E1B29"/>
<path fill-rule="evenodd" clip-rule="evenodd" d="M360.281 429.369C359.249 429.799 358.062 429.313 357.631 428.28C357.201 427.249 357.687 426.063 358.721 425.631C359.752 425.201 360.94 425.689 361.37 426.72C361.801 427.751 361.314 428.939 360.281 429.369ZM361.806 426.537C361.276 425.264 359.812 424.662 358.539 425.193C357.264 425.725 356.661 427.19 357.194 428.463C357.726 429.736 359.189 430.338 360.464 429.807C361.737 429.275 362.338 427.811 361.806 426.537Z" fill="black"/>
<path fill-rule="evenodd" clip-rule="evenodd" d="M293.518 464.747C289.936 506.109 325.777 531.222 342.657 511.002C356.414 495.479 360.969 470.434 361.701 449.377C361.953 443.204 362.354 434.388 359.033 428.83L360.456 427C364.304 432.943 364.115 443.337 363.909 449.511C363.31 471.128 358.792 496.662 344.638 512.872C326.097 535.277 286.718 508.843 290.219 464.382L293.518 464.747Z" fill="#853846"/>
<path fill-rule="evenodd" clip-rule="evenodd" d="M351.19 462L344 459.257L358 430L351.19 462Z" fill="black"/>
<path fill-rule="evenodd" clip-rule="evenodd" d="M285.654 411C283.207 414.008 267 457.675 267 457.675C267 457.675 321.568 477.845 341.543 480L359 429.381L285.654 411Z" fill="#B14A5D"/>
<path fill-rule="evenodd" clip-rule="evenodd" d="M272 455C272 455 283.835 423.349 288.749 419L326 426.744L289.442 420.69C289.442 420.69 283.085 427.634 272 455Z" fill="#D38792"/>
<path fill-rule="evenodd" clip-rule="evenodd" d="M369.978 304.747C369.493 296.525 366.468 291.402 363.135 288.228C358.149 283.478 350.118 284.091 345.592 289.274C329.699 307.475 300.415 361.017 299.112 373.761C297.534 389.181 313.171 446.218 310.014 452.956C306.858 459.692 308.011 474.67 310.162 474.67C312.316 474.67 317.186 475.86 319.195 475.86C321.203 475.86 323.841 477.994 325.348 476.422C325.63 476.127 325.284 473.921 325.312 472.602C327.936 473.788 330.388 477.19 331.286 476.298C332.756 474.836 330.765 473.634 328.679 470.022C326.593 466.412 324.227 455.346 324.227 455.346C323.67 450.11 319.148 378.303 322.959 366.654C326.976 354.38 371.126 324.209 369.978 304.747Z" fill="#FC7575"/>
<path fill-rule="evenodd" clip-rule="evenodd" d="M386.123 204.003C386.123 204.003 396.14 203.756 399.643 207.905C403.147 212.054 406.01 223.037 409.119 225.152C412.229 227.268 414.607 227.999 414.607 227.999C414.607 227.999 415.531 228.477 413.185 230.309C410.841 232.139 411.887 233.434 413.501 233.115C415.117 232.793 415.562 235.923 414.39 236.528C414.39 236.528 415.491 237.284 415.496 238.897C415.502 240.511 414.308 240.92 414.308 240.92C414.308 240.92 414.228 243.273 415.425 245.021C416.623 246.771 417.183 251.995 404.007 252C404.007 252 384.283 251.254 382.119 246.092C379.956 240.933 367.779 223.033 373.527 214.381C379.275 205.731 386.123 204.003 386.123 204.003Z" fill="#FC7575"/>
<path fill-rule="evenodd" clip-rule="evenodd" d="M378.359 200.008C380.024 199.682 393.041 208.906 391.933 218.422C390.825 227.938 383.259 225.272 379.439 228.502C375.618 231.732 382.893 241.772 382.995 246.399C383.097 251.029 376.074 279 376.074 279C376.074 279 355.381 226.851 359.557 215.616C363.731 204.381 378.359 200.008 378.359 200.008Z" fill="#1B3753"/>
<path fill-rule="evenodd" clip-rule="evenodd" d="M380.596 229.068C380.596 229.068 375.724 222.473 374.443 224.329C373.162 226.188 374.518 237.039 380.343 237C386.17 236.963 380.596 229.068 380.596 229.068Z" fill="#FC7575"/>
<path fill-rule="evenodd" clip-rule="evenodd" d="M382.771 246.357C382.771 246.357 386.48 308.628 364.028 311.729C341.576 314.829 346.312 290.437 350.577 286.23C350.577 286.23 351.95 293.819 356.565 292.301C361.179 290.782 360.018 291.996 356.948 282.283C353.877 272.569 363.106 275.328 368.335 266.359C373.565 257.39 360.33 250.94 360.645 243.123C360.959 235.306 358.681 224 358.681 224L382.771 246.357Z" fill="#1B3753"/>
<path fill-rule="evenodd" clip-rule="evenodd" d="M407 224C407 225.106 406.552 226 406.001 226C405.448 226 405 225.106 405 224C405 222.896 405.448 222 406.001 222C406.552 222 407 222.896 407 224Z" fill="#1B3753"/>
<path fill-rule="evenodd" clip-rule="evenodd" d="M521 706.72C521 706.72 496.853 728.41 491.852 730.025C486.849 731.638 483.456 738.45 478.813 740.779C474.168 743.11 464 726.228 464 726.228L479.545 709.224C479.545 709.224 483.1 710.812 496.138 707.765C509.178 704.716 519.963 701.612 521 706.72Z" fill="#E9BBBD"/>
<path fill-rule="evenodd" clip-rule="evenodd" d="M266.345 718.12C266.345 718.12 268.618 720.077 272.194 723.661C276.437 727.915 297.397 740.75 294.774 743.378C292.152 746.008 264.546 745.205 261.996 742.649C259.447 740.093 252.236 736.954 246.847 736.954C241.457 736.954 240 732.132 240 726.73C240 721.325 247.72 713 247.72 713L266.345 718.12Z" fill="#E9BBBD"/>
<path fill-rule="evenodd" clip-rule="evenodd" d="M406.986 218C406.986 218 407.518 221.971 402 226L406.986 218Z" fill="#1B3753"/>
<path fill-rule="evenodd" clip-rule="evenodd" d="M394.023 233.127C394.282 234.662 396.722 235.402 399.471 234.779C402.219 234.157 404.237 232.409 403.977 230.873C403.718 229.338 401.278 228.598 398.529 229.221C395.781 229.843 393.763 231.593 394.023 233.127Z" fill="#FD5E5A"/>
<path fill-rule="evenodd" clip-rule="evenodd" d="M404 218.614C404 218.614 401.269 217.745 399.371 218.074C397.473 218.403 395.873 219.386 396.008 220C396.008 220 397.894 218.768 399.588 218.708C401.279 218.649 402.293 219.635 402.951 219.52C403.607 219.407 404 218.614 404 218.614Z" fill="#1B3753"/>
<path fill-rule="evenodd" clip-rule="evenodd" d="M376.048 200.86C376.048 200.86 379.046 198.193 391.846 199.246C404.644 200.301 410 212 410 212C410 212 401.159 208.341 396.25 209.281C391.341 210.221 379.868 210.525 377.712 209.109C375.556 207.693 376.048 200.86 376.048 200.86Z" fill="#1B3753"/>
<path fill-rule="evenodd" clip-rule="evenodd" d="M257.416 737.63C252.806 733.044 242.052 732.077 241.946 732.068C240.556 731.951 240.768 729.86 242.122 730.007C242.595 730.046 253.739 731.045 258.885 736.167C263.554 740.81 285.233 741.947 287.226 740.168C288.253 739.252 289.616 740.717 288.696 741.632C285.891 744.423 262.686 742.872 257.416 737.63Z" fill="#B880A7"/>
<path fill-rule="evenodd" clip-rule="evenodd" d="M477.052 737C476.861 737 476.669 736.95 476.496 736.843C476.003 736.541 475.852 735.905 476.16 735.419C476.368 735.09 481.371 727.305 489.547 724.806C497.267 722.444 512.587 709.862 514.047 707.497C514.35 707.01 514.993 706.853 515.493 707.151C515.991 707.447 516.149 708.084 515.847 708.572C514.025 711.519 498.079 724.363 490.172 726.781C482.758 729.048 477.993 736.438 477.945 736.514C477.746 736.828 477.404 737 477.052 737Z" fill="#B880A7"/>
<mask id="mask0" mask-type="alpha" maskUnits="userSpaceOnUse" x="0" y="0" width="668" height="756">
<path fill-rule="evenodd" clip-rule="evenodd" d="M0 756H668V0H0V756Z" fill="white"/>
</mask>
<g mask="url(#mask0)">
<path fill-rule="evenodd" clip-rule="evenodd" d="M512 211H579V169H512V211Z" fill="#95B3FF"/>
<path fill-rule="evenodd" clip-rule="evenodd" d="M573 172H520L546.057 197L573 172Z" fill="white"/>
<path fill-rule="evenodd" clip-rule="evenodd" d="M545.975 202.018L516 174V206H576V174.877L545.975 202.018Z" fill="white"/>
<path fill-rule="evenodd" clip-rule="evenodd" d="M495.807 105.791C553.382 124.583 578.278 157.965 545.184 241.205C541.707 249.936 537.841 258.517 533.369 266.773C533.097 267.273 532.346 266.862 532.617 266.361C549.858 225.431 573.91 166.976 543.085 134.888C516.649 107.284 462.936 100.707 468.057 101.494C467.376 101.388 466.91 100.749 467.015 100.064C467.118 99.3791 467.754 98.909 468.434 99.0149C474.919 100.013 485.572 102.456 495.807 105.791Z" fill="#95B3FF"/>
<path fill-rule="evenodd" clip-rule="evenodd" d="M622.056 139.219C624.683 151.083 624.341 158.819 622.837 166.303C622.413 168.397 620.981 172.387 620.995 172.346C608.648 205.798 561.513 248.208 533.65 269.915C533.475 270.053 533.222 270.02 533.087 269.842C532.846 269.529 533.185 269.229 533.162 269.27C556.594 250.775 580.207 227.935 592.883 212.934C606.047 197.891 613.089 185.252 612.34 186.504C622.634 168.987 629.457 151.018 608.776 108.972C593.976 79.0671 572.656 53.6404 572.988 54.0449C572.553 53.5133 572.627 52.7259 573.153 52.2872C573.681 51.847 574.463 51.9214 574.898 52.4515C593.177 74.7208 615.561 110.671 622.056 139.219Z" fill="#95B3FF"/>
<path fill-rule="evenodd" clip-rule="evenodd" d="M437 76H485V46H437V76Z" fill="#95B3FF"/>
<path fill-rule="evenodd" clip-rule="evenodd" d="M481 48H443L461.682 66L481 48Z" fill="white"/>
<path fill-rule="evenodd" clip-rule="evenodd" d="M461.482 71.0135L440 50V74H483V50.6568L461.482 71.0135Z" fill="white"/>
<path fill-rule="evenodd" clip-rule="evenodd" d="M379 130H446V88H379V130Z" fill="#95B3FF"/>
<path fill-rule="evenodd" clip-rule="evenodd" d="M439 91H386L412.057 116L439 91Z" fill="white"/>
<path fill-rule="evenodd" clip-rule="evenodd" d="M412.975 122.018L383 94V126H443V94.8773L412.975 122.018Z" fill="white"/>
<path fill-rule="evenodd" clip-rule="evenodd" d="M507 138H574V96H507V138Z" fill="#95B3FF"/>
<path fill-rule="evenodd" clip-rule="evenodd" d="M567 100H514L540.057 125L567 100Z" fill="white"/>
<path fill-rule="evenodd" clip-rule="evenodd" d="M540.975 131.018L511 103V135H571V103.877L540.975 131.018Z" fill="white"/>
<path fill-rule="evenodd" clip-rule="evenodd" d="M289 173H356V131H289V173Z" fill="#95B3FF"/>
<path fill-rule="evenodd" clip-rule="evenodd" d="M350 135H297L323.057 160L350 135Z" fill="white"/>
<path fill-rule="evenodd" clip-rule="evenodd" d="M321.975 166.018L292 138V170H352V138.877L321.975 166.018Z" fill="white"/>
<path fill-rule="evenodd" clip-rule="evenodd" d="M225 232H292V190H225V232Z" fill="#95B3FF"/>
<path fill-rule="evenodd" clip-rule="evenodd" d="M286 193H233L259.057 218L286 193Z" fill="white"/>
<path fill-rule="evenodd" clip-rule="evenodd" d="M258.975 224.018L229 196V228H289V196.877L258.975 224.018Z" fill="white"/>
<path fill-rule="evenodd" clip-rule="evenodd" d="M228 121H275V92H228V121Z" fill="#95B3FF"/>
<path fill-rule="evenodd" clip-rule="evenodd" d="M271 94H234L252.191 111L271 94Z" fill="white"/>
<path fill-rule="evenodd" clip-rule="evenodd" d="M251.982 116.138L231 96V119H273V96.6311L251.982 116.138Z" fill="white"/>
<path fill-rule="evenodd" clip-rule="evenodd" d="M153 281H200V252H153V281Z" fill="#95B3FF"/>
<path fill-rule="evenodd" clip-rule="evenodd" d="M195 254H158L176.191 271L195 254Z" fill="white"/>
<path fill-rule="evenodd" clip-rule="evenodd" d="M175.983 275.138L155 255V278H197V255.63L175.983 275.138Z" fill="white"/>
<path fill-rule="evenodd" clip-rule="evenodd" d="M45 357H92V328H45V357Z" fill="#95B3FF"/>
<path fill-rule="evenodd" clip-rule="evenodd" d="M88 331H51L69.1907 348L88 331Z" fill="white"/>
<path fill-rule="evenodd" clip-rule="evenodd" d="M68.983 353.138L48 333V356H90V333.63L68.983 353.138Z" fill="white"/>
<path fill-rule="evenodd" clip-rule="evenodd" d="M555 106H631V58H555V106Z" fill="#95B3FF"/>
<path fill-rule="evenodd" clip-rule="evenodd" d="M624 63H565L594.005 90L624 63Z" fill="white"/>
<path fill-rule="evenodd" clip-rule="evenodd" d="M593.972 97.3957L560 65V102H628V66.0159L593.972 97.3957Z" fill="white"/>
<path fill-rule="evenodd" clip-rule="evenodd" d="M536 48H612V0H536V48Z" fill="#95B3FF"/>
<path fill-rule="evenodd" clip-rule="evenodd" d="M605 5H546L575.007 32L605 5Z" fill="white"/>
<path fill-rule="evenodd" clip-rule="evenodd" d="M574.973 38.3957L541 6V43H609V7.01588L574.973 38.3957Z" fill="white"/>
<path fill-rule="evenodd" clip-rule="evenodd" d="M526 263H591V222H526V263Z" fill="#95B3FF"/>
<path fill-rule="evenodd" clip-rule="evenodd" d="M583 226H533L557.581 250L583 226Z" fill="white"/>
<path fill-rule="evenodd" clip-rule="evenodd" d="M558.476 255.143L530 228V259H587V228.851L558.476 255.143Z" fill="white"/>
<path fill-rule="evenodd" clip-rule="evenodd" d="M603 127H668V86H603V127Z" fill="#95B3FF"/>
<path fill-rule="evenodd" clip-rule="evenodd" d="M660 89H610L634.582 113L660 89Z" fill="white"/>
<path fill-rule="evenodd" clip-rule="evenodd" d="M635.476 118.142L607 91V122H664V91.8505L635.476 118.142Z" fill="white"/>
<path fill-rule="evenodd" clip-rule="evenodd" d="M583 193H648V152H583V193Z" fill="#95B3FF"/>
<path fill-rule="evenodd" clip-rule="evenodd" d="M641 156H591L615.582 180L641 156Z" fill="white"/>
<path fill-rule="evenodd" clip-rule="evenodd" d="M615.476 185.142L587 158V189H644V158.85L615.476 185.142Z" fill="white"/>
<path fill-rule="evenodd" clip-rule="evenodd" d="M451 181H521V137H451V181Z" fill="#95B3FF"/>
<path fill-rule="evenodd" clip-rule="evenodd" d="M515 142H460L487.039 167L515 142Z" fill="white"/>
<path fill-rule="evenodd" clip-rule="evenodd" d="M485.975 172.769L455 143V177H517V143.934L485.975 172.769Z" fill="white"/>
<path fill-rule="evenodd" clip-rule="evenodd" d="M380.5 230.051C380.5 230.051 377.928 225.989 377.155 227.239C376.383 228.489 378.677 235.267 379.97 234.992C381.263 234.717 381.217 232.223 380.5 230.051Z" fill="#FD5E5A"/>
</g>
</svg>
