<svg width="611" height="756" viewBox="0 0 611 756" fill="none" xmlns="http://www.w3.org/2000/svg">
<path fill-rule="evenodd" clip-rule="evenodd" d="M16.5412 680.182L-5.80645 668.571C-20.0146 645.818 -31.0335 619.104 -32 590.235C-32 590.235 -10.9457 588.907 12.9059 592.56L27.9535 610.508L29.1539 595.838C40.8357 598.834 52.2156 603.322 61.2348 610.013L62.8643 639.339L72.1763 620.977C73.9421 623.458 75.4507 626.134 76.6588 629.023C95.2519 673.495 109 731.028 109 731.028L62.7822 743C62.7822 743 34.1569 722.176 8.35674 688.837L16.5412 680.182Z" fill="#AD2500"/>
<path fill-rule="evenodd" clip-rule="evenodd" d="M54.9985 724.044C67.6424 726.691 75.6635 724.669 78.4886 723.697C59.2834 708.692 40.7073 688.188 25.5344 669.316C24.851 669.526 24.1707 669.718 23.4935 669.893C10.8853 673.144 -0.351482 670.378 -8.86079 666.388C-9.34274 665.596 -9.82159 664.801 -10.2958 664.001C-1.53699 668.538 10.6962 672.086 24.5209 668.05C20.0919 662.507 15.8086 656.926 11.5966 651.249C0.669757 652.615 -11.4178 648.914 -20.0929 645.303C-20.4059 644.612 -20.7159 643.921 -21.0211 643.227C-12.6234 646.855 -0.360783 650.933 10.5645 649.855C-10.8041 620.897 -25.7291 596.893 -25.8856 596.625L-30 591.435L-25.2812 594.561C-25.0069 595.026 -12.8063 614.455 4.31616 638.55C6.7941 625.657 -3.40436 598.339 -6.28522 591C-5.73198 591.039 -5.17254 591.079 -4.61001 591.124C-1.23325 599.749 8.9962 627.611 5.47997 640.182C16.3463 655.377 29.5155 672.532 43.8145 688.465C46.1901 681.609 29.9665 645.398 36.9277 627.666C41.1753 616.845 39.3204 606.005 37.1446 599.039C37.7304 599.239 38.3162 599.444 38.8973 599.653C40.994 606.867 42.522 617.537 38.3317 628.211C31.3178 646.077 48.8804 683.218 44.8961 689.666C47.6949 692.761 50.5354 695.806 53.4101 698.776C55.482 661.918 55.0249 660.744 50.0597 647.626C47.2052 640.08 44.5072 632.954 48.3721 626.432C51.7256 620.771 50.9182 611.48 49.4723 604.147C50.0566 604.44 50.6346 604.74 51.208 605.046C52.5485 612.413 53.0986 621.407 49.6707 627.195C43.5138 637.582 55.9206 650.081 55.9671 665.667C56.0074 679.778 55.0063 697.351 54.8358 700.244C60.7168 706.253 66.7296 711.943 72.8013 717.116C74.2378 715.098 79.9949 705.595 73.7249 690.342C68.6357 677.957 76.4647 658.497 82.0885 647.158C82.338 647.826 82.5829 648.499 82.8277 649.17C77.4054 660.456 70.4922 678.509 75.1211 689.77C81.8142 706.055 75.5086 716.005 73.9558 718.094C81.2703 724.238 88.6623 729.612 96 733.869L93.9451 734.399C92.6496 733.624 91.3525 732.817 90.057 731.977C84.8097 735.234 75.724 736.567 65.2698 732.338C58.9316 729.772 53.0971 730.726 48.5224 732.629C48.1117 732.276 47.6933 731.912 47.2672 731.54C52.2292 729.322 58.7239 728.066 65.8401 730.945C77.7292 735.756 85.9441 732.47 88.639 731.047C85.7148 729.104 82.7952 727.006 79.8895 724.78C72.8292 727.753 62.4029 727.13 54.6855 725.513C49.7079 724.472 44.9845 724.816 40.8422 725.783C40.4083 725.383 39.9712 724.979 39.5296 724.567C44.0872 723.376 49.384 722.87 54.9985 724.044" fill="#A7CBD3"/>
<path fill-rule="evenodd" clip-rule="evenodd" d="M67 628.705L70.9674 621C72.7432 623.458 74.2604 626.107 75.4738 628.969C94.1739 673.016 108 730 108 730C108 730 78.9849 693.05 67 628.705" fill="#195F6D"/>
<path fill-rule="evenodd" clip-rule="evenodd" d="M250.967 655.387C249.02 655.894 220.951 649.638 181.867 673.377C142.783 697.116 118 729 118 729C118 729 168.804 725.814 211.211 706.947C253.617 688.083 250.967 655.387 250.967 655.387" fill="#004A58"/>
<path fill-rule="evenodd" clip-rule="evenodd" d="M122.073 724.283C144.862 697.849 182.164 666.731 218 658C215.952 681.309 209.829 699.483 192.185 714.265C162.407 724.314 132.673 727.951 122.001 729C121.996 727.542 122.018 725.965 122.073 724.283" fill="#003842"/>
<path fill-rule="evenodd" clip-rule="evenodd" d="M73.764 541.884L96.818 556.27L79.3944 518.285C83.1109 505.455 87.7944 493.22 93.4109 482.223C108.911 451.866 138.816 405 138.816 405C152.737 421.122 163.602 437.452 171.909 453.762L156.925 479.773L179.898 471.331C231.86 600.742 133.058 723.505 133.058 723.505L107.907 730C107.907 730 68.5095 623.908 69.0046 588.126C69.2135 573.084 70.8196 557.338 73.764 541.884" fill="#E0AA1A"/>
<path fill-rule="evenodd" clip-rule="evenodd" d="M69.8542 602.019C69.5416 599.787 69.2987 597.665 69.13 595.676C78.1871 608.869 101.262 640.298 118.878 645.555C119.022 643.961 119.179 642.362 119.346 640.764C102.711 639.078 80.7527 604.672 69 584.029C69.0665 582.151 69.1532 580.263 69.2615 578.37C81.8468 601.041 104.585 636.433 119.675 637.789C121.116 625.344 123.366 613.005 126.763 601.799C129.554 592.6 131.68 580.382 133.293 566.548C117.6 559.94 96.6248 520.097 86.3498 498.743C86.8388 497.519 87.3386 496.304 87.8477 495.1C97.3505 515.043 118.77 556.112 133.646 563.417C134.755 553.248 135.603 542.292 136.242 531.072C120.81 517.296 108.025 482.984 102.494 466.331C103.16 465.144 103.833 463.952 104.514 462.755C109.249 477.289 121.684 512.116 136.459 527.12C139.413 470.949 138.35 410.229 138.319 409.297L138.893 407L139.444 409.192C139.479 410.238 142.939 486.584 138.142 547.42C161.67 549.028 181.486 527.679 191.651 514.039C191.894 515.419 192.123 516.796 192.337 518.172C189.757 521.495 186.684 525.137 183.173 528.758C172.766 539.484 161.929 546.358 151.223 549.121C146.746 550.276 142.291 550.713 137.899 550.412C136.522 566.882 134.585 582.049 131.889 594.041C153.156 595.784 179.59 580.918 194 571.484C193.885 572.785 193.763 574.08 193.629 575.371C183.135 582.119 167.52 590.857 151.769 594.922C144.793 596.722 137.79 597.606 131.194 596.993C130.701 598.988 130.185 600.881 129.645 602.665C115.013 650.917 121.952 720.774 122.639 727.24L119.692 728C119.488 726.161 115.411 688.38 118.618 648.603C101.64 643.99 80.6645 617.256 69.8542 602.019" fill="#CFD5F1"/>
<path fill-rule="evenodd" clip-rule="evenodd" d="M134.049 724.911L110.595 731C110.595 731 103.126 679.114 141.107 633.431L148.977 640.807L146.439 627.391C148.701 624.972 151.102 622.578 153.649 620.218L165.322 635.423L162.794 612.411C171.159 605.828 180.828 599.619 192 594C178.513 668.193 135.664 722.873 134.049 724.911" fill="#6670A4"/>
<path fill-rule="evenodd" clip-rule="evenodd" d="M10.0154 662.373L20.5408 682.81L22.4569 665.714C29.6302 667.934 36.8098 670.696 43.7671 674.121L48.3002 684.459L53.0928 679.211C72.1202 690.714 88.5073 708.007 97 733.902L81.9664 741.499C81.4785 741.625 63.0774 744.473 57.1768 743.932C48.3484 743.12 -33.3618 737.784 -57 657.748C-57 657.748 -25.2297 654.253 10.0154 662.373" fill="#469AA8"/>
<path fill-rule="evenodd" clip-rule="evenodd" d="M82 737.665L80.4637 741C28.1634 728.041 -47.466 664.777 -50.5588 662.062L-55 658L-48.558 659.804C-47.7766 660.489 30.1161 728.427 82 737.665" fill="#A7CBD3"/>
<path fill-rule="evenodd" clip-rule="evenodd" d="M143.642 645.244L150.38 651.502L148.206 640.119C150.145 638.066 152.2 636.033 154.38 634.032L164.373 646.934L162.212 627.407C173.543 618.566 187.672 610.519 205.279 604C205.279 604 215.012 657.677 197.664 686.882C180.315 716.088 142.803 721.49 142.803 721.49L117.508 728C117.508 728 111.123 684.008 143.642 645.244" fill="#E0AA1A"/>
<path fill-rule="evenodd" clip-rule="evenodd" d="M139.847 723.007L136 724C182.154 670.967 202.296 608.137 202.498 607.499L205 605L204.668 608.175C204.468 608.808 184.813 670.144 139.847 723.007" fill="#F3DDA3"/>
<path fill-rule="evenodd" clip-rule="evenodd" d="M117 727.611C117 727.611 137.847 668.875 166.225 643.636C194.606 618.398 252 619.001 252 619.001C252 619.001 246.67 631.033 237.55 647.006L216.221 650.042L231.197 657.705C216.222 681.961 194.427 710.567 170.057 721.165C124.609 740.929 117 727.611 117 727.611" fill="#AD2500"/>
<path fill-rule="evenodd" clip-rule="evenodd" d="M117 728C117.006 727.983 117.264 727.242 118.123 724.956C125.417 716.234 149.169 688.364 171.934 666.039C172.619 659.342 167.6 651.525 163.365 646.238C163.991 645.617 164.62 645.015 165.254 644.428C169.249 649.382 173.987 656.61 174.523 663.521C175.586 662.497 183.325 655.55 186.142 653.351C187.082 646.511 181.997 639.991 177.366 635.595C178.154 635.141 178.953 634.7 179.761 634.269C184.122 638.544 188.678 644.59 188.832 651.3C191.604 649.239 194.404 647.301 197.198 645.491C201.331 639.414 199.877 631.998 197.905 626.811C198.742 626.548 199.58 626.293 200.419 626.047C202.167 630.672 203.492 636.926 201.399 642.855C203.901 641.335 206.381 639.912 208.816 638.586C213.41 629.955 213.682 625.213 213.243 622.875C214.1 622.699 214.952 622.53 215.797 622.371C216.29 625.004 215.998 629.432 212.724 636.515C230.218 627.501 244.361 622.595 244.596 622.531L250 621L244.82 625.554C244.459 625.653 211.23 635.447 183.777 658.581C195.694 656.936 209.875 664.917 218.066 669.527C219.428 670.293 220.891 671.114 222.044 671.707C221.551 672.422 221.055 673.136 220.555 673.849C219.557 673.329 218.333 672.644 216.798 671.779C207.694 666.657 190.855 657.182 179.316 662.52C177.919 663.815 171.086 670.495 169.454 672.134C181.212 670.948 201.286 680.64 211.437 686.061C210.892 686.744 210.342 687.426 209.788 688.103C196.377 680.997 173.911 671.032 165.801 675.836C141.349 700.86 117 728 117 728" fill="#DE9C8C"/>
<path fill-rule="evenodd" clip-rule="evenodd" d="M0 318.011C157.668 148.77 315.334 460.025 473 290.783V237.928C315.334 389.018 157.668 59.6118 0 210.7V318.011Z" fill="#CEDEFF"/>
<path fill-rule="evenodd" clip-rule="evenodd" d="M173 210.209C220.333 230.623 267.667 262.537 315 280V273.329C267.667 255.353 220.333 222.927 173 202V210.209Z" fill="#9173F1"/>
<path fill-rule="evenodd" clip-rule="evenodd" d="M173 224.231C211 239.894 249 262.974 287 280V274.71C249 257.369 211 233.976 173 218V224.231Z" fill="#9173F1"/>
<path fill-rule="evenodd" clip-rule="evenodd" d="M111 261.246C126.333 261.752 141.667 264.627 157 269V190.415C141.667 184.491 126.333 180.059 111 178V261.246Z" fill="white"/>
<path fill-rule="evenodd" clip-rule="evenodd" d="M173 242.346C189.333 248.575 205.667 256.138 222 264V258.062C205.667 250.064 189.333 242.365 173 236V242.346Z" fill="#9173F1"/>
<path fill-rule="evenodd" clip-rule="evenodd" d="M117 250.618C126.999 251.521 137.001 253.398 147 256V195.701C137.001 192.326 126.999 189.677 117 188V250.618Z" fill="#A98FFF"/>
<path fill-rule="evenodd" clip-rule="evenodd" d="M328 335.685C343.333 339.095 358.667 340.724 374 339.694V282.707C358.667 282.172 343.333 278.975 328 274V335.685Z" fill="white"/>
<path fill-rule="evenodd" clip-rule="evenodd" d="M335 328.62C344.999 330.642 354.999 331.85 365 332V288.685C354.999 287.767 344.999 285.79 335 283V328.62Z" fill="#A98FFF"/>
<path fill-rule="evenodd" clip-rule="evenodd" d="M5 229C36.6667 199.916 68.3333 189.959 100 191.234V182.173C68.3333 180.552 36.6667 190.162 5 218.898V229Z" fill="#A98FFF"/>
<path fill-rule="evenodd" clip-rule="evenodd" d="M7 245C38.6667 216.642 70.3333 206.904 102 208.024C102 205.065 102 202.105 102 199.145C70.3333 197.683 38.6667 207.082 7 235.097V245Z" fill="#A98FFF"/>
<path fill-rule="evenodd" clip-rule="evenodd" d="M381 319C385.13 313.402 389.259 307.718 393.389 301.936C392.107 302.137 390.824 302.317 389.542 302.476C385.719 302.961 382.619 300.703 382.619 297.69V291.744C382.619 288.723 385.719 286.195 389.542 285.841C411.72 283.765 433.897 275.554 456.076 258.565C459.9 255.649 463 255.059 463 257.627V262.704C463 265.263 459.9 270.113 456.076 273.161C445.505 281.583 434.934 288.01 424.363 292.73C409.908 304.023 395.454 312.536 381 319" fill="#CDBDFF"/>
<path fill-rule="evenodd" clip-rule="evenodd" d="M176 256.067C176 256.072 174.152 252.708 170.5 251.356C167.244 250.154 165 252.125 165 255.323C165 259.039 168.059 264.382 176 271C183.941 270.163 187 267.25 187 263.633C187 260.533 184.754 256.92 181.498 255.602C177.848 254.131 176 256.068 176 256.067" fill="#A98FFF"/>
<path fill-rule="evenodd" clip-rule="evenodd" d="M327.538 281.371C327.538 281.371 335.031 278.716 341.981 285.654C348.929 292.593 384.217 347.694 384.217 347.694C384.217 347.694 435.038 305.111 438.172 301.981C441.305 298.851 440.624 288.511 441.305 286.471C441.986 284.43 448.253 279.667 449.889 279.667C451.524 279.667 446.756 286.471 446.756 286.471C446.756 286.471 452.479 285.11 454.386 279.667C456.293 274.225 455.338 260.212 457.383 260.212C459.427 260.212 459.29 267.15 459.29 267.15C459.29 267.15 458.473 255.675 461.197 257.127C463.924 258.579 463.241 267.967 463.241 267.967C463.241 267.967 464.059 260.212 465.831 260.212C467.601 260.212 466.647 269.736 466.647 269.736C466.647 269.736 468.146 264.157 469.645 264.157C471.144 264.157 467.601 286.198 464.603 291.096C461.605 295.994 444.439 307.286 444.439 307.286C444.439 307.286 395.118 373 386.942 373C378.768 373 336.53 328.374 329.718 311.504C322.906 294.633 327.538 281.371 327.538 281.371" fill="#FD5E5A"/>
<path fill-rule="evenodd" clip-rule="evenodd" d="M459.335 288.978L446.943 287.217C445.755 287.047 444.904 285.935 445.009 284.688L448.396 244.142C448.507 242.807 449.664 241.841 450.935 242.022L467.057 244.315C468.328 244.495 469.197 245.751 468.961 247.067L461.847 287.083C461.628 288.314 460.523 289.147 459.335 288.978" fill="#111F59"/>
<path fill-rule="evenodd" clip-rule="evenodd" d="M451.897 247L449 277.021L460.397 278L466 249.469L451.897 247Z" fill="#749CFE"/>
<path fill-rule="evenodd" clip-rule="evenodd" d="M436 737C436 747.492 355.188 756 255.499 756C155.814 756 75 747.492 75 737C75 726.508 155.814 718 255.499 718C355.188 718 436 726.508 436 737" fill="#235893"/>
<path fill-rule="evenodd" clip-rule="evenodd" d="M337.414 213C337.414 213 348.642 254.65 348.642 271.995C348.642 289.34 369.141 288.158 367.981 283.997C367.981 283.997 371.332 287.06 369.399 291.834C367.466 296.606 362.31 297.123 362.31 297.123C362.31 297.123 364.63 300.606 362.44 303.83C360.248 307.056 354.836 312.473 346.071 308.732C337.307 304.991 323 278.945 323 278.945L337.414 213Z" fill="#0E1B29"/>
<path fill-rule="evenodd" clip-rule="evenodd" d="M313.179 204.066C313.179 204.066 331.402 206.62 334.356 224.551C337.31 242.482 329.729 276.96 319.289 285.093C308.85 293.225 305.319 318.574 296.405 324.525C287.49 330.479 267.836 330.124 271.274 312.693C271.274 312.693 280.112 316.618 284.597 306.223C284.597 306.223 269.651 312.068 265.696 297.941C261.742 283.813 275.923 285.333 275.923 285.333C275.923 285.333 267.447 292.858 276 292.537C284.552 292.218 290.728 285.827 292.576 276.469C294.421 267.112 279.371 270.385 284.206 253.473C289.041 236.561 307.204 202.29 313.179 204.066" fill="#0E1B29"/>
<path fill-rule="evenodd" clip-rule="evenodd" d="M199.175 693C198.1 694.03 187 724.269 187 724.269L207.41 726L207.425 713.782L211 695.749L199.175 693Z" fill="#FC7575"/>
<path fill-rule="evenodd" clip-rule="evenodd" d="M399 706.504L409.261 727L423 713.094L409.435 696L399 706.504Z" fill="#FC7575"/>
<path fill-rule="evenodd" clip-rule="evenodd" d="M328 444.401C328 444.401 288.256 524.075 279.221 549.635C270.185 575.194 268.029 581.21 249.958 610.557C231.886 639.903 209.217 706 209.217 706H190C190 706 207.084 591.355 231.179 568.633C255.273 545.915 277.688 429 277.688 429L322.243 434.477L328 444.401Z" fill="#45156E"/>
<path fill-rule="evenodd" clip-rule="evenodd" d="M294.02 409C294.02 409 271 432.362 271 447.829C271 463.296 345.566 560.957 345.566 573.694C345.566 586.429 352.136 620.654 360.347 637.028C368.557 653.405 399.93 718 399.93 718L419 701.217C419 701.217 382.511 608.829 382.511 589.724C382.511 570.618 370.383 539.738 360.347 518.813C350.312 497.889 322.704 429.012 322.704 429.012L294.02 409Z" fill="#9070A9"/>
<path fill-rule="evenodd" clip-rule="evenodd" d="M319.84 279.805C319.84 279.805 295.601 276.32 291.186 286.045C286.172 297.085 295.917 314.456 298.165 333.442C302.393 369.152 300.779 393.903 291.186 402.304C277.142 414.599 263 441.827 263 441.827C263 441.827 312.813 454.38 342.406 450.117C342.406 450.117 338.94 425.402 341.475 403.995C344.804 375.85 357 345.514 357 334.918C357 316.264 352.483 313.509 335.786 281.764C333.3 277.038 319.84 279.805 319.84 279.805" fill="#FAC338"/>
<path fill-rule="evenodd" clip-rule="evenodd" d="M341.91 450C328.614 378.234 362.071 353.177 353.916 321.335C351.432 312.029 342.706 298.471 335 282C362.585 325.095 363.505 324.195 352.201 364.222C342.308 397.996 339.447 413.757 341.91 450" fill="#FFF7CF"/>
<path fill-rule="evenodd" clip-rule="evenodd" d="M300.656 398.498C300.656 390.231 319.51 394.352 308.605 383.519C297.7 372.684 311.285 343.735 311.285 328.83C311.285 313.927 290.896 285 290.896 285L288.116 294.497C288.198 305.157 294.807 319.201 296.618 334.264C300.899 369.896 299.265 394.592 289.548 402.975C275.326 415.244 261 442.412 261 442.412C261 442.412 281.035 447.385 303.353 450C309.319 431.38 300.656 406.258 300.656 398.498" fill="#A67076"/>
<path fill-rule="evenodd" clip-rule="evenodd" d="M342.088 247.792C342.088 247.792 333.058 285.264 335.532 287.768C338.327 290.595 343 302 343 302C343 302 322.058 287.731 319 278.275L323.524 241L342.088 247.792Z" fill="#FC7575"/>
<path fill-rule="evenodd" clip-rule="evenodd" d="M323.905 241L343 247.809C343 247.809 342.511 249.84 341.787 253C335.45 252.527 325.672 251.311 323 248.268L323.905 241Z" fill="#FD5E5A"/>
<path fill-rule="evenodd" clip-rule="evenodd" d="M322 213.001L349.752 222C349.752 222 354.973 221.092 353.839 215.249C352.705 209.405 345.214 204.942 338.069 202.888C330.925 200.833 322.496 201.003 322.496 201.003L322 213.001Z" fill="#0E1B29"/>
<path fill-rule="evenodd" clip-rule="evenodd" d="M303.281 429.369C302.249 429.799 301.062 429.313 300.631 428.28C300.201 427.249 300.687 426.063 301.721 425.631C302.752 425.201 303.94 425.689 304.37 426.72C304.801 427.751 304.314 428.939 303.281 429.369M304.806 426.537C304.276 425.264 302.812 424.662 301.539 425.193C300.264 425.725 299.661 427.19 300.194 428.463C300.726 429.736 302.189 430.338 303.464 429.807C304.737 429.275 305.338 427.811 304.806 426.537" fill="black"/>
<path fill-rule="evenodd" clip-rule="evenodd" d="M236.518 464.747C232.936 506.109 268.777 531.222 285.657 511.002C299.414 495.479 303.969 470.434 304.701 449.377C304.953 443.204 305.354 434.388 302.033 428.83L303.456 427C307.304 432.943 307.115 443.337 306.909 449.511C306.31 471.128 301.792 496.662 287.638 512.872C269.097 535.277 229.718 508.843 233.219 464.382L236.518 464.747Z" fill="#853846"/>
<path fill-rule="evenodd" clip-rule="evenodd" d="M294.19 462L287 459.257L301 430L294.19 462Z" fill="black"/>
<path fill-rule="evenodd" clip-rule="evenodd" d="M228.654 411C226.207 414.008 210 457.675 210 457.675C210 457.675 264.568 477.845 284.543 480L302 429.381L228.654 411Z" fill="#B14A5D"/>
<path fill-rule="evenodd" clip-rule="evenodd" d="M215 455C215 455 226.835 423.349 231.749 419L269 426.744L232.442 420.69C232.442 420.69 226.085 427.634 215 455" fill="#D38792"/>
<path fill-rule="evenodd" clip-rule="evenodd" d="M312.978 304.747C312.493 296.525 309.468 291.402 306.135 288.228C301.149 283.478 293.118 284.091 288.592 289.274C272.699 307.475 243.415 361.017 242.112 373.761C240.534 389.181 256.171 446.218 253.014 452.956C249.858 459.692 251.011 474.67 253.162 474.67C255.316 474.67 260.186 475.86 262.195 475.86C264.203 475.86 266.841 477.994 268.348 476.422C268.63 476.127 268.284 473.921 268.312 472.602C270.936 473.788 273.388 477.19 274.286 476.298C275.756 474.836 273.765 473.634 271.679 470.022C269.593 466.412 267.227 455.346 267.227 455.346C266.67 450.11 262.148 378.303 265.959 366.654C269.976 354.38 314.126 324.209 312.978 304.747" fill="#FC7575"/>
<path fill-rule="evenodd" clip-rule="evenodd" d="M329.123 204.003C329.123 204.003 339.14 203.756 342.643 207.905C346.147 212.054 349.01 223.037 352.119 225.152C355.229 227.268 357.607 227.999 357.607 227.999C357.607 227.999 358.531 228.477 356.185 230.309C353.841 232.139 354.887 233.434 356.501 233.115C358.117 232.793 358.562 235.923 357.39 236.528C357.39 236.528 358.491 237.284 358.496 238.897C358.502 240.511 357.308 240.92 357.308 240.92C357.308 240.92 357.228 243.273 358.425 245.021C359.623 246.771 360.183 251.995 347.007 252C347.007 252 327.283 251.254 325.119 246.092C322.956 240.933 310.779 223.033 316.527 214.381C322.275 205.731 329.123 204.003 329.123 204.003" fill="#FC7575"/>
<path fill-rule="evenodd" clip-rule="evenodd" d="M321.359 200.008C323.024 199.682 336.041 208.906 334.933 218.422C333.825 227.938 326.259 225.272 322.439 228.502C318.618 231.732 325.893 241.772 325.995 246.399C326.097 251.029 319.074 279 319.074 279C319.074 279 298.381 226.851 302.557 215.616C306.731 204.381 321.359 200.008 321.359 200.008" fill="#1B3753"/>
<path fill-rule="evenodd" clip-rule="evenodd" d="M323.596 229.068C323.596 229.068 318.724 222.473 317.443 224.329C316.162 226.188 317.518 237.039 323.343 237C329.17 236.963 323.596 229.068 323.596 229.068" fill="#FC7575"/>
<path fill-rule="evenodd" clip-rule="evenodd" d="M325.771 246.357C325.771 246.357 329.48 308.628 307.028 311.729C284.576 314.829 289.312 290.437 293.577 286.23C293.577 286.23 294.95 293.819 299.565 292.301C304.179 290.782 303.018 291.996 299.948 282.283C296.877 272.569 306.106 275.328 311.335 266.359C316.565 257.39 303.33 250.94 303.645 243.123C303.959 235.306 301.681 224 301.681 224L325.771 246.357Z" fill="#1B3753"/>
<path fill-rule="evenodd" clip-rule="evenodd" d="M350 224C350 225.106 349.552 226 349.001 226C348.448 226 348 225.106 348 224C348 222.896 348.448 222 349.001 222C349.552 222 350 222.896 350 224" fill="#1B3753"/>
<path fill-rule="evenodd" clip-rule="evenodd" d="M464 706.72C464 706.72 439.853 728.41 434.852 730.025C429.849 731.638 426.456 738.45 421.813 740.779C417.168 743.11 407 726.228 407 726.228L422.545 709.224C422.545 709.224 426.1 710.812 439.138 707.765C452.178 704.716 462.963 701.612 464 706.72" fill="#E9BBBD"/>
<path fill-rule="evenodd" clip-rule="evenodd" d="M209.345 718.12C209.345 718.12 211.618 720.077 215.194 723.661C219.437 727.915 240.397 740.75 237.774 743.378C235.152 746.008 207.546 745.205 204.996 742.649C202.447 740.093 195.236 736.954 189.847 736.954C184.457 736.954 183 732.132 183 726.73C183 721.325 190.72 713 190.72 713L209.345 718.12Z" fill="#E9BBBD"/>
<path fill-rule="evenodd" clip-rule="evenodd" d="M349.986 218C349.986 218 350.518 221.971 345 226L349.986 218Z" fill="#1B3753"/>
<path fill-rule="evenodd" clip-rule="evenodd" d="M337.023 233.127C337.282 234.662 339.722 235.402 342.471 234.779C345.219 234.157 347.237 232.409 346.977 230.873C346.718 229.338 344.278 228.598 341.529 229.221C338.781 229.843 336.763 231.593 337.023 233.127" fill="#FD5E5A"/>
<path fill-rule="evenodd" clip-rule="evenodd" d="M347 218.614C347 218.614 344.269 217.745 342.371 218.074C340.473 218.403 338.873 219.386 339.008 220C339.008 220 340.894 218.768 342.588 218.708C344.279 218.649 345.293 219.635 345.951 219.52C346.607 219.407 347 218.614 347 218.614" fill="#1B3753"/>
<path fill-rule="evenodd" clip-rule="evenodd" d="M319.048 200.86C319.048 200.86 322.046 198.193 334.846 199.246C347.644 200.301 353 212 353 212C353 212 344.159 208.341 339.25 209.281C334.341 210.221 322.868 210.525 320.712 209.109C318.556 207.693 319.048 200.86 319.048 200.86" fill="#1B3753"/>
<path fill-rule="evenodd" clip-rule="evenodd" d="M200.416 737.63C195.806 733.044 185.052 732.077 184.946 732.068C183.556 731.951 183.768 729.86 185.122 730.007C185.595 730.046 196.739 731.045 201.885 736.167C206.554 740.81 228.233 741.947 230.226 740.168C231.253 739.252 232.616 740.717 231.696 741.632C228.891 744.423 205.686 742.872 200.416 737.63" fill="#B880A7"/>
<path fill-rule="evenodd" clip-rule="evenodd" d="M420.052 737C419.861 737 419.669 736.95 419.496 736.843C419.003 736.541 418.852 735.905 419.16 735.419C419.368 735.09 424.371 727.305 432.547 724.806C440.267 722.444 455.587 709.862 457.047 707.497C457.35 707.01 457.993 706.853 458.493 707.151C458.991 707.447 459.149 708.084 458.847 708.572C457.025 711.519 441.079 724.363 433.172 726.781C425.758 729.048 420.993 736.438 420.945 736.514C420.746 736.828 420.404 737 420.052 737" fill="#B880A7"/>
<mask id="mask0" mask-type="alpha" maskUnits="userSpaceOnUse" x="-57" y="0" width="668" height="756">
<path fill-rule="evenodd" clip-rule="evenodd" d="M-57 756H611V0H-57V756Z" fill="white"/>
</mask>
<g mask="url(#mask0)">
<path fill-rule="evenodd" clip-rule="evenodd" d="M455 211H522V169H455V211Z" fill="#95B3FF"/>
<path fill-rule="evenodd" clip-rule="evenodd" d="M516 172H463L489.057 197L516 172Z" fill="white"/>
<path fill-rule="evenodd" clip-rule="evenodd" d="M488.975 202.018L459 174V206H519V174.877L488.975 202.018Z" fill="white"/>
<path fill-rule="evenodd" clip-rule="evenodd" d="M438.807 105.791C496.382 124.583 521.278 157.965 488.184 241.205C484.707 249.936 480.841 258.517 476.369 266.773C476.097 267.273 475.346 266.862 475.617 266.361C492.858 225.431 516.91 166.976 486.085 134.888C459.649 107.284 405.936 100.707 411.057 101.494C410.376 101.388 409.91 100.749 410.015 100.064C410.118 99.3791 410.754 98.909 411.434 99.0149C417.919 100.013 428.572 102.456 438.807 105.791" fill="#95B3FF"/>
<path fill-rule="evenodd" clip-rule="evenodd" d="M565.056 139.219C567.683 151.083 567.341 158.819 565.837 166.303C565.413 168.397 563.981 172.387 563.995 172.346C551.648 205.798 504.513 248.208 476.65 269.915C476.475 270.053 476.222 270.02 476.087 269.842C475.846 269.529 476.185 269.229 476.162 269.27C499.594 250.775 523.207 227.935 535.883 212.934C549.047 197.891 556.089 185.252 555.34 186.504C565.634 168.987 572.457 151.018 551.776 108.972C536.976 79.0671 515.656 53.6404 515.988 54.0449C515.553 53.5133 515.627 52.7259 516.153 52.2872C516.681 51.847 517.463 51.9214 517.898 52.4515C536.177 74.7208 558.561 110.671 565.056 139.219" fill="#95B3FF"/>
<path fill-rule="evenodd" clip-rule="evenodd" d="M380 76H428V46H380V76Z" fill="#95B3FF"/>
<path fill-rule="evenodd" clip-rule="evenodd" d="M424 48H386L404.682 66L424 48Z" fill="white"/>
<path fill-rule="evenodd" clip-rule="evenodd" d="M404.482 71.0135L383 50V74H426V50.6568L404.482 71.0135Z" fill="white"/>
<path fill-rule="evenodd" clip-rule="evenodd" d="M322 130H389V88H322V130Z" fill="#95B3FF"/>
<path fill-rule="evenodd" clip-rule="evenodd" d="M382 91H329L355.057 116L382 91Z" fill="white"/>
<path fill-rule="evenodd" clip-rule="evenodd" d="M355.975 122.018L326 94V126H386V94.8773L355.975 122.018Z" fill="white"/>
<path fill-rule="evenodd" clip-rule="evenodd" d="M450 138H517V96H450V138Z" fill="#95B3FF"/>
<path fill-rule="evenodd" clip-rule="evenodd" d="M510 100H457L483.057 125L510 100Z" fill="white"/>
<path fill-rule="evenodd" clip-rule="evenodd" d="M483.975 131.018L454 103V135H514V103.877L483.975 131.018Z" fill="white"/>
<path fill-rule="evenodd" clip-rule="evenodd" d="M232 173H299V131H232V173Z" fill="#95B3FF"/>
<path fill-rule="evenodd" clip-rule="evenodd" d="M293 135H240L266.057 160L293 135Z" fill="white"/>
<path fill-rule="evenodd" clip-rule="evenodd" d="M264.975 166.018L235 138V170H295V138.877L264.975 166.018Z" fill="white"/>
<path fill-rule="evenodd" clip-rule="evenodd" d="M168 232H235V190H168V232Z" fill="#95B3FF"/>
<path fill-rule="evenodd" clip-rule="evenodd" d="M229 193H176L202.057 218L229 193Z" fill="white"/>
<path fill-rule="evenodd" clip-rule="evenodd" d="M201.975 224.018L172 196V228H232V196.877L201.975 224.018Z" fill="white"/>
<path fill-rule="evenodd" clip-rule="evenodd" d="M171 121H218V92H171V121Z" fill="#95B3FF"/>
<path fill-rule="evenodd" clip-rule="evenodd" d="M214 94H177L195.191 111L214 94Z" fill="white"/>
<path fill-rule="evenodd" clip-rule="evenodd" d="M194.982 116.138L174 96V119H216V96.6311L194.982 116.138Z" fill="white"/>
<path fill-rule="evenodd" clip-rule="evenodd" d="M96 281H143V252H96V281Z" fill="#95B3FF"/>
<path fill-rule="evenodd" clip-rule="evenodd" d="M138 254H101L119.191 271L138 254Z" fill="white"/>
<path fill-rule="evenodd" clip-rule="evenodd" d="M118.983 275.138L98 255V278H140V255.63L118.983 275.138Z" fill="white"/>
<path fill-rule="evenodd" clip-rule="evenodd" d="M-12 357H35V328H-12V357Z" fill="#95B3FF"/>
<path fill-rule="evenodd" clip-rule="evenodd" d="M31 331H-6L12.1907 348L31 331Z" fill="white"/>
<path fill-rule="evenodd" clip-rule="evenodd" d="M11.983 353.138L-9 333V356H33V333.63L11.983 353.138Z" fill="white"/>
<path fill-rule="evenodd" clip-rule="evenodd" d="M498 106H574V58H498V106Z" fill="#95B3FF"/>
<path fill-rule="evenodd" clip-rule="evenodd" d="M567 63H508L537.005 90L567 63Z" fill="white"/>
<path fill-rule="evenodd" clip-rule="evenodd" d="M536.972 97.3957L503 65V102H571V66.0159L536.972 97.3957Z" fill="white"/>
<path fill-rule="evenodd" clip-rule="evenodd" d="M479 48H555V0H479V48Z" fill="#95B3FF"/>
<path fill-rule="evenodd" clip-rule="evenodd" d="M548 5H489L518.007 32L548 5Z" fill="white"/>
<path fill-rule="evenodd" clip-rule="evenodd" d="M517.973 38.3957L484 6V43H552V7.01588L517.973 38.3957Z" fill="white"/>
<path fill-rule="evenodd" clip-rule="evenodd" d="M469 263H534V222H469V263Z" fill="#95B3FF"/>
<path fill-rule="evenodd" clip-rule="evenodd" d="M526 226H476L500.581 250L526 226Z" fill="white"/>
<path fill-rule="evenodd" clip-rule="evenodd" d="M501.476 255.143L473 228V259H530V228.851L501.476 255.143Z" fill="white"/>
<path fill-rule="evenodd" clip-rule="evenodd" d="M546 127H611V86H546V127Z" fill="#95B3FF"/>
<path fill-rule="evenodd" clip-rule="evenodd" d="M603 89H553L577.582 113L603 89Z" fill="white"/>
<path fill-rule="evenodd" clip-rule="evenodd" d="M578.476 118.142L550 91V122H607V91.8505L578.476 118.142Z" fill="white"/>
<path fill-rule="evenodd" clip-rule="evenodd" d="M526 193H591V152H526V193Z" fill="#95B3FF"/>
<path fill-rule="evenodd" clip-rule="evenodd" d="M584 156H534L558.582 180L584 156Z" fill="white"/>
<path fill-rule="evenodd" clip-rule="evenodd" d="M558.476 185.142L530 158V189H587V158.85L558.476 185.142Z" fill="white"/>
<path fill-rule="evenodd" clip-rule="evenodd" d="M394 181H464V137H394V181Z" fill="#95B3FF"/>
<path fill-rule="evenodd" clip-rule="evenodd" d="M458 142H403L430.039 167L458 142Z" fill="white"/>
<path fill-rule="evenodd" clip-rule="evenodd" d="M428.975 172.769L398 143V177H460V143.934L428.975 172.769Z" fill="white"/>
<path fill-rule="evenodd" clip-rule="evenodd" d="M323.5 230.051C323.5 230.051 320.928 225.989 320.155 227.239C319.383 228.489 321.677 235.267 322.97 234.992C324.263 234.717 324.217 232.223 323.5 230.051" fill="#FD5E5A"/>
</g>
</svg>
