<svg width="414" height="411" viewBox="0 0 414 411" fill="none" xmlns="http://www.w3.org/2000/svg">
<path d="M894.673 380.191C894.673 380.191 963.558 178.34 839.299 170.839C715.04 163.337 413.922 382.528 413.922 399.521C413.922 416.513 877.435 401.046 877.435 401.046L894.673 380.191Z" fill="url(#paint0_linear)"/>
<path d="M940.732 403.44C940.732 407.665 789.54 411.092 603.033 411.092C416.527 411.092 265.335 407.665 265.335 403.44C265.335 399.215 416.527 395.783 603.033 395.783C789.54 395.783 940.732 399.209 940.732 403.44Z" fill="#5DB9F4"/>
<path d="M442.739 307.531V312.913C442.739 316.506 439.366 319.419 435.208 319.419H434.37V325.5C434.37 327.015 432.949 328.243 431.198 328.243H418.775C417.024 328.243 415.604 327.027 415.604 325.5V319.115C412.543 318.288 410.32 315.819 410.32 312.9V307.531H442.739Z" fill="#303030"/>
<path d="M385.105 398.565L419.325 381.374V389.207L394.79 398.565V400.285H385.105V398.565V398.565Z" fill="#001F26"/>
<path d="M388.707 196.119V285.018H438.236L433.827 195.151C433.471 187.747 429.148 181.938 423.807 181.457C423.574 181.457 423.341 181.457 423.103 181.457H399.462C393.527 181.378 388.707 187.96 388.707 196.119Z" fill="#0089A9"/>
<path d="M408.829 183.375C409.068 183.375 409.308 183.375 409.534 183.375C414.886 183.856 419.214 189.665 419.564 197.069L423.855 285.018H438.236L433.823 195.151C433.467 187.747 429.139 181.938 423.793 181.457C423.56 181.457 423.328 181.457 423.088 181.457H399.425C397.486 181.483 395.612 182.161 394.11 183.381L408.829 183.375Z" fill="#75E0F9"/>
<path d="M395.13 181.457H403.116C399.258 181.457 395.558 183.01 392.832 185.773C390.107 188.536 388.58 192.283 388.588 196.187V285.018H380.603V196.187C380.595 192.283 382.122 188.536 384.847 185.773C387.572 183.01 391.272 181.457 395.13 181.457V181.457Z" fill="#004555"/>
<path d="M413.609 150.839H413.505C413.193 150.771 412.985 150.477 413.027 150.161C420.601 107.119 458.906 107.613 459.28 107.613C459.601 107.636 459.85 107.903 459.849 108.223C459.85 108.382 459.784 108.533 459.667 108.641C459.551 108.748 459.395 108.803 459.237 108.791C458.857 108.791 421.568 108.339 414.172 150.375C414.107 150.636 413.879 150.825 413.609 150.839V150.839Z" fill="#3C4875"/>
<path d="M391.409 309.332H480.561C480.563 305.033 478.866 300.911 475.843 297.87C472.821 294.83 468.721 293.122 464.446 293.122H407.518C403.244 293.124 399.146 294.833 396.125 297.873C393.104 300.913 391.407 305.035 391.409 309.332H391.409Z" fill="#004555"/>
<path d="M410.32 309.332H499.472C499.474 305.033 497.777 300.911 494.754 297.87C491.732 294.83 487.632 293.122 483.357 293.122H426.435C422.16 293.122 418.06 294.83 415.038 297.87C412.016 300.911 410.318 305.033 410.32 309.332H410.32Z" fill="#0089A9"/>
<path d="M492.989 284.306L443.762 273.311L410.661 278.462C410.661 278.462 406.379 292.321 413.72 297.88C416.626 300.069 478.968 303.511 478.968 303.511C478.968 303.511 488.486 349.164 490.658 364.264C494.585 363.802 500.941 362.701 504.832 362.44C505.572 347.145 496.769 285.382 492.989 284.306Z" fill="#7F71A4"/>
<path d="M452.37 177.457C455.107 177.934 461.527 188.918 463.013 192.739C463.313 193.503 467.542 207.623 463.54 212.36C459.539 217.097 453.855 230.698 450.737 237.171C449.264 240.227 440.162 253.064 451.67 259.941C454.561 261.676 459.422 261.065 457.918 263.553C456.415 266.041 424.032 284.648 410.659 280.925C397.285 277.202 408.032 272.685 409.284 269.311C410.536 265.937 403.655 265.136 406.528 261.297C409.4 257.459 420.098 248.1 426.168 227.47C426.782 225.441 428.317 186.938 430.594 180.856C432.103 176.791 446.226 176.394 452.37 177.457Z" fill="#F15900"/>
<path fill-rule="evenodd" clip-rule="evenodd" d="M386.61 309.332L367.157 262.97C366.936 261.702 367.308 260.403 368.169 259.439C369.029 258.474 370.286 257.947 371.585 258.006L423.806 260.707C428.742 260.883 433.326 263.278 436.256 267.212C439.129 271.194 439.906 276.295 438.348 280.938L427.756 309.235L386.61 309.332ZM423.941 268.498L374.94 265.974L390.934 302.827H420.985L430.866 278.499C431.616 276.241 431.26 273.766 429.902 271.805C428.544 269.844 426.341 268.621 423.941 268.498Z" fill="#1E1E1E"/>
<path d="M450.659 236.114C432.046 233.835 427.77 237.609 427.77 230.373C427.77 220.57 441.793 192.84 437.85 183.08C437.296 181.708 434.32 177.824 431.11 180.679C420.149 190.426 407.284 234.031 415.774 245.8C420.919 252.932 442.225 248.974 458.238 247.111C458.416 244.379 461.633 239.71 462.551 237.21C459.846 236.867 454.523 236.586 450.659 236.114Z" fill="#F47A33"/>
<path d="M-399.256 394.981C-399.256 394.981 -281.248 205.309 -64.4369 161.638C50.7224 138.445 99.4705 42.2477 187.53 27.6908C275.589 13.134 304.266 142.833 319.595 242.32C334.923 341.807 311.319 398.484 311.319 398.484L-399.256 394.981Z" fill="#FCD4E7"/>
<path d="M337.377 400.304C337.377 405.783 155.741 410.191 -68.3145 410.191C-292.37 410.191 -474 405.734 -474 400.304C-474 394.873 -292.364 390.38 -68.2839 390.38C155.796 390.38 337.377 394.824 337.377 400.304Z" fill="#5DB9F4"/>
<path d="M324.319 0L324.319 247.646L81.1764 247.646L81.1764 0L324.319 0Z" fill="#5A4496"/>
<rect x="85.2288" y="4.05243" width="234.138" height="238.64" fill="#D9CCFF"/>
<path d="M213.104 71.5921H168.978L207.793 92.3043C211.168 85.8988 212.986 78.8083 213.104 71.5921Z" fill="#B098EE"/>
<path d="M118.549 71.5921C118.847 88.4185 127.993 103.832 142.594 112.116L164.476 71.5921H118.549Z" fill="#B098EE"/>
<path d="M166.276 72.4926V118.42C183.107 118.122 198.523 108.973 206.8 94.3693L166.276 72.4926Z" fill="#B098EE"/>
<path d="M118.549 69.791H162.675L123.892 49.0789C120.505 55.4815 118.676 62.5722 118.549 69.791H118.549Z" fill="#B098EE"/>
<path d="M188.156 30.1677L166.276 70.6915H212.203C211.91 53.8622 202.762 38.4456 188.156 30.1677Z" fill="#FFBA00"/>
<path d="M164.475 69.791V23.864C147.649 24.1501 132.232 33.2945 123.951 47.9002L164.475 69.791Z" fill="#B098EE"/>
<path d="M167.177 22.0629V66.1888L187.889 27.3891C181.484 24.0103 174.394 22.1871 167.177 22.0629V22.0629Z" fill="#FFF7CF"/>
<path d="M164.475 74.2937L143.763 113.098C150.169 116.474 157.259 118.295 164.475 118.42V74.2937Z" fill="#B098EE"/>
<rect x="124.852" y="185.959" width="9.90583" height="38.7228" fill="#B098EE"/>
<rect x="143.763" y="178.755" width="9.90583" height="45.927" fill="#B098EE"/>
<rect x="161.774" y="172.451" width="9.90583" height="53.1312" fill="#B098EE"/>
<rect x="180.685" y="165.247" width="9.90583" height="60.3355" fill="#B098EE"/>
<rect x="199.596" y="158.043" width="9.90583" height="67.5397" fill="#B098EE"/>
<rect x="218.507" y="150.839" width="9.90583" height="74.7439" fill="#B098EE"/>
<rect x="236.518" y="143.635" width="9.90583" height="81.0477" fill="#B098EE"/>
<rect x="255.429" y="136.43" width="9.90583" height="88.2519" fill="#B098EE"/>
<rect x="274.34" y="130.126" width="9.90583" height="95.4561" fill="#B098EE"/>
<rect x="293.251" y="122.922" width="9.90583" height="102.66" fill="#B098EE"/>
<path d="M305.859 82.3985V82.3985C304.941 82.5642 280.214 86.983 279.315 86.983L287.761 89.2844L262.429 98.932C261.108 104.732 260.166 108.85 259.42 112.115L241.39 110.427L217.538 131.944L198.86 129.556L164.287 159.119L148.165 153.657L113.145 178.034L114.888 180.556L148.642 157.057L164.953 162.58L199.814 132.778L218.541 135.166L242.43 113.606L261.793 115.447L265.047 101.178L289.089 90.1313L287.223 98.4226L305.859 82.3985Z" fill="#CD3179"/>
<path d="M166.378 135.198L169.82 132.893C169.82 132.893 160.841 118.249 161.786 105.622C162.274 98.9652 151.281 89.1455 148.333 90.6595C148.154 90.5921 138.557 90.8741 137.704 112.634L135.659 138.122L145.985 147.237C145.985 147.237 152.523 136.117 160.816 141.003C169.109 145.888 171.68 145.741 171.68 145.741C171.68 145.741 166.378 137.546 166.378 135.198Z" fill="#002B32"/>
<path d="M158.406 133.817C158.406 133.817 149.267 129.33 141.962 134.186L142.651 139.546L150.184 155.341L157.39 153.747L160.873 137.079L158.406 133.817Z" fill="#411026"/>
<path d="M117.648 299.426C117.648 299.426 150.324 286.613 180.685 299.048L166.713 178.755L139.984 184.802L117.648 299.426Z" fill="#411026"/>
<path d="M195.268 396.266C193.597 391.781 192.594 385.052 190.461 375.974C190.214 374.909 189.86 373.384 189.469 371.526C186.717 371.169 183.893 372.537 181.586 373.783C182.493 376.24 183.713 379.17 183.779 380.235C183.941 382.801 183.178 383.037 183.178 383.037C183.178 387.467 184.554 392.211 185.461 393.131C186.663 394.305 187.937 400.139 189.067 400.139C190.196 400.139 199.582 401.186 199.582 401.186C199.822 399.025 196.938 400.726 195.268 396.266Z" fill="#FD5E5A"/>
<path d="M146.299 393.42C145.809 391.895 145.319 385.24 144.931 376.496C142.494 376.46 139.764 375.619 137.166 376.142C137.363 377.342 137.817 379.418 137.817 379.742C137.817 382.917 136.282 381.735 135.72 384.015C135.344 385.528 136.813 388.409 136.813 388.409C138.97 388.409 139.878 396.132 140.929 398.377C141.526 399.673 144.298 400.285 147.451 400.285C149.906 400.285 149.494 399.643 147.672 396.492C147.106 395.521 146.645 394.491 146.299 393.42Z" fill="#FC7575"/>
<path d="M179.097 299.008C178.785 297.643 170.004 223.086 166.721 195.577L149.024 194.965L139.261 235.638L162.553 309.294C161.76 316.097 162.065 321.589 164.213 330.889C165.983 338.567 173.257 364.234 177.638 375.971C179.975 374.704 187.146 372.199 189.69 371.312C179.713 309.741 182.429 313.403 179.097 299.008Z" fill="#730033"/>
<path d="M146.915 306.167L161.774 222.656L160.014 194.064H145.479C145.479 194.064 130.883 209.812 127.619 229.756C124.355 249.7 130.412 306.522 130.412 306.522C129.988 310.98 129.29 315.408 128.322 319.781C126.8 326.178 129.495 366.261 131.231 376.872C133.872 376.346 141.928 375.918 144.421 375.954C143.474 354.665 143.083 321.212 144.519 317.738C145.454 315.457 146.292 310.656 146.915 306.167Z" fill="#990044"/>
<path d="M167.177 198.567L142.863 198.001L145.88 194.064H167.177V198.567V198.567Z" fill="#3A1425"/>
<path d="M197.619 136.383C197.959 134.185 197.813 132.663 197.128 131.981C196.443 131.299 196.782 130.898 196.145 130.258C195.509 129.619 194.029 130.198 193.841 128.53C193.653 126.861 194.108 117.298 192.938 117.523C191.767 117.748 191.628 130.404 191.161 130.879C190.694 131.354 189.833 131.866 189.536 129.893C189.238 127.921 190.748 126.971 190.142 126.368C189.536 125.766 187.795 127.805 187.65 128.53C187.65 128.53 186.14 135.055 187.65 139.457C188.71 142.396 189.355 145.47 189.566 148.588V148.588C189.784 154.999 188.959 161.567 186.976 171.575C186.54 173.797 184.551 173.231 183.374 172.574L177.983 180.968C181.743 185.467 186.77 188.03 189.16 187.738C195.296 186.989 194.496 149.501 194.496 149.501C194.496 149.039 194.496 149.307 194.46 148.588V148.588C194.375 146.318 194.302 144.23 194.302 143.949C194.29 142.263 197.273 138.586 197.619 136.383Z" fill="#FD5E5A"/>
<path d="M195.332 130.189C195.332 130.189 189.639 135.75 190.73 136.862C191.82 137.974 196.398 132.03 196.398 132.03C196.398 132.03 191.321 137.22 192.221 138.116C193.12 139.012 197.501 134.637 197.501 134.637C197.501 134.637 192.88 138.622 193.706 139.086C194.531 139.549 197.501 136.355 197.501 136.355C197.726 135.745 197.818 135.094 197.772 134.446C197.612 133.729 197.871 133.433 197.772 132.988C197.545 132.478 197.225 132.015 196.829 131.623C196.546 131.388 196.447 129.794 195.332 130.189Z" fill="#FC7575"/>
<path d="M182.813 171.188C183.28 170.044 183.965 168.675 182.495 167.672C180.484 166.296 180.559 167.292 180.559 164.247C180.559 161.397 179.78 160.982 177.551 160.284L177.315 159.502C174.525 150.127 165.976 135.86 163.317 134.747C160.658 133.634 159.973 140.74 159.973 140.74C159.973 140.74 177.109 183.394 177.757 184.158L183.292 172.478L182.869 171.255L182.813 171.188Z" fill="#571A35"/>
<path d="M138.223 389.987L138.36 400.256L137.165 400.285L135.659 388.579L138.223 389.987V389.987Z" fill="#1D1B22"/>
<path d="M162.722 134.783C162.722 134.783 157.44 130.637 139.644 134.421C138.773 134.605 137.46 155.35 137.46 155.35C137.46 155.35 143.39 187.789 141.695 196.374C141.695 196.374 154.215 206.909 169.039 199.569C169.039 199.569 167.224 172.532 168.567 166.517C169.911 160.501 172.64 155.049 168.846 148.789C165.052 142.528 162.722 134.783 162.722 134.783Z" fill="#7F71A4"/>
<path d="M170.779 198.642C170.523 199.095 170.215 199.513 169.861 199.886C169.286 200.49 164.475 202.169 164.475 202.169L167.346 200.406C167.346 200.406 170.779 198.129 170.779 198.642Z" fill="#FD5E5A"/>
<path d="M136.78 381.374C137.777 387.158 141.761 398.551 144.082 398.557C147.218 398.557 147.406 398.407 147.387 396.392C149.269 399.532 151.471 401.177 148.893 401.177C145.581 401.177 140.412 401.362 139.778 400.07C138.674 397.833 138.072 389.37 135.801 389.376L136.51 399.789L135.306 399.819C135.306 399.819 133.524 385.465 133.913 384.048C134.453 382.05 136.14 381.709 136.78 381.374Z" fill="#393644"/>
<path d="M196.651 397.781C198.884 399.881 202.491 399.434 202.29 401.186C202.29 401.186 189.919 400.653 188.79 400.653C187.661 400.653 186.697 393.678 185.507 392.49C184.317 391.301 185.055 400.653 185.055 400.653H183.834C183.834 400.653 183.023 391.014 181.894 387.266C180.99 384.283 182.272 383.034 183.188 382.275C186.898 389.403 187.295 399.453 196.651 397.781Z" fill="#393644"/>
<path d="M299.555 157.142C299.555 157.142 296.793 173.483 288.112 184.54C281.627 192.772 268.036 201.95 268.036 201.95L275.72 210.274L296.915 192.956L299.555 157.142Z" fill="#363A68"/>
<path d="M311.156 141.833H328.372L327.811 197.063L304.958 198.567L311.156 141.833V141.833Z" fill="#260E0D"/>
<path d="M291.753 405.497C282.215 405.497 282.445 409.291 282.445 409.291H310.361C310.361 409.291 308.968 397.641 308.761 394.882H302.205C301.478 398.257 299.072 405.497 291.753 405.497Z" fill="#260E0D"/>
<path d="M338.874 406.305C330.189 406.305 328.413 395.867 328.164 393.982H321.891C321.891 394.497 321.891 394.817 321.891 394.896C321.891 396.192 320.267 410.191 320.267 410.191H348.183C348.183 410.191 348.413 406.305 338.874 406.305Z" fill="#260E0D"/>
<path d="M336.484 332.122L345.482 257.54L342.943 235.489H293.396L293.047 254.943L287.848 330.725C287.848 330.725 300.767 393.816 300.541 394.864H309.894C309.894 394.637 307.251 325.678 307.251 325.678L317.937 264.253L322.115 328.729C322.115 328.729 320.219 386.852 320.188 394.882H328.985C328.985 394.662 336.484 332.122 336.484 332.122Z" fill="#2F1954"/>
<path d="M342.78 238.321L342.453 235.489H293.294L293.251 237.968L303.569 241.35C311.931 244.107 320.943 244.328 329.435 241.983L342.78 238.321Z" fill="#0E0E0E"/>
<path d="M345.985 156.2C340.626 150.267 328.235 140.797 314.572 143.083L300.301 149.335L296.104 179.726L292.351 237.614L343.248 238.19L348.114 181.841C348.114 181.841 351.356 162.134 345.985 156.2Z" fill="#F1A97E"/>
<path d="M312.66 129.624C312.66 129.624 312.514 141.323 311.363 147.281C310.918 149.581 311.972 151.941 314.018 152.792C315.896 153.551 317.959 153.738 319.944 153.329C326.358 152.122 326.571 145.15 326.571 145.15L324.427 123.823L312.66 129.624Z" fill="#FC7575"/>
<path d="M325.066 123.823L313.413 129.798C313.413 129.798 313.359 134.249 313.063 139.123C316.083 139.272 319.925 137.538 323.979 132.284C324.583 131.507 325.145 130.73 325.67 129.972L325.066 123.823Z" fill="#FD5E5A"/>
<path d="M313.958 99.0446C311.292 101.495 309.31 104.608 308.209 108.072C306.471 113.729 304.958 117.816 304.958 117.816L306.781 119.042C306.781 119.042 305.31 126.936 306.453 129.632C308.191 133.72 315.514 137.029 323.808 127.824C332.103 118.619 332.808 110.505 331.399 106.534C329.989 102.562 317.209 97.0038 313.958 99.0446Z" fill="#FC7575"/>
<path d="M326.163 107.806C323.665 105.752 320.346 105.039 317.242 105.889C311.977 107.329 310.2 105.108 311.218 103.972C311.218 103.972 306.591 104.095 304.875 99.8952C303.158 95.6959 303.58 83.0003 311.754 85.3991C319.928 87.7978 318.272 93.5474 318.272 93.5474C318.272 93.5474 320.892 90.7886 323.362 92.229C325.831 93.6695 325.512 95.702 325.512 95.702C325.512 95.702 327.771 100.377 330.891 100.976C334.012 101.574 333.686 108.526 333.686 108.526C333.686 108.526 335.494 109.966 334.223 114.996C332.952 120.025 325.325 127.734 325.325 130.127C325.325 130.127 323.47 127.075 324.976 122.192C326.482 117.309 326.482 114.404 324.868 114.404C323.253 114.404 326.163 107.806 326.163 107.806Z" fill="#121841"/>
<path d="M324.098 118.23C324.098 118.23 324.574 113.917 325.635 113.917C326.697 113.917 327.687 114.388 327.43 116.828C327.173 119.268 326.079 121.982 324.694 120.861C324.313 120.606 324.036 120.185 323.923 119.69C323.811 119.196 323.874 118.67 324.098 118.23V118.23Z" fill="#FC7575"/>
<path d="M338.081 108.876C337.968 108.458 337.716 108.107 337.379 107.899C336.312 107.327 334.878 108.573 333.94 109.414L333.775 109.179C334.389 108.287 335.156 107.547 336.028 107.004C336.603 106.661 337.28 106.619 337.884 106.889C338.488 107.159 338.96 107.714 339.178 108.411L338.081 108.876Z" fill="#121841"/>
<path d="M337.87 113.612C337.973 112.976 337.961 112.325 337.835 111.694C337.17 108.594 333.936 108.862 333.775 108.771V108.576C333.867 108.619 338.454 107.578 339.114 112.589C339.18 113.028 339.195 113.474 339.16 113.917L337.87 113.612Z" fill="#121841"/>
<path d="M313.063 112.116C313.063 113.118 312.659 113.917 312.159 113.917C311.659 113.917 311.262 113.106 311.262 112.116C311.262 111.125 311.665 110.315 312.159 110.315C312.653 110.315 313.063 111.113 313.063 112.116Z" fill="#2F499F"/>
<path d="M314.741 110.315C313.641 109.11 312.031 108.834 310.689 109.62L310.361 108.112C311.857 107.216 313.666 107.548 314.864 108.939L314.741 110.315Z" fill="#2F499F"/>
<path d="M309.461 143.635L305.594 255.3H281.544L288.621 204.602L293.275 173.762C293.275 173.762 295.53 153.052 300.426 149.324C303.252 147.156 306.276 145.252 309.461 143.635Z" fill="#555DA2"/>
<path d="M325.141 116.034C325.141 116.034 325.695 114.659 326.19 114.833C326.684 115.007 326.797 117.8 325.92 118.965C325.043 120.13 324.294 118.238 325.141 116.034Z" fill="#FD5E5A"/>
<path d="M328.13 143.635L325.67 256.201H350.73C350.73 256.201 351.67 166.982 348.921 157.656C346.172 148.331 328.13 143.635 328.13 143.635Z" fill="#555DA2"/>
<path d="M300.455 148.136L311.262 141.833L307.78 197.666L301.845 166.109L303.937 164.675L300.455 148.136V148.136Z" fill="#777EB5"/>
<path d="M326.571 197.666L327.535 141.833L337.377 146.138L332.014 164.324L333.373 165.351L326.571 197.666V197.666Z" fill="#777EB5"/>
<path d="M282.668 212.975L247.324 186.64L284.754 183.258L313.063 212.975H282.668V212.975Z" fill="#1E3340"/>
<path d="M301.503 202.169C301.503 202.169 305.374 203.003 306.803 204.474C308.658 206.363 312.987 209.425 314.786 209.425C316.586 209.425 324.372 210.158 324.372 210.158L325.67 218.378C325.67 218.378 296.723 211.992 295.369 210.586C294.014 209.181 302.171 211.629 302.171 211.003C302.171 210.378 292.351 209.675 292.858 208.096C293.365 206.518 301.917 210.223 302.678 209.437C303.439 208.65 292.351 207.352 292.351 205.678C292.351 204.004 303.389 208.096 303.389 208.096C303.389 208.096 303.587 207.244 300.6 205.886C297.613 204.528 294.719 203.438 295.381 202.753C296.043 202.068 303.68 206.399 304.657 205.362L301.503 202.169Z" fill="#FC7575"/>
<path d="M342.359 155.142C342.359 155.142 338.161 162.751 339 173.719C339.838 184.687 341.268 201.502 338.92 206.983C336.571 212.463 319.367 206.983 319.367 206.983V219.963C319.367 219.963 344.307 230.013 351.532 226.722C358.756 223.431 358.072 195.104 358.072 181.212C358.072 167.321 346.964 145.165 342.359 155.142Z" fill="#777EB5"/>
<path d="M341.88 155.341C339.85 159.779 338.515 166.353 338.938 173.191C339.699 183.463 342.103 205.762 337.73 209.147C333.501 211.8 323.927 209.147 319.367 207.523C323.843 208.753 336.504 211.708 338.147 207.326C339.548 203.817 339.355 195.336 339.192 191.563C338.678 175.271 336.721 169.522 340.098 159.558C340.566 158.1 341.162 156.689 341.88 155.341V155.341Z" fill="#EEF1F9"/>
<path d="M308.56 125.577L308.88 127.425C311.341 127.102 313.528 125.786 314.864 123.823C312.488 126.049 308.56 125.577 308.56 125.577Z" fill="#2B3278"/>
<path d="M272.155 201.257C271.639 202.031 271.217 202.869 270.898 203.752C270.153 205.592 272.227 207.494 272.638 207.881C273.575 208.752 274.591 209.525 275.671 210.189C276.366 210.644 277.13 210.973 277.93 211.162C279.157 211.442 281.904 206.871 281.505 206.428C281.249 206.135 280.909 205.904 280.659 205.997C280.409 206.091 277.304 208.592 277.304 208.592C277.304 208.592 280.057 204.993 279.747 203.92C279.437 202.848 278.841 202.985 278.603 203.253C278.365 203.521 274.861 206.908 274.861 206.908C274.861 206.908 277.244 202.604 277.012 201.918C276.78 201.232 275.856 200.733 274.777 202.461C274.112 203.376 273.374 204.231 272.573 205.018C272.573 205.018 273.901 201.775 273.592 200.727C273.282 199.679 272.155 201.257 272.155 201.257Z" fill="#FC7575"/>
<path d="M142.247 133.729C142.247 133.729 154.202 250.743 141.57 284.782C134.191 304.64 126.977 306.238 122.236 304.121C118.799 302.489 116.651 299.007 116.751 295.229C116.88 282.287 117.98 240.503 126.664 211.429C137.192 176.159 132.051 171.786 132.051 165.943C132.051 155.844 133.631 141.182 136.03 135.449C136.356 134.65 142.247 133.729 142.247 133.729Z" fill="#733953"/>
<path d="M150.136 132.837C152.139 132.8 154.385 133.325 158.089 133.733C158.435 133.77 158.696 133.538 159.072 133.581C155.223 129.878 140.616 127.914 139.772 134.191C134.017 177.092 148.102 257.452 142.201 285.018C155.782 257.342 152.971 182.142 144.951 139.113C144.222 135.362 146.323 132.904 150.136 132.837Z" fill="#AB99A1"/>
<path d="M159.072 133.729C167.338 143.067 170.747 295.859 181.585 299.426C181.585 299.426 180.975 254.791 180.975 243.571C180.975 232.351 176.05 158.141 173.692 151.912C171.334 145.682 163.917 135.188 163.917 135.188L159.072 133.729Z" fill="#733953"/>
<path d="M158.494 133.39C158.13 133.065 157.16 132.686 157.282 132.882C161.98 143.007 164.211 235.084 175.282 282.316C173.754 262.689 167.916 143.295 158.494 133.39Z" fill="#AB99A1"/>
<path d="M156.371 206.402L157.079 205.895C157.079 205.895 160.028 205.926 161.262 205.319C162.496 204.712 164.018 204.731 163.454 205.319C162.891 205.907 160.097 206.54 160.661 208.061C161.225 209.582 156.371 206.402 156.371 206.402Z" fill="#FC7575"/>
<path d="M166.033 207.705C165.523 208.023 164.438 208.152 163.31 208.543C162.182 208.935 168.416 206.163 168.416 205.251C168.416 204.34 163.195 207.13 161.672 207.784C159.944 208.525 157.197 207.228 156.475 206.402C156.475 206.402 134.959 199.121 129.241 195.034C128.731 194.666 127.421 192.788 127.567 191.362C123.89 191.594 120.298 192.576 117.009 194.25C117.045 196.526 116.402 199.304 117.009 200.424C120.738 207.35 145.026 209.95 150.132 209.95C155.238 209.95 160.235 211.174 161.654 211.174C163.073 211.174 169.677 207.503 169.871 205.82C170.053 204.242 166.688 207.301 166.033 207.705Z" fill="#FC7575"/>
<path d="M129.775 171.995C133.467 167.761 134.752 156.499 134.752 148.587C134.811 144.204 134.409 139.827 133.551 135.531C133.551 135.531 125.35 135.202 120.786 144.115C115.983 153.467 109.51 163.082 115.659 193.164C118.895 191.395 123.812 191.199 127.451 190.864C128.268 183.323 126.658 175.588 129.775 171.995Z" fill="#AD3369"/>
<path d="M115.279 190.888C115.279 190.888 114.53 193.217 115.279 193.975C116.027 194.734 115.115 196.476 115.614 197.448C116.113 198.42 124.248 195.89 128.1 194.823C131.952 193.756 129.56 192.452 129.098 191.072C128.635 189.691 129.165 188.968 128.276 188.061C127.388 187.154 115.954 188.357 115.279 190.888Z" fill="#CE85A5"/>
<path d="M115.847 194.965C118.739 193.786 124.188 191.875 127.248 192.333C127.728 192.4 127.608 193.188 127.128 193.084C127.05 193.084 125.532 192.583 121.464 193.432C119.564 193.831 117.688 194.343 115.847 194.965H115.847Z" fill="#DEADC3"/>
<path d="M156.187 118.931C156.606 119.343 154.892 131.179 156.587 134.461C156.587 134.461 161.046 151.414 158.019 151.734C155.386 152.043 145.512 137.252 144.999 134.915C144.292 131.773 144.924 116.618 144.924 116.618L156.187 118.931Z" fill="#FC7575"/>
<path d="M155.248 123.891C151.448 127.522 147.537 125.001 144.664 120.453C144.729 118.157 144.664 115.849 144.664 115.718L155.395 118.837C155.572 119.018 155.401 121.177 155.248 123.891Z" fill="#FD5E5A"/>
<path d="M155.125 91.6147C155.125 91.6147 160.2 92.5501 160.805 96.7622C161.41 100.974 162.258 104.486 161.429 109.405C160.599 114.323 157.563 120.87 152.601 121.926C147.638 122.982 142.444 115.023 142.444 110.69C142.444 106.357 140.636 99.1036 144.022 94.6561C147.407 90.2086 155.125 91.6147 155.125 91.6147Z" fill="#FC7575"/>
<path d="M149.166 114.818C151.71 116.176 155.47 116.205 155.47 116.205C155.266 116.672 155.023 117.112 154.747 117.519C153.038 117.432 151.347 117.066 149.718 116.43C149.495 115.913 149.311 115.374 149.166 114.818H149.166Z" fill="white"/>
<path d="M149.166 115.718C150.917 116.347 152.734 116.709 154.57 116.795C152.639 119.392 150.587 118.761 149.166 115.718Z" fill="#2E0A29"/>
<path d="M155.421 89.9791C155.421 89.9791 160.2 92.7461 160.807 97.0285C161.359 100.912 162.11 104.207 161.609 108.514C160.501 107.807 159.294 107.259 158.026 106.888C153.529 105.434 148.85 99.0286 148.299 93.6418C147.698 87.8685 155.421 89.9791 155.421 89.9791Z" fill="#FD5E5A"/>
<path d="M154.299 111.583C154.158 110.264 154.088 108.939 154.09 107.613C154.324 108.985 154.485 110.367 154.57 111.755C153.837 111.95 152.963 112.346 151.868 111.938C152.697 112.039 153.538 111.916 154.299 111.583V111.583Z" fill="#172866"/>
<path d="M151.868 107.442C151.601 106.675 150.933 106.08 150.089 105.859C148.511 105.478 147.544 107.568 146.465 107.546C147.242 107.91 148.487 106.691 149.335 106.381C149.782 106.242 150.272 106.296 150.67 106.528C151.13 106.759 151.536 107.07 151.868 107.442V107.442Z" fill="#172866"/>
<path d="M149.169 106.823C149.228 107.303 149.657 107.651 150.141 107.61C150.624 107.569 150.989 107.155 150.967 106.671C150.944 106.188 150.543 105.808 150.058 105.812C149.805 105.828 149.57 105.944 149.403 106.133C149.236 106.323 149.152 106.571 149.169 106.823V106.823Z" fill="#172866"/>
<path d="M155.47 108.156C155.773 107.448 156.467 106.917 157.319 106.742C158.912 106.451 159.771 108.442 160.873 108.462C160.079 108.774 158.895 107.584 158.059 107.263C157.623 107.116 157.134 107.146 156.726 107.344C156.251 107.543 155.825 107.819 155.47 108.156V108.156Z" fill="#172866"/>
<path d="M159.071 107.654C159.076 107.878 158.991 108.096 158.834 108.257C158.678 108.418 158.463 108.51 158.238 108.511C157.865 108.539 157.514 108.333 157.356 107.994C157.197 107.655 157.265 107.254 157.526 106.986C157.786 106.718 158.186 106.638 158.529 106.787C158.872 106.935 159.088 107.28 159.071 107.654V107.654Z" fill="#172866"/>
<path d="M152.754 103.833C152.926 103.728 151.568 102.37 149.897 102.219C148.225 102.068 146.465 103.833 146.465 103.833C146.465 103.833 148.895 102.417 149.921 102.875C150.946 103.333 151.8 104.442 152.754 103.833Z" fill="#172866"/>
<path d="M150.296 87.8395C146.654 88.2497 140.889 87.362 138.204 93.3C136.615 96.6669 133.365 103.162 133.365 114.726C133.365 131.915 116.747 139.53 116.747 139.53L124.032 143.038L128.38 139.53L125.387 145.817L137.333 147.005L137.842 138.771L140.295 148.137L145.875 147.005C145.875 147.005 143.673 118.845 143.422 108.243L143.483 108.316C143.483 108.316 143.434 106.945 143.428 105.188V105.188C143.428 104.674 143.428 104.141 143.428 103.609C143.43 102.05 143.543 100.493 143.765 98.9502C144.299 96.0425 145.372 94.5549 147.99 93.3122C150.609 92.0695 159.973 95.6139 159.973 95.6139C159.727 90.1902 153.939 87.4416 150.296 87.8395Z" fill="#1B2B80"/>
<path d="M155.193 88.8865C159.661 89.9108 161.007 97.0376 164.662 100.831C168.317 104.624 167.384 110.099 165.649 113.712C163.915 117.325 161.115 114.954 161.115 114.954C161.115 114.954 162.575 115.798 163.508 112.787C164.441 109.776 162.808 107.43 157.879 105.741C152.95 104.053 148.272 93.4308 148.272 93.4308C148.122 91.3449 150.725 87.8622 155.193 88.8865Z" fill="#2F499F"/>
<path d="M161.459 114.664C163.191 115.684 165.639 111.399 163.852 108.599C162.561 106.435 159.715 105.508 157.445 104.574C153.847 102.485 150.389 96.7226 148.266 93.2048C149.783 97.4026 153.008 103.233 156.888 105.57L157.824 105.978C158.785 106.367 161.71 107.165 163.117 109.069C164.256 110.583 163.729 112.927 162.958 114.015C162.659 114.545 162.046 114.81 161.459 114.664Z" fill="#023135"/>
<path d="M144.537 109.05C144.537 109.05 143.227 103.854 141.038 105.107C138.849 106.36 141.203 112.116 143.234 112.116C145.264 112.116 144.537 109.05 144.537 109.05Z" fill="#FC7575"/>
<path d="M142.131 105.924C142.131 105.924 145.072 110.811 143.058 110.273C141.044 109.736 140.244 105.034 142.131 105.924Z" fill="#FD5E5A"/>
<path d="M150.037 110.593C149.822 111.223 148.656 111.405 147.429 110.999C146.203 110.593 145.383 109.762 145.599 109.132C145.814 108.502 146.975 108.326 148.201 108.732C149.427 109.138 150.235 109.968 150.037 110.593Z" fill="#FD5E5A"/>
<path d="M159.966 110.415C160.054 111.125 159.323 111.878 158.317 112.07C157.312 112.261 156.466 111.842 156.378 111.118C156.29 110.393 157.026 109.662 158.026 109.463C159.026 109.264 159.883 109.697 159.966 110.415Z" fill="#FD5E5A"/>
<rect x="46.506" y="297.625" width="9.90583" height="48.6286" fill="black"/>
<rect x="47.4065" y="346.254" width="7.20424" height="34.2201" fill="#50576D"/>
<path d="M92.4025 391.12C92.304 389.673 91.0816 388.577 89.6598 388.659L56.4965 378.439V376.872H46.9984V378.258L13.1786 389.302C11.7583 389.238 10.5545 390.355 10.485 391.801V393.081H21.6642V390.133L48.0476 383.18H49.784L50.4774 389.864H48.5262C47.1478 389.804 45.9815 390.891 45.9186 392.294V393.081H58.1899V392.294C58.1269 390.891 56.9607 389.804 55.5823 389.864H53.5759L54.2263 383.18H54.938L81.1987 389.639L81.2539 392.588L92.4332 392.406L92.4025 391.12Z" fill="black"/>
<path fill-rule="evenodd" clip-rule="evenodd" d="M80.661 296.193C80.1848 294.603 78.7126 295.052 77.4437 295.439C77.2788 295.489 77.1173 295.538 76.9619 295.582L76.2587 295.698C74.1554 275.838 54.8587 264.906 38.02 268.921C36.2897 259.834 31.9791 253.088 16.3694 251.921C11.7128 251.553 7.0315 251.641 2.39211 252.183C0.214002 252.442 -1.37403 254.369 -1.21019 256.555C-1.04635 258.741 0.811223 260.41 3.00354 260.341C2.86291 260.341 13.1104 259.651 21.2669 261.741C27.3384 263.385 28.1516 265.505 29.46 272.294C30.015 275.278 30.3648 278.355 30.7027 281.327C31.5485 288.768 32.3201 295.555 36.0512 298.607C43.688 304.522 82.532 302.487 80.661 296.193ZM41.1578 292.21C41.2088 292.21 41.2202 292.21 41.2257 292.216C41.2273 292.218 41.2284 292.22 41.2298 292.222C41.2335 292.23 41.2394 292.241 41.2622 292.259L41.1578 292.21ZM39.1523 277.955C39.5908 282.555 40.055 287.425 41.3462 292.294V292.3C46.6595 294.635 63.0886 296.34 72.3884 296.046C71.5402 292.816 70.1931 289.738 68.3958 286.923C62.202 276.718 50.1446 272.66 38.8088 274.494C38.9305 275.627 39.0406 276.782 39.1523 277.955Z" fill="#196A7D"/>
<rect x="79.8258" y="263.405" width="5.40318" height="128.776" fill="#846D75"/>
<rect x="97.8362" y="265.206" width="5.40318" height="134.179" fill="#846D75"/>
<rect x="-351.528" y="261.604" width="463.773" height="7.20424" fill="#1C0F00"/>
<rect x="23.0923" y="250.797" width="61.236" height="52.2307" transform="rotate(180 23.0923 250.797)" fill="#464A7F"/>
<rect x="8.68384" y="240.892" width="38.7228" height="29.7175" transform="rotate(180 8.68384 240.892)" fill="#3C405E"/>
<rect x="13.1865" y="261.604" width="38.7228" height="3.60212" transform="rotate(180 13.1865 261.604)" fill="#242744"/>
<defs>
<linearGradient id="paint0_linear" x1="413.922" y1="407.477" x2="913.714" y2="407.477" gradientUnits="userSpaceOnUse">
<stop stop-color="#F2CADD"/>
<stop offset="1" stop-color="#FFFFF1"/>
</linearGradient>
</defs>
</svg>
