<svg width="768" height="529" viewBox="0 0 768 529" fill="none" xmlns="http://www.w3.org/2000/svg">
<path d="M1260.19 489.501C1260.19 489.501 1348.88 229.615 1188.89 219.957C1028.91 210.299 641.212 492.51 641.212 514.388C641.212 536.266 1237.99 516.353 1237.99 516.353L1260.19 489.501Z" fill="url(#paint0_linear)"/>
<path d="M1319.49 519.435C1319.49 524.875 1124.83 529.286 884.695 529.286C644.565 529.286 449.904 524.875 449.904 519.435C449.904 513.995 644.565 509.576 884.695 509.576C1124.83 509.576 1319.49 513.987 1319.49 519.435Z" fill="#5DB9F4"/>
<rect x="713.097" y="335.659" width="440.589" height="16.2322" fill="#1C0F00"/>
<rect x="713.097" y="335.659" width="440.589" height="4.63778" fill="#00C9F7"/>
<rect x="649.328" y="426.096" width="9.27555" height="57.9722" fill="#4C505E"/>
<path d="M678.314 395.95V402.879C678.314 407.507 673.971 411.257 668.618 411.257H667.538V419.086C667.538 421.036 665.71 422.617 663.455 422.617H647.461C645.206 422.617 643.377 421.052 643.377 419.086V410.865C639.436 409.801 636.574 406.622 636.574 402.864V395.95H678.314Z" fill="#303030"/>
<rect x="659.763" y="436.531" width="11.5944" height="13.9133" transform="rotate(180 659.763 436.531)" fill="#303030"/>
<path d="M648.169 501.46H659.763V491.184V482.909H648.169V501.46V501.46Z" fill="#001F26"/>
<path d="M703.822 513.158L659.763 491.025V501.11L691.353 513.158V515.373H703.822V513.158V513.158Z" fill="#001F26"/>
<path d="M604.11 513.158L648.169 491.025V501.11L616.579 513.158V515.373H604.11V513.158V513.158Z" fill="#001F26"/>
<path d="M658.016 491.025V515.932H660.923V517.692H648.169V515.932H650.864L650.018 491.025H658.016V491.025Z" fill="#001F26"/>
<path d="M608.748 252.507V366.964H672.517L666.839 251.26C666.382 241.727 660.815 234.248 653.939 233.629C653.639 233.629 653.34 233.629 653.032 233.629H622.594C614.953 233.527 608.748 242.002 608.748 252.507Z" fill="#0089A9"/>
<path d="M634.655 236.097C634.963 236.097 635.271 236.097 635.563 236.097C642.453 236.717 648.025 244.196 648.475 253.729L654 366.964H672.517L666.834 251.259C666.376 241.726 660.804 234.247 653.921 233.628C653.621 233.628 653.322 233.628 653.014 233.628H622.547C620.05 233.662 617.638 234.535 615.704 236.105L634.655 236.097Z" fill="#75E0F9"/>
<path d="M617.017 233.628H627.299C622.331 233.628 617.568 235.627 614.059 239.185C610.55 242.743 608.584 247.567 608.594 252.593V366.964H598.313V252.593C598.302 247.567 600.269 242.743 603.777 239.185C607.286 235.627 612.05 233.628 617.017 233.628V233.628Z" fill="#004555"/>
<path d="M684.627 186.601L684.755 186.74L684.627 186.601Z" fill="#31003D"/>
<path d="M640.808 194.207H640.674C640.273 194.12 640.005 193.741 640.06 193.335C649.811 137.917 699.13 138.554 699.61 138.554C700.024 138.583 700.345 138.926 700.344 139.339C700.344 139.543 700.259 139.738 700.11 139.876C699.96 140.015 699.759 140.085 699.555 140.07C699.066 140.07 651.057 139.489 641.534 193.61C641.451 193.947 641.156 194.189 640.808 194.207V194.207Z" fill="#3C4875"/>
<path d="M740.167 385.515L749.207 357.775C751.142 351.827 750.217 345.311 746.704 340.148C743.19 334.985 737.49 331.764 731.284 331.435L656.811 327.543L656.285 337.684L730.758 341.591C733.829 341.755 736.649 343.349 738.387 345.904C740.125 348.459 740.583 351.684 739.625 354.627L730.585 382.367L740.167 385.515Z" fill="#1E1E1E"/>
<path d="M612.226 398.269H727.011C727.013 392.735 724.828 387.426 720.936 383.512C717.045 379.598 711.766 377.399 706.262 377.399H632.967C627.464 377.401 622.187 379.601 618.297 383.515C614.408 387.429 612.224 392.736 612.226 398.269H612.226Z" fill="#004555"/>
<path d="M636.574 398.269H751.359C751.361 392.735 749.176 387.426 745.285 383.512C741.394 379.598 736.115 377.399 730.611 377.399H657.323C651.819 377.399 646.54 379.598 642.649 383.512C638.757 387.426 636.572 392.735 636.574 398.269H636.574Z" fill="#0089A9"/>
<path d="M748.641 318.614L738.093 314.077V314.077C733.974 312.083 729.45 311.906 727.18 311.542V311.542C724.696 311.141 721.624 310.692 717.735 310.151C717.868 313.603 718.417 317.027 719.37 320.353C720.291 320.237 721.204 320.121 722.093 320.021C726.648 319.503 736.792 320.222 739.942 324.735C743.093 329.248 743.062 332.34 744.062 332.031C745.062 331.721 744.125 326.914 742.601 324.573C741.697 323.188 740.901 321.738 740.22 320.237C740.22 320.237 744.3 324.874 744.927 327.339C745.554 329.805 746.855 332.371 747.482 332.17C748.109 331.969 746.744 327.533 746.205 324.92C745.904 323.309 745.369 321.748 744.617 320.283L747.681 321.721C747.681 321.721 752.078 328.259 752.491 326.683C752.903 325.106 748.641 318.614 748.641 318.614Z" fill="#FD5E5A"/>
<path d="M710.198 307.863C689.675 304.96 684.665 308.372 684.665 299.131C684.665 286.613 698.517 256.842 692.25 248.494C691.228 247.132 683.347 241.648 679.765 245.294C667.677 257.742 662.043 303.802 671.407 318.84C677.143 328.057 701.146 322.752 718.876 320.405C717.869 316.962 719.055 311.298 718.876 307.847C716.722 307.55 712.961 308.262 710.198 307.863Z" fill="#B54300"/>
<path d="M721.214 311.311L733.128 315.827C733.128 315.827 737.875 322.251 737.414 323.82C736.954 325.39 731.949 318.881 731.949 318.881L724.743 315.904L721.214 311.311Z" fill="#D80000"/>
<path d="M714.257 313.944C714.257 313.944 719.705 319.779 719.705 321.024C719.705 322.269 720.189 325.224 721.27 325.224C722.35 325.224 722.373 320.084 722.373 318.488C722.373 316.892 719.653 312.47 719.192 312.47C718.731 312.47 714.257 313.944 714.257 313.944Z" fill="#D80000"/>
<path d="M735.295 480.845C734.225 481.873 729.33 479.677 729.33 483.961C729.33 485.394 732.273 485.589 732.921 490.527C733.358 493.846 731.196 501.658 732.234 504.61C733.443 508.023 735.689 510.975 738.66 513.054C738.66 509.58 736.973 507.726 736.973 504.057C736.973 500.389 748.529 488.214 749.536 476.179C749.655 475.188 749.878 474.212 750.2 473.266C746.803 471.312 743.557 469.109 740.487 466.676C737.637 474.941 735.576 480.588 735.295 480.845Z" fill="#FD5E5A"/>
<path d="M737.229 484.883C737.229 483.446 736.071 482.018 735.133 480.59C733.905 481.452 729.259 479.433 729.259 483.678C729.259 487.923 720.054 500.212 720.054 500.212L721.9 501.863C721.9 501.863 730.941 486.535 731.707 490.293C732.474 494.051 726.491 505.454 726.491 505.454L737.964 515.373L738.605 513.466C738.605 509.963 736.979 508.056 736.932 504.417C731.308 500.036 738.058 490.604 737.229 484.883Z" fill="#3A0049"/>
<path d="M778.886 378.429C772.652 361.565 690.067 343.775 690.067 343.775L680.181 347.252L671.358 359.022L753.761 385.546C753.761 385.546 745.268 441.889 735.555 470.484C738.798 473.309 744.339 472.336 748.212 474.792C754.698 453.778 782.357 387.822 778.886 378.429Z" fill="#6D175B"/>
<path d="M756.698 466.676C752.576 466.926 748.439 467.278 744.277 467.77C745.456 475.875 746.002 482.369 744.997 484.127C744.206 485.495 743.336 486.855 742.489 488.152C740.116 491.817 737.972 495.021 738.779 496.592C739.269 497.545 744.507 496.53 746.437 501.164C748.81 506.861 747.877 518.302 747.877 518.302L765.622 521.17C765.622 521.17 768.075 520.076 764.444 516.528C760.812 512.98 757.822 511.839 756.643 507.986C755.464 504.133 756.532 484.44 756.532 471.834C756.532 470.537 756.595 468.786 756.698 466.676Z" fill="#FC7575"/>
<path d="M767.269 519.985V519.985C765.7 516.224 762.939 513.077 759.408 511.024L755.617 513.562C751.252 508.238 751.314 499.633 748.557 494.216C747.935 492.382 745.939 490.106 743.585 488.706C741.255 492.335 739.142 495.508 739.934 497.063C740.999 499.168 740.898 518.066 740.898 518.066H743.515C743.515 518.066 741.962 502.465 744.572 501.536C747.182 500.608 747.819 519.59 747.819 519.59L767.176 522.33C767.176 522.33 768.046 521.927 767.269 519.985Z" fill="#4F005E"/>
<path d="M743.011 366.048L679.631 351.891L637.013 358.523C637.013 358.523 631.5 376.368 640.951 383.524C644.693 386.343 724.959 390.775 724.959 390.775C724.959 390.775 737.214 449.554 740.01 468.995C745.067 468.4 753.25 466.983 758.259 466.646C759.212 446.954 747.878 367.434 743.011 366.048Z" fill="#7F71A4"/>
<path d="M690.714 228.479C694.239 229.093 702.504 243.235 704.417 248.154C704.804 249.138 710.249 267.317 705.096 273.417C699.944 279.516 692.627 297.027 688.612 305.361C686.716 309.296 674.996 325.823 689.813 334.677C693.535 336.912 699.794 336.125 697.858 339.328C695.922 342.531 654.229 366.488 637.01 361.695C619.791 356.902 633.628 351.086 635.24 346.742C636.852 342.397 627.994 341.366 631.692 336.424C635.39 331.482 649.164 319.433 656.979 292.871C657.769 290.259 659.745 240.685 662.677 232.854C664.621 227.621 682.804 227.109 690.714 228.479Z" fill="#F15900"/>
<path d="M713.236 173.819C711.768 174.409 701.994 169.009 689.672 175.118C677.65 181.092 673.54 201.645 672.609 212.161C672.403 214.319 672.544 216.495 673.027 218.608C676.417 218.828 679.75 219.583 682.904 220.844C687.7 222.867 695.029 226.59 700.606 227.795C706.183 228.999 720.643 199.858 720.036 190.475C719.428 181.092 713.236 173.819 713.236 173.819Z" fill="#2E0A29"/>
<path d="M712.326 173.337C712.326 173.337 722.325 178.273 722.373 186.759C722.421 195.244 710.686 217.794 717.157 221.179C717.157 221.179 713.382 221.962 710.83 220.873C710.83 220.873 708.014 223.169 710.422 228.99C706.707 228.909 703.028 228.259 699.518 227.063C699.166 226.93 694.959 226.569 695.823 223.294C696.847 219.416 703.022 212.325 704.054 208.54C708.262 192.651 712.326 173.337 712.326 173.337Z" fill="#450F3D"/>
<path d="M712.911 175.656C713.956 176.017 714.945 176.518 715.85 177.145C715.85 177.145 724.292 184.986 721.968 192.395C719.644 199.805 717.535 202.243 716.545 207.23C714.948 215.07 704.972 227.019 696.865 223.82C698.167 219.9 704.006 213.071 704.964 209.441C708.51 196.104 711.897 180.423 712.911 175.656Z" fill="#340B2E"/>
<path d="M689.406 211.599L680.633 228.839C680.633 228.839 687.499 253.405 700.336 250.831C700.554 250.791 696.124 246.501 695.291 239.612C694.638 234.186 697.121 227.29 699.752 218.527C701.06 214.197 689.406 211.599 689.406 211.599Z" fill="#FC7575"/>
<path d="M689.562 211.599L684.111 222.175C690.651 226.709 698.295 222.938 699.13 221.782C700.512 218.291 699.376 220.017 700.107 218.572C702.213 214.536 689.562 211.599 689.562 211.599Z" fill="#FD5E5A"/>
<path d="M714.089 175.702C714.089 175.702 721.855 183.15 719.665 190.245C717.475 197.34 715.542 199.653 714.602 204.443C713.662 209.233 707.271 220.491 699.172 220.867C691.073 221.244 686.126 206.097 686.445 200.264C686.763 194.431 688.984 186.748 693.799 179.261C698.613 171.774 709.43 172.347 714.089 175.702Z" fill="#FC7575"/>
<path d="M688.539 210.439C687.058 206.638 686.313 202.696 686.445 200.309C686.763 194.459 688.982 186.771 693.79 179.271C698.599 171.772 709.443 172.345 714.096 175.706C714.096 175.706 721.853 183.166 719.665 190.273C718.936 192.629 718.231 194.498 717.587 196.084V196.084L709.055 192.48C709.055 192.48 712.367 185.232 711.343 182.687L707.721 191.53L701.686 189.307C701.686 189.307 700.981 184.541 702.384 181.18C702.384 181.18 700.407 185.891 700.655 188.93C700.655 188.93 696.621 187.108 695.574 189.606C694.729 191.647 689.881 204.659 688.966 208.248C688.788 208.971 688.645 209.702 688.539 210.439V210.439Z" fill="#FD5E5A"/>
<path d="M722.172 183.937C721.391 179.255 716.955 175.409 712.551 173.467C706.6 167.861 693.113 165.168 680.68 177.075C673.519 183.937 661.008 212.71 663.586 212.607C663.843 212.607 672.754 218.426 672.754 218.426L672.933 213.499C673.449 214.786 675.518 215.971 678.15 216.997C677.532 213.384 678.184 209.666 679.993 206.488C678.954 210.335 679.337 214.433 681.071 218.016C685.025 219.199 689.043 220.154 693.105 220.874C693.105 220.756 688.123 211.265 689.856 204.474C690.786 200.866 693.995 191.785 694.847 189.732C695.901 187.214 700.313 188.351 700.313 188.351C700.063 185.279 703.437 179.665 703.437 179.665C702.024 183.045 701.969 189.069 701.969 189.069L707.795 191.556L712.09 181.292C713.113 183.85 710.223 192.615 710.223 192.615L718.517 195.876C721.56 192.72 722.919 188.279 722.172 183.937Z" fill="#464A7F"/>
<path d="M713.097 174.231C702.637 169.663 694.178 169.229 686.624 177.813C679.317 186.058 668.173 204.827 667.879 215.81L672.859 218.555C672.55 209.608 680.278 189.458 685.568 182.128C692.168 172.953 697.855 168.653 713.097 174.231Z" fill="#3B4999"/>
<path d="M714.257 175.656C717.504 178.066 720.847 181.358 721.183 185.312C721.494 188.97 719.411 192.332 717.448 195.366L716.547 195.023C720.983 188.612 723.991 183.44 714.257 175.656Z" fill="#363A68"/>
<path d="M713.66 175.656C720.446 181.786 717.748 187.585 712.888 194.207L711.938 193.852C717.333 187.569 720.242 181.971 713.66 175.656Z" fill="#363A68"/>
<path d="M711.938 174.496C707.666 179.405 706.465 184.37 705.775 190.729L704.981 190.362C706.005 184.13 707.54 179.102 711.938 174.496Z" fill="#363A68"/>
<path d="M706.21 207.385C705.617 205.651 706.425 202.817 707.3 201.164C707.041 202.934 706.41 206.066 706.87 207.421L706.967 207.706C706.855 207.706 705.231 208.514 703.822 207.873C704.643 207.866 705.454 207.7 706.21 207.385V207.385Z" fill="#450F3D"/>
<path d="M707.3 194.059C706.838 193.35 706.118 192.755 705.225 192.345C703.632 191.561 699.184 192.024 699.184 192.024C700.898 192.14 702.597 192.354 704.267 192.666C705.137 193.068 705.899 193.591 706.512 194.207L707.3 194.059Z" fill="#5C1451"/>
<path d="M710.779 196.893C711.604 196.586 712.513 196.468 713.412 196.552C715.044 196.663 717.735 198.845 717.735 198.845C716.489 198.21 715.187 197.654 713.841 197.179C712.968 197.096 712.084 197.146 711.233 197.325L710.779 196.893Z" fill="#5C1451"/>
<path d="M702.586 198.074C702.364 198.64 701.847 198.973 701.411 198.799C700.913 198.76 700.496 198.412 700.377 197.936C700.258 197.459 700.463 196.962 700.886 196.701C701.309 196.439 701.855 196.474 702.241 196.785C702.626 197.097 702.765 197.616 702.586 198.074Z" fill="#464A7F"/>
<path d="M712.962 202.62C712.931 203.014 712.607 203.348 712.156 203.451C711.705 203.554 711.227 203.403 710.966 203.075C710.705 202.748 710.718 202.316 710.998 201.999C711.276 201.379 711.925 201.026 712.471 201.214C713.049 201.499 713.264 202.115 712.962 202.62V202.62Z" fill="#464A7F"/>
<path d="M698.025 215.077C698.625 215.646 699.437 216.05 700.344 216.229C699.333 216.303 698.384 215.831 698.025 215.077H698.025Z" fill="#2E0A29"/>
<path d="M698.071 208.12C700.953 210.892 706.141 212.938 706.141 212.938C705.633 213.312 705.087 213.64 704.511 213.917C702.191 212.914 700.025 211.63 698.071 210.101C698.009 209.442 698.009 208.779 698.071 208.12V208.12Z" fill="white"/>
<path d="M698.025 210.439C700.135 212.005 702.475 213.319 704.981 214.347C700.95 216.167 698.424 214.481 698.025 210.439Z" fill="#2E0A29"/>
<path d="M704.981 198.845C704.335 197.665 703.189 196.833 701.856 196.576C700.277 196.311 698.998 197.188 698.025 197.03C699.274 197.869 700.323 196.523 703.388 197.862C703.966 198.108 704.504 198.439 704.981 198.845V198.845Z" fill="#2E0A29"/>
<path d="M709.619 201.649C710.899 201.002 712.378 201.002 713.658 201.649C715.137 202.466 715.654 204.126 716.576 204.642C714.986 204.573 714.986 202.647 711.551 201.786C710.917 201.637 710.266 201.59 709.619 201.649V201.649Z" fill="#2E0A29"/>
<path d="M700.255 203.515C699.819 204.617 697.951 204.969 696.083 204.31C694.214 203.65 693.042 202.218 693.478 201.124C693.913 200.029 695.774 199.677 697.65 200.337C699.526 200.996 700.682 202.421 700.255 203.515Z" fill="#FD5E5A"/>
<path d="M713.025 208.329C712.702 209.186 711.447 209.517 710.193 209.101C708.939 208.684 708.213 207.558 708.537 206.733C708.86 205.907 710.114 205.545 711.376 206C712.639 206.455 713.333 207.473 713.025 208.329Z" fill="#FD5E5A"/>
<path d="M730.015 322.443C727.154 309.483 713.472 309.467 708.688 308.764V308.764C706.774 308.488 704.518 308.18 701.905 307.832C700.766 311.055 699.409 314.34 699.184 317.863C700.476 317.705 701.74 317.562 702.975 317.436C708.092 316.907 719.464 317.641 722.999 322.246C726.534 326.85 726.503 330.025 727.65 329.709C728.798 329.393 727.728 324.473 726.015 322.088C725.005 320.686 724.105 319.204 723.325 317.657C723.325 317.657 727.906 322.396 728.604 324.907C729.302 327.419 730.775 330.049 731.472 329.851C732.17 329.654 730.612 325.152 730.015 322.443Z" fill="#FC7575"/>
<path d="M797.856 232.469H795.757L765.272 315.948L856.869 314.693L797.856 232.469V232.469Z" fill="#A338C6"/>
<rect x="738.605" y="332.181" width="82.3205" height="5.79722" fill="#603E6B"/>
<path fill-rule="evenodd" clip-rule="evenodd" d="M606.048 398.269L581.001 338.578C580.717 336.945 581.196 335.273 582.304 334.031C583.412 332.789 585.03 332.11 586.702 332.187L653.938 335.663C660.293 335.89 666.195 338.974 669.968 344.039C673.667 349.166 674.667 355.734 672.66 361.712L659.024 398.144L606.048 398.269ZM654.112 345.695L591.021 342.445L611.615 389.894H650.306L663.027 358.571C663.993 355.664 663.534 352.477 661.786 349.953C660.038 347.428 657.201 345.854 654.112 345.695Z" fill="#1E1E1E"/>
<path d="M688.512 304C664.547 301.065 659.042 305.924 659.042 296.608C659.042 283.987 677.097 248.284 672.02 235.718C671.306 233.951 667.474 228.95 663.341 232.626C649.229 245.176 632.665 301.318 643.597 316.471C650.22 325.653 677.652 320.557 698.269 318.159C698.499 314.641 702.64 308.63 703.822 305.412C700.339 304.97 693.486 304.607 688.512 304Z" fill="#F47A33"/>
<path d="M-405.766 508.543C-405.766 508.543 -253.83 264.338 25.3178 208.111C173.587 178.25 236.351 54.3945 349.729 35.6523C463.106 16.9102 500.028 183.9 519.764 311.991C539.499 440.082 509.109 513.054 509.109 513.054L-405.766 508.543Z" fill="#FCD4E7"/>
<path d="M542.659 515.397C542.659 522.452 308.8 528.127 20.3257 528.127C-268.149 528.127 -502 522.389 -502 515.397C-502 508.404 -268.141 502.619 20.3651 502.619C308.871 502.619 542.659 508.342 542.659 515.397Z" fill="#5DB9F4"/>
<path d="M525.847 0V318.847H212.797V0L525.847 0Z" fill="#5A4496"/>
<rect x="218.015" y="5.21753" width="301.456" height="307.253" fill="#D9CCFF"/>
<path d="M382.656 92.1758H325.843L375.817 118.843C380.163 110.596 382.504 101.467 382.656 92.1758Z" fill="#B098EE"/>
<path d="M260.914 92.1758C261.299 113.84 273.074 133.685 291.873 144.351L320.046 92.1758H260.914Z" fill="#B098EE"/>
<path d="M322.365 93.3353V152.467C344.034 152.084 363.883 140.305 374.54 121.502L322.365 93.3353Z" fill="#B098EE"/>
<path d="M260.914 89.8569H317.727L267.794 63.1897C263.434 71.4332 261.078 80.5626 260.914 89.8569H260.914Z" fill="#B098EE"/>
<path d="M350.535 38.8414L322.365 91.0164H381.497C381.119 69.3484 369.34 49.4993 350.535 38.8414Z" fill="#FFBA00"/>
<path d="M320.046 89.8569V30.7253C298.382 31.0937 278.532 42.8672 267.871 61.6722L320.046 89.8569Z" fill="#B098EE"/>
<path d="M323.524 28.4064V85.2191L350.192 35.2639C341.945 30.9137 332.816 28.5662 323.524 28.4064V28.4064Z" fill="#FFF7CF"/>
<path d="M320.046 95.6541L293.379 145.615C301.626 149.962 310.754 152.307 320.046 152.467V95.6541Z" fill="#B098EE"/>
<rect x="269.03" y="239.425" width="12.7539" height="49.8561" fill="#B098EE"/>
<rect x="293.379" y="230.15" width="12.7539" height="59.1317" fill="#B098EE"/>
<rect x="316.568" y="222.034" width="12.7539" height="68.4072" fill="#B098EE"/>
<rect x="340.916" y="212.758" width="12.7539" height="77.6828" fill="#B098EE"/>
<rect x="365.264" y="203.482" width="12.7539" height="86.9583" fill="#B098EE"/>
<rect x="389.613" y="194.207" width="12.7539" height="96.2339" fill="#B098EE"/>
<rect x="412.802" y="184.931" width="12.7539" height="104.35" fill="#B098EE"/>
<rect x="437.15" y="175.656" width="12.7539" height="113.626" fill="#B098EE"/>
<rect x="461.498" y="167.54" width="12.7539" height="122.901" fill="#B098EE"/>
<rect x="485.847" y="158.264" width="12.7539" height="132.177" fill="#B098EE"/>
<path d="M502.079 106.089V106.089C500.898 106.303 469.061 111.992 467.904 111.992L478.778 114.955L446.163 127.376C444.462 134.843 443.249 140.145 442.289 144.349L419.075 142.176L388.365 169.879L364.317 166.806L319.803 204.868L299.046 197.836L253.958 229.221L256.202 232.469L299.66 202.213L320.661 209.325L365.545 170.954L389.656 174.028L420.414 146.269L445.344 148.64L449.533 130.268L480.487 116.045L478.086 126.72L502.079 106.089Z" fill="#CD3179"/>
<path d="M322.495 174.069L326.927 171.102C326.927 171.102 315.366 152.248 316.583 135.99C317.212 127.419 303.057 114.776 299.262 116.725C299.032 116.639 286.675 117.002 285.577 145.018L282.944 177.834L296.239 189.569C296.239 189.569 304.657 175.253 315.334 181.543C326.012 187.833 329.321 187.643 329.321 187.643C329.321 187.643 322.495 177.092 322.495 174.069Z" fill="#002B32"/>
<path d="M312.231 172.291C312.231 172.291 300.465 166.514 291.06 172.767L291.947 179.668L301.645 200.004L310.924 197.951L315.408 176.491L312.231 172.291Z" fill="#411026"/>
<path d="M259.755 385.515C259.755 385.515 301.825 369.018 340.916 385.028L322.927 230.15L288.514 237.935L259.755 385.515Z" fill="#411026"/>
<path d="M359.691 510.198C357.541 504.424 356.249 495.76 353.502 484.072C353.185 482.701 352.728 480.737 352.226 478.345C348.682 477.885 345.046 479.646 342.075 481.251C343.244 484.415 344.814 488.186 344.899 489.557C345.108 492.861 344.126 493.165 344.126 493.165C344.126 498.869 345.897 504.977 347.065 506.162C348.613 507.673 350.253 515.184 351.707 515.184C353.162 515.184 365.246 516.532 365.246 516.532C365.556 513.751 361.842 515.94 359.691 510.198Z" fill="#FD5E5A"/>
<path d="M296.643 506.533C296.012 504.571 295.382 496.002 294.882 484.743C291.744 484.697 288.23 483.615 284.884 484.287C285.138 485.833 285.722 488.506 285.722 488.924C285.722 493.011 283.746 491.489 283.023 494.425C282.539 496.372 284.43 500.081 284.43 500.081C287.207 500.081 288.376 510.026 289.729 512.916C290.498 514.585 294.067 515.373 298.127 515.373C301.288 515.373 300.757 514.546 298.412 510.49C297.682 509.239 297.089 507.912 296.643 506.533Z" fill="#FC7575"/>
<path d="M338.871 384.977C338.47 383.219 327.164 287.227 322.937 251.808L300.152 251.02L287.581 303.387L317.571 398.221C316.55 406.979 316.942 414.05 319.708 426.025C321.987 435.91 331.352 468.956 336.993 484.068C340.002 482.436 349.234 479.212 352.51 478.069C339.664 398.796 343.161 403.511 338.871 384.977Z" fill="#730033"/>
<path d="M297.437 394.194L316.568 286.672L314.301 249.86H295.587C295.587 249.86 276.795 270.136 272.593 295.814C268.39 321.492 276.189 394.651 276.189 394.651C275.643 400.391 274.744 406.092 273.498 411.722C271.538 419.958 275.008 471.566 277.243 485.227C280.643 484.55 291.015 483.999 294.226 484.046C293.006 456.636 292.503 413.564 294.352 409.092C295.556 406.155 296.634 399.974 297.437 394.194Z" fill="#990044"/>
<path d="M323.524 255.657L292.219 254.929L296.105 249.86H323.524V255.657V255.657Z" fill="#3A1425"/>
<path d="M362.719 175.594C363.156 172.765 362.969 170.805 362.086 169.928C361.204 169.05 361.641 168.532 360.822 167.709C360.002 166.886 358.097 167.631 357.855 165.483C357.613 163.336 358.198 151.022 356.691 151.312C355.184 151.602 355.005 167.898 354.404 168.509C353.802 169.12 352.694 169.779 352.311 167.239C351.929 164.7 353.873 163.477 353.092 162.701C352.311 161.925 350.07 164.551 349.883 165.483C349.883 165.483 347.939 173.886 349.883 179.552C351.248 183.337 352.079 187.294 352.35 191.309V191.309C352.631 199.563 351.569 208.02 349.016 220.905C348.454 223.766 345.893 223.037 344.379 222.191L337.438 232.999C342.278 238.792 348.751 242.091 351.827 241.715C359.728 240.751 358.698 192.485 358.698 192.485C358.698 191.889 358.698 192.234 358.651 191.309V191.309C358.542 188.386 358.448 185.697 358.448 185.337C358.432 183.166 362.274 178.432 362.719 175.594Z" fill="#FD5E5A"/>
<path d="M359.774 167.62C359.774 167.62 352.445 174.78 353.849 176.211C355.253 177.643 361.147 169.991 361.147 169.991C361.147 169.991 354.61 176.673 355.768 177.826C356.926 178.98 362.567 173.348 362.567 173.348C362.567 173.348 356.617 178.478 357.68 179.075C358.743 179.672 362.567 175.559 362.567 175.559C362.856 174.774 362.975 173.936 362.916 173.101C362.709 172.178 363.043 171.797 362.916 171.224C362.623 170.567 362.212 169.971 361.702 169.466C361.337 169.164 361.21 167.111 359.774 167.62Z" fill="#FC7575"/>
<path d="M343.656 220.407C344.257 218.935 345.139 217.171 343.247 215.88C340.657 214.108 340.753 215.391 340.753 211.471C340.753 207.802 339.751 207.266 336.881 206.369L336.576 205.361C332.985 193.291 321.977 174.922 318.554 173.489C315.131 172.056 314.249 181.205 314.249 181.205C314.249 181.205 336.312 236.122 337.146 237.106L344.273 222.068L343.728 220.493L343.656 220.407Z" fill="#571A35"/>
<path d="M286.246 502.113L286.422 515.335L284.883 515.373L282.944 500.3L286.246 502.113V502.113Z" fill="#1D1B22"/>
<path d="M317.789 173.534C317.789 173.534 310.987 168.197 288.075 173.069C286.953 173.305 285.263 200.015 285.263 200.015C285.263 200.015 292.897 241.781 290.716 252.835C290.716 252.835 306.835 266.399 325.922 256.948C325.922 256.948 323.585 222.138 325.314 214.393C327.044 206.647 330.558 199.628 325.673 191.567C320.788 183.506 317.789 173.534 317.789 173.534Z" fill="#7F71A4"/>
<path d="M328.162 255.755C327.833 256.338 327.436 256.876 326.979 257.356C326.24 258.134 320.046 260.295 320.046 260.295L323.742 258.025C323.742 258.025 328.162 255.094 328.162 255.755Z" fill="#FD5E5A"/>
<path d="M284.387 491.025C285.672 498.471 290.8 513.14 293.788 513.148C297.827 513.148 298.069 512.955 298.045 510.36C300.468 514.403 303.303 516.521 299.983 516.521C295.719 516.521 289.064 516.759 288.248 515.096C286.826 512.216 286.051 501.32 283.127 501.328L284.04 514.734L282.489 514.773C282.489 514.773 280.196 496.292 280.696 494.467C281.391 491.895 283.564 491.456 284.387 491.025Z" fill="#393644"/>
<path d="M361.472 512.148C364.348 514.853 368.991 514.277 368.732 516.532C368.732 516.532 352.805 515.846 351.351 515.846C349.897 515.846 348.656 506.866 347.124 505.336C345.591 503.806 346.542 515.846 346.542 515.846H344.971C344.971 515.846 343.926 503.436 342.472 498.61C341.309 494.77 342.959 493.162 344.138 492.184C348.915 501.362 349.426 514.301 361.472 512.148Z" fill="#393644"/>
<path d="M493.963 202.323C493.963 202.323 490.407 223.362 479.23 237.598C470.88 248.197 453.382 260.013 453.382 260.013L463.275 270.73L490.563 248.434L493.963 202.323Z" fill="#363A68"/>
<path d="M508.9 182.612H531.065L530.343 253.721L500.919 255.657L508.9 182.612V182.612Z" fill="#260E0D"/>
<path d="M483.917 522.083C471.637 522.083 471.934 526.967 471.934 526.967H507.876C507.876 526.967 506.082 511.968 505.816 508.416H497.375C496.439 512.761 493.341 522.083 483.917 522.083Z" fill="#260E0D"/>
<path d="M544.586 523.123C533.404 523.123 531.117 509.684 530.798 507.257H522.721C522.721 507.921 522.721 508.332 522.721 508.435C522.721 510.103 520.63 528.127 520.63 528.127H556.572C556.572 528.127 556.868 523.123 544.586 523.123Z" fill="#260E0D"/>
<path d="M541.509 427.612L553.094 331.586L549.826 303.195H486.033L485.584 328.242L478.89 425.813C478.89 425.813 495.523 507.044 495.232 508.393H507.274C507.274 508.101 503.871 419.315 503.871 419.315L517.63 340.229L523.009 423.242C523.009 423.242 520.568 498.077 520.528 508.416H531.854C531.854 508.132 541.509 427.612 541.509 427.612Z" fill="#2F1954"/>
<path d="M549.616 306.841L549.194 303.195H485.901L485.847 306.387L499.13 310.741C509.898 314.291 521.5 314.576 532.433 311.557L549.616 306.841Z" fill="#0E0E0E"/>
<path d="M553.742 201.11C546.842 193.471 530.888 181.278 513.297 184.221L494.923 192.271L489.519 231.399L484.687 305.931L550.218 306.673L556.483 234.122C556.483 234.122 560.658 208.75 553.742 201.11Z" fill="#F1A97E"/>
<path d="M510.835 166.893C510.835 166.893 510.647 181.955 509.165 189.626C508.593 192.587 509.949 195.626 512.584 196.722C515.002 197.698 517.658 197.939 520.214 197.414C528.471 195.859 528.746 186.882 528.746 186.882L525.986 159.424L510.835 166.893Z" fill="#FC7575"/>
<path d="M526.809 159.424L511.805 167.116C511.805 167.116 511.735 172.847 511.354 179.123C515.243 179.315 520.19 177.082 525.409 170.318C526.186 169.317 526.91 168.317 527.586 167.34L526.809 159.424Z" fill="#FD5E5A"/>
<path d="M512.507 127.521C509.074 130.676 506.522 134.684 505.105 139.144C502.867 146.427 500.919 151.69 500.919 151.69L503.266 153.268C503.266 153.268 501.373 163.431 502.844 166.903C505.082 172.166 514.51 176.427 525.19 164.575C535.869 152.724 536.777 142.277 534.962 137.164C533.147 132.05 516.693 124.894 512.507 127.521Z" fill="#FC7575"/>
<path d="M528.221 138.801C525.005 136.157 520.732 135.239 516.734 136.334C509.956 138.188 507.668 135.328 508.979 133.866C508.979 133.866 503.022 134.023 500.812 128.616C498.602 123.21 499.144 106.864 509.669 109.952C520.193 113.041 518.061 120.444 518.061 120.444C518.061 120.444 521.434 116.892 524.614 118.746C527.794 120.601 527.383 123.218 527.383 123.218C527.383 123.218 530.291 129.237 534.309 130.007C538.326 130.778 537.907 139.728 537.907 139.728C537.907 139.728 540.234 141.583 538.598 148.058C536.961 154.534 527.143 164.459 527.143 167.54C527.143 167.54 524.754 163.61 526.693 157.324C528.632 151.037 528.632 147.296 526.553 147.296C524.475 147.296 528.221 138.801 528.221 138.801Z" fill="#121841"/>
<path d="M525.562 152.222C525.562 152.222 526.175 146.67 527.542 146.67C528.908 146.67 530.183 147.277 529.852 150.418C529.521 153.559 528.112 157.053 526.33 155.61C525.839 155.282 525.482 154.74 525.338 154.103C525.193 153.466 525.274 152.789 525.562 152.222V152.222Z" fill="#FC7575"/>
<path d="M543.565 140.179C543.42 139.641 543.095 139.19 542.662 138.922C541.287 138.185 539.442 139.789 538.234 140.872L538.021 140.569C538.812 139.421 539.799 138.468 540.923 137.769C541.663 137.327 542.534 137.273 543.312 137.621C544.09 137.968 544.697 138.683 544.978 139.581L543.565 140.179Z" fill="#121841"/>
<path d="M543.293 146.278C543.426 145.459 543.411 144.621 543.249 143.808C542.392 139.817 538.228 140.162 538.021 140.044V139.793C538.139 139.848 544.046 138.508 544.895 144.96C544.98 145.526 545 146.099 544.954 146.67L543.293 146.278Z" fill="#121841"/>
<path d="M511.354 144.351C511.354 145.642 510.835 146.67 510.191 146.67C509.547 146.67 509.035 145.626 509.035 144.351C509.035 143.075 509.555 142.032 510.191 142.032C510.827 142.032 511.354 143.06 511.354 144.351Z" fill="#2F499F"/>
<path d="M513.515 142.032C512.099 140.481 510.025 140.126 508.298 141.137L507.876 139.196C509.801 138.042 512.131 138.47 513.673 140.261L513.515 142.032Z" fill="#2F499F"/>
<path d="M506.717 184.931L501.738 328.702H470.774L479.885 263.428L485.877 223.721C485.877 223.721 488.781 197.056 495.084 192.256C498.722 189.466 502.617 187.014 506.717 184.931Z" fill="#555DA2"/>
<path d="M526.905 149.395C526.905 149.395 527.618 147.624 528.255 147.849C528.892 148.073 529.037 151.669 527.908 153.169C526.779 154.669 525.814 152.233 526.905 149.395Z" fill="#FD5E5A"/>
<path d="M530.753 184.931L527.586 329.862H559.851C559.851 329.862 561.062 214.992 557.523 202.985C553.983 190.978 530.753 184.931 530.753 184.931Z" fill="#555DA2"/>
<path d="M495.122 190.727L509.035 182.612L504.553 254.498L496.912 213.868L499.604 212.021L495.122 190.727V190.727Z" fill="#777EB5"/>
<path d="M528.746 254.498L529.987 182.612L542.659 188.155L535.754 211.57L537.504 212.891L528.746 254.498V254.498Z" fill="#777EB5"/>
<path d="M472.221 274.209L426.715 240.301L474.906 235.947L511.354 274.209H472.221V274.209Z" fill="#1E3340"/>
<path d="M496.471 260.295C496.471 260.295 501.455 261.369 503.294 263.263C505.683 265.695 511.256 269.637 513.573 269.637C515.89 269.637 525.914 270.581 525.914 270.581L527.586 281.165C527.586 281.165 490.316 272.943 488.572 271.133C486.829 269.323 497.331 272.475 497.331 271.67C497.331 270.864 484.687 269.959 485.34 267.927C485.993 265.894 497.004 270.665 497.984 269.653C498.963 268.64 484.687 266.968 484.687 264.813C484.687 262.658 498.899 267.927 498.899 267.927C498.899 267.927 499.154 266.83 495.308 265.081C491.463 263.332 487.736 261.929 488.588 261.047C489.44 260.165 499.273 265.741 500.531 264.406L496.471 260.295Z" fill="#FC7575"/>
<path d="M549.074 199.747C549.074 199.747 543.669 209.545 544.748 223.665C545.828 237.786 547.669 259.436 544.645 266.493C541.621 273.549 519.47 266.493 519.47 266.493V283.205C519.47 283.205 551.582 296.144 560.883 291.907C570.185 287.67 569.304 251.198 569.304 233.313C569.304 215.428 555.002 186.902 549.074 199.747Z" fill="#777EB5"/>
<path d="M548.457 200.004C545.843 205.718 544.125 214.181 544.669 222.985C545.649 236.211 548.744 264.922 543.113 269.28C537.669 272.696 525.342 269.28 519.47 267.188C525.233 268.773 541.535 272.577 543.65 266.934C545.454 262.417 545.206 251.498 544.996 246.64C544.335 225.664 541.815 218.262 546.162 205.432C546.765 203.556 547.532 201.739 548.457 200.004V200.004Z" fill="#EEF1F9"/>
<path d="M505.557 161.682L505.969 164.061C509.137 163.645 511.953 161.951 513.673 159.424C510.614 162.289 505.557 161.682 505.557 161.682Z" fill="#2B3278"/>
<path d="M458.685 259.121C458.021 260.118 457.477 261.197 457.066 262.334C456.107 264.703 458.777 267.152 459.307 267.65C460.513 268.771 461.821 269.766 463.212 270.621C464.107 271.207 465.09 271.631 466.12 271.874C467.7 272.235 471.237 266.349 470.723 265.779C470.393 265.401 469.956 265.104 469.634 265.225C469.311 265.345 465.314 268.565 465.314 268.565C465.314 268.565 468.859 263.932 468.46 262.55C468.061 261.169 467.294 261.346 466.987 261.691C466.68 262.036 462.169 266.397 462.169 266.397C462.169 266.397 465.237 260.856 464.938 259.973C464.639 259.089 463.45 258.447 462.061 260.671C461.204 261.849 460.254 262.951 459.222 263.964C459.222 263.964 460.933 259.788 460.534 258.439C460.135 257.09 458.685 259.121 458.685 259.121Z" fill="#FC7575"/>
<path d="M291.427 172.177C291.427 172.177 306.819 322.835 290.556 366.66C281.054 392.228 271.767 394.285 265.662 391.56C261.238 389.459 258.471 384.975 258.6 380.111C258.766 363.448 260.183 309.651 271.363 272.218C284.918 226.807 278.299 221.177 278.299 213.654C278.299 200.651 280.334 181.773 283.422 174.392C283.841 173.363 291.427 172.177 291.427 172.177Z" fill="#733953"/>
<path d="M301.583 171.029C304.163 170.982 307.055 171.657 311.823 172.183C312.269 172.231 312.605 171.932 313.089 171.987C308.134 167.22 289.327 164.691 288.24 172.772C280.83 228.008 298.965 331.473 291.367 366.964C308.853 331.332 305.234 234.511 294.908 179.11C293.97 174.28 296.674 171.115 301.583 171.029Z" fill="#AB99A1"/>
<path d="M313.089 172.177C323.732 184.201 328.121 380.923 342.075 385.515C342.075 385.515 341.289 328.046 341.289 313.6C341.289 299.155 334.949 203.609 331.913 195.588C328.876 187.567 319.327 174.057 319.327 174.057L313.089 172.177Z" fill="#733953"/>
<path d="M312.345 171.741C311.877 171.323 310.628 170.835 310.784 171.087C316.833 184.124 319.706 302.674 333.959 363.486C331.992 338.216 324.475 184.494 312.345 171.741Z" fill="#AB99A1"/>
<path d="M309.611 265.745L310.522 265.092C310.522 265.092 314.32 265.133 315.909 264.351C317.497 263.569 319.457 263.593 318.731 264.351C318.005 265.108 314.409 265.922 315.134 267.881C315.86 269.839 309.611 265.745 309.611 265.745Z" fill="#FC7575"/>
<path d="M322.051 267.423C321.395 267.833 319.998 267.998 318.545 268.502C317.093 269.006 325.12 265.438 325.12 264.264C325.12 263.09 318.397 266.682 316.437 267.525C314.212 268.479 310.675 266.809 309.746 265.745C309.746 265.745 282.044 256.371 274.681 251.108C274.025 250.636 272.338 248.217 272.526 246.382C267.792 246.68 263.167 247.945 258.932 250.1C258.979 253.031 258.151 256.607 258.932 258.049C263.734 266.966 295.005 270.314 301.579 270.314C308.153 270.314 314.587 271.89 316.414 271.89C318.241 271.89 326.744 267.163 326.993 264.997C327.228 262.964 322.894 266.903 322.051 267.423Z" fill="#FC7575"/>
<path d="M275.368 221.445C280.123 215.994 281.777 201.495 281.777 191.307C281.853 185.664 281.335 180.029 280.231 174.498C280.231 174.498 269.671 174.074 263.796 185.55C257.611 197.591 249.278 209.97 257.194 248.701C261.36 246.423 267.692 246.172 272.377 245.74C273.428 236.031 271.356 226.072 275.368 221.445Z" fill="#AD3369"/>
<path d="M256.705 245.771C256.705 245.771 255.741 248.769 256.705 249.746C257.668 250.723 256.493 252.966 257.136 254.217C257.778 255.469 268.253 252.211 273.212 250.837C278.171 249.464 275.092 247.785 274.497 246.007C273.901 244.229 274.583 243.298 273.439 242.131C272.295 240.964 257.574 242.513 256.705 245.771Z" fill="#CE85A5"/>
<path d="M257.436 251.02C261.16 249.502 268.175 247.041 272.115 247.631C272.733 247.717 272.579 248.732 271.961 248.598C271.86 248.598 269.906 247.953 264.667 249.046C262.221 249.56 259.807 250.219 257.436 251.02H257.436Z" fill="#DEADC3"/>
<path d="M309.374 153.126C309.913 153.656 307.707 168.895 309.889 173.12C309.889 173.12 315.63 194.947 311.733 195.36C308.343 195.758 295.63 176.714 294.969 173.705C294.059 169.659 294.873 150.148 294.873 150.148L309.374 153.126Z" fill="#FC7575"/>
<path d="M308.165 159.511C303.273 164.186 298.237 160.941 294.538 155.085C294.622 152.129 294.538 149.157 294.538 148.989L308.355 153.005C308.583 153.238 308.362 156.017 308.165 159.511Z" fill="#FD5E5A"/>
<path d="M308.008 117.955C308.008 117.955 314.542 119.16 315.32 124.583C316.099 130.006 317.191 134.528 316.123 140.86C315.055 147.192 311.146 155.622 304.757 156.982C298.367 158.341 291.681 148.093 291.681 142.515C291.681 136.936 289.353 127.597 293.712 121.871C298.07 116.145 308.008 117.955 308.008 117.955Z" fill="#FC7575"/>
<path d="M300.335 147.829C303.611 149.578 308.452 149.615 308.452 149.615C308.188 150.216 307.876 150.783 307.52 151.307C305.32 151.195 303.143 150.724 301.046 149.905C300.759 149.24 300.521 148.545 300.335 147.829H300.335Z" fill="white"/>
<path d="M300.335 148.989C302.589 149.798 304.929 150.264 307.292 150.375C304.806 153.719 302.165 152.906 300.335 148.989Z" fill="#2E0A29"/>
<path d="M308.388 115.849C308.388 115.849 314.541 119.412 315.323 124.926C316.033 129.926 317.001 134.168 316.356 139.713C314.928 138.803 313.375 138.098 311.743 137.62C305.953 135.748 299.929 127.501 299.219 120.565C298.445 113.132 308.388 115.849 308.388 115.849Z" fill="#FD5E5A"/>
<path d="M306.943 143.665C306.762 141.967 306.672 140.261 306.674 138.554C306.976 140.319 307.182 142.099 307.292 143.886C306.349 144.137 305.224 144.648 303.814 144.122C304.881 144.252 305.964 144.093 306.943 143.665V143.665Z" fill="#172866"/>
<path d="M303.814 138.334C303.469 137.345 302.61 136.58 301.523 136.295C299.492 135.804 298.247 138.495 296.857 138.467C297.857 138.936 299.461 137.367 300.553 136.967C301.127 136.788 301.759 136.858 302.271 137.156C302.863 137.454 303.387 137.854 303.814 138.334V138.334Z" fill="#172866"/>
<path d="M300.338 137.536C300.415 138.155 300.967 138.603 301.59 138.55C302.213 138.498 302.683 137.964 302.654 137.341C302.625 136.719 302.108 136.23 301.483 136.235C301.158 136.255 300.855 136.404 300.64 136.648C300.425 136.893 300.316 137.212 300.338 137.536V137.536Z" fill="#172866"/>
<path d="M308.452 139.252C308.842 138.341 309.735 137.657 310.831 137.432C312.883 137.057 313.989 139.62 315.408 139.647C314.386 140.048 312.86 138.516 311.785 138.102C311.224 137.913 310.593 137.952 310.069 138.207C309.457 138.464 308.908 138.818 308.452 139.252V139.252Z" fill="#172866"/>
<path d="M313.089 138.606C313.095 138.895 312.985 139.175 312.784 139.383C312.582 139.591 312.305 139.709 312.016 139.711C311.536 139.746 311.083 139.481 310.879 139.045C310.676 138.608 310.763 138.091 311.098 137.746C311.434 137.4 311.948 137.298 312.39 137.489C312.833 137.68 313.111 138.125 313.089 138.606V138.606Z" fill="#172866"/>
<path d="M304.954 133.686C305.176 133.551 303.428 131.803 301.276 131.609C299.124 131.414 296.857 133.686 296.857 133.686C296.857 133.686 299.986 131.863 301.306 132.453C302.627 133.043 303.726 134.47 304.954 133.686Z" fill="#172866"/>
<path d="M301.79 113.095C297.1 113.623 289.679 112.48 286.221 120.125C284.176 124.46 279.991 132.822 279.991 147.711C279.991 169.842 258.595 179.647 258.595 179.647L267.975 184.163L273.573 179.647L269.72 187.741L285.1 189.27L285.755 178.67L288.913 190.729L296.098 189.27C296.098 189.27 293.263 153.015 292.94 139.364L293.019 139.459C293.019 139.459 292.955 137.693 292.947 135.431V135.431C292.947 134.769 292.947 134.083 292.947 133.398C292.95 131.391 293.095 129.386 293.382 127.4C294.069 123.656 295.45 121.741 298.821 120.141C302.193 118.541 314.249 123.104 314.249 123.104C313.933 116.121 306.48 112.582 301.79 113.095Z" fill="#1B2B80"/>
<path d="M308.095 114.443C313.848 115.762 315.581 124.937 320.287 129.821C324.992 134.705 323.791 141.754 321.557 146.406C319.324 151.058 315.719 148.005 315.719 148.005C315.719 148.005 317.599 149.092 318.8 145.215C320.002 141.339 317.899 138.317 311.553 136.143C305.207 133.969 299.184 120.293 299.184 120.293C298.991 117.608 302.342 113.124 308.095 114.443Z" fill="#2F499F"/>
<path d="M316.162 147.631C318.392 148.945 321.544 143.428 319.243 139.823C317.581 137.037 313.917 135.843 310.994 134.641C306.361 131.95 301.91 124.532 299.176 120.003C301.13 125.407 305.282 132.913 310.277 135.922L311.483 136.448C312.719 136.949 316.486 137.976 318.298 140.427C319.763 142.378 319.085 145.394 318.093 146.795C317.707 147.479 316.919 147.82 316.162 147.631Z" fill="#023135"/>
<path d="M294.375 140.403C294.375 140.403 292.689 133.713 289.871 135.326C287.052 136.939 290.082 144.351 292.697 144.351C295.312 144.351 294.375 140.403 294.375 140.403Z" fill="#FC7575"/>
<path d="M291.278 136.379C291.278 136.379 295.064 142.671 292.471 141.979C289.877 141.286 288.847 135.233 291.278 136.379Z" fill="#FD5E5A"/>
<path d="M301.457 142.39C301.179 143.201 299.678 143.436 298.099 142.913C296.52 142.39 295.465 141.321 295.742 140.509C296.019 139.698 297.513 139.471 299.092 139.994C300.671 140.517 301.711 141.586 301.457 142.39Z" fill="#FD5E5A"/>
<path d="M314.24 142.16C314.353 143.075 313.412 144.044 312.117 144.291C310.823 144.538 309.733 143.998 309.62 143.066C309.507 142.133 310.455 141.191 311.742 140.935C313.03 140.679 314.133 141.237 314.24 142.16Z" fill="#FD5E5A"/>
<path fill-rule="evenodd" clip-rule="evenodd" d="M-1.48274 326.73C-1.58528 327.507 -3.51765 333.964 -4.15652 333.87C4.99268 335.228 10.4822 337.009 10.4743 338.892C10.4743 340.367 7.20901 341.74 1.53019 342.925C-2.22414 343.702 -4.92158 346.699 -4.92158 350.206C-4.92158 369.713 -22.2893 385.515 -43.719 385.515H-68.9582C-90.4115 385.515 -107.763 369.705 -107.763 350.206V349.304C-107.87 345.88 -110.273 342.953 -113.624 342.164C-122.102 339.865 -121.511 337.111 -109.909 334.757C-113.655 327.146 -115.288 323.003 -108.331 317.73C-94.01 306.881 -72.5369 307.543 -54.9946 308.083L-54.8715 308.087C-52.9666 308.145 -51.0324 308.19 -49.0811 308.235C-40.4566 308.433 -31.4974 308.64 -23.2515 310.041C-15.4905 311.359 -7.86353 314.521 -3.19427 320.516C-1.76931 322.255 -1.14786 324.511 -1.48274 326.73ZM-86.6335 351.054C-86.5073 361.333 -72.1525 369.65 -54.4536 369.65C-36.7467 369.65 -22.3998 361.333 -22.2421 351.054H-86.6335Z" fill="#0089A9"/>
<path d="M0.0077332 499.565C0.0077332 497.384 -1.57235 495.67 -3.51584 495.67L-46.2252 479.597V477.111H-58.4471V479.293L-102.002 496.659C-103.914 496.659 -105.47 498.428 -105.47 500.609V502.619H-91.0756V497.944L-57.104 487.037H-54.8682L-53.9755 497.555H-56.4483C-58.3049 497.555 -59.806 499.269 -59.806 501.373V502.619H-44.0052V501.373C-44.0052 499.269 -45.5142 497.555 -47.3708 497.555H-49.9858L-49.1484 487.037H-48.2319L-14.4262 497.165L-14.3551 501.84L0.0393306 501.552L0.0077332 499.565Z" fill="black"/>
<rect x="168.159" y="383.196" width="12.7539" height="62.61" fill="black"/>
<rect x="169.318" y="445.806" width="9.27555" height="44.0589" fill="#50576D"/>
<path d="M227.251 503.572C227.124 501.71 225.55 500.298 223.72 500.403L181.021 487.246V485.227H168.793V487.013L125.249 501.232C123.42 501.15 121.87 502.588 121.781 504.449V506.097H136.174V502.301L170.143 493.35H172.379L173.272 501.956H170.76C168.985 501.878 167.483 503.278 167.402 505.084V506.097H183.202V505.084C183.121 503.278 181.619 501.878 179.844 501.956H177.261L178.098 493.35H179.015L212.826 501.666L212.897 505.462L227.29 505.229L227.251 503.572Z" fill="black"/>
<path fill-rule="evenodd" clip-rule="evenodd" d="M212.133 381.353C211.52 379.306 209.625 379.883 207.991 380.382C207.779 380.446 207.571 380.51 207.371 380.566L206.465 380.715C203.757 355.145 178.913 341.07 157.233 346.239C155.005 334.54 149.455 325.854 129.357 324.351C123.362 323.878 117.334 323.991 111.361 324.69C108.557 325.022 106.512 327.503 106.723 330.318C106.934 333.132 109.326 335.282 112.148 335.193C111.967 335.193 125.161 334.304 135.663 336.995C143.48 339.111 144.527 341.841 146.212 350.582C146.926 354.425 147.376 358.386 147.811 362.212C148.9 371.792 149.894 380.531 154.698 384.46C164.53 392.076 214.542 389.456 212.133 381.353ZM161.271 376.223C161.337 376.223 161.351 376.223 161.358 376.23C161.36 376.232 161.362 376.235 161.364 376.239C161.368 376.248 161.376 376.263 161.405 376.286L161.271 376.223ZM158.691 357.87C159.255 363.794 159.853 370.063 161.515 376.333V376.341C168.356 379.346 189.509 381.541 201.482 381.164C200.39 377.005 198.656 373.042 196.342 369.417C188.367 356.278 172.843 351.054 158.248 353.414C158.405 354.873 158.547 356.361 158.691 357.87Z" fill="#196A7D"/>
<path d="M-24.1348 275.494C-19.4939 282.481 -15.3618 289.785 -16.8174 291.739C-19.5643 295.431 -36.1399 297.821 -39.0512 298.21L-41.399 297.471C-42.1816 297.471 -52.9424 293.589 -56.1511 294.708C-59.3598 295.828 -69.2441 309.064 -66.8337 309.064C-64.4233 309.064 -59.7902 303.672 -59.7902 303.672C-59.7902 303.672 -60.8467 307.055 -58.4285 307.055C-58.4285 307.055 -57.0746 310.151 -55.572 310.151C-54.0523 310.046 -52.5427 309.823 -51.0564 309.484C-51.0564 309.484 -44.5842 306.173 -40.366 306.173C-39.5129 306.173 -12.8183 310.358 -3.34094 303.204C1.27643 299.718 -1.77573 283.497 -8.17744 267.252C-13.8748 268.697 -18.8756 272.246 -24.1348 275.494Z" fill="#FC7575"/>
<rect x="211.058" y="339.137" width="6.95667" height="165.801" fill="#846D75"/>
<rect x="234.247" y="341.456" width="6.95667" height="172.757" fill="#846D75"/>
<rect x="-344.316" y="336.819" width="597.114" height="9.27555" fill="#1C0F00"/>
<rect x="138.013" y="322.905" width="78.8422" height="67.2478" transform="rotate(180 138.013 322.905)" fill="#464A7F"/>
<rect x="119.462" y="310.151" width="49.8561" height="38.2617" transform="rotate(180 119.462 310.151)" fill="#3C405E"/>
<rect x="98.5921" y="300.876" width="22.0294" height="22.0294" transform="rotate(180 98.5921 300.876)" fill="#242744"/>
<rect x="125.259" y="336.819" width="49.8561" height="4.63778" transform="rotate(180 125.259 336.819)" fill="#242744"/>
<path d="M98.7558 280.006V301.624H89.3165V332.181H90.2711V302.155H99.7515V280.006H98.7558V280.006Z" fill="#595E7A"/>
<rect x="81.2004" y="300.876" width="8.11611" height="32.4644" fill="#242744"/>
<path d="M27.866 318.797L29.3669 319.427L32.5038 310.011C31.9856 309.76 31.5088 309.415 31.093 308.992L27.866 318.797Z" fill="#FD5E5A"/>
<rect x="25.5471" y="298.557" width="3.47833" height="19.7106" fill="#8DFDB0"/>
<rect x="25.5471" y="298.557" width="3.47833" height="10.435" fill="#13447A"/>
<path d="M26.7065 318.956L24.3962 319.427L20.9093 298.273V292.76L23.2124 297.803L26.7065 318.956V318.956Z" fill="#BE1E2D"/>
<rect x="22.0688" y="315.948" width="11.5944" height="20.87" fill="#20C9AC"/>
<rect x="26.7065" y="303.195" width="1.15944" height="10.435" fill="#13447A"/>
<path fill-rule="evenodd" clip-rule="evenodd" d="M34.324 301.429L34.5042 300.876L35.9821 301.503L33.2065 310.151C32.7087 309.901 32.2507 309.558 31.8512 309.136L32.3631 307.552C32.0589 307.713 31.6988 307.633 31.4691 307.354C31.3632 307.249 31.3198 307.083 31.3579 306.929C31.396 306.775 31.5087 306.66 31.6468 306.634C31.7701 306.611 31.8938 306.663 31.975 306.768C31.9829 306.767 32.0713 306.8 32.2766 306.553C32.4329 306.45 32.4022 305.824 32.3634 305.033C32.2717 303.162 32.1349 300.373 34.324 301.429ZM34.2741 301.586C34.1499 301.565 34.0235 301.565 33.8993 301.586H33.9209C33.0038 301.692 33.0827 302.951 33.1642 304.251C33.1775 304.463 33.1909 304.677 33.2 304.887L34.2741 301.586Z" fill="#5B1432"/>
<defs>
<linearGradient id="paint0_linear" x1="641.212" y1="524.633" x2="1284.7" y2="524.633" gradientUnits="userSpaceOnUse">
<stop stop-color="#F2CADD"/>
<stop offset="1" stop-color="#FFFFF1"/>
</linearGradient>
</defs>
</svg>
