<svg width="375" height="232" viewBox="0 0 375 232" fill="none" xmlns="http://www.w3.org/2000/svg">
<path d="M577.724 214.092C577.724 214.092 616.514 100.426 546.541 96.2021C476.569 91.978 307.004 215.408 307.004 224.977C307.004 234.546 568.017 225.836 568.017 225.836L577.724 214.092Z" fill="url(#paint0_linear)"/>
<path d="M603.66 227.184C603.66 229.563 518.521 231.493 413.496 231.493C308.471 231.493 223.332 229.563 223.332 227.184C223.332 224.805 308.471 222.872 413.496 222.872C518.521 222.872 603.66 224.802 603.66 227.184Z" fill="#5DB9F4"/>
<rect x="338.445" y="146.807" width="192.699" height="7.09945" fill="#1C0F00"/>
<rect x="338.445" y="146.807" width="192.699" height="2.02842" fill="#00C9F7"/>
<rect x="310.554" y="186.361" width="4.05683" height="25.3552" fill="#4C505E"/>
<path d="M323.232 173.176V176.207C323.232 178.23 321.332 179.871 318.991 179.871H318.519V183.295C318.519 184.148 317.719 184.839 316.733 184.839H309.737C308.751 184.839 307.951 184.154 307.951 183.295V179.699C306.227 179.234 304.976 177.843 304.976 176.2V173.176H323.232Z" fill="#303030"/>
<rect x="315.118" y="190.925" width="5.07104" height="6.08525" transform="rotate(180 315.118 190.925)" fill="#303030"/>
<path d="M310.047 219.322H315.118V214.828V211.209H310.047V219.322Z" fill="#001F26"/>
<path d="M334.388 224.439L315.118 214.758V219.169L328.934 224.439V225.408H334.388V224.439Z" fill="#001F26"/>
<path d="M290.777 224.439L310.047 214.758V219.169L296.231 224.439V225.408H290.777V224.439Z" fill="#001F26"/>
<path d="M314.354 214.758V225.652H315.625V226.422H310.047V225.652H311.226L310.856 214.758H314.354Z" fill="#001F26"/>
<path d="M292.805 110.438V160.498H320.696L318.213 109.893C318.013 105.724 315.578 102.453 312.571 102.182C312.44 102.182 312.309 102.182 312.174 102.182H298.862C295.52 102.137 292.805 105.844 292.805 110.438Z" fill="#0089A9"/>
<path d="M304.136 103.261C304.271 103.261 304.406 103.261 304.533 103.261C307.547 103.532 309.984 106.803 310.181 110.973L312.598 160.498H320.696L318.211 109.893C318.01 105.723 315.573 102.452 312.563 102.181C312.432 102.181 312.301 102.181 312.166 102.181H298.841C297.749 102.196 296.694 102.578 295.848 103.265L304.136 103.261Z" fill="#75E0F9"/>
<path d="M296.422 102.181H300.919C298.746 102.181 296.663 103.056 295.128 104.612C293.594 106.168 292.734 108.278 292.738 110.476V160.498H288.241V110.476C288.237 108.278 289.097 106.168 290.632 104.612C292.166 103.056 294.25 102.181 296.422 102.181V102.181Z" fill="#004555"/>
<path d="M325.993 81.6133L326.049 81.6741L325.993 81.6133Z" fill="#31003D"/>
<path d="M306.828 84.9399H306.769C306.593 84.9021 306.476 84.7361 306.5 84.5585C310.765 60.3207 332.336 60.599 332.546 60.599C332.727 60.6116 332.867 60.7618 332.867 60.9425C332.867 61.0316 332.83 61.1167 332.764 61.1774C332.699 61.2381 332.611 61.2687 332.522 61.262C332.308 61.262 311.31 61.0078 307.145 84.6788C307.109 84.826 306.98 84.9321 306.828 84.9399Z" fill="#3C4875"/>
<path d="M350.284 168.612L354.238 156.479C355.084 153.878 354.68 151.028 353.143 148.77C351.606 146.512 349.113 145.103 346.399 144.959L313.827 143.257L313.597 147.692L346.169 149.401C347.512 149.473 348.745 150.17 349.506 151.287C350.266 152.405 350.466 153.815 350.047 155.102L346.093 167.235L350.284 168.612Z" fill="#1E1E1E"/>
<path d="M294.327 174.19H344.53C344.531 171.77 343.575 169.448 341.873 167.736C340.171 166.024 337.863 165.062 335.455 165.062H303.398C300.992 165.063 298.684 166.025 296.982 167.737C295.281 169.449 294.326 171.77 294.327 174.19H294.327Z" fill="#004555"/>
<path d="M304.976 174.19H355.179C355.18 171.77 354.224 169.448 352.522 167.736C350.821 166.024 348.512 165.062 346.104 165.062H314.051C311.643 165.062 309.335 166.024 307.633 167.736C305.931 169.448 304.975 171.77 304.976 174.19H304.976Z" fill="#0089A9"/>
<path d="M353.99 139.352L349.377 137.367C347.575 136.495 345.597 136.418 344.604 136.259C343.518 136.083 342.174 135.887 340.473 135.65C340.531 137.16 340.771 138.657 341.188 140.112C341.591 140.061 341.99 140.011 342.379 139.967C344.371 139.74 348.808 140.055 350.186 142.029C351.564 144.003 351.55 145.355 351.987 145.22C352.425 145.084 352.015 142.982 351.349 141.958C350.953 141.352 350.605 140.718 350.307 140.061C350.307 140.061 352.092 142.09 352.366 143.168C352.64 144.246 353.209 145.368 353.484 145.28C353.758 145.193 353.161 143.252 352.925 142.11C352.793 141.405 352.559 140.722 352.23 140.082L353.57 140.71C353.57 140.71 355.494 143.57 355.674 142.88C355.855 142.191 353.99 139.352 353.99 139.352Z" fill="#FD5E5A"/>
<path d="M337.177 134.649C328.201 133.38 326.009 134.872 326.009 130.83C326.009 125.355 332.068 112.334 329.327 108.683C328.88 108.088 325.433 105.689 323.866 107.284C318.579 112.728 316.115 132.873 320.211 139.45C322.719 143.482 333.218 141.161 340.972 140.135C340.532 138.629 341.051 136.152 340.972 134.643C340.03 134.513 338.385 134.824 337.177 134.649Z" fill="#B54300"/>
<path d="M341.995 136.157L347.206 138.133C347.206 138.133 349.282 140.942 349.08 141.629C348.879 142.315 346.69 139.468 346.69 139.468L343.538 138.166L341.995 136.157Z" fill="#D80000"/>
<path d="M338.952 137.309C338.952 137.309 341.335 139.861 341.335 140.406C341.335 140.95 341.547 142.243 342.019 142.243C342.492 142.243 342.502 139.995 342.502 139.297C342.502 138.598 341.312 136.664 341.11 136.664C340.909 136.664 338.952 137.309 338.952 137.309Z" fill="#D80000"/>
<path d="M348.153 210.306C347.685 210.756 345.544 209.795 345.544 211.669C345.544 212.296 346.832 212.381 347.115 214.541C347.306 215.992 346.36 219.409 346.815 220.7C347.343 222.193 348.326 223.484 349.625 224.393C349.625 222.874 348.887 222.063 348.887 220.459C348.887 218.854 353.941 213.529 354.382 208.266C354.434 207.832 354.531 207.405 354.672 206.991C353.187 206.137 351.767 205.174 350.424 204.109C349.178 207.724 348.276 210.194 348.153 210.306Z" fill="#FD5E5A"/>
<path d="M348.999 212.072C348.999 211.444 348.493 210.819 348.082 210.195C347.545 210.571 345.513 209.688 345.513 211.545C345.513 213.402 341.487 218.777 341.487 218.777L342.295 219.499C342.295 219.499 346.249 212.795 346.584 214.438C346.919 216.082 344.303 221.07 344.303 221.07L349.321 225.408L349.601 224.574C349.601 223.041 348.89 222.207 348.869 220.616C346.41 218.7 349.362 214.575 348.999 212.072Z" fill="#3A0049"/>
<path d="M367.218 165.513C364.492 158.137 328.372 150.356 328.372 150.356L324.048 151.877L320.189 157.025L356.23 168.625C356.23 168.625 352.515 193.268 348.267 205.775C349.685 207.01 352.109 206.585 353.803 207.659C356.639 198.468 368.737 169.621 367.218 165.513Z" fill="#6D175B"/>
<path d="M357.514 204.109C355.712 204.219 353.902 204.373 352.082 204.588C352.597 208.132 352.836 210.973 352.397 211.742C352.051 212.34 351.67 212.935 351.3 213.502C350.262 215.105 349.324 216.506 349.677 217.194C349.891 217.611 352.182 217.166 353.026 219.193C354.064 221.685 353.656 226.689 353.656 226.689L361.417 227.943C361.417 227.943 362.49 227.465 360.902 225.913C359.314 224.361 358.006 223.862 357.49 222.177C356.975 220.492 357.442 211.878 357.442 206.365C357.442 205.798 357.469 205.032 357.514 204.109Z" fill="#FC7575"/>
<path d="M362.138 227.425C361.451 225.78 360.244 224.403 358.699 223.505L357.042 224.616C355.132 222.287 355.159 218.523 353.953 216.154C353.682 215.352 352.808 214.357 351.779 213.744C350.76 215.332 349.836 216.719 350.182 217.4C350.648 218.32 350.604 226.585 350.604 226.585H351.749C351.749 226.585 351.069 219.762 352.211 219.356C353.352 218.95 353.631 227.252 353.631 227.252L362.097 228.45C362.097 228.45 362.477 228.274 362.138 227.425Z" fill="#4F005E"/>
<path d="M351.528 160.098L323.808 153.906L305.168 156.807C305.168 156.807 302.757 164.611 306.89 167.741C308.527 168.974 343.633 170.912 343.633 170.912C343.633 170.912 348.993 196.62 350.216 205.123C352.427 204.863 356.006 204.243 358.197 204.096C358.614 195.483 353.657 160.704 351.528 160.098Z" fill="#7F71A4"/>
<path d="M328.655 99.9293C330.196 100.198 333.812 106.383 334.648 108.535C334.817 108.965 337.199 116.916 334.945 119.584C332.692 122.251 329.491 129.91 327.736 133.555C326.906 135.276 321.781 142.505 328.261 146.377C329.889 147.355 332.626 147.01 331.779 148.411C330.933 149.812 312.698 160.29 305.167 158.194C297.635 156.097 303.687 153.554 304.392 151.654C305.097 149.754 301.223 149.303 302.841 147.141C304.458 144.979 310.482 139.71 313.9 128.093C314.246 126.95 315.11 105.268 316.392 101.843C317.243 99.5541 325.195 99.3303 328.655 99.9293Z" fill="#F15900"/>
<path d="M338.505 76.0228C337.863 76.281 333.589 73.9193 328.199 76.5909C322.941 79.204 321.144 88.1931 320.736 92.7927C320.646 93.7363 320.708 94.6882 320.919 95.6123C322.402 95.7086 323.86 96.0386 325.239 96.5901C327.337 97.4749 330.542 99.1033 332.981 99.6301C335.421 100.157 341.745 87.4116 341.479 83.3078C341.214 79.204 338.505 76.0228 338.505 76.0228Z" fill="#2E0A29"/>
<path d="M338.107 75.812C338.107 75.812 342.481 77.9709 342.502 81.6822C342.523 85.3935 337.39 95.256 340.22 96.7364C340.22 96.7364 338.569 97.0791 337.453 96.6028C337.453 96.6028 336.221 97.6068 337.274 100.153C335.65 100.117 334.041 99.833 332.506 99.31C332.352 99.2517 330.511 99.0941 330.889 97.6617C331.337 95.9654 334.038 92.8641 334.489 91.2089C336.33 84.2592 338.107 75.812 338.107 75.812Z" fill="#450F3D"/>
<path d="M338.363 76.8262C338.82 76.984 339.253 77.2033 339.649 77.4778C339.649 77.4778 343.341 80.907 342.325 84.1476C341.308 87.3882 340.386 88.4547 339.953 90.6357C339.254 94.0649 334.891 99.291 331.345 97.8919C331.915 96.1773 334.468 93.1905 334.887 91.6027C336.438 85.7696 337.92 78.9112 338.363 76.8262Z" fill="#340B2E"/>
<path d="M328.083 92.5464L324.246 100.087C324.246 100.087 327.249 110.831 332.863 109.705C332.959 109.688 331.021 107.812 330.657 104.799C330.371 102.425 331.457 99.4093 332.608 95.5765C333.18 93.6827 328.083 92.5464 328.083 92.5464Z" fill="#FC7575"/>
<path d="M328.151 92.5464L325.767 97.1723C328.627 99.1554 331.971 97.5058 332.336 97.0004C332.94 95.4736 332.443 96.2282 332.763 95.5965C333.684 93.831 328.151 92.5464 328.151 92.5464Z" fill="#FD5E5A"/>
<path d="M338.879 76.8465C338.879 76.8465 342.275 80.1039 341.317 83.2071C340.36 86.3102 339.514 87.3217 339.103 89.4168C338.692 91.5118 335.897 96.4357 332.354 96.6003C328.812 96.7648 326.649 90.1403 326.788 87.5892C326.927 85.0381 327.898 81.6778 330.004 78.4032C332.11 75.1286 336.841 75.3789 338.879 76.8465Z" fill="#FC7575"/>
<path d="M327.704 92.0393C327.056 90.377 326.73 88.6528 326.788 87.6087C326.927 85.05 327.897 81.6875 330.001 78.4075C332.104 75.1275 336.846 75.3782 338.882 76.8482C338.882 76.8482 342.274 80.1111 341.317 83.2193C340.999 84.2497 340.69 85.0671 340.408 85.7609L336.677 84.1845C336.677 84.1845 338.125 81.0144 337.677 79.9015L336.093 83.7689L333.454 82.7969C333.454 82.7969 333.145 80.7121 333.759 79.2421C333.759 79.2421 332.894 81.3029 333.003 82.632C333.003 82.632 331.239 81.8352 330.781 82.9274C330.411 83.8204 328.291 89.5115 327.891 91.0811C327.812 91.3971 327.75 91.7169 327.704 92.0393Z" fill="#FD5E5A"/>
<path d="M342.414 80.4481C342.072 78.4003 340.132 76.7184 338.206 75.8689C335.603 73.417 329.704 72.2393 324.267 77.4471C321.135 80.4481 315.663 93.0325 316.79 92.9876C316.903 92.9876 320.8 95.5327 320.8 95.5327L320.878 93.3778C321.104 93.9407 322.009 94.4587 323.16 94.9077C322.889 93.3273 323.175 91.7011 323.966 90.3111C323.512 91.9939 323.679 93.7863 324.437 95.3532C326.167 95.8709 327.924 96.2883 329.701 96.6033C329.701 96.5515 327.522 92.4005 328.28 89.4305C328.686 87.8523 330.09 83.8809 330.463 82.983C330.924 81.8813 332.854 82.3786 332.854 82.3786C332.744 81.0352 334.22 78.5798 334.22 78.5798C333.602 80.0579 333.578 82.6929 333.578 82.6929L336.126 83.7807L338.004 79.2912C338.452 80.4102 337.188 84.2435 337.188 84.2435L340.815 85.6697C342.146 84.2894 342.741 82.3472 342.414 80.4481Z" fill="#464A7F"/>
<path d="M338.445 76.203C333.87 74.2051 330.17 74.0153 326.866 77.7697C323.67 81.3756 318.796 89.5849 318.668 94.3883L320.846 95.5891C320.71 91.676 324.091 82.8629 326.404 79.6572C329.291 75.644 331.778 73.7634 338.445 76.203Z" fill="#3B4999"/>
<path d="M338.952 76.8262C340.372 77.8804 341.834 79.32 341.981 81.0496C342.117 82.6496 341.206 84.1199 340.348 85.447L339.954 85.2969C341.894 82.4927 343.209 80.2309 338.952 76.8262Z" fill="#363A68"/>
<path d="M338.691 76.8262C341.659 79.5073 340.479 82.0437 338.353 84.9399L337.938 84.7847C340.297 82.0366 341.57 79.5884 338.691 76.8262Z" fill="#363A68"/>
<path d="M337.938 76.3192C336.069 78.4661 335.544 80.6374 335.242 83.4186L334.895 83.2583C335.343 80.5328 336.014 78.3336 337.938 76.3192Z" fill="#363A68"/>
<path d="M335.432 90.7036C335.173 89.9452 335.527 88.7058 335.909 87.9825C335.796 88.7568 335.52 90.1269 335.721 90.7195L335.763 90.8438C335.715 90.8438 335.004 91.1974 334.388 90.917C334.747 90.9138 335.102 90.8412 335.432 90.7036Z" fill="#450F3D"/>
<path d="M335.909 84.8753C335.707 84.5649 335.392 84.3048 335.002 84.1254C334.305 83.7827 332.36 83.9849 332.36 83.9849C333.109 84.0356 333.852 84.1295 334.583 84.2658C334.963 84.4416 335.296 84.6703 335.565 84.9399L335.909 84.8753Z" fill="#5C1451"/>
<path d="M337.431 86.1149C337.791 85.9805 338.189 85.9289 338.582 85.9655C339.296 86.0143 340.473 86.9683 340.473 86.9683C339.928 86.6909 339.359 86.4475 338.77 86.2399C338.388 86.2037 338.002 86.2254 337.629 86.3039L337.431 86.1149Z" fill="#5C1451"/>
<path d="M333.847 86.631C333.75 86.8783 333.524 87.0242 333.333 86.9481C333.115 86.931 332.933 86.7789 332.881 86.5706C332.829 86.3623 332.919 86.1447 333.104 86.0305C333.289 85.9163 333.527 85.9313 333.696 86.0676C333.865 86.2039 333.925 86.4309 333.847 86.631Z" fill="#464A7F"/>
<path d="M338.385 88.6192C338.372 88.7917 338.23 88.9378 338.033 88.9828C337.836 89.0277 337.627 88.9617 337.513 88.8184C337.398 88.6751 337.404 88.4862 337.527 88.348C337.648 88.0768 337.932 87.9223 338.171 88.0047C338.423 88.129 338.517 88.3985 338.385 88.6192Z" fill="#464A7F"/>
<path d="M331.853 94.0677C332.115 94.3167 332.47 94.4931 332.867 94.5716C332.424 94.6037 332.009 94.3975 331.853 94.0677H331.853Z" fill="#2E0A29"/>
<path d="M331.873 91.0251C333.133 92.2374 335.402 93.1323 335.402 93.1323C335.18 93.2957 334.941 93.4391 334.69 93.5607C333.675 93.1217 332.727 92.5604 331.873 91.8915C331.846 91.6032 331.846 91.3134 331.873 91.0251V91.0251Z" fill="white"/>
<path d="M331.853 92.0394C332.776 92.7243 333.799 93.299 334.895 93.7485C333.132 94.5445 332.027 93.8069 331.853 92.0394Z" fill="#2E0A29"/>
<path d="M334.895 86.9683C334.613 86.4524 334.111 86.0884 333.528 85.976C332.838 85.8603 332.278 86.2439 331.853 86.1745C332.399 86.5416 332.858 85.9529 334.198 86.5383C334.451 86.6459 334.686 86.7909 334.895 86.9683Z" fill="#2E0A29"/>
<path d="M336.924 88.1947C337.483 87.9118 338.13 87.9118 338.69 88.1947C339.337 88.5521 339.563 89.2781 339.966 89.5038C339.271 89.4737 339.271 88.6311 337.769 88.2549C337.491 88.1894 337.206 88.1691 336.924 88.1947Z" fill="#2E0A29"/>
<path d="M332.828 89.011C332.637 89.493 331.82 89.6471 331.003 89.3585C330.186 89.07 329.673 88.4438 329.864 87.9651C330.054 87.4864 330.868 87.3323 331.689 87.6209C332.509 87.9094 333.015 88.5323 332.828 89.011Z" fill="#FD5E5A"/>
<path d="M338.413 91.1166C338.272 91.4911 337.723 91.6361 337.174 91.4539C336.626 91.2718 336.309 90.7792 336.45 90.4182C336.591 90.0573 337.14 89.8987 337.692 90.0977C338.244 90.2968 338.548 90.7421 338.413 91.1166Z" fill="#FD5E5A"/>
<path d="M345.844 141.026C344.593 135.358 338.608 135.351 336.516 135.044C335.679 134.923 334.692 134.788 333.55 134.636C333.051 136.045 332.458 137.482 332.36 139.023C332.925 138.954 333.477 138.892 334.018 138.836C336.255 138.605 341.229 138.926 342.776 140.94C344.322 142.954 344.308 144.342 344.81 144.204C345.312 144.066 344.844 141.914 344.094 140.871C343.653 140.258 343.259 139.61 342.918 138.933C342.918 138.933 344.922 141.006 345.227 142.104C345.532 143.203 346.176 144.353 346.481 144.266C346.787 144.18 346.105 142.211 345.844 141.026Z" fill="#FC7575"/>
<path d="M375.515 101.674H374.597L361.264 138.186L401.326 137.636L375.515 101.674Z" fill="#A338C6"/>
<path d="M375.429 101.674L362.786 137.679H401.631L412.989 106.792L375.429 101.674Z" fill="#603E6B"/>
<rect x="349.601" y="145.285" width="36.0044" height="2.53552" fill="#603E6B"/>
<path fill-rule="evenodd" clip-rule="evenodd" d="M291.625 174.19L280.67 148.083C280.546 147.369 280.755 146.638 281.24 146.094C281.725 145.551 282.432 145.254 283.163 145.288L312.57 146.808C315.35 146.908 317.931 148.256 319.581 150.472C321.199 152.714 321.636 155.586 320.759 158.201L314.794 174.135L291.625 174.19ZM312.646 151.196L285.053 149.774L294.059 170.527H310.982L316.546 156.828C316.968 155.556 316.767 154.162 316.003 153.058C315.238 151.954 313.997 151.265 312.646 151.196Z" fill="#1E1E1E"/>
<path d="M327.692 132.96C317.21 131.676 314.802 133.802 314.802 129.727C314.802 124.207 322.699 108.592 320.479 103.096C320.166 102.323 318.491 100.136 316.683 101.743C310.511 107.232 303.266 131.787 308.047 138.414C310.944 142.43 322.942 140.201 331.959 139.153C332.06 137.614 333.871 134.985 334.388 133.577C332.865 133.384 329.867 133.225 327.692 132.96Z" fill="#F47A33"/>
<path d="M-150.91 222.421C-150.91 222.421 -84.4582 115.613 37.6321 91.0213C102.48 77.9607 129.931 23.7904 179.519 15.5932C229.107 7.39597 245.255 80.4319 253.887 136.455C262.519 192.478 249.227 224.393 249.227 224.393L-150.91 222.421Z" fill="#FCD4E7"/>
<path d="M263.901 225.418C263.901 228.504 161.618 230.986 35.4485 230.986C-90.7211 230.986 -193 228.476 -193 225.418C-193 222.36 -90.7176 219.829 35.4658 219.829C161.649 219.829 263.901 222.332 263.901 225.418Z" fill="#5DB9F4"/>
<path d="M256.547 0V139.454H119.629V0L256.547 0Z" fill="#5A4496"/>
<rect x="121.911" y="2.28195" width="131.847" height="134.383" fill="#D9CCFF"/>
<path d="M193.92 40.3148H169.072L190.929 51.9781C192.83 48.3711 193.854 44.3783 193.92 40.3148Z" fill="#B098EE"/>
<path d="M140.674 40.3148C140.843 49.79 145.993 58.4695 154.214 63.1344L166.537 40.3148H140.674Z" fill="#B098EE"/>
<path d="M167.551 40.8218V66.6841C177.028 66.5168 185.709 61.3648 190.37 53.141L167.551 40.8218Z" fill="#B098EE"/>
<path d="M140.674 39.3006H165.522L143.683 27.6372C141.776 31.2426 140.746 35.2355 140.674 39.3006H140.674Z" fill="#B098EE"/>
<path d="M179.871 16.988L167.551 39.8076H193.413C193.248 30.3308 188.096 21.6494 179.871 16.988Z" fill="#FFBA00"/>
<path d="M166.536 39.3006V13.4383C157.061 13.5994 148.38 18.7488 143.717 26.9735L166.536 39.3006Z" fill="#B098EE"/>
<path d="M168.058 12.424V37.2721L179.721 15.4233C176.114 13.5206 172.122 12.4939 168.058 12.424V12.424Z" fill="#FFF7CF"/>
<path d="M166.537 41.8361L154.873 63.6874C158.48 65.5884 162.473 66.6143 166.537 66.6842V41.8361Z" fill="#B098EE"/>
<rect x="144.224" y="104.717" width="5.57814" height="21.8055" fill="#B098EE"/>
<rect x="154.873" y="100.66" width="5.57814" height="25.8623" fill="#B098EE"/>
<rect x="165.015" y="97.1104" width="5.57814" height="29.9191" fill="#B098EE"/>
<rect x="175.664" y="93.0536" width="5.57814" height="33.976" fill="#B098EE"/>
<rect x="186.314" y="88.9967" width="5.57814" height="38.0328" fill="#B098EE"/>
<rect x="196.963" y="84.9399" width="5.57814" height="42.0896" fill="#B098EE"/>
<rect x="207.105" y="80.8831" width="5.57814" height="45.6393" fill="#B098EE"/>
<rect x="217.754" y="76.8262" width="5.57814" height="49.6962" fill="#B098EE"/>
<rect x="228.403" y="73.2765" width="5.57814" height="53.753" fill="#B098EE"/>
<rect x="239.052" y="69.2197" width="5.57814" height="57.8098" fill="#B098EE"/>
<path d="M246.152 46.4C245.635 46.4933 231.711 48.9816 231.205 48.9816L235.961 50.2776L221.696 55.7103C220.952 58.9762 220.422 61.2951 220.002 63.1337L209.849 62.1833L196.417 74.2998L185.899 72.9554L166.43 89.6027L157.352 86.5269L137.632 100.254L138.613 101.674L157.621 88.4415L166.806 91.5519L186.436 74.7698L196.982 76.1142L210.434 63.9735L221.338 65.0102L223.17 56.9752L236.708 50.7545L235.658 55.4235L246.152 46.4Z" fill="#CD3179"/>
<path d="M167.608 76.1323L169.546 74.8344C169.546 74.8344 164.49 66.5882 165.022 59.4776C165.297 55.7291 159.106 50.1994 157.447 51.052C157.346 51.014 151.941 51.1728 151.461 63.4264L150.309 77.7787L156.124 82.9115C156.124 82.9115 159.806 76.65 164.476 79.4011C169.146 82.1521 170.593 82.0692 170.593 82.0692C170.593 82.0692 167.608 77.4543 167.608 76.1323Z" fill="#002B32"/>
<path d="M163.119 75.3544C163.119 75.3544 157.972 72.8278 153.859 75.5627L154.247 78.581L158.489 87.4754L162.547 86.5775L164.508 77.1914L163.119 75.3544Z" fill="#411026"/>
<path d="M140.167 168.612C140.167 168.612 158.567 161.397 175.664 168.399L167.797 100.66L152.745 104.065L140.167 168.612Z" fill="#411026"/>
<path d="M183.876 223.144C182.936 220.619 182.371 216.829 181.169 211.718C181.031 211.118 180.831 210.259 180.611 209.213C179.061 209.012 177.471 209.782 176.172 210.484C176.683 211.868 177.369 213.517 177.407 214.117C177.498 215.562 177.068 215.695 177.068 215.695C177.068 218.189 177.843 220.861 178.354 221.379C179.031 222.04 179.748 225.325 180.384 225.325C181.02 225.325 186.306 225.915 186.306 225.915C186.441 224.698 184.817 225.656 183.876 223.144Z" fill="#FD5E5A"/>
<path d="M156.301 221.541C156.025 220.683 155.749 216.935 155.531 212.011C154.158 211.991 152.621 211.518 151.158 211.812C151.269 212.488 151.525 213.657 151.525 213.84C151.525 215.627 150.66 214.962 150.344 216.246C150.132 217.097 150.96 218.72 150.96 218.72C152.174 218.72 152.685 223.069 153.277 224.333C153.613 225.063 155.174 225.408 156.95 225.408C158.333 225.408 158.1 225.046 157.075 223.272C156.755 222.725 156.496 222.145 156.301 221.541Z" fill="#FC7575"/>
<path d="M174.77 168.377C174.595 167.608 169.65 125.624 167.801 110.133L157.836 109.788L152.338 132.692L165.454 174.169C165.007 178 165.179 181.092 166.389 186.33C167.385 190.653 171.481 205.106 173.949 211.716C175.265 211.002 179.303 209.592 180.735 209.092C175.117 174.421 176.646 176.483 174.77 168.377Z" fill="#730033"/>
<path d="M156.648 172.408L165.015 125.381L164.024 109.281H155.839C155.839 109.281 147.62 118.149 145.782 129.38C143.944 140.61 147.355 172.608 147.355 172.608C147.116 175.118 146.723 177.612 146.178 180.074C145.321 183.676 146.839 206.248 147.816 212.223C149.303 211.927 153.84 211.686 155.244 211.706C154.71 199.718 154.49 180.88 155.299 178.924C155.825 177.639 156.297 174.936 156.648 172.408Z" fill="#990044"/>
<path d="M168.058 111.816L154.366 111.498L156.065 109.281H168.058V111.816Z" fill="#3A1425"/>
<path d="M185.2 76.7994C185.392 75.5619 185.31 74.7048 184.924 74.3209C184.538 73.937 184.729 73.7107 184.371 73.3508C184.012 72.9908 183.179 73.3165 183.073 72.3772C182.967 71.4379 183.223 66.0524 182.564 66.1793C181.905 66.3061 181.827 73.433 181.564 73.7004C181.301 73.9678 180.816 74.2558 180.648 73.1451C180.481 72.0344 181.331 71.4996 180.99 71.1602C180.648 70.8209 179.668 71.9693 179.586 72.3772C179.586 72.3772 178.736 76.0521 179.586 78.5306C180.183 80.1856 180.547 81.9164 180.665 83.6726C180.788 87.2824 180.324 90.9813 179.207 96.617C178.961 97.8682 177.841 97.5494 177.179 97.1792L174.143 101.906C176.26 104.44 179.091 105.883 180.437 105.718C183.892 105.297 183.442 84.1868 183.442 84.1868C183.442 83.9263 183.442 84.0771 183.421 83.6726C183.373 82.394 183.332 81.2181 183.332 81.0605C183.326 80.1109 185.006 78.0403 185.2 76.7994Z" fill="#FD5E5A"/>
<path d="M183.913 73.3118C183.913 73.3118 180.707 76.443 181.321 77.0692C181.935 77.6954 184.513 74.3486 184.513 74.3486C184.513 74.3486 181.654 77.271 182.16 77.7754C182.667 78.2799 185.134 75.8167 185.134 75.8167C185.134 75.8167 182.532 78.0607 182.997 78.3217C183.462 78.5826 185.134 76.7839 185.134 76.7839C185.26 76.4406 185.313 76.074 185.286 75.7089C185.196 75.3053 185.342 75.1383 185.286 74.8878C185.159 74.6008 184.979 74.34 184.756 74.119C184.596 73.9867 184.541 73.0892 183.913 73.3118Z" fill="#FC7575"/>
<path d="M176.863 96.3989C177.126 95.7549 177.511 94.9836 176.684 94.4188C175.551 93.644 175.593 94.2053 175.593 92.4904C175.593 90.8857 175.155 90.6516 173.9 90.259L173.767 89.8182C172.196 84.5392 167.381 76.5054 165.884 75.8786C164.387 75.2519 164.001 79.2533 164.001 79.2533C164.001 79.2533 173.651 103.272 174.015 103.703L177.133 97.1255L176.894 96.4368L176.863 96.3989Z" fill="#571A35"/>
<path d="M151.754 219.608L151.831 225.391L151.158 225.408L150.309 218.815L151.754 219.608Z" fill="#1D1B22"/>
<path d="M165.549 75.8984C165.549 75.8984 162.575 73.5641 152.554 75.6947C152.063 75.7983 151.323 87.4803 151.323 87.4803C151.323 87.4803 154.663 105.747 153.709 110.582C153.709 110.582 160.759 116.514 169.107 112.381C169.107 112.381 168.084 97.156 168.841 93.7685C169.597 90.3809 171.134 87.3111 168.998 83.7854C166.861 80.2598 165.549 75.8984 165.549 75.8984Z" fill="#7F71A4"/>
<path d="M170.086 111.859C169.942 112.114 169.769 112.349 169.569 112.559C169.246 112.899 166.537 113.845 166.537 113.845L168.153 112.852C168.153 112.852 170.086 111.57 170.086 111.859Z" fill="#FD5E5A"/>
<path d="M150.941 214.758C151.502 218.015 153.745 224.431 155.052 224.434C156.819 224.434 156.925 224.35 156.914 223.215C157.974 224.983 159.214 225.91 157.762 225.91C155.897 225.91 152.986 226.014 152.629 225.286C152.008 224.027 151.668 219.261 150.39 219.265L150.789 225.128L150.111 225.145C150.111 225.145 149.107 217.062 149.326 216.264C149.63 215.139 150.58 214.947 150.941 214.758Z" fill="#393644"/>
<path d="M184.655 223.997C185.913 225.18 187.944 224.928 187.83 225.915C187.83 225.915 180.864 225.615 180.229 225.615C179.593 225.615 179.05 221.687 178.38 221.018C177.709 220.349 178.125 225.615 178.125 225.615H177.438C177.438 225.615 176.981 220.187 176.345 218.076C175.836 216.397 176.558 215.693 177.074 215.266C179.163 219.28 179.387 224.939 184.655 223.997Z" fill="#393644"/>
<path d="M242.602 88.4896C242.602 88.4896 241.047 97.6913 236.158 103.918C232.507 108.553 224.854 113.721 224.854 113.721L229.18 118.409L241.115 108.657L242.602 88.4896Z" fill="#363A68"/>
<path d="M249.135 79.8688H258.829L258.514 110.969L245.645 111.816L249.135 79.8688Z" fill="#260E0D"/>
<path d="M238.209 228.342C232.838 228.342 232.967 230.479 232.967 230.479H248.687C248.687 230.479 247.903 223.918 247.787 222.365H244.095C243.685 224.265 242.33 228.342 238.209 228.342Z" fill="#260E0D"/>
<path d="M264.743 228.797C259.853 228.797 258.853 222.919 258.713 221.858H255.18C255.18 222.148 255.18 222.328 255.18 222.373C255.18 223.103 254.266 230.986 254.266 230.986H269.986C269.986 230.986 270.115 228.797 264.743 228.797Z" fill="#260E0D"/>
<path d="M263.398 187.024L268.465 145.025L267.035 132.608H239.134L238.938 143.563L236.01 186.237C236.01 186.237 243.285 221.765 243.157 222.355H248.424C248.424 222.227 246.936 183.395 246.936 183.395L252.954 148.806L255.306 185.113C255.306 185.113 254.238 217.843 254.221 222.365H259.175C259.175 222.241 263.398 187.024 263.398 187.024Z" fill="#2F1954"/>
<path d="M266.943 134.202L266.759 132.608H239.076L239.052 134.004L244.862 135.908C249.572 137.461 254.646 137.585 259.428 136.265L266.943 134.202Z" fill="#0E0E0E"/>
<path d="M268.748 87.9591C265.73 84.6179 258.752 79.285 251.059 80.5725L243.023 84.0932L240.659 101.207L238.545 133.804L267.206 134.129L269.947 102.398C269.947 102.398 271.773 91.3004 268.748 87.9591Z" fill="#F1A97E"/>
<path d="M249.982 72.9935C249.982 72.9935 249.899 79.5813 249.251 82.9363C249.001 84.2315 249.594 85.5606 250.747 86.0399C251.804 86.467 252.966 86.5723 254.084 86.3424C257.695 85.6626 257.815 81.7364 257.815 81.7364L256.608 69.7268L249.982 72.9935Z" fill="#FC7575"/>
<path d="M256.968 69.7268L250.406 73.0912C250.406 73.0912 250.375 75.5979 250.209 78.3426C251.91 78.4266 254.073 77.4499 256.356 74.4916C256.696 74.0539 257.012 73.6163 257.308 73.1892L256.968 69.7268Z" fill="#FD5E5A"/>
<path d="M250.713 55.7737C249.211 57.1535 248.095 58.9063 247.476 60.8571C246.497 64.0425 245.645 66.3444 245.645 66.3444L246.671 67.0346C246.671 67.0346 245.843 71.4796 246.487 72.9981C247.465 75.3 251.589 77.1636 256.26 71.98C260.931 66.7965 261.328 62.2272 260.534 59.9909C259.74 57.7546 252.544 54.6245 250.713 55.7737Z" fill="#FC7575"/>
<path d="M257.586 60.7072C256.179 59.5506 254.31 59.1491 252.562 59.6279C249.597 60.4391 248.596 59.188 249.17 58.5487C249.17 58.5487 246.565 58.6174 245.598 56.2527C244.631 53.888 244.869 46.7389 249.472 48.0897C254.075 49.4405 253.142 52.6782 253.142 52.6782C253.142 52.6782 254.617 51.1246 256.008 51.9358C257.399 52.7469 257.219 53.8915 257.219 53.8915C257.219 53.8915 258.491 56.5243 260.248 56.8611C262.005 57.1979 261.822 61.1127 261.822 61.1127C261.822 61.1127 262.84 61.9239 262.124 64.756C261.408 67.5882 257.114 71.9292 257.114 73.2765C257.114 73.2765 256.069 71.558 256.917 68.8083C257.765 66.0587 257.765 64.4226 256.856 64.4226C255.947 64.4226 257.586 60.7072 257.586 60.7072Z" fill="#121841"/>
<path d="M256.423 66.5772C256.423 66.5772 256.691 64.1486 257.289 64.1486C257.886 64.1486 258.444 64.4141 258.299 65.788C258.154 67.1619 257.538 68.6901 256.759 68.0588C256.544 67.9156 256.388 67.6782 256.325 67.3998C256.261 67.1213 256.297 66.8251 256.423 66.5772Z" fill="#FC7575"/>
<path d="M264.297 61.3098C264.233 61.0746 264.091 60.8772 263.902 60.7601C263.3 60.4379 262.493 61.1392 261.965 61.6131L261.872 61.4804C262.218 60.9781 262.65 60.5614 263.141 60.2559C263.465 60.0627 263.846 60.039 264.186 60.1909C264.526 60.3429 264.792 60.6556 264.915 61.0482L264.297 61.3098Z" fill="#121841"/>
<path d="M264.178 63.9771C264.236 63.619 264.229 63.2525 264.158 62.8969C263.784 61.1515 261.963 61.3023 261.872 61.2509V61.1412C261.924 61.1652 264.507 60.5788 264.879 63.401C264.916 63.6482 264.924 63.8992 264.904 64.1486L264.178 63.9771Z" fill="#121841"/>
<path d="M250.209 63.1344C250.209 63.699 249.982 64.1486 249.7 64.1486C249.418 64.1486 249.195 63.6922 249.195 63.1344C249.195 62.5766 249.422 62.1202 249.7 62.1202C249.978 62.1202 250.209 62.5698 250.209 63.1344Z" fill="#2F499F"/>
<path d="M251.154 62.1202C250.534 61.442 249.628 61.2865 248.872 61.7289L248.688 60.8799C249.53 60.3752 250.548 60.5623 251.223 61.3455L251.154 62.1202Z" fill="#2F499F"/>
<path d="M248.18 80.8831L246.003 143.764H232.46L236.445 115.215L239.066 97.8484C239.066 97.8484 240.336 86.186 243.093 84.0868C244.684 82.8663 246.387 81.7938 248.18 80.8831Z" fill="#555DA2"/>
<path d="M257.01 65.3408C257.01 65.3408 257.322 64.5662 257.601 64.6643C257.879 64.7624 257.943 66.3352 257.449 66.9913C256.955 67.6475 256.533 66.5821 257.01 65.3408Z" fill="#FD5E5A"/>
<path d="M258.693 80.8831L257.308 144.271H271.42C271.42 144.271 271.949 94.0304 270.401 88.779C268.853 83.5277 258.693 80.8831 258.693 80.8831Z" fill="#555DA2"/>
<path d="M243.109 83.4181L249.194 79.8688L247.234 111.309L243.892 93.5389L245.069 92.7313L243.109 83.4181Z" fill="#777EB5"/>
<path d="M257.815 111.309L258.358 79.8688L263.901 82.2931L260.881 92.5339L261.646 93.1118L257.815 111.309Z" fill="#777EB5"/>
<path d="M233.093 119.93L213.19 105.1L234.268 103.196L250.209 119.93H233.093Z" fill="#1E3340"/>
<path d="M243.699 113.845C243.699 113.845 245.879 114.314 246.684 115.143C247.728 116.206 250.166 117.931 251.179 117.931C252.193 117.931 256.577 118.343 256.577 118.343L257.308 122.973C257.308 122.973 241.007 119.377 240.245 118.585C239.482 117.793 244.075 119.172 244.075 118.82C244.075 118.467 238.545 118.072 238.831 117.183C239.117 116.294 243.933 118.38 244.361 117.937C244.789 117.495 238.545 116.763 238.545 115.821C238.545 114.878 244.761 117.183 244.761 117.183C244.761 117.183 244.873 116.703 243.191 115.938C241.509 115.173 239.879 114.559 240.252 114.174C240.624 113.788 244.925 116.227 245.475 115.643L243.699 113.845Z" fill="#FC7575"/>
<path d="M266.706 87.3631C266.706 87.3631 264.342 91.6481 264.814 97.8241C265.286 104 266.092 113.469 264.769 116.555C263.447 119.642 253.758 116.555 253.758 116.555V123.865C253.758 123.865 267.803 129.524 271.871 127.671C275.939 125.818 275.554 109.866 275.554 102.044C275.554 94.2212 269.299 81.7451 266.706 87.3631Z" fill="#777EB5"/>
<path d="M266.436 87.4754C265.293 89.9744 264.541 93.676 264.779 97.5266C265.208 103.311 266.562 115.868 264.099 117.775C261.718 119.268 256.327 117.775 253.758 116.86C256.279 117.553 263.409 119.216 264.334 116.749C265.123 114.773 265.014 109.997 264.922 107.872C264.633 98.6981 263.531 95.4609 265.433 89.8496C265.696 89.029 266.032 88.2343 266.436 87.4754V87.4754Z" fill="#EEF1F9"/>
<path d="M247.673 70.7144L247.853 71.7552C249.239 71.5733 250.47 70.832 251.223 69.7268C249.885 70.9801 247.673 70.7144 247.673 70.7144Z" fill="#2B3278"/>
<path d="M227.173 113.331C226.882 113.767 226.645 114.239 226.465 114.736C226.046 115.772 227.213 116.844 227.445 117.061C227.972 117.552 228.544 117.987 229.153 118.361C229.544 118.617 229.974 118.803 230.425 118.909C231.116 119.067 232.663 116.492 232.438 116.243C232.294 116.078 232.102 115.948 231.962 116.001C231.821 116.053 230.072 117.462 230.072 117.462C230.072 117.462 231.623 115.435 231.448 114.831C231.274 114.227 230.938 114.304 230.804 114.455C230.67 114.606 228.696 116.514 228.696 116.514C228.696 116.514 230.039 114.09 229.908 113.704C229.777 113.317 229.257 113.036 228.65 114.009C228.275 114.525 227.859 115.006 227.408 115.449C227.408 115.449 228.156 113.623 227.982 113.033C227.807 112.443 227.173 113.331 227.173 113.331Z" fill="#FC7575"/>
<path d="M154.019 75.3049C154.019 75.3049 160.751 141.198 153.638 160.365C149.483 171.548 145.421 172.448 142.751 171.256C140.816 170.337 139.606 168.376 139.662 166.249C139.735 158.961 140.354 135.431 145.244 119.06C151.173 99.1982 148.278 96.7358 148.278 93.4456C148.278 87.7582 149.168 79.5018 150.518 76.2734C150.702 75.8235 154.019 75.3049 154.019 75.3049Z" fill="#733953"/>
<path d="M158.462 74.8026C159.59 74.782 160.855 75.0774 162.94 75.3075C163.135 75.3281 163.282 75.1976 163.494 75.2217C161.326 73.1366 153.101 72.0306 152.626 75.5652C149.385 99.7233 157.316 144.976 153.993 160.498C161.641 144.914 160.058 102.567 155.542 78.3372C155.132 76.2247 156.315 74.8404 158.462 74.8026Z" fill="#AB99A1"/>
<path d="M163.494 75.3049C168.149 80.5638 170.068 166.603 176.171 168.612C176.171 168.612 175.827 143.477 175.827 137.159C175.827 130.841 173.055 89.0522 171.727 85.544C170.399 82.0358 166.222 76.1269 166.222 76.1269L163.494 75.3049Z" fill="#733953"/>
<path d="M163.168 75.114C162.964 74.9314 162.417 74.7178 162.486 74.8281C165.131 80.5299 166.388 132.38 172.622 158.977C171.761 147.925 168.474 80.6918 163.168 75.114Z" fill="#AB99A1"/>
<path d="M161.973 116.228L162.371 115.943C162.371 115.943 164.032 115.961 164.727 115.619C165.422 115.277 166.279 115.287 165.962 115.619C165.644 115.95 164.071 116.306 164.389 117.163C164.706 118.019 161.973 116.228 161.973 116.228Z" fill="#FC7575"/>
<path d="M167.414 116.962C167.127 117.141 166.515 117.214 165.88 117.434C165.245 117.655 168.756 116.094 168.756 115.581C168.756 115.067 165.815 116.638 164.958 117.007C163.985 117.424 162.438 116.694 162.032 116.228C162.032 116.228 149.915 112.128 146.695 109.827C146.408 109.62 145.671 108.562 145.753 107.76C143.682 107.89 141.66 108.443 139.807 109.386C139.828 110.667 139.466 112.232 139.807 112.862C141.908 116.762 155.584 118.227 158.46 118.227C161.335 118.227 164.149 118.916 164.948 118.916C165.747 118.916 169.466 116.849 169.575 115.901C169.678 115.012 167.782 116.735 167.414 116.962Z" fill="#FC7575"/>
<path d="M146.996 96.8531C149.075 94.469 149.799 88.1273 149.799 83.6717C149.832 81.2036 149.606 78.7391 149.123 76.32C149.123 76.32 144.504 76.1345 141.934 81.1536C139.23 86.42 135.585 91.8341 139.047 108.774C140.869 107.778 143.638 107.668 145.687 107.479C146.147 103.233 145.241 98.8765 146.996 96.8531Z" fill="#AD3369"/>
<path d="M138.833 107.492C138.833 107.492 138.412 108.804 138.833 109.231C139.255 109.658 138.741 110.639 139.022 111.187C139.303 111.734 143.884 110.309 146.053 109.708C148.222 109.107 146.875 108.373 146.615 107.596C146.354 106.818 146.653 106.411 146.152 105.9C145.652 105.39 139.214 106.067 138.833 107.492Z" fill="#CE85A5"/>
<path d="M139.153 109.788C140.782 109.124 143.85 108.048 145.573 108.306C145.844 108.344 145.776 108.787 145.506 108.729C145.462 108.729 144.607 108.447 142.316 108.925C141.246 109.15 140.19 109.438 139.153 109.788H139.153Z" fill="#DEADC3"/>
<path d="M161.869 66.9723C162.105 67.2041 161.14 73.8695 162.094 75.7173C162.094 75.7173 164.605 85.2636 162.901 85.4443C161.418 85.6182 155.858 77.2891 155.569 75.973C155.171 74.2036 155.527 65.6699 155.527 65.6699L161.869 66.9723Z" fill="#FC7575"/>
<path d="M161.34 69.765C159.201 71.8096 156.998 70.3903 155.38 67.8293C155.417 66.5365 155.38 65.2366 155.38 65.1628L161.423 66.9194C161.523 67.0213 161.427 68.2368 161.34 69.765Z" fill="#FD5E5A"/>
<path d="M161.271 51.5898C161.271 51.5898 164.129 52.1165 164.47 54.4884C164.81 56.8604 165.288 58.8381 164.821 61.6076C164.354 64.3771 162.644 68.0641 159.85 68.6588C157.055 69.2534 154.131 64.7713 154.131 62.3314C154.131 59.8915 153.112 55.8069 155.019 53.3025C156.925 50.798 161.271 51.5898 161.271 51.5898Z" fill="#FC7575"/>
<path d="M157.916 64.6557C159.348 65.4205 161.465 65.4368 161.465 65.4368C161.35 65.6997 161.214 65.9477 161.058 66.177C160.096 66.1281 159.144 65.9218 158.226 65.5636C158.101 65.2728 157.997 64.969 157.916 64.6557H157.916Z" fill="white"/>
<path d="M157.916 65.1628C158.901 65.5168 159.925 65.7206 160.958 65.769C159.871 67.2319 158.716 66.8763 157.916 65.1628Z" fill="#2E0A29"/>
<path d="M161.438 50.6688C161.438 50.6688 164.129 52.227 164.471 54.6385C164.781 56.8254 165.205 58.6807 164.923 61.106C164.298 60.7078 163.619 60.3995 162.905 60.1905C160.373 59.3716 157.738 55.7648 157.427 52.7314C157.089 49.4803 161.438 50.6688 161.438 50.6688Z" fill="#FD5E5A"/>
<path d="M160.806 62.8345C160.727 62.0917 160.687 61.3455 160.688 60.5989C160.82 61.3713 160.911 62.1497 160.958 62.9311C160.546 63.041 160.054 63.2642 159.437 63.0344C159.904 63.091 160.378 63.0218 160.806 62.8345Z" fill="#172866"/>
<path d="M159.437 60.5027C159.287 60.0704 158.911 59.7358 158.435 59.6108C157.547 59.3963 157.002 60.5732 156.395 60.5609C156.832 60.7663 157.533 60.0798 158.011 59.9051C158.262 59.8267 158.539 59.8571 158.763 59.9878C159.021 60.1181 159.25 60.2929 159.437 60.5027Z" fill="#172866"/>
<path d="M157.917 60.1537C157.95 60.4242 158.192 60.62 158.464 60.5971C158.737 60.5741 158.942 60.3407 158.929 60.0685C158.917 59.7962 158.691 59.5826 158.418 59.5847C158.275 59.5936 158.143 59.6587 158.049 59.7655C157.955 59.8723 157.907 60.012 157.917 60.1537Z" fill="#172866"/>
<path d="M161.466 60.9045C161.636 60.5058 162.027 60.2069 162.506 60.1082C163.404 59.9443 163.888 61.0655 164.508 61.077C164.061 61.2524 163.394 60.5825 162.923 60.4014C162.678 60.3188 162.402 60.3357 162.173 60.4474C161.905 60.5596 161.665 60.7148 161.466 60.9045Z" fill="#172866"/>
<path d="M163.493 60.6217C163.496 60.7482 163.448 60.8706 163.36 60.9614C163.272 61.0521 163.151 61.1038 163.024 61.1046C162.814 61.1202 162.616 61.0043 162.527 60.8135C162.438 60.6227 162.476 60.3967 162.623 60.2456C162.77 60.0945 162.995 60.0499 163.188 60.1334C163.381 60.217 163.503 60.4113 163.493 60.6217Z" fill="#172866"/>
<path d="M159.936 58.4699C160.033 58.4111 159.268 57.6464 158.327 57.5614C157.386 57.4765 156.395 58.4699 156.395 58.4699C156.395 58.4699 157.763 57.6725 158.34 57.9307C158.918 58.1889 159.399 58.813 159.936 58.4699Z" fill="#172866"/>
<path d="M158.552 49.4639C156.501 49.6949 153.255 49.1951 151.742 52.5388C150.848 54.4348 149.018 58.0922 149.018 64.6039C149.018 74.2836 139.66 78.5719 139.66 78.5719L143.762 80.5471L146.211 78.5719L144.525 82.1121L151.252 82.7809L151.539 78.1444L152.92 83.4186L156.062 82.7809C156.062 82.7809 154.823 66.9239 154.681 60.9534L154.716 60.9947C154.716 60.9947 154.688 60.2226 154.685 59.2332C154.685 58.9437 154.685 58.6438 154.685 58.3439C154.686 57.466 154.749 56.5894 154.874 55.7206C155.175 54.0832 155.779 53.2455 157.254 52.5457C158.728 51.8459 164.001 53.8419 164.001 53.8419C163.863 50.7877 160.603 49.2399 158.552 49.4639Z" fill="#1B2B80"/>
<path d="M161.309 50.0535C163.826 50.6304 164.584 54.6436 166.642 56.7795C168.7 58.9155 168.174 61.9988 167.198 64.0334C166.221 66.068 164.644 64.7326 164.644 64.7326C164.644 64.7326 165.466 65.208 165.992 63.5125C166.517 61.817 165.598 60.4956 162.822 59.5448C160.046 58.5939 157.412 52.6125 157.412 52.6125C157.328 51.4379 158.793 49.4767 161.309 50.0535Z" fill="#2F499F"/>
<path d="M164.838 64.5691C165.813 65.1436 167.192 62.731 166.185 61.1539C165.458 59.9354 163.856 59.4132 162.578 58.8875C160.551 57.7108 158.604 54.4662 157.409 52.4853C158.263 54.8491 160.079 58.1321 162.264 59.448L162.791 59.6778C163.332 59.8971 164.979 60.3462 165.772 61.4185C166.413 62.2714 166.116 63.5909 165.682 64.2036C165.513 64.5025 165.169 64.6518 164.838 64.5691Z" fill="#023135"/>
<path d="M155.309 61.408C155.309 61.408 154.571 58.4819 153.339 59.1874C152.106 59.8929 153.431 63.1344 154.575 63.1344C155.719 63.1344 155.309 61.408 155.309 61.408Z" fill="#FC7575"/>
<path d="M153.954 59.6476C153.954 59.6476 155.61 62.3997 154.476 62.0969C153.342 61.7941 152.891 59.1463 153.954 59.6476Z" fill="#FD5E5A"/>
<path d="M158.406 62.2766C158.285 62.6314 157.628 62.7342 156.938 62.5054C156.247 62.2766 155.786 61.8091 155.907 61.4543C156.028 61.0995 156.682 61.0001 157.372 61.2289C158.063 61.4576 158.517 61.9252 158.406 62.2766Z" fill="#FD5E5A"/>
<path d="M163.997 62.1763C164.047 62.5763 163.635 63.0003 163.069 63.1083C162.503 63.2163 162.026 62.9803 161.977 62.5723C161.927 62.1643 162.342 61.7524 162.905 61.6404C163.468 61.5284 163.951 61.7724 163.997 62.1763Z" fill="#FD5E5A"/>
<rect x="0.713623" y="164.048" width="5.57814" height="27.3836" fill="black"/>
<rect x="1.72778" y="191.432" width="4.05683" height="19.2699" fill="#50576D"/>
<path fill-rule="evenodd" clip-rule="evenodd" d="M25.9103 142.901C25.8655 143.241 25.0203 146.065 24.7409 146.024C28.7425 146.618 31.1434 147.397 31.14 148.221C31.14 148.866 29.7118 149.466 27.2281 149.984C25.5861 150.324 24.4063 151.635 24.4063 153.169C24.4063 161.7 16.8102 168.612 7.43758 168.612H-3.60124C-12.9842 168.612 -20.5734 161.697 -20.5734 153.169V152.774C-20.6202 151.277 -21.6709 149.997 -23.1365 149.652C-26.8448 148.646 -26.5861 147.442 -21.5117 146.412C-23.1503 143.083 -23.8644 141.271 -20.8218 138.965C-14.5581 134.22 -5.16649 134.509 2.50598 134.746L2.5598 134.747C3.39295 134.773 4.2389 134.792 5.09234 134.812C8.86444 134.899 12.7829 134.989 16.3894 135.602C19.7838 136.178 23.1196 137.561 25.1618 140.183C25.785 140.944 26.0568 141.931 25.9103 142.901ZM-11.3319 153.54C-11.2767 158.035 -4.99836 161.673 2.74261 161.673C10.487 161.673 16.7619 158.035 16.8309 153.54H-11.3319Z" fill="#0089A9"/>
<path d="M26.5622 218.494C26.5622 217.54 25.8711 216.79 25.0211 216.79L6.34137 209.76V208.673H0.995918V209.627L-18.0535 217.223C-18.8897 217.223 -19.5704 217.996 -19.5704 218.95V219.83H-13.2748V217.785L1.58333 213.014H2.5612L2.95166 217.615H1.87013C1.05812 217.615 0.401594 218.364 0.401594 219.284V219.83H7.31233V219.284C7.31233 218.364 6.65236 217.615 5.84035 217.615H4.69662L5.06289 213.014H5.46371L20.2492 217.444L20.2803 219.489L26.576 219.363L26.5622 218.494Z" fill="black"/>
<path fill-rule="evenodd" clip-rule="evenodd" d="M2.54456 136.681C7.94132 136.63 13.6572 136.576 18.6639 138.524C25.5036 141.178 24.4951 146.197 24.4951 146.197C22.4381 147.219 20.516 148.495 18.7737 149.997C17.904 150.775 17.6439 152.208 17.3422 153.869C16.7609 157.07 16.0253 161.121 10.4797 162.983C7.75958 163.895 4.39806 164.027 1.49275 164.047C-2.71944 164.078 -7.80631 163.211 -10.8557 160.406C-11.4397 159.917 -11.868 159.266 -12.0871 158.534C-12.0883 158.529 -12.092 158.508 -12.0983 158.473C-12.2151 157.817 -13.2218 152.168 -15.6373 149.997C-17.3924 148.512 -19.3976 147.356 -21.5577 146.584V146.463C-22.4152 137.896 -9.71689 136.828 -3.05216 136.735C-1.53148 136.705 -0.00964546 136.69 1.51333 136.69C1.85559 136.687 2.19942 136.684 2.54456 136.681ZM-11.3975 153.763C-11.3427 158.288 -5.09983 161.95 2.59736 161.95C10.298 161.95 16.5374 158.288 16.606 153.763H-11.3975Z" fill="#196A7D"/>
<rect x="100.106" y="167.598" width="5.57814" height="27.3836" fill="black"/>
<rect x="100.613" y="194.981" width="4.05683" height="19.2699" fill="#50576D"/>
<path d="M125.951 220.246C125.896 219.432 125.207 218.814 124.407 218.86L105.732 213.106V212.223H100.383V213.004L81.3387 219.223C80.5389 219.187 79.8611 219.816 79.8219 220.63V221.351H86.1171V219.691L100.974 215.776H101.952L102.342 219.539H101.244C100.467 219.505 99.8106 220.117 99.7752 220.908V221.351H106.685V220.908C106.65 220.117 105.993 219.505 105.217 219.539H104.087L104.453 215.776H104.854L119.642 219.413L119.673 221.073L125.968 220.971L125.951 220.246Z" fill="black"/>
<path fill-rule="evenodd" clip-rule="evenodd" d="M119.339 166.791C119.071 165.896 118.242 166.149 117.528 166.367C117.435 166.395 117.344 166.423 117.256 166.447L116.86 166.513C115.676 155.329 104.81 149.173 95.3274 151.434C94.353 146.317 91.9256 142.518 83.1355 141.861C80.5133 141.654 77.8772 141.703 75.2647 142.009C74.0381 142.154 73.1439 143.24 73.2362 144.471C73.3284 145.701 74.3744 146.641 75.609 146.603C75.5298 146.603 81.3004 146.214 85.8934 147.391C89.3123 148.316 89.7703 149.51 90.5071 153.333C90.8196 155.014 91.0166 156.746 91.2068 158.42L91.2068 158.42C91.6832 162.61 92.1176 166.432 94.2187 168.151C98.5191 171.482 120.393 170.336 119.339 166.791ZM97.0943 164.549C97.123 164.549 97.1294 164.549 97.1325 164.552C97.1358 164.555 97.1354 164.562 97.1531 164.576L97.0943 164.549ZM95.965 156.521C96.2119 159.112 96.4733 161.854 97.2004 164.596V164.6C100.192 165.914 109.444 166.874 114.681 166.709C114.203 164.89 113.445 163.157 112.432 161.571C108.945 155.825 102.155 153.54 95.7715 154.572C95.8401 155.21 95.9021 155.861 95.965 156.521Z" fill="#196A7D"/>
<path d="M-6.38574 98.7072C-6.38574 98.7072 7.66425 98.3646 8.78151 100.239C9.89878 102.112 12.8483 97.2718 10.4454 94.8771C8.0424 92.4825 -1.87888 78.3475 -1.87888 78.3475L-6.38574 98.7072Z" fill="#3C1047"/>
<path d="M-0.651976 99.1388C-0.651976 99.1388 -6.73251 99.7213 -8.80425 100.249C-9.14954 100.335 -8.62815 111.43 -8.55219 113.513C-8.32084 120.023 -2.38878 133.424 -6.42175 144.238C-7.88233 148.154 12.9835 147.157 11.8233 144.156C11.2778 142.747 9.18876 138.917 9.061 133.876C8.91253 128.157 10.7874 121.068 11.257 117.659C12.1859 110.926 11.516 102.038 11.0499 100.067C11.0464 100.067 4.04741 99.1388 -0.651976 99.1388Z" fill="#CEF2FA"/>
<path d="M16.003 120.492C18.0327 123.548 19.84 126.743 19.2033 127.597C18.0019 129.212 10.7523 130.257 9.47899 130.427L8.45213 130.104C8.10984 130.104 3.4034 128.406 2.00003 128.896C0.596656 129.386 -3.72642 135.175 -2.67218 135.175C-1.61794 135.175 0.408399 132.817 0.408399 132.817C0.408399 132.817 -0.0536876 134.296 1.00398 134.296C1.00398 134.296 1.59613 135.65 2.25332 135.65C2.91799 135.604 3.57823 135.507 4.22831 135.359C4.22831 135.359 7.05902 133.91 8.90395 133.91C9.27704 133.91 20.9524 135.741 25.0975 132.612C27.117 131.087 25.7821 123.993 22.9822 116.887C20.4903 117.519 18.3031 119.072 16.003 120.492Z" fill="#FC7575"/>
<path d="M22.8599 116.887C20.3867 117.501 18.2129 119.025 15.9269 120.42C16.3861 121.102 16.8318 121.784 17.24 122.466C18.9886 121.252 21.9107 119.305 23.5334 118.671C23.318 118.075 23.0935 117.481 22.8599 116.887Z" fill="#FD5E5A"/>
<path d="M10.8001 99.6459C10.8001 99.6459 9.58691 112.506 11.138 113.854C12.3465 116.293 13.6914 118.66 15.1662 120.944C17.4338 119.541 21.587 117.618 24.0404 117.002C21.1409 109.611 14.6728 100.597 10.8001 99.6459Z" fill="#70C3F8"/>
<path d="M-6.12624 143.257C-6.12624 143.257 -14.5779 150.73 -15.4807 154.091C-16.3835 157.453 -16.6616 162.933 -12.1406 162.933C-10.0191 162.933 -5.35729 162.115 -0.431173 162.468C5.14718 162.865 10.9933 164.368 12.5243 162.933C15.4079 160.236 17.9551 156.388 17.9551 152.78C17.9551 149.172 11.4773 143.257 11.4773 143.257H-6.12624Z" fill="#403952"/>
<path d="M11.2235 143.257H-6.56332C-8.45023 144.706 -10.2531 146.252 -11.9639 147.888C-8.22476 146.694 -3.04619 145.949 4.02967 146.505C8.04351 146.781 12.0244 147.391 15.9268 148.328C14.5319 146.499 12.957 144.801 11.2235 143.257Z" fill="#7F71A4"/>
<path d="M-2.15594 213.665C-2.8555 216.224 -2.72097 219.444 -2.72097 219.444C-2.70079 219.677 -4.93399 222.158 -5.84879 221.828C-7.10665 221.367 -7.9071 217.788 -7.9071 217.788C-7.9071 217.788 -5.58982 213.813 -4.91717 206.107C-4.83982 205.238 -4.72883 204.046 -4.58085 202.64C-2.60998 202.335 -0.655931 201.902 1.22076 202.159C-0.585303 208.357 -1.94742 212.899 -2.15594 213.665Z" fill="#FC7575"/>
<path d="M5.93677 152.952C5.93677 152.952 11.806 153.258 12.3578 159.035C12.7466 163.111 7.15157 188.294 2.695 203.095C0.754798 202.834 -2.83059 202.263 -4.8645 202.569C-3.73995 191.437 -0.730724 165.693 0.55696 161.147C2.0043 156.019 3.59048 152.374 5.93677 152.952Z" fill="#7F71A4"/>
<path d="M-7.11809 83.4186C-7.11809 83.4186 -6.2384 93.3593 -8.94594 96.0933C-11.6535 98.8274 -12.0266 98.7513 -12.9781 98.4886C-12.9781 98.4886 -12.3552 100.172 -10.63 100.283C-10.5092 100.291 -10.388 100.291 -10.2672 100.283C-8.26135 100.158 -10.4212 101.807 -11.4652 102.177C-12.5092 102.547 -9.38065 102.968 -7.18655 102.439C-4.99245 101.911 2.39766 101.796 1.67884 93.7672C0.96003 85.7378 -7.11809 83.4186 -7.11809 83.4186Z" fill="#3C1047"/>
<path d="M-1.51856 94.035L-2.32898 103.057C-2.32898 103.057 1.06198 104.681 5.27758 102.778L3.59276 87.9825L-1.51856 94.035Z" fill="#FC7575"/>
<path d="M-1.49403 93.8187L-1.8219 97.6175C-1.44318 97.6001 -1.07371 97.4916 -0.743211 97.3006C2.24695 95.6456 2.68958 91.0884 2.74203 88.4896L-1.49403 93.8187Z" fill="#FD5E5A"/>
<path d="M-7.06887 78.66C-8.02789 79.4771 -8.6652 80.5947 -8.87124 81.8206C-9.19798 83.8568 -7.81722 86.1363 -7.81722 87.8503C-7.81722 89.5643 -4.55328 97.733 -0.49179 95.8031C3.5697 93.8732 3.24295 87.6618 3.24295 86.2666C3.24295 84.8714 1.26491 80.0518 -1.14879 78.9274C-3.5625 77.8031 -7.06887 78.66 -7.06887 78.66Z" fill="#FC7575"/>
<path d="M-2.29825 88.3505C-2.14881 88.8712 -1.47135 89.1298 -0.787247 88.9283C-0.103145 88.7268 0.32857 88.1389 0.175809 87.6149C0.0230484 87.0909 -0.651091 86.8356 -1.33519 87.0372C-2.01929 87.2387 -2.45101 87.8265 -2.29825 88.3505Z" fill="#FD5E5A"/>
<path d="M-7.90643 79.5387C-7.941 79.4247 -6.64476 75.923 -3.45773 75.3907C0.344588 74.7685 4.86243 77.6064 6.24163 81.4572C7.62083 85.3079 8.86177 89.6945 12.6295 90.7902C16.3973 91.886 17.0851 97.4374 15.9133 100.922C14.7415 104.406 11.1293 103.514 11.1293 103.514C11.1293 103.514 13.3381 101.589 12.7505 101.001C12.7505 101.001 11.0671 104.264 9.16596 103.618C7.2648 102.972 6.49051 101.935 6.49051 101.935C6.49051 101.935 9.77433 101.43 7.61392 99.6082C6.11028 98.3396 5.3429 97.1886 3.56273 95.0316C1.85514 92.9576 2.75042 87.4753 1.26406 83.5277C0.99395 83.7351 0.667329 83.8556 0.327306 83.8734C-1.68792 84.0843 -0.771909 82.6152 -2.69035 80.4167C-5.98454 78.5432 -7.68521 79.5456 -7.90643 79.5387Z" fill="#510B5E"/>
<path d="M5.09405 83.4186C4.52858 85.0267 4.24776 86.7204 4.2641 88.4242C4.51274 93.3252 9.73755 90.7683 11.1873 90.866C11.6573 90.8809 12.0914 91.1198 12.3542 91.5081C12.6171 91.8964 12.6768 92.3868 12.5145 92.8264C12.2519 93.7368 11.6601 94.0124 11.3519 94.3786C11.1467 94.6009 11.0624 94.9084 11.1258 95.2037C11.1891 95.4989 11.3922 95.7453 11.6706 95.8646C12.7492 96.4018 14.0764 95.1879 14.5106 96.639C14.822 97.7107 14.5166 98.866 13.7157 99.6459C14.6554 98.9148 15.0933 97.7132 14.8433 96.5518C14.5772 95.3554 13.7472 95.4112 12.5986 95.5054C11.8982 95.5542 11.6321 95.2123 11.6881 94.9961C11.7336 94.567 12.7387 94.4031 13.1484 93.0287C13.501 92.0515 13.094 90.9634 12.1854 90.4544C9.79008 89.0765 4.4497 94.0368 4.67732 86.7429C4.72031 85.6249 4.85973 84.5127 5.09405 83.4186Z" fill="#560D68"/>
<path d="M0.720013 84.7387C0.720013 84.7387 0.648073 82.7704 1.53013 82.9195C2.41218 83.0687 3.03149 84.4331 2.60298 85.7429C2.17446 87.0526 0.601155 86.4851 0.720013 84.7387Z" fill="#FC7575"/>
<path d="M1.23887 85.3395C1.23887 85.3395 1.1158 84.0514 1.51026 83.935C1.90471 83.8186 2.30863 84.8196 2.22343 85.487C2.13822 86.1543 1.29883 86.1078 1.23887 85.3395Z" fill="#FD5E5A"/>
<path d="M23.7473 130.203C23.7473 130.203 21.7405 132.224 22.8574 132.537C23.9744 132.851 25.0547 132.052 25.0547 131.369C25.0547 130.685 24.8936 129.718 23.7473 130.203Z" fill="#FD5E5A"/>
<path d="M23.8258 94.5749C23.7073 94.5749 23.6112 94.4812 23.6112 94.3656C23.6112 83.9042 12.654 81.3274 12.5415 81.2966C12.4861 81.2843 12.4381 81.2509 12.4083 81.2038C12.3786 81.1567 12.3695 81.0998 12.3832 81.0461C12.3958 80.9919 12.4299 80.9449 12.4781 80.9153C12.5262 80.8857 12.5845 80.876 12.64 80.8883C12.7525 80.9157 24.0403 83.5679 24.0403 94.3656C24.0403 94.4812 23.9443 94.5749 23.8258 94.5749Z" fill="#464A7F"/>
<path d="M21.5352 99.1388H21.4957C21.4431 99.1279 21.3969 99.0955 21.3671 99.0486C21.3374 99.0017 21.3267 98.9442 21.3374 98.889C23.0454 89.6079 16.6618 87.9078 16.5892 87.894C16.5191 87.8766 16.4632 87.8212 16.4424 87.7487C16.4216 87.6761 16.4392 87.5974 16.4886 87.5422C16.5379 87.487 16.6115 87.4637 16.6816 87.4811C16.7475 87.4984 23.5004 89.2922 21.71 98.9688C21.6923 99.059 21.6221 99.1274 21.5352 99.1388Z" fill="#464A7F"/>
<rect x="118.869" y="148.328" width="3.04262" height="72.5158" fill="#846D75"/>
<rect x="129.011" y="149.342" width="3.04262" height="75.5585" fill="#846D75"/>
<rect x="-124.034" y="147.314" width="261.158" height="4.05683" fill="#1C0F00"/>
<rect x="6.29175" y="141.228" width="34.4831" height="29.412" transform="rotate(180 6.29175 141.228)" fill="#464A7F"/>
<rect x="1.2207" y="147.314" width="21.8055" height="2.02842" transform="rotate(180 1.2207 147.314)" fill="#242744"/>
<rect x="86.9214" y="141.228" width="34.4831" height="29.412" transform="rotate(180 86.9214 141.228)" fill="#464A7F"/>
<rect x="78.8076" y="135.65" width="21.8055" height="16.7344" transform="rotate(180 78.8076 135.65)" fill="#3C405E"/>
<rect x="69.6797" y="131.593" width="9.63497" height="9.63497" transform="rotate(180 69.6797 131.593)" fill="#242744"/>
<rect x="81.3433" y="147.314" width="21.8055" height="2.02842" transform="rotate(180 81.3433 147.314)" fill="#242744"/>
<path d="M69.7513 122.466V131.921H65.6229V145.285H66.0404V132.153H70.1869V122.466H69.7513Z" fill="#595E7A"/>
<rect x="62.0732" y="131.593" width="3.54973" height="14.1989" fill="#242744"/>
<path d="M38.7465 139.432L39.4029 139.707L40.7749 135.589C40.5482 135.479 40.3397 135.328 40.1578 135.143L38.7465 139.432Z" fill="#FD5E5A"/>
<rect x="37.7322" y="130.579" width="1.52131" height="8.62077" fill="#8DFDB0"/>
<rect x="37.7322" y="130.579" width="1.52131" height="4.56393" fill="#13447A"/>
<path d="M38.2394 139.501L37.2289 139.707L35.7039 130.455V128.044L36.7112 130.249L38.2394 139.501Z" fill="#BE1E2D"/>
<rect x="36.2109" y="138.186" width="5.07104" height="9.12787" fill="#20C9AC"/>
<rect x="38.2395" y="132.608" width="0.507104" height="4.56393" fill="#13447A"/>
<path fill-rule="evenodd" clip-rule="evenodd" d="M41.5709 131.835L41.6497 131.593L42.2961 131.868L41.0822 135.65C40.8645 135.541 40.6641 135.391 40.4894 135.206L40.7133 134.513C40.5802 134.584 40.4228 134.549 40.3223 134.427C40.276 134.381 40.257 134.309 40.2737 134.241C40.2903 134.174 40.3396 134.123 40.4 134.112C40.4539 134.102 40.508 134.125 40.5436 134.171C40.547 134.17 40.5857 134.185 40.6754 134.077C40.7438 134.032 40.7304 133.757 40.7134 133.412C40.6733 132.593 40.6135 131.374 41.5709 131.835ZM41.5489 131.904C41.4946 131.895 41.4393 131.895 41.385 131.904H41.3944C40.9933 131.95 41.0278 132.501 41.0634 133.069C41.0693 133.162 41.0751 133.256 41.0791 133.348L41.5489 131.904Z" fill="#5B1432"/>
<defs>
<linearGradient id="paint0_linear" x1="307.004" y1="229.458" x2="588.446" y2="229.458" gradientUnits="userSpaceOnUse">
<stop stop-color="#F2CADD"/>
<stop offset="1" stop-color="#FFFFF1"/>
</linearGradient>
</defs>
</svg>
