<svg width="130" height="130" viewBox="0 0 130 130" fill="none" xmlns="http://www.w3.org/2000/svg">
<path d="M129.729 14.8959L116.458 12.7291L114.292 0L112.396 13L99.9375 14.8959L112.396 16.7916L114.292 29.7916L116.458 17.0625L129.729 14.8959Z" fill="#FFD15C"/>
<path d="M22.4792 0L21.9376 5.14592L16.521 5.95842L21.6667 6.77092L22.4792 11.9166L23.5626 6.77092L28.7085 5.95842L23.2917 5.14592L22.4792 0Z" fill="#FFD15C"/>
<path d="M15.1667 16.5209L13.8126 7.3125L12.4585 16.5209L3.521 17.875L12.4585 19.5L13.8126 28.7084L15.1667 19.5L24.646 17.875L15.1667 16.5209Z" fill="#CDD6E0"/>
<path d="M85.3124 54.7084L68.7915 23.2915H62.0208L43.604 54.7084H85.3124Z" fill="#84DBFF"/>
<path d="M106.437 23.2915H68.7915L85.3124 54.7084L106.437 23.2915Z" fill="#54C0EB"/>
<path d="M129.187 54.7084L106.708 23.2915H106.437L85.3125 54.7084H129.187Z" fill="#84DBFF"/>
<path d="M64.729 130L85.3124 54.7085H43.604L64.729 130Z" fill="#F2F2F2"/>
<path d="M62.021 23.2915H23.021L43.6042 54.7084L62.021 23.2915Z" fill="#54C0EB"/>
<path d="M23.021 23.2915H22.7501L0.270996 54.7084H43.6042L23.021 23.2915Z" fill="#84DBFF"/>
<path d="M129.188 54.7085L64.7292 130L0.270996 54.7085H43.6042L64.7292 130L85.3127 54.7085H129.188Z" fill="#54C0EB"/>
<path d="M85.3128 46.3125L84.2294 53.3541L76.917 54.4375L84.2294 55.5209L85.3128 63.104L86.3962 55.5209L93.7086 54.4375L86.3962 53.3541L85.3128 46.3125Z" fill="white"/>
<path d="M32.2292 30.604L31.146 37.6459L23.8335 38.729L30.8751 39.8124L32.2292 47.3959L33.3126 40.0834L40.6251 38.729L33.3126 37.6459L32.2292 30.604Z" fill="white"/>
</svg>
