<svg width="25" height="25" viewBox="0 0 25 25" fill="none" xmlns="http://www.w3.org/2000/svg">
<g clip-path="url(#clip0)">
<path fill-rule="evenodd" clip-rule="evenodd" d="M12.5 25C15.8152 25 18.9946 23.683 21.3388 21.3388C23.683 18.9946 25 15.8152 25 12.5C25 9.18479 23.683 6.00537 21.3388 3.66117C18.9946 1.31696 15.8152 0 12.5 0C9.18479 0 6.00537 1.31696 3.66117 3.66117C1.31696 6.00537 0 9.18479 0 12.5C0 15.8152 1.31696 18.9946 3.66117 21.3388C6.00537 23.683 9.18479 25 12.5 25ZM18.4062 9.8125C18.6132 9.59035 18.7259 9.29653 18.7206 8.99293C18.7152 8.68934 18.5922 8.39967 18.3775 8.18497C18.1628 7.97026 17.8732 7.84727 17.5696 7.84191C17.266 7.83656 16.9721 7.94925 16.75 8.15625L10.5469 14.3594L8.25 12.0625C8.02785 11.8555 7.73403 11.7428 7.43043 11.7482C7.12684 11.7535 6.83717 11.8765 6.62247 12.0912C6.40776 12.3059 6.28477 12.5956 6.27941 12.8992C6.27406 13.2028 6.38675 13.4966 6.59375 13.7188L9.71875 16.8438C9.93848 17.0632 10.2363 17.1865 10.5469 17.1865C10.8574 17.1865 11.1553 17.0632 11.375 16.8438L18.4062 9.8125Z" fill="#4A4EDD"/>
</g>
<defs>
<clipPath id="clip0">
<rect width="25" height="25" fill="white"/>
</clipPath>
</defs>
</svg>
