<svg width="38" height="38" viewBox="0 0 38 38" fill="none" xmlns="http://www.w3.org/2000/svg">
<path fill-rule="evenodd" clip-rule="evenodd" d="M5.70001 9.50001C5.70001 8.99609 5.90019 8.51282 6.25651 8.1565C6.61283 7.80018 7.0961 7.60001 7.60001 7.60001H30.4C30.9039 7.60001 31.3872 7.80018 31.7435 8.1565C32.0998 8.51282 32.3 8.99609 32.3 9.50001C32.3 10.0039 32.0998 10.4872 31.7435 10.8435C31.3872 11.1998 30.9039 11.4 30.4 11.4H7.60001C7.0961 11.4 6.61283 11.1998 6.25651 10.8435C5.90019 10.4872 5.70001 10.0039 5.70001 9.50001Z" fill="#2F2D2D"/>
<path fill-rule="evenodd" clip-rule="evenodd" d="M5.70001 19C5.70001 18.4961 5.90019 18.0128 6.25651 17.6565C6.61283 17.3002 7.0961 17.1 7.60001 17.1H30.4C30.9039 17.1 31.3872 17.3002 31.7435 17.6565C32.0998 18.0128 32.3 18.4961 32.3 19C32.3 19.5039 32.0998 19.9872 31.7435 20.3435C31.3872 20.6998 30.9039 20.9 30.4 20.9H7.60001C7.0961 20.9 6.61283 20.6998 6.25651 20.3435C5.90019 19.9872 5.70001 19.5039 5.70001 19Z" fill="#2F2D2D"/>
<path fill-rule="evenodd" clip-rule="evenodd" d="M17.1 28.5C17.1 27.9961 17.3002 27.5128 17.6565 27.1565C18.0128 26.8002 18.4961 26.6 19 26.6H30.4C30.9039 26.6 31.3872 26.8002 31.7435 27.1565C32.0998 27.5128 32.3 27.9961 32.3 28.5C32.3 29.0039 32.0998 29.4872 31.7435 29.8435C31.3872 30.1998 30.9039 30.4 30.4 30.4H19C18.4961 30.4 18.0128 30.1998 17.6565 29.8435C17.3002 29.4872 17.1 29.0039 17.1 28.5Z" fill="#2F2D2D"/>
</svg>
