<svg width="764" height="609" viewBox="0 0 764 609" fill="none" xmlns="http://www.w3.org/2000/svg">
<mask id="mask0" mask-type="alpha" maskUnits="userSpaceOnUse" x="74" y="141" width="690" height="468">
<path fill-rule="evenodd" clip-rule="evenodd" d="M74.5557 141.441H763.171V608.734H74.5557V141.441Z" fill="white"/>
</mask>
<g mask="url(#mask0)">
<path fill-rule="evenodd" clip-rule="evenodd" d="M440.67 141.441C440.67 141.441 16.3425 149.022 81.3239 344.319C146.307 539.614 618.428 624.404 682.915 606.367C747.399 588.324 910.124 167.219 440.67 141.441" fill="#FFD6D6"/>
</g>
<path fill-rule="evenodd" clip-rule="evenodd" d="M779.962 350.839H411.426C408.264 350.839 405.701 348.278 405.701 345.117V97.3329C405.701 94.1742 408.264 91.6127 411.426 91.6127H779.962C783.123 91.6127 785.688 94.1742 785.688 97.3329V345.117C785.688 348.278 783.123 350.839 779.962 350.839" fill="#7796FE"/>
<path fill-rule="evenodd" clip-rule="evenodd" d="M779.962 116.447H411.426C408.264 116.447 405.701 113.885 405.701 110.725V97.3334C405.701 94.1747 408.264 91.6116 411.426 91.6116H779.962C783.123 91.6116 785.688 94.1747 785.688 97.3334V110.725C785.688 113.885 783.123 116.447 779.962 116.447" fill="#004D54"/>
<mask id="mask1" mask-type="alpha" maskUnits="userSpaceOnUse" x="0" y="0" width="906" height="609">
<path fill-rule="evenodd" clip-rule="evenodd" d="M0 608.734H905.433V0H0V608.734Z" fill="white"/>
</mask>
<g mask="url(#mask1)">
<path fill-rule="evenodd" clip-rule="evenodd" d="M440.668 288.102H534.806V141.441H440.668V288.102Z" fill="#A2B7FD"/>
<path fill-rule="evenodd" clip-rule="evenodd" d="M561.16 149.687H761.277V141.441H561.16V149.687Z" fill="#698BFD"/>
<path fill-rule="evenodd" clip-rule="evenodd" d="M561.16 168.422H761.277V158.885H561.16V168.422Z" fill="#698BFD"/>
<path fill-rule="evenodd" clip-rule="evenodd" d="M419.917 112.156H672.537V98.5665H419.917V112.156Z" fill="white"/>
<path fill-rule="evenodd" clip-rule="evenodd" d="M745.184 110.066C745.184 111.221 744.248 112.157 743.092 112.157C741.937 112.157 741 111.221 741 110.066C741 108.911 741.937 107.975 743.092 107.975C744.248 107.975 745.184 108.911 745.184 110.066" fill="white"/>
<path fill-rule="evenodd" clip-rule="evenodd" d="M750.254 110.066C750.254 111.221 749.317 112.157 748.162 112.157C747.006 112.157 746.069 111.221 746.069 110.066C746.069 108.911 747.006 107.975 748.162 107.975C749.317 107.975 750.254 108.911 750.254 110.066" fill="white"/>
<path fill-rule="evenodd" clip-rule="evenodd" d="M755.323 110.066C755.323 111.221 754.386 112.157 753.231 112.157C752.075 112.157 751.139 111.221 751.139 110.066C751.139 108.911 752.075 107.975 753.231 107.975C754.386 107.975 755.323 108.911 755.323 110.066" fill="white"/>
<path fill-rule="evenodd" clip-rule="evenodd" d="M662.54 103.397C662.54 101.893 663.702 100.669 665.129 100.669C666.556 100.669 667.719 101.893 667.719 103.397C667.719 104.9 666.556 106.124 665.129 106.124C663.702 106.124 662.54 104.9 662.54 103.397M669.207 109.714L667.197 106.248C668.01 105.591 668.538 104.56 668.538 103.397C668.538 101.414 667.012 99.8036 665.129 99.8036C663.246 99.8036 661.72 101.414 661.72 103.397C661.72 105.381 663.246 106.99 665.129 106.99C665.597 106.99 666.043 106.889 666.449 106.71L667.868 110.423C667.885 110.461 667.905 110.502 667.924 110.54C668.142 110.912 668.604 111.03 668.956 110.803C669.312 110.574 669.424 110.086 669.207 109.714" fill="#121841"/>
<path fill-rule="evenodd" clip-rule="evenodd" d="M682.914 111.442H704.263V98.5682H682.914V111.442Z" fill="#F57408"/>
<path fill-rule="evenodd" clip-rule="evenodd" d="M577.413 339.599H753.231V182.248H577.413V339.599Z" fill="#E4EDFF"/>
<path fill-rule="evenodd" clip-rule="evenodd" d="M595.695 273.799H665.323V207.282H595.695V273.799Z" fill="white"/>
<path fill-rule="evenodd" clip-rule="evenodd" d="M680.625 339.599H750.254V284.322H680.625V339.599Z" fill="white"/>
<path fill-rule="evenodd" clip-rule="evenodd" d="M624.661 197.268H709.751V190.115H624.661V197.268Z" fill="#F57408"/>
<path fill-rule="evenodd" clip-rule="evenodd" d="M677.547 210.859H750.253V207.282H677.547V210.859Z" fill="#698BFD"/>
<path fill-rule="evenodd" clip-rule="evenodd" d="M677.547 217.058H750.253V213.481H677.547V217.058Z" fill="#698BFD"/>
<path fill-rule="evenodd" clip-rule="evenodd" d="M677.547 223.255H750.253V219.678H677.547V223.255Z" fill="#698BFD"/>
<path fill-rule="evenodd" clip-rule="evenodd" d="M677.547 229.454H750.253V225.877H677.547V229.454Z" fill="#698BFD"/>
<path fill-rule="evenodd" clip-rule="evenodd" d="M677.547 235.653H750.253V232.078H677.547V235.653Z" fill="#698BFD"/>
<path fill-rule="evenodd" clip-rule="evenodd" d="M677.547 241.852H750.253V238.275H677.547V241.852Z" fill="#698BFD"/>
<path fill-rule="evenodd" clip-rule="evenodd" d="M677.547 248.051H750.253V244.474H677.547V248.051Z" fill="#698BFD"/>
<path fill-rule="evenodd" clip-rule="evenodd" d="M677.547 254.248H750.253V250.673H677.547V254.248Z" fill="#698BFD"/>
<path fill-rule="evenodd" clip-rule="evenodd" d="M677.547 260.449H750.253V256.872H677.547V260.449Z" fill="#698BFD"/>
<path fill-rule="evenodd" clip-rule="evenodd" d="M677.547 266.646H750.253V263.07H677.547V266.646Z" fill="#698BFD"/>
<path fill-rule="evenodd" clip-rule="evenodd" d="M677.547 272.845H750.253V269.269H677.547V272.845Z" fill="#698BFD"/>
<path fill-rule="evenodd" clip-rule="evenodd" d="M899.708 523.404H531.172C528.01 523.404 525.448 520.841 525.448 517.681V269.898C525.448 266.739 528.01 264.178 531.172 264.178H899.708C902.871 264.178 905.434 266.739 905.434 269.898V517.681C905.434 520.841 902.871 523.404 899.708 523.404" fill="#D5DFFE"/>
<path fill-rule="evenodd" clip-rule="evenodd" d="M899.708 289.012H531.172C528.01 289.012 525.448 286.449 525.448 283.29V269.899C525.448 266.74 528.01 264.177 531.172 264.177H899.708C902.871 264.177 905.434 266.74 905.434 269.899V283.29C905.434 286.449 902.871 289.012 899.708 289.012" fill="#004D54"/>
<path fill-rule="evenodd" clip-rule="evenodd" d="M560.416 460.668H654.553V314.007H560.416V460.668Z" fill="#698BFD"/>
<path fill-rule="evenodd" clip-rule="evenodd" d="M680.905 322.251H881.023V314.005H680.905V322.251Z" fill="#698BFD"/>
<path fill-rule="evenodd" clip-rule="evenodd" d="M680.905 340.986H881.023V331.449H680.905V340.986Z" fill="#698BFD"/>
<path fill-rule="evenodd" clip-rule="evenodd" d="M539.662 284.721H792.283V271.132H539.662V284.721Z" fill="white"/>
<path fill-rule="evenodd" clip-rule="evenodd" d="M697.159 512.165H872.977V354.814H697.159V512.165Z" fill="#E4EDFF"/>
<path fill-rule="evenodd" clip-rule="evenodd" d="M715.44 446.365H785.069V379.848H715.44V446.365Z" fill="white"/>
<path fill-rule="evenodd" clip-rule="evenodd" d="M744.407 369.834H829.497V362.681H744.407V369.834Z" fill="#F57408"/>
<path fill-rule="evenodd" clip-rule="evenodd" d="M495.527 570.764C495.527 580.691 421.118 588.739 329.33 588.739C237.54 588.739 163.132 580.691 163.132 570.764C163.132 560.837 237.54 552.789 329.33 552.789C421.118 552.789 495.527 560.837 495.527 570.764" fill="#2846A6"/>
<path fill-rule="evenodd" clip-rule="evenodd" d="M355.755 572.139H362.349L388.604 459.128L379.047 458.625L355.755 572.139Z" fill="#1F1A15"/>
<path fill-rule="evenodd" clip-rule="evenodd" d="M462.747 574.178H456.152L429.897 461.165L439.456 460.663L462.747 574.178Z" fill="#1F1A15"/>
<path fill-rule="evenodd" clip-rule="evenodd" d="M286.277 561.981H279.685L253.428 448.968L262.987 448.466L286.277 561.981Z" fill="#1F1A15"/>
<path fill-rule="evenodd" clip-rule="evenodd" d="M198.683 569.655H205.277L231.532 456.641L221.973 456.139L198.683 569.655Z" fill="#1F1A15"/>
<path fill-rule="evenodd" clip-rule="evenodd" d="M203.569 371.609V454.733C203.569 461.297 209.831 466.617 217.556 466.617H432.336C440.059 466.617 446.323 461.297 446.323 454.733V371.609C446.323 365.045 440.059 359.723 432.336 359.723H217.556C209.831 359.723 203.569 365.045 203.569 371.609" fill="#450000"/>
</g>
<mask id="mask2" mask-type="alpha" maskUnits="userSpaceOnUse" x="204" y="359" width="243" height="108">
<path fill-rule="evenodd" clip-rule="evenodd" d="M358.909 359.438C351.194 359.438 344.937 364.779 344.937 371.369V371.369C344.937 371.762 344.937 371.995 344.936 372.117V372.117C344.936 374.799 344.931 385.826 344.911 424.282V424.282C344.451 430.518 338.383 435.452 330.966 435.452V435.452H246.013C238.295 435.452 232.042 430.111 232.042 423.522V423.522V371.369C232.042 364.779 225.787 359.438 218.07 359.438V359.438C210.354 359.438 204.099 364.779 204.099 371.369V371.369V454.815C204.099 461.403 210.354 466.744 218.07 466.744V466.744H432.613C440.33 466.744 446.585 461.403 446.585 454.815V454.815V371.369C446.585 364.779 440.33 359.438 432.613 359.438V359.438H358.909ZM344.936 371.788C344.936 372.089 344.936 372.391 344.936 372.117V372.117C344.937 371.547 344.937 371.354 344.937 371.354V371.354C344.936 371.352 344.936 371.57 344.936 371.788V371.788Z" fill="white"/>
</mask>
<g mask="url(#mask2)">
<path fill-rule="evenodd" clip-rule="evenodd" d="M358.909 359.438C351.194 359.438 344.937 364.779 344.937 371.369V371.369C344.937 371.762 344.937 371.995 344.936 372.117V372.117C344.936 374.799 344.931 385.826 344.911 424.282V424.282C344.451 430.518 338.383 435.452 330.966 435.452V435.452H246.013C238.295 435.452 232.042 430.111 232.042 423.522V423.522V371.369C232.042 364.779 225.787 359.438 218.07 359.438V359.438C210.354 359.438 204.099 364.779 204.099 371.369V371.369V454.815C204.099 461.403 210.354 466.744 218.07 466.744V466.744H432.613C440.33 466.744 446.585 461.403 446.585 454.815V454.815V371.369C446.585 364.779 440.33 359.438 432.613 359.438V359.438H358.909ZM344.936 371.788C344.936 372.089 344.936 372.391 344.936 372.117V372.117C344.937 371.547 344.937 371.354 344.937 371.354V371.354C344.936 371.352 344.936 371.57 344.936 371.788V371.788Z" fill="url(#paint0_linear)"/>
</g>
<path fill-rule="evenodd" clip-rule="evenodd" d="M344.433 424.598C344.452 386.646 344.459 375.494 344.461 372.68V372.682V372.68V372.644V372.473V372.443V372.452V372.432V372.42V372.229V372.224V372.228V372.162V371.992V371.986V371.915V371.854C344.461 365.286 350.721 359.96 358.443 359.96H432.206C439.929 359.96 446.189 365.286 446.189 371.854V455.032C446.189 461.6 439.929 466.924 432.206 466.924H331.217L330.478 435.733C337.901 435.733 343.974 430.812 344.433 424.598" fill="#FABF44"/>
<path fill-rule="evenodd" clip-rule="evenodd" d="M390.021 466.924H432.206C439.929 466.924 446.189 461.6 446.189 455.032V371.854C446.189 365.285 439.929 359.96 432.206 359.96H390.021C382.3 359.96 376.039 365.285 376.039 371.854V455.032C376.039 461.6 382.3 466.924 390.021 466.924" fill="#F15A24"/>
<path fill-rule="evenodd" clip-rule="evenodd" d="M325.272 203.848C325.272 203.848 302.662 199.989 294.755 215.612C286.846 231.234 287.593 266.563 298.355 275.709C309.119 284.857 307.329 308.292 316.756 315.209C326.186 322.13 350.213 325.254 350.213 308.963C350.213 308.963 338.503 310.947 335.538 300.804C335.538 300.804 352.342 308.683 360.554 296.659C368.766 284.635 351.125 283.519 351.125 283.519C351.125 283.519 358.056 286.923 347.715 285.137C337.374 283.353 344.124 280.771 344.124 272.025C344.124 263.28 350.517 269.46 348.691 253.393C346.868 237.324 332.979 203.294 325.272 203.848" fill="#0E1B29"/>
<path fill-rule="evenodd" clip-rule="evenodd" d="M270.688 548.709L268.495 564.024C268.495 564.024 264.412 575.594 264.412 577.294C264.412 578.42 266.333 587.549 271.442 589.088C274.06 589.878 284.788 578.168 286.213 572.872C287.88 566.683 283.802 547.349 283.802 547.349L270.688 548.709Z" fill="#FC7575"/>
<path fill-rule="evenodd" clip-rule="evenodd" d="M305.913 545.987C305.913 545.987 303.002 568.448 303.002 571.85C303.002 575.252 302.54 580.14 304.457 582.058C306.376 583.977 323.602 578.316 323.602 572.19C323.602 566.065 319.86 545.987 319.86 545.987H305.913Z" fill="#FC7575"/>
<path fill-rule="evenodd" clip-rule="evenodd" d="M343.128 345.167C343.128 329.832 342.493 279.951 342.493 279.951C342.493 279.951 333.429 273.806 315.282 273.806C309.447 273.806 304.083 272.808 298.274 273.865C286.019 276.096 274.876 281.34 274.876 281.34C274.876 281.34 278.637 328.4 272.758 360.53C271.72 366.206 276.155 371.414 281.923 371.414H339.254C343.121 371.414 346.06 367.938 345.427 364.122C344.077 355.978 343.128 349.149 343.128 345.167" fill="#FFDA88"/>
<path fill-rule="evenodd" clip-rule="evenodd" d="M278.555 370.42C269.257 377.624 267.273 380.105 264.626 383.351C243.977 408.705 249.921 443.133 259.308 441.839C268.693 440.546 288.091 437.186 303.107 440.314C318.125 443.445 351.916 442.507 355.044 430.3C357.128 422.171 346.018 393.875 340.007 371.414L278.555 370.42Z" fill="#464A7F"/>
<path fill-rule="evenodd" clip-rule="evenodd" d="M310.026 402.131L303.001 413.164C299.545 421.076 301.561 440.021 301.561 440.021L270.688 438.455L269.22 409.356L310.026 402.131Z" fill="#35385F"/>
<path fill-rule="evenodd" clip-rule="evenodd" d="M304.673 412.46C304.673 412.46 322.192 410.582 328.763 417.155C335.334 423.727 322.819 513.241 324.384 518.249C325.947 523.257 333.456 522.631 329.076 527.012C324.695 531.394 323.601 534.367 325.635 536.402C327.669 538.435 328.45 541.41 326.573 543.288C324.695 545.165 324.07 550.173 324.07 550.173H303.1C303.1 550.173 301.545 537.34 301.545 535.149C301.545 532.958 299.042 526.701 299.042 526.701C299.042 526.701 306.85 522.626 303.1 518.875C299.349 515.123 303.1 509.486 303.1 501.347C303.1 493.21 291.533 414.024 304.673 412.46" fill="#6B6E98"/>
<path fill-rule="evenodd" clip-rule="evenodd" d="M251.582 412.211C257.644 406.146 267.442 405.389 277.141 412.211C286.84 419.033 283.398 435.933 283.398 451.27C283.398 466.606 282.394 504.478 283.99 509.171C285.588 513.868 290.594 518.563 288.716 523.571C286.84 528.579 285.899 527.533 289.131 530.768C292.366 534.003 290.594 536.402 290.594 539.844C290.594 543.288 289.029 553.929 289.029 553.929H269.007C269.007 553.929 268.067 534.836 263.063 527.326C258.057 519.812 261.811 503.539 261.811 501.035C261.811 498.532 255.553 495.4 255.553 484.446C255.553 473.492 248.287 415.505 251.582 412.211" fill="#6B6E98"/>
<path fill-rule="evenodd" clip-rule="evenodd" d="M275.843 281.34C275.843 281.34 272.282 287.571 267.276 301.654C262.27 315.739 270.689 371.555 270.689 380.944C270.689 390.332 282.46 402.131 282.46 402.131L292.47 390.862L285.901 350.175L275.843 281.34Z" fill="#FD5E5A"/>
<path fill-rule="evenodd" clip-rule="evenodd" d="M342.493 279.951C342.493 279.951 356.923 283.51 361.327 303.541C365.731 323.571 369.308 370.52 367.932 376.154C366.557 381.787 330.264 399.208 330.264 399.208L327.199 393.054C327.199 393.054 354.721 369.267 354.721 365.825C354.721 362.381 342.942 319.296 342.942 319.296L342.493 279.951Z" fill="#FD5E5A"/>
<path fill-rule="evenodd" clip-rule="evenodd" d="M231.462 351.427L239.597 409.18L340.964 405.575L338.958 347.677L231.462 351.427Z" fill="#241145"/>
<path fill-rule="evenodd" clip-rule="evenodd" d="M285.654 574.359C276.205 580.345 269.176 579.716 264.419 577.433C264.544 579.018 266.502 587.598 271.442 589.088C273.837 589.811 283.011 580.081 285.654 574.359" fill="#ED1E79"/>
<path fill-rule="evenodd" clip-rule="evenodd" d="M323.601 572.19C323.601 570.829 323.416 568.779 323.128 566.412C317.677 571.316 310.396 574.546 303.355 567.346C303.139 569.464 303.001 571.11 303.001 571.85C303.001 575.252 302.539 580.14 304.457 582.058C306.375 583.977 323.601 578.316 323.601 572.19" fill="#ED1E79"/>
<path fill-rule="evenodd" clip-rule="evenodd" d="M325.558 250.603C325.558 250.603 324.772 252.333 323.577 255.043C319.44 264.433 322.071 278.834 322.28 281.34C322.698 286.369 320.011 296.66 320.011 296.66C320.011 296.66 300.353 282.9 299.24 273.866L309.9 241.201L325.558 250.603Z" fill="#FC7575"/>
<path fill-rule="evenodd" clip-rule="evenodd" d="M309.901 241.201L325.559 250.603C325.559 250.603 324.77 252.338 323.577 255.041C318.066 253.522 309.652 250.743 307.826 247.554L309.901 241.201Z" fill="#FD5E5A"/>
<path fill-rule="evenodd" clip-rule="evenodd" d="M313.688 214.561L337.335 227.616C337.335 227.616 342.243 227.728 342.243 222.26C342.243 216.792 336.22 211.436 330.085 208.312C323.95 205.189 316.255 203.839 316.255 203.839L313.688 214.561Z" fill="#0E1B29"/>
<path fill-rule="evenodd" clip-rule="evenodd" d="M322.277 208.646C322.277 208.646 331.423 210.209 333.876 214.561C336.33 218.912 337 229.29 339.453 231.745C341.909 234.199 344.046 234.739 344.046 234.739C344.046 234.739 344.696 235.874 342.243 237.1C339.789 238.328 341.647 239.668 343.171 239.668C344.696 239.668 343.414 242.569 342.243 242.905C342.243 242.905 343.748 243.349 343.469 244.801C343.191 246.251 342.466 246.531 342.466 246.531C342.466 246.531 342.391 248.428 343.171 250.212C343.952 251.997 342.058 257.298 330.085 254.955C330.085 254.955 312.291 250.77 311.231 245.749C310.175 240.727 302.256 222.476 309.003 215.728C315.748 208.979 322.277 208.646 322.277 208.646" fill="#FC7575"/>
<path fill-rule="evenodd" clip-rule="evenodd" d="M314.021 203.561C314.021 203.561 316.251 200.657 327.406 203.839C338.56 207.02 341.786 219.642 341.786 219.642C341.786 219.642 334.601 214.782 330.084 214.782C325.567 214.782 315.347 213.067 313.687 211.409C312.028 209.748 314.021 203.561 314.021 203.561" fill="#1B3753"/>
<path fill-rule="evenodd" clip-rule="evenodd" d="M316.333 202.545C317.893 202.545 326.904 213.779 324.229 222.149C321.551 230.516 315.194 226.779 311.177 229.01C307.16 231.242 311.956 241.564 311.232 245.749C310.507 249.932 299.24 273.865 299.24 273.865C299.24 273.865 289.761 223.27 295.508 213.896C301.254 204.522 316.333 202.545 316.333 202.545" fill="#1B3753"/>
<path fill-rule="evenodd" clip-rule="evenodd" d="M327.339 237.464C327.339 238.713 329.435 239.725 332.021 239.725C334.608 239.725 336.702 238.713 336.702 237.464C336.702 236.214 334.608 235.2 332.021 235.2C329.435 235.2 327.339 236.214 327.339 237.464" fill="#FD5E5A"/>
<path fill-rule="evenodd" clip-rule="evenodd" d="M338.593 227.615C338.593 227.615 337.054 230.705 330.794 230.562L338.593 227.615Z" fill="#1B3753"/>
<path fill-rule="evenodd" clip-rule="evenodd" d="M336.703 226.104C336.703 226.104 334.379 224.714 332.576 224.714C330.772 224.714 329.108 225.445 329.108 226.104C329.108 226.104 331.085 225.167 332.645 225.409C334.205 225.653 334.934 226.853 335.559 226.853C336.183 226.853 336.703 226.104 336.703 226.104" fill="#1B3753"/>
<path fill-rule="evenodd" clip-rule="evenodd" d="M310.719 237.38C310.719 237.38 319.393 257.487 301.974 279.95C284.556 302.416 260.92 293.322 257.739 284.229C254.556 275.135 265.687 272.025 265.687 272.025C265.687 272.025 263.564 282.314 269.22 281.827C274.878 281.339 276.828 280.006 274.555 268.93C272.283 257.856 280.501 262.296 285.023 255.042C289.543 247.791 285.023 242.254 285.023 233.686C285.023 225.117 295.509 213.895 295.509 213.895L310.719 237.38Z" fill="#1B3753"/>
<path fill-rule="evenodd" clip-rule="evenodd" d="M312.399 230.015C312.399 230.015 309.17 222.984 307.665 224.492C306.159 225.998 305.407 236.375 310.719 237.381C316.031 238.383 312.399 230.015 312.399 230.015" fill="#FC7575"/>
<path fill-rule="evenodd" clip-rule="evenodd" d="M312.166 230.872C312.166 230.872 310.502 227.04 309.599 227.944C308.698 228.846 309.669 234.882 310.882 234.882C312.097 234.882 312.46 232.803 312.166 230.872" fill="#FD5E5A"/>
<path fill-rule="evenodd" clip-rule="evenodd" d="M336.939 230.795C336.939 231.513 336.608 232.094 336.2 232.094C335.792 232.094 335.461 231.513 335.461 230.795C335.461 230.076 335.792 229.493 336.2 229.493C336.608 229.493 336.939 230.076 336.939 230.795" fill="#1B3753"/>
<path fill-rule="evenodd" clip-rule="evenodd" d="M174.105 277.562H247.33C250.656 277.562 253.353 281.565 253.353 286.501V307.296C253.353 312.233 250.656 316.235 247.33 316.235H244.014L253.353 344.546L224.14 316.235H174.105C170.78 316.235 168.083 312.233 168.083 307.296V286.501C168.083 281.565 170.78 277.562 174.105 277.562" fill="#5CA9FF"/>
<path fill-rule="evenodd" clip-rule="evenodd" d="M516.964 63.5006C516.444 63.5006 515.916 63.3558 515.447 63.0528C513.146 61.5696 510.767 60.0896 508.38 58.6508C507.052 57.8491 506.625 56.1271 507.423 54.7986C508.221 53.4684 509.945 53.0404 511.273 53.8405C513.711 55.3073 516.139 56.8185 518.486 58.3331C519.789 59.1727 520.165 60.9111 519.325 62.2133C518.787 63.0479 517.885 63.5006 516.964 63.5006" fill="#99D7FF"/>
<mask id="mask3" mask-type="alpha" maskUnits="userSpaceOnUse" x="0" y="0" width="492" height="472">
<path fill-rule="evenodd" clip-rule="evenodd" d="M0.000488281 0.00109863H491.642V471.615H0.000488281V0.00109863Z" fill="white"/>
</mask>
<g mask="url(#mask3)">
<path fill-rule="evenodd" clip-rule="evenodd" d="M304.8 5.7955H304.74C299.707 5.67697 294.784 5.61606 290.104 5.61606H289.267C287.816 5.61606 286.638 4.35833 286.638 2.80922C286.638 1.25846 287.816 0.000732422 289.267 0.000732422H290.104C294.822 0.000732422 299.787 0.0616433 304.857 0.180173C306.308 0.214744 307.458 1.50046 307.427 3.04957C307.395 4.57892 306.224 5.7955 304.8 5.7955M251.326 7.15365C249.969 7.15365 248.817 6.04079 248.709 4.57234C248.592 3.02488 249.673 1.67331 251.119 1.54985C256.15 1.12018 261.398 0.774468 266.719 0.52424C268.142 0.440282 269.398 1.65685 269.462 3.20761C269.525 4.75508 268.401 6.06548 266.949 6.13462C261.691 6.37827 256.506 6.72069 251.54 7.14542C251.467 7.15035 251.395 7.15365 251.326 7.15365M342.726 7.79727C342.653 7.79727 342.582 7.79233 342.511 7.7874C337.451 7.35279 332.258 6.98074 327.075 6.67948C325.624 6.59387 324.514 5.27359 324.592 3.72283C324.671 2.17536 325.875 1.02629 327.361 1.07238C332.588 1.37694 337.827 1.75228 342.932 2.19183C344.38 2.31529 345.459 3.66686 345.342 5.21268C345.233 6.68277 344.081 7.79727 342.726 7.79727M380.438 12.4545C380.304 12.4545 380.17 12.443 380.035 12.42C375.006 11.5985 369.855 10.8412 364.726 10.1761C363.285 9.99011 362.259 8.59081 362.434 7.05158C362.611 5.5107 363.929 4.43405 365.363 4.60362C370.544 5.27858 375.749 6.03914 380.833 6.87378C382.268 7.10755 383.253 8.53978 383.033 10.0741C382.834 11.4602 381.713 12.4545 380.438 12.4545M213.704 12.5336C212.474 12.5336 211.375 11.6034 211.128 10.2634C210.85 8.74227 211.78 7.26889 213.206 6.97092C218.207 5.92885 223.404 4.99379 228.656 4.19207C230.08 3.9797 231.423 5.04153 231.63 6.57582C231.833 8.11012 230.836 9.53412 229.399 9.75142C224.237 10.5367 219.127 11.4553 214.213 12.4825C214.042 12.5171 213.874 12.5336 213.704 12.5336M417.678 20.2659C417.473 20.2659 417.266 20.2395 417.057 20.1869C412.151 18.916 407.081 17.7093 401.993 16.5981C400.57 16.2886 399.651 14.8069 399.942 13.2891C400.232 11.768 401.62 10.7868 403.043 11.0996C408.196 12.2207 413.327 13.4439 418.296 14.7296C419.709 15.095 420.575 16.6129 420.233 18.1192C419.94 19.4049 418.865 20.2659 417.678 20.2659M177.109 23.1502C176.03 23.1502 175.018 22.4357 174.634 21.2915C174.144 19.8297 174.855 18.2246 176.219 17.6995C181.045 15.8507 186.076 14.1288 191.172 12.578C192.568 12.1549 194.023 13.0175 194.421 14.509C194.819 15.9989 194.009 17.5546 192.612 17.976C187.631 19.4939 182.712 21.1796 177.997 22.9855C177.703 23.0958 177.403 23.1502 177.109 23.1502M454.062 31.7715C453.771 31.7715 453.473 31.7205 453.184 31.6118C448.401 29.7993 443.478 28.0675 438.545 26.4591C437.158 26.0047 436.374 24.4375 436.8 22.9542C437.224 21.471 438.692 20.633 440.083 21.0891C445.086 22.7221 450.086 24.4803 454.94 26.3192C456.309 26.8377 457.024 28.4428 456.542 29.903C456.156 31.0537 455.143 31.7715 454.062 31.7715M142.753 40.2282C141.853 40.2282 140.977 39.7343 140.485 38.8437C139.75 37.5102 140.166 35.7899 141.418 35.0014C145.879 32.1978 150.544 29.5309 155.287 27.0731C156.596 26.3998 158.167 26.9792 158.802 28.372C159.435 29.7696 158.89 31.4488 157.584 32.1237C152.967 34.5157 148.426 37.1119 144.084 39.8413C143.666 40.1047 143.207 40.2282 142.753 40.2282M489.011 47.5359C488.617 47.5359 488.219 47.4437 487.843 47.2428C483.317 44.8393 478.621 42.5066 473.887 40.3089C472.557 39.6899 471.946 38.0371 472.524 36.6164C473.104 35.1924 474.654 34.5421 475.983 35.1595C480.803 37.395 485.579 39.7706 490.183 42.2169C491.484 42.9083 492.013 44.5924 491.366 45.9785C490.908 46.9663 489.977 47.5359 489.011 47.5359M112.223 64.1859C111.507 64.1859 110.794 63.8748 110.274 63.264C109.3 62.1166 109.381 60.342 110.457 59.2999C114.337 55.5415 118.407 51.9214 122.552 48.5401C123.708 47.6001 125.355 47.8338 126.238 49.0652C127.12 50.2966 126.9 52.0597 125.745 52.9997C121.716 56.2873 117.761 59.8053 113.99 63.4583C113.486 63.9439 112.855 64.1859 112.223 64.1859M86.365 93.815C85.7914 93.815 85.2132 93.6158 84.7306 93.2059C83.5943 92.2396 83.4062 90.4731 84.3097 89.2599C87.5568 84.9023 90.9735 80.6023 94.4673 76.4817C95.4418 75.3277 97.107 75.2471 98.1832 76.2842C99.2594 77.3246 99.3411 79.1009 98.3667 80.2516C94.9469 84.2849 91.6026 88.4911 88.4249 92.7548C87.9053 93.4528 87.139 93.815 86.365 93.815M65.0892 127.342C64.6467 127.342 64.1996 127.224 63.7879 126.972C62.5267 126.205 62.0872 124.491 62.8073 123.143C65.3837 118.321 68.1436 113.515 71.0099 108.857C71.8086 107.561 73.4414 107.204 74.6517 108.052C75.8636 108.903 76.2028 110.644 75.4057 111.942C72.598 116.498 69.8967 121.203 67.3742 125.926C66.8901 126.834 66.002 127.342 65.0892 127.342M48.8971 163.958C48.5856 163.958 48.2696 163.9 47.9612 163.777C46.6044 163.225 45.9229 161.604 46.4394 160.155C48.285 154.965 50.3202 149.762 52.4834 144.687C53.0863 143.278 54.642 142.656 55.968 143.296C57.2893 143.94 57.8706 145.602 57.2693 147.017C55.1524 151.982 53.1618 157.073 51.3548 162.15C50.9555 163.27 49.9563 163.958 48.8971 163.958M38.2652 202.829C38.0879 202.829 37.9106 202.809 37.7302 202.77C36.3086 202.455 35.3943 200.97 35.6872 199.453C36.7388 194.035 37.9784 188.553 39.3769 183.16C39.7639 181.662 41.2117 180.791 42.6101 181.202C44.0101 181.615 44.8319 183.161 44.4434 184.654C43.0773 189.929 41.8639 195.291 40.837 200.59C40.5795 201.917 39.4863 202.829 38.2652 202.829M33.6309 243.006C33.597 243.006 33.5615 243.006 33.5276 243.005C32.0752 242.944 30.945 241.638 31.0021 240.089C31.2056 234.55 31.5957 228.926 32.1585 223.367C32.3142 221.826 33.6124 220.713 35.0556 220.878C36.5003 221.046 37.5426 222.43 37.3868 223.971C36.8364 229.402 36.4556 234.9 36.2567 240.308C36.1996 241.819 35.0355 243.006 33.6309 243.006M35.3317 283.453C34.0319 283.453 32.9017 282.424 32.7291 281.012C32.5733 279.739 32.4269 278.468 32.2896 277.187C31.8302 272.929 31.474 268.596 31.2335 264.309C31.1456 262.763 32.2495 261.433 33.6989 261.339C35.1328 261.255 36.394 262.426 36.4819 263.971C36.7163 268.156 37.0647 272.387 37.5134 276.55C37.646 277.8 37.7909 279.041 37.942 280.279C38.1301 281.82 37.1171 283.227 35.6786 283.428C35.5614 283.446 35.4473 283.453 35.3317 283.453M43.6357 322.949C42.5256 322.949 41.4926 322.193 41.1333 321.004C39.5329 315.698 38.1005 310.261 36.8732 304.837C36.5324 303.33 37.4005 301.812 38.8113 301.45C40.2267 301.09 41.6437 302.013 41.9844 303.52C43.1809 308.806 44.5793 314.11 46.1381 319.282C46.5837 320.757 45.8236 322.338 44.4421 322.814C44.1738 322.906 43.904 322.949 43.6357 322.949M58.4761 360.203C57.5386 360.203 56.6305 359.665 56.1571 358.721C53.6871 353.797 51.3605 348.727 49.245 343.65C48.6545 342.233 49.2497 340.571 50.5772 339.943C51.9016 339.309 53.4589 339.948 54.0479 341.365C56.114 346.319 58.382 351.265 60.7919 356.069C61.478 357.439 60.9954 359.139 59.7157 359.87C59.321 360.098 58.8954 360.203 58.4761 360.203M79.1341 394.145C78.3478 394.145 77.5691 393.773 77.0526 393.055C73.8394 388.619 70.748 384.047 67.8648 379.467C67.0538 378.181 67.3745 376.438 68.5786 375.571C69.7828 374.71 71.4172 375.049 72.2282 376.334C75.0482 380.812 78.0702 385.283 81.211 389.623C82.1006 390.849 81.8894 392.614 80.7392 393.561C80.2612 393.954 79.6938 394.145 79.1341 394.145M104.514 424.219C103.857 424.219 103.203 423.96 102.691 423.437C98.9108 419.56 95.215 415.543 91.7058 411.501C90.719 410.364 90.7822 408.589 91.8476 407.536C92.9084 406.482 94.5752 406.545 95.5604 407.685C99.0033 411.646 102.627 415.586 106.335 419.387C107.382 420.462 107.414 422.238 106.41 423.356C105.894 423.93 105.203 424.219 104.514 424.219M133.513 450.315C132.969 450.315 132.42 450.134 131.948 449.762C127.727 446.416 123.573 442.958 119.609 439.478C118.486 438.493 118.326 436.723 119.246 435.527C120.168 434.328 121.824 434.154 122.947 435.14C126.845 438.561 130.927 441.963 135.081 445.251C136.247 446.176 136.492 447.934 135.627 449.179C135.11 449.92 134.318 450.315 133.513 450.315M165.848 471.615C165.426 471.615 164.997 471.508 164.601 471.28C158.953 468.023 154.346 465.32 150.906 463.243C149.642 462.479 149.198 460.767 149.912 459.418C150.63 458.065 152.236 457.596 153.495 458.357C156.906 460.414 161.482 463.101 167.099 466.338C168.377 467.074 168.855 468.777 168.164 470.142C167.689 471.082 166.783 471.615 165.848 471.615" fill="#99D7FF"/>
</g>
<path fill-rule="evenodd" clip-rule="evenodd" d="M598.479 87.8552L515.798 37.7502L495.554 58.4073L598.479 87.8552Z" fill="#0A4CFE"/>
<path fill-rule="evenodd" clip-rule="evenodd" d="M515.785 99.4639L516.967 60.6917L598.478 87.8546L515.785 99.4639Z" fill="#99D7FF"/>
<path fill-rule="evenodd" clip-rule="evenodd" d="M515.699 5.65894L598.479 87.8557L515.799 37.7507L515.699 5.65894Z" fill="#99D7FF"/>
<path fill-rule="evenodd" clip-rule="evenodd" d="M495.554 58.4077L516.967 60.6927L516.796 66.3228L495.554 58.4077Z" fill="#0033BF"/>
<defs>
<linearGradient id="paint0_linear" x1="146.132" y1="447.434" x2="309" y2="597.754" gradientUnits="userSpaceOnUse">
<stop stop-color="#F47938"/>
<stop offset="1" stop-color="#FFFB4D"/>
</linearGradient>
</defs>
</svg>
