<svg width="906" height="610" viewBox="0 0 906 610" fill="none" xmlns="http://www.w3.org/2000/svg">
<mask id="mask0" mask-type="alpha" maskUnits="userSpaceOnUse" x="74" y="142" width="690" height="468">
<path fill-rule="evenodd" clip-rule="evenodd" d="M74.5552 142.061H763.17V609.355H74.5552V142.061Z" fill="white"/>
</mask>
<g mask="url(#mask0)">
<path fill-rule="evenodd" clip-rule="evenodd" d="M440.67 142.061C440.67 142.061 16.342 149.642 81.3234 344.939C146.306 540.235 618.427 625.025 682.915 606.987C747.399 588.945 910.124 167.839 440.67 142.061Z" fill="#FFD6D6"/>
</g>
<path fill-rule="evenodd" clip-rule="evenodd" d="M779.962 351.46H411.426C408.264 351.46 405.701 348.898 405.701 345.738V97.9534C405.701 94.7947 408.264 92.2332 411.426 92.2332H779.962C783.123 92.2332 785.688 94.7947 785.688 97.9534V345.738C785.688 348.898 783.123 351.46 779.962 351.46Z" fill="#7796FE"/>
<path fill-rule="evenodd" clip-rule="evenodd" d="M779.962 117.068H411.426C408.264 117.068 405.701 114.506 405.701 111.346V97.954C405.701 94.7953 408.264 92.2322 411.426 92.2322H779.962C783.123 92.2322 785.688 94.7953 785.688 97.954V111.346C785.688 114.506 783.123 117.068 779.962 117.068Z" fill="#004D54"/>
<mask id="mask1" mask-type="alpha" maskUnits="userSpaceOnUse" x="0" y="0" width="906" height="610">
<path fill-rule="evenodd" clip-rule="evenodd" d="M0 609.355H905.433V0.620483H0V609.355Z" fill="white"/>
</mask>
<g mask="url(#mask1)">
<path fill-rule="evenodd" clip-rule="evenodd" d="M440.668 288.723H534.806V142.062H440.668V288.723Z" fill="#A2B7FD"/>
<path fill-rule="evenodd" clip-rule="evenodd" d="M561.16 150.307H761.277V142.062H561.16V150.307Z" fill="#698BFD"/>
<path fill-rule="evenodd" clip-rule="evenodd" d="M561.16 169.042H761.277V159.505H561.16V169.042Z" fill="#698BFD"/>
<path fill-rule="evenodd" clip-rule="evenodd" d="M419.917 112.776H672.537V99.187H419.917V112.776Z" fill="white"/>
<path fill-rule="evenodd" clip-rule="evenodd" d="M745.184 110.686C745.184 111.841 744.248 112.777 743.092 112.777C741.937 112.777 741 111.841 741 110.686C741 109.531 741.937 108.595 743.092 108.595C744.248 108.595 745.184 109.531 745.184 110.686Z" fill="white"/>
<path fill-rule="evenodd" clip-rule="evenodd" d="M750.254 110.686C750.254 111.841 749.317 112.777 748.162 112.777C747.006 112.777 746.069 111.841 746.069 110.686C746.069 109.531 747.006 108.595 748.162 108.595C749.317 108.595 750.254 109.531 750.254 110.686Z" fill="white"/>
<path fill-rule="evenodd" clip-rule="evenodd" d="M755.323 110.686C755.323 111.841 754.386 112.777 753.231 112.777C752.075 112.777 751.139 111.841 751.139 110.686C751.139 109.531 752.075 108.595 753.231 108.595C754.386 108.595 755.323 109.531 755.323 110.686Z" fill="white"/>
<path fill-rule="evenodd" clip-rule="evenodd" d="M662.54 104.017C662.54 102.513 663.702 101.289 665.129 101.289C666.556 101.289 667.719 102.513 667.719 104.017C667.719 105.521 666.556 106.745 665.129 106.745C663.702 106.745 662.54 105.521 662.54 104.017ZM669.207 110.335L667.197 106.868C668.01 106.212 668.538 105.18 668.538 104.017C668.538 102.035 667.012 100.424 665.129 100.424C663.246 100.424 661.72 102.035 661.72 104.017C661.72 106.001 663.246 107.61 665.129 107.61C665.597 107.61 666.043 107.51 666.449 107.33L667.868 111.044C667.885 111.081 667.905 111.123 667.924 111.16C668.142 111.532 668.604 111.651 668.956 111.424C669.312 111.195 669.424 110.706 669.207 110.335Z" fill="#121841"/>
<path fill-rule="evenodd" clip-rule="evenodd" d="M682.914 112.062H704.263V99.1887H682.914V112.062Z" fill="#F57408"/>
<path fill-rule="evenodd" clip-rule="evenodd" d="M577.413 340.22H753.231V182.868H577.413V340.22Z" fill="#E4EDFF"/>
<path fill-rule="evenodd" clip-rule="evenodd" d="M595.695 274.42H665.323V207.903H595.695V274.42Z" fill="white"/>
<path fill-rule="evenodd" clip-rule="evenodd" d="M680.625 340.22H750.254V284.942H680.625V340.22Z" fill="white"/>
<path fill-rule="evenodd" clip-rule="evenodd" d="M624.661 197.889H709.751V190.735H624.661V197.889Z" fill="#F57408"/>
<path fill-rule="evenodd" clip-rule="evenodd" d="M677.547 211.479H750.253V207.903H677.547V211.479Z" fill="#698BFD"/>
<path fill-rule="evenodd" clip-rule="evenodd" d="M677.547 217.678H750.253V214.102H677.547V217.678Z" fill="#698BFD"/>
<path fill-rule="evenodd" clip-rule="evenodd" d="M677.547 223.875H750.253V220.299H677.547V223.875Z" fill="#698BFD"/>
<path fill-rule="evenodd" clip-rule="evenodd" d="M677.547 230.074H750.253V226.498H677.547V230.074Z" fill="#698BFD"/>
<path fill-rule="evenodd" clip-rule="evenodd" d="M677.547 236.273H750.253V232.698H677.547V236.273Z" fill="#698BFD"/>
<path fill-rule="evenodd" clip-rule="evenodd" d="M677.547 242.472H750.253V238.896H677.547V242.472Z" fill="#698BFD"/>
<path fill-rule="evenodd" clip-rule="evenodd" d="M677.547 248.671H750.253V245.095H677.547V248.671Z" fill="#698BFD"/>
<path fill-rule="evenodd" clip-rule="evenodd" d="M677.547 254.869H750.253V251.294H677.547V254.869Z" fill="#698BFD"/>
<path fill-rule="evenodd" clip-rule="evenodd" d="M677.547 261.069H750.253V257.493H677.547V261.069Z" fill="#698BFD"/>
<path fill-rule="evenodd" clip-rule="evenodd" d="M677.547 267.267H750.253V263.69H677.547V267.267Z" fill="#698BFD"/>
<path fill-rule="evenodd" clip-rule="evenodd" d="M677.547 273.465H750.253V269.889H677.547V273.465Z" fill="#698BFD"/>
<path fill-rule="evenodd" clip-rule="evenodd" d="M899.708 524.025H531.172C528.01 524.025 525.448 521.462 525.448 518.301V270.519C525.448 267.36 528.01 264.798 531.172 264.798H899.708C902.871 264.798 905.434 267.36 905.434 270.519V518.301C905.434 521.462 902.871 524.025 899.708 524.025Z" fill="#D5DFFE"/>
<path fill-rule="evenodd" clip-rule="evenodd" d="M899.708 289.633H531.172C528.01 289.633 525.448 287.07 525.448 283.911V270.519C525.448 267.361 528.01 264.797 531.172 264.797H899.708C902.871 264.797 905.434 267.361 905.434 270.519V283.911C905.434 287.07 902.871 289.633 899.708 289.633Z" fill="#004D54"/>
<path fill-rule="evenodd" clip-rule="evenodd" d="M560.416 461.289H654.553V314.627H560.416V461.289Z" fill="#698BFD"/>
<path fill-rule="evenodd" clip-rule="evenodd" d="M680.905 322.871H881.023V314.626H680.905V322.871Z" fill="#698BFD"/>
<path fill-rule="evenodd" clip-rule="evenodd" d="M680.905 341.606H881.023V332.069H680.905V341.606Z" fill="#698BFD"/>
<path fill-rule="evenodd" clip-rule="evenodd" d="M539.662 285.342H792.283V271.753H539.662V285.342Z" fill="white"/>
<path fill-rule="evenodd" clip-rule="evenodd" d="M864.931 283.25C864.931 284.405 863.994 285.341 862.839 285.341C861.682 285.341 860.747 284.405 860.747 283.25C860.747 282.096 861.682 281.159 862.839 281.159C863.994 281.159 864.931 282.096 864.931 283.25Z" fill="white"/>
<path fill-rule="evenodd" clip-rule="evenodd" d="M869.999 283.25C869.999 284.405 869.063 285.341 867.907 285.341C866.752 285.341 865.815 284.405 865.815 283.25C865.815 282.096 866.752 281.159 867.907 281.159C869.063 281.159 869.999 282.096 869.999 283.25Z" fill="white"/>
<path fill-rule="evenodd" clip-rule="evenodd" d="M875.069 283.25C875.069 284.405 874.132 285.341 872.976 285.341C871.821 285.341 870.884 284.405 870.884 283.25C870.884 282.096 871.821 281.159 872.976 281.159C874.132 281.159 875.069 282.096 875.069 283.25Z" fill="white"/>
<path fill-rule="evenodd" clip-rule="evenodd" d="M782.286 276.582C782.286 275.079 783.448 273.855 784.876 273.855C786.303 273.855 787.463 275.079 787.463 276.582C787.463 278.086 786.303 279.31 784.876 279.31C783.448 279.31 782.286 278.086 782.286 276.582ZM788.953 282.9L786.943 279.432C787.756 278.777 788.285 277.745 788.285 276.582C788.285 274.598 786.757 272.989 784.876 272.989C782.992 272.989 781.465 274.598 781.465 276.582C781.465 278.566 782.992 280.175 784.876 280.175C785.343 280.175 785.787 280.075 786.194 279.896L787.615 283.609C787.631 283.647 787.649 283.688 787.671 283.726C787.886 284.097 788.349 284.216 788.703 283.987C789.057 283.758 789.169 283.272 788.953 282.9Z" fill="#121841"/>
<path fill-rule="evenodd" clip-rule="evenodd" d="M802.661 284.626H824.011V271.753H802.661V284.626Z" fill="#F57408"/>
<path fill-rule="evenodd" clip-rule="evenodd" d="M697.159 512.786H872.977V355.434H697.159V512.786Z" fill="#E4EDFF"/>
<path fill-rule="evenodd" clip-rule="evenodd" d="M715.44 446.986H785.069V380.469H715.44V446.986Z" fill="white"/>
<path fill-rule="evenodd" clip-rule="evenodd" d="M800.371 512.785H869.999V457.508H800.371V512.785Z" fill="white"/>
<path fill-rule="evenodd" clip-rule="evenodd" d="M744.407 370.454H829.497V363.301H744.407V370.454Z" fill="#F57408"/>
<path fill-rule="evenodd" clip-rule="evenodd" d="M797.292 384.045H869.999V380.469H797.292V384.045Z" fill="#698BFD"/>
<path fill-rule="evenodd" clip-rule="evenodd" d="M797.292 390.242H869.999V386.666H797.292V390.242Z" fill="#698BFD"/>
<path fill-rule="evenodd" clip-rule="evenodd" d="M797.292 396.441H869.999V392.865H797.292V396.441Z" fill="#698BFD"/>
<path fill-rule="evenodd" clip-rule="evenodd" d="M797.292 402.64H869.999V399.064H797.292V402.64Z" fill="#698BFD"/>
<path fill-rule="evenodd" clip-rule="evenodd" d="M797.292 408.838H869.999V405.261H797.292V408.838Z" fill="#698BFD"/>
<path fill-rule="evenodd" clip-rule="evenodd" d="M797.292 415.037H869.999V411.462H797.292V415.037Z" fill="#698BFD"/>
<path fill-rule="evenodd" clip-rule="evenodd" d="M797.292 421.236H869.999V417.659H797.292V421.236Z" fill="#698BFD"/>
<path fill-rule="evenodd" clip-rule="evenodd" d="M797.292 427.434H869.999V423.858H797.292V427.434Z" fill="#698BFD"/>
<path fill-rule="evenodd" clip-rule="evenodd" d="M797.292 433.632H869.999V430.057H797.292V433.632Z" fill="#698BFD"/>
<path fill-rule="evenodd" clip-rule="evenodd" d="M797.292 439.832H869.999V436.256H797.292V439.832Z" fill="#698BFD"/>
<path fill-rule="evenodd" clip-rule="evenodd" d="M797.292 446.031H869.999V442.455H797.292V446.031Z" fill="#698BFD"/>
<path fill-rule="evenodd" clip-rule="evenodd" d="M495.527 571.384C495.527 581.311 421.118 589.359 329.33 589.359C237.54 589.359 163.132 581.311 163.132 571.384C163.132 561.457 237.54 553.409 329.33 553.409C421.118 553.409 495.527 561.457 495.527 571.384Z" fill="#2846A6"/>
<path fill-rule="evenodd" clip-rule="evenodd" d="M355.755 572.76H362.349L388.604 459.749L379.047 459.245L355.755 572.76Z" fill="#1F1A15"/>
<path fill-rule="evenodd" clip-rule="evenodd" d="M462.747 574.798H456.152L429.897 461.785L439.456 461.284L462.747 574.798Z" fill="#1F1A15"/>
<path fill-rule="evenodd" clip-rule="evenodd" d="M286.277 562.601H279.685L253.428 449.588L262.987 449.086L286.277 562.601Z" fill="#1F1A15"/>
<path fill-rule="evenodd" clip-rule="evenodd" d="M198.683 570.276H205.277L231.532 457.261L221.973 456.76L198.683 570.276Z" fill="#1F1A15"/>
<path fill-rule="evenodd" clip-rule="evenodd" d="M203.569 372.23V455.353C203.569 461.917 209.831 467.238 217.556 467.238H432.336C440.059 467.238 446.323 461.917 446.323 455.353V372.23C446.323 365.665 440.059 360.343 432.336 360.343H217.556C209.831 360.343 203.569 365.665 203.569 372.23Z" fill="#450000"/>
</g>
<mask id="mask2" mask-type="alpha" maskUnits="userSpaceOnUse" x="204" y="360" width="243" height="108">
<path fill-rule="evenodd" clip-rule="evenodd" d="M358.909 360.059C351.194 360.059 344.937 365.4 344.937 371.989C344.937 372.382 344.937 372.615 344.936 372.737C344.936 375.419 344.931 386.446 344.911 424.902C344.451 431.138 338.383 436.073 330.966 436.073H246.013C238.295 436.073 232.042 430.732 232.042 424.142V371.989C232.042 365.4 225.787 360.059 218.07 360.059C210.354 360.059 204.099 365.4 204.099 371.989V455.435C204.099 462.023 210.354 467.364 218.07 467.364H432.613C440.33 467.364 446.585 462.023 446.585 455.435V371.989C446.585 365.4 440.33 360.059 432.613 360.059H358.909ZM344.936 372.409C344.936 372.709 344.936 373.011 344.936 372.737C344.937 372.168 344.937 371.974 344.937 371.974C344.936 371.973 344.936 372.191 344.936 372.409Z" fill="white"/>
</mask>
<g mask="url(#mask2)">
<path fill-rule="evenodd" clip-rule="evenodd" d="M358.909 360.059C351.194 360.059 344.937 365.4 344.937 371.989C344.937 372.382 344.937 372.615 344.936 372.737C344.936 375.419 344.931 386.446 344.911 424.902C344.451 431.138 338.383 436.073 330.966 436.073H246.013C238.295 436.073 232.042 430.732 232.042 424.142V371.989C232.042 365.4 225.787 360.059 218.07 360.059C210.354 360.059 204.099 365.4 204.099 371.989V455.435C204.099 462.023 210.354 467.364 218.07 467.364H432.613C440.33 467.364 446.585 462.023 446.585 455.435V371.989C446.585 365.4 440.33 360.059 432.613 360.059H358.909ZM344.936 372.409C344.936 372.709 344.936 373.011 344.936 372.737C344.937 372.168 344.937 371.974 344.937 371.974C344.936 371.973 344.936 372.191 344.936 372.409Z" fill="url(#paint0_linear)"/>
</g>
<path fill-rule="evenodd" clip-rule="evenodd" d="M344.433 425.218C344.452 387.266 344.459 376.114 344.461 373.301V373.302V373.301V373.265V373.093V373.064V373.072V373.052V373.041V372.85V372.845V372.848V372.782V372.613V372.606V372.535V372.474C344.461 365.906 350.721 360.58 358.443 360.58H432.206C439.929 360.58 446.189 365.906 446.189 372.474V455.652C446.189 462.221 439.929 467.545 432.206 467.545H331.217L330.478 436.353C337.901 436.353 343.974 431.433 344.433 425.218Z" fill="#FABF44"/>
<path fill-rule="evenodd" clip-rule="evenodd" d="M390.021 467.545H432.206C439.929 467.545 446.189 462.221 446.189 455.652V372.474C446.189 365.906 439.929 360.58 432.206 360.58H390.021C382.3 360.58 376.038 365.906 376.038 372.474V455.652C376.038 462.221 382.3 467.545 390.021 467.545Z" fill="#F15A24"/>
<path fill-rule="evenodd" clip-rule="evenodd" d="M325.272 204.468C325.272 204.468 302.661 200.609 294.754 216.232C286.845 231.855 287.592 267.183 298.355 276.33C309.119 285.478 307.328 308.912 316.756 315.83C326.185 322.75 350.213 325.875 350.213 309.584C350.213 309.584 338.502 311.567 335.537 301.425C335.537 301.425 352.342 309.304 360.554 297.28C368.765 285.256 351.124 284.139 351.124 284.139C351.124 284.139 358.056 287.544 347.715 285.758C337.374 283.973 344.124 281.392 344.124 272.645C344.124 263.901 350.517 270.081 348.69 254.013C346.867 237.944 332.978 203.915 325.272 204.468Z" fill="#0E1B29"/>
<path fill-rule="evenodd" clip-rule="evenodd" d="M270.688 549.329L268.494 564.644C268.494 564.644 264.412 576.214 264.412 577.915C264.412 579.041 266.332 588.169 271.442 589.708C274.06 590.498 284.787 578.789 286.213 573.493C287.88 567.303 283.802 547.969 283.802 547.969L270.688 549.329Z" fill="#FC7575"/>
<path fill-rule="evenodd" clip-rule="evenodd" d="M305.913 546.608C305.913 546.608 303.002 569.069 303.002 572.47C303.002 575.873 302.539 580.761 304.456 582.678C306.375 584.598 323.601 578.937 323.601 572.811C323.601 566.685 319.859 546.608 319.859 546.608H305.913Z" fill="#FC7575"/>
<path fill-rule="evenodd" clip-rule="evenodd" d="M343.128 345.787C343.128 330.453 342.493 280.572 342.493 280.572C342.493 280.572 333.429 274.426 315.282 274.426C309.447 274.426 304.083 273.428 298.274 274.485C286.019 276.716 274.876 281.961 274.876 281.961C274.876 281.961 278.637 329.02 272.758 361.15C271.72 366.826 276.155 372.035 281.923 372.035H339.254C343.121 372.035 346.06 368.558 345.427 364.742C344.077 356.598 343.128 349.77 343.128 345.787Z" fill="#FFDA88"/>
<path fill-rule="evenodd" clip-rule="evenodd" d="M278.554 371.04C269.257 378.244 267.272 380.725 264.626 383.971C243.977 409.325 249.921 443.753 259.307 442.459C268.692 441.167 288.091 437.807 303.107 440.935C318.125 444.066 351.915 443.127 355.044 430.921C357.127 422.791 346.018 394.496 340.006 372.035L278.554 371.04Z" fill="#464A7F"/>
<path fill-rule="evenodd" clip-rule="evenodd" d="M310.026 402.751L303.001 413.784C299.545 421.696 301.561 440.641 301.561 440.641L270.688 439.075L269.22 409.977L310.026 402.751Z" fill="#35385F"/>
<path fill-rule="evenodd" clip-rule="evenodd" d="M304.673 413.08C304.673 413.08 322.192 411.202 328.763 417.776C335.334 424.347 322.819 513.862 324.384 518.869C325.947 523.877 333.456 523.252 329.076 527.632C324.695 532.015 323.601 534.988 325.635 537.023C327.669 539.056 328.45 542.03 326.573 543.909C324.695 545.785 324.07 550.793 324.07 550.793H303.1C303.1 550.793 301.545 537.961 301.545 535.77C301.545 533.579 299.042 527.321 299.042 527.321C299.042 527.321 306.85 523.247 303.1 519.495C299.349 515.743 303.1 510.107 303.1 501.968C303.1 493.83 291.533 414.644 304.673 413.08Z" fill="#6B6E98"/>
<path fill-rule="evenodd" clip-rule="evenodd" d="M251.581 412.831C257.644 406.767 267.442 406.009 277.141 412.831C286.84 419.653 283.397 436.554 283.397 451.89C283.397 467.226 282.393 505.098 283.99 509.792C285.588 514.488 290.594 519.183 288.716 524.191C286.84 529.199 285.899 528.154 289.131 531.389C292.366 534.623 290.594 537.022 290.594 540.464C290.594 543.908 289.029 554.55 289.029 554.55H269.007C269.007 554.55 268.067 535.456 263.063 527.946C258.057 520.433 261.81 504.16 261.81 501.656C261.81 499.152 255.552 496.021 255.552 485.067C255.552 474.113 248.287 416.125 251.581 412.831Z" fill="#6B6E98"/>
<path fill-rule="evenodd" clip-rule="evenodd" d="M275.842 281.96C275.842 281.96 272.281 288.191 267.275 302.275C262.269 316.36 270.688 372.176 270.688 381.564C270.688 390.953 282.459 402.751 282.459 402.751L292.47 391.483L285.9 350.796L275.842 281.96Z" fill="#FD5E5A"/>
<path fill-rule="evenodd" clip-rule="evenodd" d="M342.493 280.571C342.493 280.571 356.923 284.13 361.327 304.162C365.731 324.192 369.308 371.141 367.932 376.774C366.557 382.408 330.264 399.828 330.264 399.828L327.199 393.674C327.199 393.674 354.721 369.888 354.721 366.446C354.721 363.002 342.942 319.916 342.942 319.916L342.493 280.571Z" fill="#FD5E5A"/>
<path fill-rule="evenodd" clip-rule="evenodd" d="M231.462 352.047L239.596 409.801L340.964 406.196L338.958 348.297L231.462 352.047Z" fill="#241145"/>
<path fill-rule="evenodd" clip-rule="evenodd" d="M285.653 574.979C276.204 580.965 269.176 580.336 264.418 578.053C264.544 579.638 266.502 588.219 271.442 589.708C273.836 590.431 283.01 580.702 285.653 574.979Z" fill="#ED1E79"/>
<path fill-rule="evenodd" clip-rule="evenodd" d="M323.601 572.811C323.601 571.449 323.416 569.4 323.128 567.032C317.677 571.937 310.396 575.167 303.355 567.966C303.139 570.085 303.001 571.731 303.001 572.47C303.001 575.873 302.539 580.76 304.457 582.678C306.375 584.598 323.601 578.936 323.601 572.811Z" fill="#ED1E79"/>
<path fill-rule="evenodd" clip-rule="evenodd" d="M325.558 251.223C325.558 251.223 324.771 252.954 323.577 255.663C319.44 265.053 322.071 279.455 322.28 281.96C322.698 286.99 320.011 297.28 320.011 297.28C320.011 297.28 300.352 283.521 299.24 274.486L309.9 241.822L325.558 251.223Z" fill="#FC7575"/>
<path fill-rule="evenodd" clip-rule="evenodd" d="M309.9 241.822L325.558 251.223C325.558 251.223 324.77 252.959 323.577 255.662C318.066 254.142 309.652 251.363 307.825 248.175L309.9 241.822Z" fill="#FD5E5A"/>
<path fill-rule="evenodd" clip-rule="evenodd" d="M313.688 215.181L337.335 228.236C337.335 228.236 342.242 228.348 342.242 222.881C342.242 217.412 336.219 212.057 330.084 208.932C323.949 205.809 316.255 204.459 316.255 204.459L313.688 215.181Z" fill="#0E1B29"/>
<path fill-rule="evenodd" clip-rule="evenodd" d="M322.276 209.267C322.276 209.267 331.422 210.829 333.876 215.182C336.33 219.533 336.999 229.911 339.453 232.365C341.908 234.82 344.046 235.36 344.046 235.36C344.046 235.36 344.696 236.494 342.242 237.72C339.789 238.948 341.646 240.288 343.17 240.288C344.696 240.288 343.414 243.189 342.242 243.525C342.242 243.525 343.748 243.969 343.468 245.421C343.19 246.872 342.466 247.152 342.466 247.152C342.466 247.152 342.39 249.048 343.17 250.833C343.952 252.617 342.058 257.918 330.084 255.575C330.084 255.575 312.291 251.391 311.231 246.37C310.174 241.347 302.256 223.097 309.003 216.349C315.748 209.599 322.276 209.267 322.276 209.267Z" fill="#FC7575"/>
<path fill-rule="evenodd" clip-rule="evenodd" d="M314.021 204.182C314.021 204.182 316.251 201.278 327.406 204.46C338.56 207.64 341.786 220.262 341.786 220.262C341.786 220.262 334.601 215.403 330.084 215.403C325.567 215.403 315.347 213.687 313.687 212.029C312.028 210.368 314.021 204.182 314.021 204.182Z" fill="#1B3753"/>
<path fill-rule="evenodd" clip-rule="evenodd" d="M316.333 203.166C317.893 203.166 326.904 214.4 324.229 222.769C321.551 231.137 315.194 227.4 311.177 229.631C307.16 231.863 311.956 242.185 311.232 246.37C310.507 250.553 299.24 274.486 299.24 274.486C299.24 274.486 289.761 223.89 295.508 214.516C301.254 205.143 316.333 203.166 316.333 203.166Z" fill="#1B3753"/>
<path fill-rule="evenodd" clip-rule="evenodd" d="M327.338 238.084C327.338 239.334 329.435 240.346 332.02 240.346C334.607 240.346 336.702 239.334 336.702 238.084C336.702 236.835 334.607 235.82 332.02 235.82C329.435 235.82 327.338 236.835 327.338 238.084Z" fill="#FD5E5A"/>
<path fill-rule="evenodd" clip-rule="evenodd" d="M338.592 228.236C338.592 228.236 337.054 231.326 330.794 231.182L338.592 228.236Z" fill="#1B3753"/>
<path fill-rule="evenodd" clip-rule="evenodd" d="M336.703 226.724C336.703 226.724 334.379 225.335 332.576 225.335C330.772 225.335 329.108 226.066 329.108 226.724C329.108 226.724 331.085 225.788 332.645 226.03C334.205 226.273 334.934 227.473 335.559 227.473C336.183 227.473 336.703 226.724 336.703 226.724Z" fill="#1B3753"/>
<path fill-rule="evenodd" clip-rule="evenodd" d="M310.718 238C310.718 238 319.392 258.108 301.974 280.57C284.555 303.037 260.919 293.943 257.738 284.849C254.556 275.755 265.687 272.646 265.687 272.646C265.687 272.646 263.564 282.935 269.22 282.447C274.877 281.96 276.827 280.626 274.555 269.551C272.282 258.476 280.5 262.916 285.022 255.663C289.543 248.411 285.022 242.875 285.022 234.306C285.022 225.738 295.508 214.515 295.508 214.515L310.718 238Z" fill="#1B3753"/>
<path fill-rule="evenodd" clip-rule="evenodd" d="M312.399 230.636C312.399 230.636 309.17 223.605 307.665 225.113C306.159 226.619 305.407 236.995 310.719 238.001C316.031 239.004 312.399 230.636 312.399 230.636Z" fill="#FC7575"/>
<path fill-rule="evenodd" clip-rule="evenodd" d="M312.166 231.493C312.166 231.493 310.502 227.66 309.599 228.564C308.698 229.466 309.669 235.503 310.882 235.503C312.097 235.503 312.46 233.424 312.166 231.493Z" fill="#FD5E5A"/>
<path fill-rule="evenodd" clip-rule="evenodd" d="M336.939 231.415C336.939 232.133 336.608 232.714 336.2 232.714C335.792 232.714 335.461 232.133 335.461 231.415C335.461 230.696 335.792 230.113 336.2 230.113C336.608 230.113 336.939 230.696 336.939 231.415Z" fill="#1B3753"/>
<path fill-rule="evenodd" clip-rule="evenodd" d="M174.105 278.182H247.33C250.656 278.182 253.353 282.186 253.353 287.121V307.917C253.353 312.854 250.656 316.856 247.33 316.856H244.014L253.353 345.166L224.14 316.856H174.105C170.78 316.856 168.083 312.854 168.083 307.917V287.121C168.083 282.186 170.78 278.182 174.105 278.182Z" fill="#5CA9FF"/>
<path fill-rule="evenodd" clip-rule="evenodd" d="M516.964 64.1211C516.444 64.1211 515.916 63.9762 515.447 63.6733C513.146 62.1901 510.767 60.7101 508.38 59.2713C507.052 58.4696 506.625 56.7476 507.423 55.4191C508.221 54.0889 509.945 53.6609 511.273 54.461C513.711 55.9278 516.139 57.439 518.486 58.9536C519.789 59.7931 520.165 61.5316 519.325 62.8337C518.787 63.6684 517.885 64.1211 516.964 64.1211Z" fill="#99D7FF"/>
<mask id="mask3" mask-type="alpha" maskUnits="userSpaceOnUse" x="0" y="0" width="492" height="473">
<path fill-rule="evenodd" clip-rule="evenodd" d="M0.000488281 0.621582H491.642V472.236H0.000488281V0.621582Z" fill="white"/>
</mask>
<g mask="url(#mask3)">
<path fill-rule="evenodd" clip-rule="evenodd" d="M292.226 6.41598H292.162C286.79 6.29745 281.536 6.23654 276.542 6.23654H275.648C274.099 6.23654 272.842 4.97881 272.842 3.4297C272.842 1.87894 274.099 0.621216 275.648 0.621216H276.542C281.577 0.621216 286.876 0.682127 292.287 0.800656C293.835 0.835227 295.063 2.12094 295.03 3.67005C294.995 5.19941 293.746 6.41598 292.226 6.41598ZM235.153 7.77413C233.705 7.77413 232.476 6.66127 232.36 5.19282C232.235 3.64536 233.389 2.2938 234.932 2.17033C240.302 1.74066 245.904 1.39495 251.583 1.14472C253.102 1.06076 254.441 2.27733 254.51 3.82809C254.578 5.37556 253.378 6.68596 251.828 6.7551C246.216 6.99875 240.682 7.34117 235.382 7.7659C235.304 7.77083 235.227 7.77413 235.153 7.77413ZM332.704 8.41781C332.627 8.41781 332.551 8.41287 332.476 8.40793C327.075 7.97332 321.532 7.60127 316 7.30001C314.451 7.21441 313.267 5.89412 313.35 4.34336C313.434 2.7959 314.72 1.64682 316.306 1.69292C321.885 1.99747 327.476 2.37281 332.925 2.81236C334.47 2.93583 335.622 4.28739 335.497 5.83321C335.38 7.3033 334.151 8.41781 332.704 8.41781ZM372.954 13.075C372.811 13.075 372.668 13.0635 372.525 13.0404C367.157 12.219 361.659 11.4617 356.186 10.7966C354.647 10.6106 353.553 9.21129 353.739 7.67206C353.928 6.13118 355.335 5.05454 356.865 5.2241C362.394 5.89906 367.95 6.65962 373.376 7.49427C374.908 7.72803 375.959 9.16026 375.724 10.6946C375.512 12.0807 374.315 13.075 372.954 13.075ZM195 13.154C193.687 13.154 192.514 12.2239 192.25 10.8839C191.954 9.36275 192.947 7.88936 194.469 7.59139C199.805 6.54932 205.353 5.61426 210.958 4.81254C212.478 4.60018 213.912 5.662 214.132 7.1963C214.349 8.73059 213.285 10.1546 211.751 10.3719C206.241 11.1571 200.788 12.0758 195.543 13.103C195.361 13.1376 195.181 13.154 195 13.154ZM412.701 20.8864C412.482 20.8864 412.261 20.8601 412.037 20.8074C406.801 19.5365 401.39 18.3298 395.96 17.2186C394.441 16.9091 393.46 15.4275 393.771 13.9097C394.081 12.3885 395.562 11.4074 397.08 11.7202C402.58 12.8413 408.057 14.0644 413.36 15.3501C414.868 15.7156 415.793 17.2334 415.427 18.7397C415.115 20.0254 413.968 20.8864 412.701 20.8864ZM155.942 23.7706C154.79 23.7706 153.71 23.0562 153.301 21.912C152.777 20.4502 153.536 18.8451 154.992 18.3199C160.143 16.4712 165.513 14.7492 170.951 13.1985C172.441 12.7754 173.994 13.638 174.419 15.1295C174.843 16.6194 173.979 18.1751 172.488 18.5965C167.171 20.1143 161.922 21.8001 156.89 23.606C156.575 23.7163 156.256 23.7706 155.942 23.7706ZM451.534 32.392C451.222 32.392 450.905 32.341 450.596 32.2323C445.491 30.4198 440.236 28.688 434.972 27.0796C433.491 26.6252 432.655 25.058 433.109 23.5747C433.562 22.0915 435.128 21.2535 436.613 21.7095C441.953 23.3426 447.289 25.1008 452.47 26.9396C453.931 27.4582 454.695 29.0633 454.18 30.5235C453.768 31.6742 452.687 32.392 451.534 32.392ZM119.274 40.8487C118.313 40.8487 117.379 40.3549 116.854 39.4642C116.069 38.1308 116.513 36.4105 117.849 35.6219C122.61 32.8184 127.59 30.1515 132.652 27.6936C134.049 27.0203 135.726 27.5998 136.404 28.9925C137.078 30.3902 136.497 32.0693 135.104 32.7443C130.175 35.1363 125.329 37.7324 120.695 40.4619C120.249 40.7253 119.758 40.8487 119.274 40.8487ZM488.834 48.1564C488.413 48.1564 487.989 48.0642 487.587 47.8633C482.757 45.4598 477.745 43.1271 472.693 40.9294C471.273 40.3104 470.621 38.6576 471.238 37.2369C471.857 35.8129 473.511 35.1626 474.929 35.78C480.073 38.0155 485.171 40.3911 490.085 42.8374C491.474 43.5288 492.038 45.2129 491.347 46.599C490.859 47.5868 489.865 48.1564 488.834 48.1564ZM86.6898 64.8064C85.9263 64.8064 85.1644 64.4953 84.6098 63.8846C83.5698 62.7371 83.657 60.9625 84.8056 59.9204C88.946 56.162 93.2904 52.542 97.7137 49.1606C98.948 48.2206 100.705 48.4543 101.648 49.6857C102.59 50.9171 102.354 52.6802 101.122 53.6203C96.8218 56.9078 92.6009 60.4258 88.5757 64.0788C88.0376 64.5645 87.3645 64.8064 86.6898 64.8064ZM59.0914 94.4355C58.4792 94.4355 57.8621 94.2363 57.3471 93.8264C56.1343 92.86 55.9335 91.0936 56.8978 89.8803C60.3635 85.5227 64.0101 81.2228 67.7391 77.1022C68.7791 75.9482 70.5563 75.8675 71.705 76.9047C72.8536 77.9451 72.9408 79.7214 71.9008 80.8721C68.2508 84.9054 64.6815 89.1115 61.2899 93.3753C60.7354 94.0733 59.9175 94.4355 59.0914 94.4355ZM36.3837 127.963C35.9114 127.963 35.4342 127.844 34.9948 127.592C33.6487 126.825 33.1797 125.111 33.9482 123.763C36.698 118.941 39.6437 114.136 42.7028 109.477C43.5553 108.182 45.298 107.824 46.5898 108.672C47.8832 109.523 48.2452 111.265 47.3945 112.562C44.3978 117.119 41.5147 121.824 38.8225 126.547C38.3058 127.454 37.3579 127.963 36.3837 127.963ZM19.1016 164.578C18.7692 164.578 18.4318 164.521 18.1027 164.397C16.6546 163.846 15.9272 162.224 16.4785 160.776C18.4483 155.585 20.6205 150.383 22.9293 145.308C23.5727 143.898 25.2331 143.276 26.6483 143.917C28.0586 144.56 28.679 146.223 28.0372 147.637C25.7778 152.602 23.6533 157.694 21.7247 162.771C21.2985 163.89 20.2321 164.578 19.1016 164.578ZM7.75514 203.449C7.56589 203.449 7.37665 203.43 7.18411 203.39C5.66687 203.076 4.69102 201.591 5.00369 200.073C6.12599 194.655 7.44906 189.173 8.94162 183.78C9.35466 182.282 10.8999 181.411 12.3925 181.823C13.8867 182.236 14.7638 183.782 14.3491 185.275C12.8911 190.55 11.596 195.911 10.5 201.211C10.2252 202.537 9.05846 203.449 7.75514 203.449ZM2.80845 243.628C2.77225 243.628 2.7344 243.628 2.6982 243.626C1.14804 243.565 -0.0581918 242.26 0.00269557 240.71C0.219915 235.171 0.636253 229.547 1.2369 223.988C1.4031 222.447 2.7887 221.334 4.32899 221.499C5.87092 221.667 6.98335 223.051 6.81714 224.592C6.22966 230.023 5.8232 235.521 5.61092 240.929C5.55003 242.441 4.3076 243.628 2.80845 243.628ZM4.62191 284.076C3.23466 284.076 2.02843 283.047 1.84413 281.634C1.67792 280.362 1.52159 279.091 1.37513 277.81C0.884739 273.551 0.504605 269.218 0.247891 264.932C0.154091 263.386 1.33234 262.056 2.87921 261.962C4.40962 261.878 5.75573 263.048 5.84953 264.594C6.09966 268.779 6.47157 273.01 6.95044 277.173C7.09196 278.422 7.24665 279.664 7.40792 280.902C7.60868 282.443 6.52752 283.85 4.99217 284.051C4.8671 284.069 4.74533 284.076 4.62191 284.076ZM13.4868 323.569C12.3019 323.569 11.1994 322.813 10.816 321.625C9.10783 316.319 7.57906 310.881 6.26916 305.457C5.90548 303.951 6.83195 302.433 8.33768 302.071C9.84835 301.71 11.3607 302.634 11.7243 304.14C13.0013 309.426 14.4939 314.73 16.1576 319.903C16.6332 321.378 15.8219 322.958 14.3474 323.434C14.0611 323.526 13.7731 323.569 13.4868 323.569ZM29.3257 360.823C28.3252 360.823 27.3559 360.285 26.8507 359.342C24.2145 354.418 21.7313 349.347 19.4735 344.27C18.8432 342.853 19.4784 341.192 20.8953 340.563C22.3089 339.929 23.9709 340.568 24.5995 341.985C26.8047 346.939 29.2253 351.886 31.7974 356.69C32.5297 358.059 32.0146 359.76 30.6488 360.491C30.2275 360.718 29.7733 360.823 29.3257 360.823ZM51.3735 394.766C50.5343 394.766 49.7032 394.393 49.152 393.676C45.7225 389.239 42.4231 384.668 39.3458 380.088C38.4802 378.802 38.8225 377.059 40.1077 376.191C41.3929 375.33 43.1373 375.669 44.0029 376.955C47.0127 381.433 50.2381 385.904 53.5902 390.243C54.5397 391.47 54.3142 393.235 53.0866 394.181C52.5765 394.575 51.9709 394.766 51.3735 394.766ZM78.4618 424.839C77.7608 424.839 77.0631 424.581 76.5167 424.057C72.4817 420.18 68.5372 416.163 64.7918 412.122C63.7386 410.984 63.8061 409.21 64.9432 408.156C66.0754 407.102 67.8543 407.165 68.9058 408.306C72.5804 412.267 76.4476 416.206 80.4053 420.007C81.5227 421.082 81.5572 422.859 80.4859 423.976C79.9346 424.551 79.1974 424.839 78.4618 424.839ZM109.412 450.935C108.831 450.935 108.246 450.754 107.742 450.382C103.236 447.037 98.8031 443.578 94.5723 440.098C93.3743 439.114 93.2031 437.344 94.1856 436.147C95.1696 434.949 96.937 434.774 98.135 435.76C102.295 439.181 106.653 442.584 111.086 445.871C112.33 446.797 112.592 448.555 111.668 449.799C111.117 450.54 110.271 450.935 109.412 450.935ZM143.924 472.236C143.473 472.236 143.016 472.129 142.593 471.9C136.565 468.644 131.648 465.941 127.976 463.863C126.627 463.099 126.153 461.387 126.915 460.039C127.682 458.686 129.395 458.217 130.739 458.977C134.379 461.035 139.264 463.722 145.259 466.958C146.623 467.694 147.133 469.398 146.396 470.763C145.889 471.703 144.921 472.236 143.924 472.236Z" fill="#99D7FF"/>
</g>
<path fill-rule="evenodd" clip-rule="evenodd" d="M598.479 88.4756L515.798 38.3706L495.554 59.0276L598.479 88.4756Z" fill="#0A4CFE"/>
<path fill-rule="evenodd" clip-rule="evenodd" d="M515.785 100.084L516.967 61.3121L598.478 88.4751L515.785 100.084Z" fill="#99D7FF"/>
<path fill-rule="evenodd" clip-rule="evenodd" d="M515.698 6.2793L598.479 88.476L515.799 38.3711L515.698 6.2793Z" fill="#99D7FF"/>
<path fill-rule="evenodd" clip-rule="evenodd" d="M495.554 59.0282L516.967 61.3132L516.796 66.9433L495.554 59.0282Z" fill="#0033BF"/>
<defs>
<linearGradient id="paint0_linear" x1="146.132" y1="448.055" x2="309" y2="598.375" gradientUnits="userSpaceOnUse">
<stop stop-color="#F47938"/>
<stop offset="1" stop-color="#FFFB4D"/>
</linearGradient>
</defs>
</svg>
