<svg width="130" height="130" viewBox="0 0 130 130" fill="none" xmlns="http://www.w3.org/2000/svg">
<path d="M65.4482 118.25L0 45.6439L22.7368 11.75H107.15L129.843 45.5792L65.4482 118.25Z" fill="#FF3997"/>
<path d="M65.4641 118.232L129.843 45.5792L107.15 11.75H65.4641V118.232Z" fill="#D6298C"/>
<path d="M0 45.6438L65.4482 118.25L129.661 45.786L0 45.6438Z" fill="#FF5CA8"/>
<path d="M65.4641 45.7158V118.232L129.661 45.7862L65.4641 45.7158Z" fill="#FF3997"/>
<path d="M65.4481 118.25L38.5256 45.7861H91.474L65.4481 118.25Z" fill="#FF3997"/>
<path d="M91.4742 45.7861H38.5256L65.4656 11.75L91.4742 45.7861Z" fill="#D6298C"/>
<path d="M0 45.6439L38.5257 45.7861L22.7368 11.75L0 45.6439Z" fill="#D6298C"/>
<path d="M130 45.6439L91.4744 45.7861L107.264 11.75L130 45.6439Z" fill="#FF5CA8"/>
<path d="M65.4641 45.7861V118.205L91.4743 45.7861H65.4641Z" fill="#D6298C"/>
<path d="M65.4641 11.7527V45.786H91.4743L65.4641 11.7527Z" fill="#BF1B81"/>
<path d="M130 45.6439L91.4744 45.7861L107.264 11.75L130 45.6439Z" fill="#BF1B81"/>
</svg>
