<svg width="47" height="47" viewBox="0 0 47 47" fill="none" xmlns="http://www.w3.org/2000/svg">
<circle opacity="0.203892" cx="23.5" cy="23.5" r="23.5" fill="#49A652"/>
<path fill-rule="evenodd" clip-rule="evenodd" d="M25.2062 21.663C25.2062 23.1829 23.9699 24.4192 22.45 24.4192C20.9301 24.4192 19.6937 23.1829 19.6937 21.663C19.6937 20.1431 20.9301 18.9067 22.45 18.9067C23.9699 18.9067 25.2062 20.1431 25.2062 21.663ZM23.6313 21.663C23.6313 21.0094 23.1036 20.4817 22.45 20.4817C21.7964 20.4817 21.2688 21.0094 21.2688 21.663C21.2688 22.3166 21.7964 22.8442 22.45 22.8442C23.1036 22.8442 23.6313 22.3166 23.6313 21.663ZM22.45 25.7974C20.6072 25.7974 16.9375 26.7187 16.9375 28.5536V29.1442C16.9375 29.5774 17.2919 29.9317 17.725 29.9317H27.175C27.6081 29.9317 27.9625 29.5774 27.9625 29.1442V28.5536C27.9625 26.7187 24.2927 25.7974 22.45 25.7974ZM22.45 27.3724C21.0404 27.3724 19.4418 27.9 18.7802 28.3567H26.1198C25.4583 27.9 23.8596 27.3724 22.45 27.3724ZM27.994 25.8446C28.9075 26.5061 29.5375 27.3881 29.5375 28.5536V29.9317H31.9C32.3331 29.9317 32.6875 29.5774 32.6875 29.1442V28.5536C32.6875 26.9629 29.9313 26.0572 27.994 25.8446ZM29.9312 21.663C29.9312 23.1829 28.6949 24.4192 27.175 24.4192C26.7497 24.4192 26.356 24.3169 25.9937 24.1436C26.4899 23.4427 26.7812 22.5844 26.7812 21.663C26.7812 20.7416 26.4899 19.8832 25.9937 19.1824C26.356 19.0091 26.7497 18.9067 27.175 18.9067C28.6949 18.9067 29.9312 20.1431 29.9312 21.663Z" fill="#49A652"/>
<mask id="mask0" mask-type="alpha" maskUnits="userSpaceOnUse" x="16" y="18" width="17" height="12">
<path fill-rule="evenodd" clip-rule="evenodd" d="M25.2062 21.663C25.2062 23.1829 23.9699 24.4192 22.45 24.4192C20.9301 24.4192 19.6937 23.1829 19.6937 21.663C19.6937 20.1431 20.9301 18.9067 22.45 18.9067C23.9699 18.9067 25.2062 20.1431 25.2062 21.663ZM23.6313 21.663C23.6313 21.0094 23.1036 20.4817 22.45 20.4817C21.7964 20.4817 21.2688 21.0094 21.2688 21.663C21.2688 22.3166 21.7964 22.8442 22.45 22.8442C23.1036 22.8442 23.6313 22.3166 23.6313 21.663ZM22.45 25.7974C20.6072 25.7974 16.9375 26.7187 16.9375 28.5536V29.1442C16.9375 29.5774 17.2919 29.9317 17.725 29.9317H27.175C27.6081 29.9317 27.9625 29.5774 27.9625 29.1442V28.5536C27.9625 26.7187 24.2927 25.7974 22.45 25.7974ZM22.45 27.3724C21.0404 27.3724 19.4418 27.9 18.7802 28.3567H26.1198C25.4583 27.9 23.8596 27.3724 22.45 27.3724ZM27.994 25.8446C28.9075 26.5061 29.5375 27.3881 29.5375 28.5536V29.9317H31.9C32.3331 29.9317 32.6875 29.5774 32.6875 29.1442V28.5536C32.6875 26.9629 29.9313 26.0572 27.994 25.8446ZM29.9312 21.663C29.9312 23.1829 28.6949 24.4192 27.175 24.4192C26.7497 24.4192 26.356 24.3169 25.9937 24.1436C26.4899 23.4427 26.7812 22.5844 26.7812 21.663C26.7812 20.7416 26.4899 19.8832 25.9937 19.1824C26.356 19.0091 26.7497 18.9067 27.175 18.9067C28.6949 18.9067 29.9312 20.1431 29.9312 21.663Z" fill="white"/>
</mask>
<g mask="url(#mask0)">
</g>
</svg>
