<svg width="789" height="672" viewBox="0 0 789 672" fill="none" xmlns="http://www.w3.org/2000/svg">
<g filter="url(#filter0_d)">
<path fill-rule="evenodd" clip-rule="evenodd" d="M118.125 120.6C119.85 112.341 126.572 106.053 134.928 104.883L723.741 22.3983C736.272 20.6429 747.264 30.8192 746.477 43.4483L712.382 590.82C711.643 602.673 700.798 611.276 689.087 609.297L59.4942 502.893C48.3054 501.002 40.9295 490.191 43.2496 479.083L118.125 120.6Z" fill="#7CCA84"/>
<path fill-rule="evenodd" clip-rule="evenodd" d="M118.125 120.6C119.85 112.341 126.572 106.053 134.928 104.883L723.741 22.3983C736.272 20.6429 747.264 30.8192 746.477 43.4483L712.382 590.82C711.643 602.673 700.798 611.276 689.087 609.297L59.4942 502.893C48.3054 501.002 40.9295 490.191 43.2496 479.083L118.125 120.6Z" stroke="#7CCA84"/>
</g>
<defs>
<filter id="filter0_d" x="0.822754" y="0.200684" width="787.694" height="671.38" filterUnits="userSpaceOnUse" color-interpolation-filters="sRGB">
<feFlood flood-opacity="0" result="BackgroundImageFix"/>
<feColorMatrix in="SourceAlpha" type="matrix" values="0 0 0 0 0 0 0 0 0 0 0 0 0 0 0 0 0 0 127 0"/>
<feOffset dy="20"/>
<feGaussianBlur stdDeviation="21"/>
<feColorMatrix type="matrix" values="0 0 0 0 0.486275 0 0 0 0 0.792157 0 0 0 0 0.517647 0 0 0 0.6 0"/>
<feBlend mode="normal" in2="BackgroundImageFix" result="effect1_dropShadow"/>
<feBlend mode="normal" in="SourceGraphic" in2="effect1_dropShadow" result="shape"/>
</filter>
</defs>
</svg>
