<svg width="624" height="805" viewBox="0 0 624 805" fill="none" xmlns="http://www.w3.org/2000/svg">
<path fill-rule="evenodd" clip-rule="evenodd" d="M570.452 697.977C567.696 697.977 565.461 695.74 565.461 692.98V129.77L388.687 328.117C386.856 330.176 383.693 330.363 381.642 328.521C379.586 326.683 379.405 323.526 381.24 321.467L575.442 103.555V692.98C575.442 695.74 573.207 697.977 570.452 697.977" fill="#7FCDFF"/>
<path fill-rule="evenodd" clip-rule="evenodd" d="M31.2444 716.438L9.35173 705.095C-4.56715 682.875 -15.3618 656.783 -16.3086 628.592C-16.3086 628.592 4.3186 627.294 27.6831 630.861L42.4244 648.388L43.6019 634.062C55.0444 636.989 66.1926 641.37 75.0298 647.907L76.6245 676.549L85.747 658.616C87.4783 661.039 88.9547 663.651 90.1383 666.472C108.351 709.906 121.821 766.095 121.821 766.095L76.5441 777.786C76.5441 777.786 48.5015 757.448 23.2266 724.889L31.2444 716.438Z" fill="#AD2500"/>
<path fill-rule="evenodd" clip-rule="evenodd" d="M70.4916 759.355C82.8719 761.949 90.7258 759.967 93.492 759.013C74.6872 744.308 56.4984 724.215 41.6418 705.72C40.9726 705.925 40.305 706.114 39.6449 706.285C27.298 709.473 16.2955 706.761 7.96364 702.85C7.49174 702.074 7.02287 701.297 6.55855 700.511C15.1363 704.96 27.1114 708.434 40.6494 704.481C36.3127 699.047 32.1187 693.577 27.9945 688.016C17.2955 689.351 5.45997 685.726 -3.03429 682.187C-3.3408 681.511 -3.64427 680.833 -3.94471 680.152C4.27946 683.709 16.2864 687.705 26.9839 686.648C6.06086 658.268 -8.55298 634.744 -8.70623 634.483L-12.7349 629.395L-8.11446 632.459C-7.8474 632.914 4.09889 651.957 20.8674 675.569C23.2922 662.932 13.3063 636.161 10.4855 628.969C11.0287 629.007 11.575 629.046 12.1258 629.092C15.4322 637.543 25.4483 664.85 22.0054 677.17C32.6453 692.062 45.5399 708.872 59.5407 724.488C61.8669 717.766 45.9815 682.28 52.7975 664.902C56.9566 654.297 55.1419 643.672 53.0099 636.848C53.5835 637.043 54.1571 637.244 54.7261 637.449C56.7791 644.518 58.2737 654.976 54.1722 665.435C47.3061 682.945 64.501 719.344 60.5998 725.665C63.3402 728.698 66.1216 731.68 68.9363 734.593C70.965 698.47 70.5174 697.321 65.6557 684.464C62.8607 677.068 60.219 670.085 64.0033 663.693C67.2869 658.145 66.4964 649.039 65.0807 641.853C65.6527 642.14 66.2202 642.433 66.7801 642.734C68.0926 649.954 68.6313 658.768 65.2749 664.44C59.2464 674.621 71.3944 686.871 71.4385 702.144C71.4794 715.973 70.4992 733.196 70.3323 736.03C76.0907 741.921 81.9781 747.496 87.9217 752.565C89.3298 750.588 94.9669 741.274 88.8291 726.326C83.8445 714.189 91.5103 695.117 97.0168 684.005C97.2611 684.661 97.5009 685.317 97.7406 685.976C92.4313 697.037 85.6623 714.729 90.1947 725.765C96.7483 741.725 90.5741 751.476 89.0537 753.523C96.2157 759.545 103.454 764.812 110.64 768.983L108.628 769.503C107.356 768.743 106.088 767.952 104.819 767.129C99.6813 770.321 90.785 771.627 80.5488 767.483C74.3427 764.968 68.6283 765.904 64.1505 767.768C63.7484 767.421 63.3387 767.065 62.9214 766.702C67.7785 764.528 74.1394 763.298 81.1056 766.118C92.7485 770.833 100.794 767.612 103.429 766.219C100.567 764.315 97.7088 762.259 94.8637 760.076C87.952 762.989 77.7416 762.379 70.1851 760.796C65.3113 759.776 60.6863 760.111 56.6289 761.057C56.2055 760.667 55.7791 760.271 55.3467 759.867C59.8078 758.701 64.9942 758.204 70.4916 759.355" fill="#A7CBD3"/>
<path fill-rule="evenodd" clip-rule="evenodd" d="M81.8823 666.212L85.7471 658.616C87.4784 661.038 88.9548 663.65 90.1368 666.472C108.351 709.906 121.821 766.096 121.821 766.096C121.821 766.096 93.557 729.66 81.8823 666.212" fill="#195F6D"/>
<path fill-rule="evenodd" clip-rule="evenodd" d="M261.37 692.183C259.461 692.676 231.971 686.599 193.689 709.66C155.409 732.718 131.137 763.69 131.137 763.69C131.137 763.69 180.896 760.595 222.431 742.269C263.966 723.943 261.37 692.183 261.37 692.183" fill="#004A58"/>
<path fill-rule="evenodd" clip-rule="evenodd" d="M135.217 759.036C157.62 733.325 194.289 703.06 229.516 694.567C227.504 717.24 221.486 734.915 204.139 749.294C174.868 759.068 145.634 762.603 135.143 763.624C135.14 762.206 135.161 760.672 135.217 759.036" fill="#003842"/>
<path fill-rule="evenodd" clip-rule="evenodd" d="M88.337 581.625L110.944 595.732L93.8587 558.485C97.5035 545.902 102.097 533.904 107.605 523.12C122.806 493.351 152.134 447.394 152.134 447.394C165.784 463.203 176.44 479.217 184.586 495.21L169.891 520.718L192.421 512.441C243.381 639.342 146.484 759.725 146.484 759.725L121.821 766.096C121.821 766.096 83.184 662.06 83.6696 626.969C83.8744 612.22 85.451 596.78 88.337 581.625" fill="#E0AA1A"/>
<path fill-rule="evenodd" clip-rule="evenodd" d="M84.6325 639.481C84.326 637.29 84.0878 635.209 83.9224 633.258C92.8036 646.201 115.429 677.038 132.704 682.194C132.846 680.629 132.997 679.061 133.163 677.495C116.851 675.839 95.3194 642.084 83.7949 621.831C83.8587 619.989 83.9451 618.136 84.0514 616.281C96.3922 638.523 118.688 673.244 133.486 674.574C134.9 662.364 137.105 650.258 140.435 639.267C143.171 630.239 145.258 618.253 146.837 604.681C131.45 598.198 110.883 559.11 100.808 538.161C101.289 536.958 101.777 535.766 102.277 534.584C111.595 554.151 132.597 594.444 147.185 601.609C148.271 591.633 149.104 580.884 149.732 569.876C134.598 556.362 122.062 522.697 116.638 506.36C117.289 505.195 117.951 504.027 118.617 502.852C123.262 517.11 135.454 551.279 149.943 566.001C152.838 510.89 151.799 451.32 151.766 450.405L152.329 448.151L152.869 450.301C152.904 451.328 156.297 526.231 151.594 585.915C174.666 587.493 194.096 566.547 204.062 553.165C204.302 554.52 204.528 555.87 204.734 557.22C202.206 560.479 199.193 564.055 195.748 567.606C185.546 578.13 174.921 584.872 164.421 587.582C160.031 588.717 155.664 589.145 151.358 588.85C150.006 605.009 148.106 619.889 145.463 631.654C166.314 633.365 192.237 618.78 206.368 609.522C206.255 610.8 206.133 612.071 206.003 613.337C195.713 619.957 180.4 628.53 164.958 632.518C158.117 634.284 151.247 635.151 144.781 634.552C144.297 636.508 143.79 638.366 143.264 640.114C128.914 687.454 135.718 755.99 136.39 762.333L133.501 763.079C133.302 761.275 129.304 724.209 132.45 685.184C115.799 680.658 95.2329 654.429 84.6325 639.481" fill="#CFD5F1"/>
<path fill-rule="evenodd" clip-rule="evenodd" d="M146.544 759.711L123.576 765.643C123.576 765.643 116.262 715.115 153.456 670.635L161.161 677.815L158.674 664.752C160.891 662.395 163.242 660.065 165.736 657.768L177.168 672.575L174.693 650.165C182.884 643.755 192.349 637.708 203.291 632.237C190.085 704.483 148.124 757.727 146.544 759.711" fill="#6670A4"/>
<path fill-rule="evenodd" clip-rule="evenodd" d="M25.4489 699.027L35.7261 719.033L37.597 702.298C44.6012 704.472 51.6115 707.174 58.4048 710.526L62.831 720.648L67.5106 715.512C86.0893 726.771 102.09 743.7 110.382 769.048L72.2599 778.893C72.2599 778.893 -15.5703 777.377 -39.9863 694.499C-39.9863 694.499 -8.96513 691.078 25.4489 699.027" fill="#469AA8"/>
<path fill-rule="evenodd" clip-rule="evenodd" d="M95.7032 772.839L89.3332 774.485C38.2447 761.797 -30.7594 701.475 -33.782 698.816L-38.1187 694.84L-31.8261 696.607C-31.0629 697.276 45.0228 763.795 95.7032 772.839" fill="#A7CBD3"/>
<path fill-rule="evenodd" clip-rule="evenodd" d="M156.775 682.563L163.378 688.717L161.246 677.522C163.143 675.506 165.158 673.509 167.296 671.539L177.088 684.226L174.968 665.027C186.073 656.337 199.916 648.425 217.168 642.016C217.168 642.016 226.704 694.785 209.705 723.497C192.706 752.209 155.951 757.52 155.951 757.52L131.166 763.919C131.166 763.919 124.913 720.671 156.775 682.563" fill="#E0AA1A"/>
<path fill-rule="evenodd" clip-rule="evenodd" d="M153.183 758.235L149.437 759.202C194.369 707.549 213.975 646.356 214.171 645.734L216.611 643.298L216.284 646.391C216.092 647.009 196.959 706.748 153.183 758.235" fill="#F3DDA3"/>
<path fill-rule="evenodd" clip-rule="evenodd" d="M130.396 763.481C130.396 763.481 150.737 705.855 178.436 681.093C206.131 656.331 262.143 656.925 262.143 656.925C262.143 656.925 256.942 668.73 248.039 684.401L227.225 687.377L241.842 694.896C227.225 718.692 205.956 746.759 182.173 757.157C137.82 776.549 130.396 763.481 130.396 763.481" fill="#AD2500"/>
<path fill-rule="evenodd" clip-rule="evenodd" d="M130.396 763.481C130.402 763.464 130.65 762.739 131.493 760.51C138.614 751.998 161.807 724.802 184.041 703.018C184.707 696.482 179.807 688.855 175.671 683.696C176.281 683.09 176.897 682.502 177.518 681.93C181.417 686.764 186.044 693.816 186.569 700.561C187.605 699.562 195.163 692.782 197.913 690.636C198.832 683.962 193.867 677.599 189.342 673.31C190.112 672.866 190.892 672.437 191.681 672.016C195.942 676.188 200.39 682.089 200.542 688.636C203.248 686.623 205.982 684.735 208.712 682.967C212.748 677.037 211.326 669.8 209.399 664.74C210.217 664.482 211.036 664.233 211.857 663.993C213.561 668.508 214.856 674.608 212.813 680.395C215.256 678.909 217.679 677.523 220.057 676.229C224.544 667.805 224.808 663.179 224.38 660.898C225.216 660.726 226.049 660.561 226.873 660.404C227.356 662.975 227.069 667.298 223.872 674.209C240.956 665.411 254.767 660.626 254.995 660.562L260.274 659.066L255.215 663.513C254.861 663.609 222.414 673.166 195.605 695.742C207.243 694.135 221.09 701.925 229.09 706.421C230.421 707.169 231.846 707.972 232.973 708.549C232.492 709.245 232.01 709.942 231.521 710.639C230.545 710.131 229.348 709.463 227.849 708.619C218.96 703.621 202.515 694.375 191.248 699.584C189.884 700.848 183.211 707.366 181.616 708.965C193.099 707.809 212.701 717.266 222.614 722.557C222.084 723.224 221.547 723.889 221.006 724.548C207.909 717.614 185.969 707.89 178.05 712.578C154.173 736.997 130.396 763.481 130.396 763.481" fill="#DE9C8C"/>
<path fill-rule="evenodd" clip-rule="evenodd" d="M25.6211 479.942C0.305233 479.942 -20.2886 459.33 -20.2886 433.995C-20.2886 408.659 0.305233 388.046 25.6211 388.046C50.9355 388.046 71.5308 408.659 71.5308 433.995C71.5308 459.33 50.9355 479.942 25.6211 479.942" fill="white"/>
<path fill-rule="evenodd" clip-rule="evenodd" d="M570.452 162.612C545.139 162.612 524.542 141.999 524.542 116.664C524.542 91.3277 545.139 70.7148 570.452 70.7148C595.768 70.7148 616.363 91.3277 616.363 116.664C616.363 141.999 595.768 162.612 570.452 162.612" fill="white"/>
<path fill-rule="evenodd" clip-rule="evenodd" d="M183.628 160.538C183.296 160.538 182.959 160.415 182.659 160.153C181.193 158.884 179.672 157.614 178.149 156.381C177.301 155.696 177.028 154.218 177.537 153.079C178.047 151.94 179.147 151.573 179.994 152.258C181.551 153.515 183.1 154.811 184.601 156.111C185.429 156.829 185.671 158.319 185.133 159.435C184.794 160.149 184.215 160.538 183.628 160.538" fill="#99D7FF"/>
<path fill-rule="evenodd" clip-rule="evenodd" d="M40.1756 111.082H40.1362C36.7069 110.98 33.3535 110.927 30.164 110.927H29.595C28.6057 110.927 27.8045 109.85 27.8045 108.521C27.8045 107.192 28.6057 106.116 29.595 106.116H30.164C33.3793 106.116 36.7616 106.167 40.2136 106.271C41.2044 106.301 41.9859 107.401 41.9661 108.728C41.9449 110.038 41.1468 111.082 40.1756 111.082M3.74651 112.248C2.82243 112.248 2.03643 111.293 1.96208 110.034C1.88469 108.71 2.6191 107.549 3.60388 107.443C7.03314 107.074 10.6096 106.778 14.2331 106.564C15.2027 106.492 16.057 107.536 16.1025 108.863C16.145 110.19 15.3787 111.313 14.3909 111.372C10.8084 111.583 7.27592 111.874 3.89218 112.239C3.84362 112.245 3.79355 112.248 3.74651 112.248M66.0135 112.796C65.9649 112.796 65.9179 112.793 65.8678 112.789C62.4204 112.418 58.8818 112.098 55.3509 111.84C54.3631 111.767 53.6074 110.634 53.6605 109.305C53.7137 107.979 54.5346 106.994 55.5466 107.033C59.1079 107.296 62.6783 107.618 66.1546 107.993C67.1409 108.099 67.8768 109.258 67.7964 110.584C67.7221 111.843 66.9376 112.796 66.0135 112.796M91.7057 116.789C91.6146 116.789 91.5236 116.78 91.431 116.76C88.0048 116.055 84.4951 115.408 81.0006 114.837C80.0204 114.676 79.3224 113.478 79.4407 112.157C79.5606 110.839 80.4604 109.914 81.4346 110.06C84.9655 110.638 88.5101 111.291 91.9743 112.005C92.9514 112.206 93.6236 113.434 93.4734 114.748C93.3369 115.937 92.5736 116.789 91.7057 116.789M-21.8819 116.857C-22.721 116.857 -23.4706 116.06 -23.6391 114.91C-23.8287 113.607 -23.1945 112.344 -22.2234 112.089C-18.8153 111.196 -15.2753 110.394 -11.6988 109.709C-10.7277 109.527 -9.81123 110.435 -9.67163 111.75C-9.53355 113.067 -10.2118 114.285 -11.192 114.471C-14.7078 115.146 -18.1902 115.934 -21.5375 116.812C-21.6528 116.842 -21.7681 116.857 -21.8819 116.857M117.078 123.483C116.935 123.483 116.795 123.462 116.653 123.416C113.31 122.326 109.858 121.293 106.391 120.343C105.421 120.075 104.796 118.806 104.992 117.504C105.191 116.2 106.136 115.36 107.107 115.626C110.617 116.588 114.111 117.636 117.498 118.739C118.459 119.052 119.047 120.353 118.817 121.644C118.615 122.747 117.883 123.483 117.078 123.483M-46.8154 125.956C-47.5498 125.956 -48.2387 125.345 -48.5012 124.362C-48.8351 123.111 -48.351 121.734 -47.4209 121.286C-44.1342 119.702 -40.7065 118.224 -37.2347 116.895C-36.2833 116.532 -35.291 117.272 -35.0209 118.551C-34.7493 119.828 -35.3016 121.16 -36.253 121.523C-39.6458 122.821 -42.9962 124.267 -46.21 125.814C-46.4103 125.91 -46.6136 125.956 -46.8154 125.956M141.862 133.345C141.664 133.345 141.462 133.301 141.263 133.206C138.007 131.655 134.652 130.17 131.291 128.792C130.346 128.404 129.815 127.06 130.103 125.788C130.393 124.517 131.391 123.798 132.339 124.189C135.747 125.59 139.152 127.096 142.46 128.671C143.394 129.116 143.881 130.492 143.551 131.742C143.29 132.729 142.6 133.345 141.862 133.345M-70.2194 140.592C-70.8324 140.592 -71.4303 140.169 -71.7641 139.406C-72.2679 138.261 -71.9826 136.788 -71.1298 136.112C-68.0921 133.71 -64.9116 131.426 -61.6812 129.318C-60.7889 128.739 -59.7192 129.237 -59.2867 130.431C-58.8558 131.628 -59.226 133.069 -60.1167 133.648C-63.2623 135.698 -66.3547 137.923 -69.312 140.26C-69.5988 140.485 -69.9114 140.592 -70.2194 140.592M160.447 144.872C160.177 144.872 159.907 144.792 159.649 144.62C156.567 142.561 153.367 140.559 150.143 138.676C149.235 138.144 148.821 136.73 149.214 135.511C149.609 134.291 150.663 133.734 151.571 134.263C154.854 136.179 158.109 138.214 161.244 140.311C162.13 140.904 162.491 142.348 162.05 143.537C161.739 144.383 161.104 144.872 160.447 144.872M-91.0181 161.125C-91.5052 161.125 -91.9937 160.859 -92.3458 160.337C-93.0089 159.352 -92.9527 157.829 -92.2214 156.936C-89.5781 153.717 -86.8058 150.614 -83.982 147.716C-83.1945 146.91 -82.0716 147.112 -81.4708 148.166C-80.8699 149.221 -81.0201 150.731 -81.8076 151.537C-84.551 154.356 -87.2459 157.371 -89.8148 160.502C-90.1592 160.918 -90.5887 161.125 -91.0181 161.125M-108.635 186.52C-109.025 186.52 -109.419 186.348 -109.749 185.996C-110.522 185.168 -110.651 183.654 -110.035 182.617C-107.823 178.879 -105.495 175.195 -103.116 171.664C-102.451 170.674 -101.316 170.604 -100.585 171.494C-99.8507 172.386 -99.7946 173.907 -100.458 174.894C-102.788 178.351 -105.067 181.956 -107.231 185.61C-107.585 186.208 -108.108 186.52 -108.635 186.52M-123.129 215.253C-123.431 215.253 -123.736 215.151 -124.015 214.937C-124.874 214.279 -125.176 212.809 -124.684 211.655C-122.928 207.521 -121.048 203.403 -119.096 199.41C-118.551 198.302 -117.439 197.993 -116.615 198.721C-115.789 199.45 -115.559 200.944 -116.102 202.053C-118.014 205.96 -119.854 209.994 -121.573 214.04C-121.901 214.817 -122.508 215.253 -123.129 215.253M-134.162 246.636C-134.373 246.636 -134.588 246.586 -134.797 246.48C-135.723 246.006 -136.187 244.618 -135.835 243.374C-134.577 238.929 -133.19 234.469 -131.717 230.119C-131.306 228.912 -130.245 228.377 -129.344 228.927C-128.443 229.478 -128.047 230.903 -128.456 232.115C-129.898 236.37 -131.256 240.735 -132.486 245.086C-132.758 246.045 -133.439 246.636 -134.162 246.636M-141.402 279.948C-141.524 279.948 -141.645 279.933 -141.767 279.898C-142.736 279.629 -143.358 278.356 -143.158 277.055C-142.443 272.411 -141.598 267.712 -140.645 263.092C-140.381 261.809 -139.397 261.06 -138.442 261.414C-137.489 261.768 -136.929 263.094 -137.195 264.373C-138.125 268.894 -138.952 273.489 -139.651 278.03C-139.826 279.167 -140.571 279.948 -141.402 279.948M-144.56 314.384C-144.584 314.384 -144.607 314.384 -144.631 314.382C-145.619 314.329 -146.39 313.211 -146.352 311.884C-146.213 307.138 -145.947 302.315 -145.563 297.552C-145.457 296.231 -144.574 295.276 -143.589 295.419C-142.606 295.561 -141.896 296.749 -142.002 298.07C-142.378 302.723 -142.636 307.436 -142.771 312.072C-142.811 313.368 -143.604 314.384 -144.56 314.384M-143.402 349.049C-144.289 349.049 -145.058 348.168 -145.175 346.957C-145.282 345.867 -145.383 344.778 -145.477 343.68C-145.789 340.029 -146.03 336.316 -146.194 332.644C-146.254 331.318 -145.502 330.178 -144.515 330.097C-143.539 330.024 -142.68 331.028 -142.621 332.352C-142.459 335.94 -142.222 339.566 -141.917 343.135C-141.826 344.204 -141.729 345.269 -141.626 346.33C-141.497 347.648 -142.185 348.856 -143.166 349.03C-143.246 349.043 -143.325 349.049 -143.402 349.049M-137.744 382.898C-138.501 382.898 -139.204 382.25 -139.45 381.231C-140.541 376.684 -141.515 372.023 -142.351 367.376C-142.583 366.083 -141.993 364.785 -141.032 364.474C-140.067 364.162 -139.101 364.954 -138.868 366.246C-138.054 370.776 -137.102 375.322 -136.04 379.754C-135.737 381.021 -136.254 382.376 -137.195 382.783C-137.378 382.86 -137.562 382.898 -137.744 382.898M-127.634 414.826C-128.274 414.826 -128.892 414.366 -129.215 413.557C-130.896 409.337 -132.482 404.99 -133.922 400.639C-134.325 399.424 -133.919 398.003 -133.016 397.462C-132.113 396.918 -131.052 397.467 -130.65 398.68C-129.242 402.926 -127.699 407.168 -126.057 411.285C-125.588 412.456 -125.918 413.914 -126.79 414.541C-127.059 414.734 -127.349 414.826 -127.634 414.826M-113.562 443.918C-114.097 443.918 -114.628 443.596 -114.979 442.983C-117.169 439.18 -119.275 435.263 -121.24 431.337C-121.79 430.233 -121.573 428.74 -120.753 427.998C-119.933 427.26 -118.818 427.55 -118.266 428.651C-116.345 432.49 -114.285 436.322 -112.146 440.041C-111.541 441.092 -111.683 442.604 -112.469 443.414C-112.794 443.754 -113.179 443.918 -113.562 443.918M-96.2712 469.691C-96.7173 469.691 -97.165 469.468 -97.5109 469.02C-100.087 465.697 -102.606 462.256 -104.996 458.792C-105.668 457.817 -105.626 456.294 -104.899 455.393C-104.177 454.489 -103.042 454.543 -102.368 455.522C-100.024 458.916 -97.5564 462.292 -95.03 465.55C-94.3168 466.472 -94.2941 467.995 -94.9784 468.952C-95.3305 469.445 -95.8008 469.691 -96.2712 469.691M-76.5135 492.055C-76.8837 492.055 -77.26 491.902 -77.5802 491.583C-80.4571 488.716 -83.2855 485.751 -85.988 482.768C-86.7512 481.924 -86.862 480.407 -86.2353 479.383C-85.6071 478.355 -84.4767 478.206 -83.7119 479.051C-81.0565 481.983 -78.2767 484.898 -75.4468 487.716C-74.6532 488.509 -74.4848 490.017 -75.0735 491.083C-75.4271 491.719 -75.9657 492.055 -76.5135 492.055M-54.4858 510.312C-54.7726 510.312 -55.0654 510.22 -55.3355 510.024C-59.182 507.234 -62.3215 504.917 -64.6658 503.137C-65.5262 502.484 -65.8297 501.015 -65.3426 499.859C-64.854 498.699 -63.76 498.297 -62.9026 498.948C-60.578 500.713 -57.4613 503.015 -53.633 505.788C-52.7635 506.42 -52.4373 507.88 -52.9092 509.05C-53.2324 509.855 -53.8485 510.312 -54.4858 510.312" fill="#99D7FF"/>
<mask id="mask0" mask-type="alpha" maskUnits="userSpaceOnUse" x="-162" y="751" width="686" height="54">
<path fill-rule="evenodd" clip-rule="evenodd" d="M-162 751.485H523.656V804.178H-162V751.485Z" fill="white"/>
</mask>
<g mask="url(#mask0)">
<path fill-rule="evenodd" clip-rule="evenodd" d="M523.656 777.831C523.656 792.383 370.168 804.178 180.827 804.178C-8.51149 804.178 -162 792.383 -162 777.831C-162 763.282 -8.51149 751.485 180.827 751.485C370.168 751.485 523.656 763.282 523.656 777.831" fill="#F78500"/>
</g>
<path fill-rule="evenodd" clip-rule="evenodd" d="M570.452 511.231C545.136 511.231 524.542 490.619 524.542 465.283C524.542 439.947 545.136 419.334 570.452 419.334C595.768 419.334 616.363 439.947 616.363 465.283C616.363 490.619 595.768 511.231 570.452 511.231" fill="white"/>
<path fill-rule="evenodd" clip-rule="evenodd" d="M610.769 465.283C610.769 487.568 592.72 505.634 570.452 505.634C548.186 505.634 530.134 487.568 530.134 465.283C530.134 442.997 548.186 424.932 570.452 424.932C592.72 424.932 610.769 442.997 610.769 465.283" fill="#99D7FF"/>
<path fill-rule="evenodd" clip-rule="evenodd" d="M570.452 456.545C566.816 456.545 563.867 453.594 563.867 449.952C563.867 446.312 566.816 443.361 570.452 443.361C574.091 443.361 577.038 446.312 577.038 449.952C577.038 453.594 574.091 456.545 570.452 456.545M570.669 439.402C563.085 439.402 556.941 445.554 556.941 453.143C556.941 460.73 570.669 491.162 570.669 491.162C570.669 491.162 584.395 460.73 584.395 453.143C584.395 445.554 578.25 439.402 570.669 439.402" fill="white"/>
<path fill-rule="evenodd" clip-rule="evenodd" d="M25.6211 334.068C0.305233 334.068 -20.2886 313.455 -20.2886 288.12C-20.2886 262.785 0.305233 242.171 25.6211 242.171C50.9355 242.171 71.5308 262.785 71.5308 288.12C71.5308 313.455 50.9355 334.068 25.6211 334.068" fill="white"/>
<path fill-rule="evenodd" clip-rule="evenodd" d="M65.938 289.154C65.938 311.44 47.8873 329.504 25.6214 329.504C3.35391 329.504 -14.6968 311.44 -14.6968 289.154C-14.6968 266.869 3.35391 248.803 25.6214 248.803C47.8873 248.803 65.938 266.869 65.938 289.154" fill="#99D7FF"/>
<path fill-rule="evenodd" clip-rule="evenodd" d="M3.07081 268.941C4.84007 272.804 14.307 292.696 23.5402 297.24C23.9195 297.426 33.3637 298.701 33.7491 298.884C44.0703 303.794 44.7455 303.616 44.7455 304.511C44.7455 305.258 45.0641 306.37 44.0581 306.669C42.2494 307.208 36.2952 308.362 19.6906 307.621C19.3477 307.606 19.0336 307.407 18.8758 307.1C11.2085 292.155 2.77644 286.942 2.77644 290.261C2.77644 307.445 3.18461 307.863 1.8129 307.863C1.12857 307.756 -0.560269 308.27 -0.668003 306.98C-1.0261 302.687 -2.66487 284.099 -4.30363 282.458C-6.11386 280.648 -7.76325 269.995 2.03748 268.391C2.46689 268.32 2.89024 268.544 3.07081 268.941" fill="white"/>
<path fill-rule="evenodd" clip-rule="evenodd" d="M10.9468 298.103C11.8071 306.408 11.4202 306.962 12.6523 306.962C13.3017 306.85 15.1362 307.394 15.1362 305.998V304.479C13.8647 302.293 12.4353 300.083 10.9468 298.103" fill="white"/>
<path fill-rule="evenodd" clip-rule="evenodd" d="M45.842 297.902C35.6482 296.332 36.1444 296.46 35.9016 296.341C26.6669 291.796 17.2015 271.904 15.4307 268.041C15.2502 267.646 14.8283 267.421 14.3989 267.491C10.2793 268.165 8.18831 270.439 7.27637 272.983C10.1032 278.523 13.5537 284.304 17.0649 288.708C19.6293 289.857 22.1997 292.479 24.447 295.375C37.0002 297.286 31.5164 295.641 44.0454 301.535C45.5688 301.667 46.7691 302.952 46.7691 304.512C46.7251 305.493 46.8905 306.027 46.5354 306.89C52.523 306.686 55.2861 306.106 56.4196 305.769C57.4301 305.467 57.1191 304.278 57.1069 303.611C57.1069 302.575 46.106 297.942 45.842 297.902" fill="white"/>
<path fill-rule="evenodd" clip-rule="evenodd" d="M610.769 116.664C610.769 138.949 592.72 157.015 570.452 157.015C548.186 157.015 530.134 138.949 530.134 116.664C530.134 94.3775 548.186 76.313 570.452 76.313C592.72 76.313 610.769 94.3775 610.769 116.664" fill="#99D7FF"/>
<path fill-rule="evenodd" clip-rule="evenodd" d="M65.938 433.183C65.938 455.47 47.8873 473.534 25.6214 473.534C3.35391 473.534 -14.6968 455.47 -14.6968 433.183C-14.6968 410.899 3.35391 392.833 25.6214 392.833C47.8873 392.833 65.938 410.899 65.938 433.183" fill="#99D7FF"/>
<path fill-rule="evenodd" clip-rule="evenodd" d="M25.6727 430.333C24.4982 428.924 24.6894 426.827 26.0976 425.651C27.5087 424.476 29.6027 424.669 30.7771 426.076C31.9516 427.489 31.7619 429.586 30.3508 430.76C28.9411 431.935 26.8471 431.745 25.6727 430.333M36.6296 429.932L28.0443 419.62C25.9564 417.113 22.2328 416.773 19.7261 418.863L-7.49561 441.564L8.64774 460.958L35.8725 438.259C38.3777 436.168 38.7176 432.441 36.6296 429.932" fill="white"/>
<path fill-rule="evenodd" clip-rule="evenodd" d="M29.5049 426.305C29.6354 426.279 42.5589 423.787 47.3811 419.764C51.5554 416.285 51.8528 409.272 44.0611 410.101C37.9567 410.752 32.8553 419.984 30.9449 423.924C30.3046 425.243 28.3153 424.275 28.9526 422.956C31.526 417.65 36.8793 408.637 43.8259 407.897C53.5674 406.86 54.9224 416.362 48.7998 421.467C43.5345 425.857 30.4715 428.378 29.9176 428.483C28.4792 428.755 28.0649 426.58 29.5049 426.305" fill="white"/>
<path fill-rule="evenodd" clip-rule="evenodd" d="M570.452 335.102C545.139 335.102 524.542 314.491 524.542 289.153C524.542 263.819 545.139 243.205 570.452 243.205C595.768 243.205 616.363 263.819 616.363 289.153C616.363 314.491 595.768 335.102 570.452 335.102" fill="white"/>
<path fill-rule="evenodd" clip-rule="evenodd" d="M610.769 289.154C610.769 311.44 592.72 329.504 570.452 329.504C548.186 329.504 530.134 311.44 530.134 289.154C530.134 266.869 548.186 248.803 570.452 248.803C592.72 248.803 610.769 266.869 610.769 289.154" fill="#99D7FF"/>
<path fill-rule="evenodd" clip-rule="evenodd" d="M407.299 216.996H196.197C167.607 216.996 144.432 240.191 144.432 268.805V713.002C144.432 741.617 167.607 764.813 196.197 764.813H407.299C435.886 764.813 459.061 741.617 459.061 713.002V268.805C459.061 240.191 435.886 216.996 407.299 216.996" fill="#331579"/>
<path fill-rule="evenodd" clip-rule="evenodd" d="M196.197 750.777C175.386 750.777 158.455 734.138 158.455 713.685V277.517C158.455 257.065 175.386 240.425 196.197 240.425H407.298C428.109 240.425 445.037 257.065 445.037 277.517V713.685C445.037 734.138 428.109 750.777 407.298 750.777H196.197Z" fill="#91AAFE"/>
<path fill-rule="evenodd" clip-rule="evenodd" d="M400.793 236.917H200.379C195.858 236.917 192.195 233.252 192.195 228.73C192.195 224.208 195.858 220.544 200.379 220.544H400.793C405.314 220.544 408.974 224.208 408.974 228.73C408.974 233.252 405.314 236.917 400.793 236.917" fill="#190B3D"/>
<path fill-rule="evenodd" clip-rule="evenodd" d="M403.203 228.876C403.203 232.551 400.227 235.529 396.558 235.529C392.886 235.529 389.911 232.551 389.911 228.876C389.911 225.202 392.886 222.224 396.558 222.224C400.227 222.224 403.203 225.202 403.203 228.876" fill="#331579"/>
<path fill-rule="evenodd" clip-rule="evenodd" d="M368.291 231.727H250.626C249.053 231.727 247.778 230.45 247.778 228.875C247.778 227.302 249.053 226.025 250.626 226.025H368.291C369.865 226.025 371.139 227.302 371.139 228.875C371.139 230.45 369.865 231.727 368.291 231.727" fill="#0E061E"/>
<mask id="mask1" mask-type="alpha" maskUnits="userSpaceOnUse" x="-162" y="0" width="786" height="805">
<path fill-rule="evenodd" clip-rule="evenodd" d="M-162 804.178H623.375V0H-162V804.178Z" fill="white"/>
</mask>
<g mask="url(#mask1)">
<path fill-rule="evenodd" clip-rule="evenodd" d="M180.827 643.356H422.997V287.211H180.827V643.356Z" fill="white"/>
<path fill-rule="evenodd" clip-rule="evenodd" d="M288.608 448.03H408.973V302.415H288.608V448.03Z" fill="#FFF7CF"/>
<path fill-rule="evenodd" clip-rule="evenodd" d="M288.608 614.845H408.973V469.228H288.608V614.845Z" fill="#FFF7CF"/>
<path fill-rule="evenodd" clip-rule="evenodd" d="M198.041 326.977H274.585V312.357H198.041V326.977Z" fill="#FFF7CF"/>
<path fill-rule="evenodd" clip-rule="evenodd" d="M198.041 356.802H274.585V342.182H198.041V356.802Z" fill="#FFF7CF"/>
<path fill-rule="evenodd" clip-rule="evenodd" d="M198.041 386.627H274.585V372.007H198.041V386.627Z" fill="#FFF7CF"/>
<path fill-rule="evenodd" clip-rule="evenodd" d="M198.041 487.797H274.585V473.177H198.041V487.797Z" fill="#FFF7CF"/>
<path fill-rule="evenodd" clip-rule="evenodd" d="M198.041 517.623H274.585V503.002H198.041V517.623Z" fill="#FFF7CF"/>
<path fill-rule="evenodd" clip-rule="evenodd" d="M198.041 547.448H274.585V532.828H198.041V547.448Z" fill="#FFF7CF"/>
<path fill-rule="evenodd" clip-rule="evenodd" d="M283.203 663.457C283.203 665.838 281.274 667.77 278.893 667.77C276.514 667.77 274.584 665.838 274.584 663.457C274.584 661.075 276.514 659.144 278.893 659.144C281.274 659.144 283.203 661.075 283.203 663.457" fill="#331579"/>
<path fill-rule="evenodd" clip-rule="evenodd" d="M299.272 663.457C299.272 665.838 297.343 667.77 294.962 667.77C292.583 667.77 290.653 665.838 290.653 663.457C290.653 661.075 292.583 659.144 294.962 659.144C297.343 659.144 299.272 661.075 299.272 663.457" fill="#331579"/>
<path fill-rule="evenodd" clip-rule="evenodd" d="M315.34 663.457C315.34 665.838 313.412 667.77 311.031 667.77C308.652 667.77 306.722 665.838 306.722 663.457C306.722 661.075 308.652 659.144 311.031 659.144C313.412 659.144 315.34 661.075 315.34 663.457" fill="#331579"/>
<path fill-rule="evenodd" clip-rule="evenodd" d="M398.224 278.737C398.224 280.925 399.996 282.699 402.183 282.699C404.371 282.699 406.143 280.925 406.143 278.737C406.143 276.548 404.371 274.774 402.183 274.774C399.996 274.774 398.224 276.548 398.224 278.737" fill="#331579"/>
<path fill-rule="evenodd" clip-rule="evenodd" d="M400.041 278.737C400.041 279.92 401.001 280.881 402.183 280.881C403.365 280.881 404.326 279.92 404.326 278.737C404.326 277.554 403.365 276.594 402.183 276.594C401.001 276.594 400.041 277.554 400.041 278.737" fill="#270F5B"/>
<path fill-rule="evenodd" clip-rule="evenodd" d="M381.005 278.737C381.005 280.925 382.778 282.699 384.964 282.699C387.152 282.699 388.925 280.925 388.925 278.737C388.925 276.548 387.152 274.774 384.964 274.774C382.778 274.774 381.005 276.548 381.005 278.737" fill="#331579"/>
<path fill-rule="evenodd" clip-rule="evenodd" d="M382.822 278.737C382.822 279.92 383.782 280.881 384.964 280.881C386.146 280.881 387.104 279.92 387.104 278.737C387.104 277.554 386.146 276.594 384.964 276.594C383.782 276.594 382.822 277.554 382.822 278.737" fill="#270F5B"/>
<path fill-rule="evenodd" clip-rule="evenodd" d="M382.508 268.248L375.12 255.472C374.763 254.861 374.796 254.147 375.203 253.561C375.608 252.975 376.317 252.627 377.097 252.627H406.441C406.854 252.627 407.189 252.922 407.189 253.285C407.189 253.649 406.854 253.944 406.441 253.944H377.097C376.728 253.944 376.541 254.158 376.476 254.249C376.411 254.342 376.28 254.586 376.45 254.873L383.839 267.65C383.963 267.865 384.209 267.999 384.485 267.999H403.683L408.543 250.919C409.115 248.913 410.971 247.509 413.054 247.509H418.468C418.881 247.509 419.215 247.843 419.215 248.256C419.215 248.67 418.881 249.004 418.468 249.004H413.054C411.634 249.004 410.368 249.959 409.98 251.327L403.618 273.677H382.787C382.371 273.677 382.039 273.342 382.039 272.93C382.039 272.517 382.371 272.181 382.787 272.181H402.492L403.306 269.316H384.485C383.646 269.316 382.887 268.907 382.508 268.248" fill="#331579"/>
<path fill-rule="evenodd" clip-rule="evenodd" d="M359.169 264.333C359.169 272.288 352.724 278.736 344.779 278.736C336.829 278.736 330.386 272.288 330.386 264.333C330.386 256.378 336.829 249.93 344.779 249.93C352.724 249.93 359.169 256.378 359.169 264.333" fill="#FD5E5A"/>
<path fill-rule="evenodd" clip-rule="evenodd" d="M341.767 260.269H340.225C341.344 255.302 346.726 255.58 348.437 258.379C349.419 259.985 349.22 262.112 347.057 263.384C349.559 264.4 350.644 267.258 349.152 269.825C347.178 273.218 340.781 273.585 339.722 267.835H341.201C342.772 273.752 350.46 269.892 347.843 265.841C346.975 264.496 345.558 264.283 343.913 264.197V262.809C345.626 262.809 347.427 261.981 347.427 260.28C347.427 258.137 344.582 257.15 342.967 258.403C342.495 258.772 342.096 259.393 341.767 260.269" fill="white"/>
<path fill-rule="evenodd" clip-rule="evenodd" d="M241.279 686.046H422.997V677.857H241.279V686.046Z" fill="#8D75BB"/>
<path fill-rule="evenodd" clip-rule="evenodd" d="M241.279 704.321H422.997V696.132H241.279V704.321Z" fill="#8D75BB"/>
<path fill-rule="evenodd" clip-rule="evenodd" d="M25.6212 334.068C0.305302 334.068 -20.2885 313.456 -20.2885 288.12C-20.2885 262.785 0.305302 242.171 25.6212 242.171C50.9355 242.171 71.5309 262.785 71.5309 288.12C71.5309 313.456 50.9355 334.068 25.6212 334.068M25.6212 235.153C-3.60649 235.153 -27.3003 258.867 -27.3003 288.12C-27.3003 317.372 -3.60649 341.086 25.6212 341.086C54.8488 341.086 78.5426 317.372 78.5426 288.12C78.5426 258.867 54.8488 235.153 25.6212 235.153" fill="#7FCDFF"/>
<path fill-rule="evenodd" clip-rule="evenodd" d="M570.452 335.102C545.139 335.102 524.542 314.491 524.542 289.153C524.542 263.819 545.139 243.205 570.452 243.205C595.768 243.205 616.363 263.819 616.363 289.153C616.363 314.491 595.768 335.102 570.452 335.102M570.452 236.187C541.224 236.187 517.53 259.901 517.53 289.153C517.53 318.406 541.224 342.12 570.452 342.12C599.679 342.12 623.375 318.406 623.375 289.153C623.375 259.901 599.679 236.187 570.452 236.187" fill="#7FCDFF"/>
<path fill-rule="evenodd" clip-rule="evenodd" d="M570.452 162.612C545.139 162.612 524.542 142 524.542 116.664C524.542 91.3278 545.139 70.715 570.452 70.715C595.768 70.715 616.363 91.3278 616.363 116.664C616.363 142 595.768 162.612 570.452 162.612M570.452 63.6973C541.224 63.6973 517.53 87.4112 517.53 116.664C517.53 145.916 541.224 169.63 570.452 169.63C599.679 169.63 623.375 145.916 623.375 116.664C623.375 87.4112 599.679 63.6973 570.452 63.6973" fill="#7FCDFF"/>
<path fill-rule="evenodd" clip-rule="evenodd" d="M570.452 511.231C545.136 511.231 524.542 490.619 524.542 465.283C524.542 439.947 545.136 419.334 570.452 419.334C595.768 419.334 616.363 439.947 616.363 465.283C616.363 490.619 595.768 511.231 570.452 511.231M570.452 412.316C541.224 412.316 517.53 436.03 517.53 465.283C517.53 494.535 541.224 518.249 570.452 518.249C599.679 518.249 623.375 494.535 623.375 465.283C623.375 436.03 599.679 412.316 570.452 412.316" fill="#7FCDFF"/>
<path fill-rule="evenodd" clip-rule="evenodd" d="M25.6212 479.941C0.305302 479.941 -20.2885 459.33 -20.2885 433.994C-20.2885 408.658 0.305302 388.046 25.6212 388.046C50.9355 388.046 71.5309 408.658 71.5309 433.994C71.5309 459.33 50.9355 479.941 25.6212 479.941M25.6212 381.028C-3.60649 381.028 -27.3003 404.742 -27.3003 433.994C-27.3003 463.247 -3.60649 486.959 25.6212 486.959C54.8488 486.959 78.5426 463.247 78.5426 433.994C78.5426 404.742 54.8488 381.028 25.6212 381.028" fill="#7FCDFF"/>
<path fill-rule="evenodd" clip-rule="evenodd" d="M205.286 343.244C204.847 343.244 204.403 343.185 203.961 343.063L74.4609 307.618C71.7251 306.869 70.0955 303.983 70.8284 301.175C71.5582 298.367 74.3699 296.697 77.1072 297.447L206.605 332.894C209.343 333.643 210.97 336.527 210.239 339.336C209.627 341.69 207.553 343.244 205.286 343.244" fill="#7FCDFF"/>
<path fill-rule="evenodd" clip-rule="evenodd" d="M217.434 453.294H217.416L75.778 452.82C72.9375 452.811 70.6447 450.448 70.6538 447.539C70.6629 444.639 72.9618 442.294 75.7932 442.294H75.8099L217.449 442.766C220.288 442.777 222.586 445.14 222.573 448.047C222.564 450.947 220.264 453.294 217.434 453.294" fill="#7FCDFF"/>
<path fill-rule="evenodd" clip-rule="evenodd" d="M30.4531 538.796L-22.3211 498.358L-35.2446 515.032L30.4531 538.796Z" fill="#0A4CFE"/>
<path fill-rule="evenodd" clip-rule="evenodd" d="M-22.3306 548.166L-21.5764 516.875L30.4528 538.795L-22.3306 548.166Z" fill="#99D7FF"/>
<path fill-rule="evenodd" clip-rule="evenodd" d="M-22.3867 472.459L30.4528 538.796L-22.3215 498.359L-22.3867 472.459Z" fill="#99D7FF"/>
<path fill-rule="evenodd" clip-rule="evenodd" d="M556.105 301.261C556.387 301.251 559.326 301.349 559.326 301.529V270.659C567.896 269.268 576.427 267.883 585.05 266.482V267.415C585.05 278.392 584.967 289.37 585.09 300.346C585.143 304.93 582.028 306.943 578.897 307.505C572.911 308.58 569.351 303.387 572.826 299.647C575.324 296.957 578.122 296.506 581.583 297.267V276.305C575.336 277.449 569.109 278.591 562.809 279.745C562.809 280.053 562.762 296.667 562.731 304.686C562.716 308.999 559.818 311.616 555.757 311.811C546.36 312.267 548.023 301.571 556.105 301.261" fill="white"/>
<path fill-rule="evenodd" clip-rule="evenodd" d="M200.171 332.1H194.092L169.892 227.777L178.703 227.314L200.171 332.1Z" fill="#1F1A15"/>
<path fill-rule="evenodd" clip-rule="evenodd" d="M236.209 1.38187C236.209 1.38187 215.36 -2.17788 208.066 12.2342C200.775 26.6448 201.464 59.2338 211.389 67.673C221.314 76.1137 219.66 97.7304 228.355 104.113C237.051 110.496 259.203 113.377 259.203 98.35C259.203 98.35 248.407 100.18 245.671 90.8235C245.671 90.8235 261.168 100.731 268.74 89.639C276.313 78.5497 260.045 74.8791 260.045 74.8791C260.045 74.8791 266.438 78.0182 256.901 76.3719C247.368 74.7242 253.59 72.3429 253.59 64.2743C253.59 56.2086 259.485 61.9082 257.801 47.086C256.118 32.2624 243.313 0.871597 236.209 1.38187" fill="#0E1B29"/>
<path fill-rule="evenodd" clip-rule="evenodd" d="M185.878 319.518L183.853 333.645C183.853 333.645 180.09 344.318 180.09 345.887C180.09 346.925 181.863 355.346 186.571 356.766C188.987 357.495 198.875 346.693 200.193 341.806C201.73 336.097 197.97 318.262 197.97 318.262L185.878 319.518Z" fill="#FC7575"/>
<path fill-rule="evenodd" clip-rule="evenodd" d="M218.356 317.006C218.356 317.006 215.67 337.726 215.67 340.866C215.67 344.003 215.244 348.512 217.013 350.283C218.782 352.054 234.668 346.829 234.668 341.178C234.668 335.527 231.219 317.006 231.219 317.006H218.356Z" fill="#FC7575"/>
<path fill-rule="evenodd" clip-rule="evenodd" d="M252.672 131.749C252.672 117.601 252.087 71.5875 252.087 71.5875C252.087 71.5875 243.727 65.9183 226.998 65.9183C221.616 65.9183 216.669 64.9965 211.314 65.9715C200.011 68.0293 189.739 72.8677 189.739 72.8677C189.739 72.8677 193.207 116.28 187.786 145.92C186.828 151.156 190.919 155.961 196.236 155.961H249.1C252.666 155.961 255.374 152.754 254.79 149.234C253.546 141.721 252.672 135.421 252.672 131.749" fill="#FFDA88"/>
<path fill-rule="evenodd" clip-rule="evenodd" d="M193.129 155.044C184.559 161.69 182.728 163.978 180.288 166.973C161.246 190.362 166.73 222.122 175.383 220.93C184.037 219.737 201.922 216.636 215.771 219.523C229.617 222.409 260.774 221.543 263.657 210.284C265.581 202.786 255.335 176.682 249.794 155.961L193.129 155.044Z" fill="#464A7F"/>
<path fill-rule="evenodd" clip-rule="evenodd" d="M222.149 184.298L215.67 194.476C212.485 201.775 214.345 219.251 214.345 219.251L185.878 217.809L184.523 190.963L222.149 184.298Z" fill="#35385F"/>
<path fill-rule="evenodd" clip-rule="evenodd" d="M217.212 193.826C217.212 193.826 233.369 192.094 239.428 198.158C245.485 204.222 233.944 286.797 235.388 291.417C236.831 296.037 243.754 295.46 239.714 299.502C235.675 303.544 234.668 306.286 236.54 308.163C238.417 310.039 239.136 312.783 237.407 314.516C235.675 316.247 235.1 320.867 235.1 320.867H215.763C215.763 320.867 214.329 309.029 214.329 307.008C214.329 304.986 212.019 299.214 212.019 299.214C212.019 299.214 219.221 295.455 215.763 291.996C212.305 288.533 215.763 283.333 215.763 275.825C215.763 268.32 205.097 195.269 217.212 193.826" fill="#6B6E98"/>
<path fill-rule="evenodd" clip-rule="evenodd" d="M168.259 193.597C173.849 188.002 182.885 187.305 191.825 193.597C200.77 199.89 197.596 215.48 197.596 229.63C197.596 243.776 196.672 278.713 198.144 283.043C199.617 287.374 204.231 291.707 202.5 296.326C200.77 300.946 199.902 299.982 202.882 302.968C205.864 305.95 204.231 308.163 204.231 311.34C204.231 314.516 202.788 324.332 202.788 324.332H184.325C184.325 324.332 183.46 306.719 178.846 299.791C174.228 292.861 177.692 277.847 177.692 275.536C177.692 273.228 171.922 270.339 171.922 260.234C171.922 250.129 165.221 196.637 168.259 193.597" fill="#6B6E98"/>
<path fill-rule="evenodd" clip-rule="evenodd" d="M190.631 72.8672C190.631 72.8672 187.344 78.6138 182.73 91.6075C178.116 104.601 185.877 156.09 185.877 164.752C185.877 173.415 196.731 184.298 196.731 184.298L205.963 173.904L199.904 136.367L190.631 72.8672Z" fill="#FD5E5A"/>
<path fill-rule="evenodd" clip-rule="evenodd" d="M252.088 71.5874C252.088 71.5874 265.392 74.8692 269.451 93.3483C273.512 111.826 276.814 155.137 275.542 160.335C274.273 165.53 240.811 181.601 240.811 181.601L237.984 175.924C237.984 175.924 263.362 153.981 263.362 150.805C263.362 147.63 252.499 107.882 252.499 107.882L252.088 71.5874Z" fill="#FD5E5A"/>
<path fill-rule="evenodd" clip-rule="evenodd" d="M149.707 137.525L157.207 190.801L250.677 187.475L248.828 134.063L149.707 137.525Z" fill="#241145"/>
<path fill-rule="evenodd" clip-rule="evenodd" d="M199.676 343.179C190.963 348.701 184.484 348.12 180.096 346.014C180.211 347.477 182.015 355.393 186.57 356.766C188.781 357.433 197.241 348.456 199.676 343.179" fill="#ED1E79"/>
<path fill-rule="evenodd" clip-rule="evenodd" d="M234.668 341.178C234.668 339.922 234.496 338.031 234.232 335.848C229.205 340.373 222.491 343.351 215.999 336.71C215.798 338.665 215.67 340.182 215.67 340.865C215.67 344.003 215.244 348.512 217.013 350.283C218.782 352.053 234.668 346.829 234.668 341.178" fill="#ED1E79"/>
<path fill-rule="evenodd" clip-rule="evenodd" d="M236.473 44.5124C236.473 44.5124 235.746 46.1086 234.644 48.6083C230.829 57.2707 233.257 70.556 233.45 72.8674C233.835 77.5069 231.357 87.0001 231.357 87.0001C231.357 87.0001 213.229 74.3071 212.204 65.9727L222.033 35.8394L236.473 44.5124Z" fill="#FC7575"/>
<path fill-rule="evenodd" clip-rule="evenodd" d="M222.033 35.8394L236.473 44.5124C236.473 44.5124 235.743 46.1116 234.644 48.6083C229.564 47.205 221.806 44.6415 220.122 41.6999L222.033 35.8394Z" fill="#FD5E5A"/>
<path fill-rule="evenodd" clip-rule="evenodd" d="M225.525 11.2636L247.331 23.3081C247.331 23.3081 251.857 23.4099 251.857 18.3664C251.857 13.3214 246.302 8.38271 240.646 5.49877C234.987 2.61786 227.894 1.37256 227.894 1.37256L225.525 11.2636Z" fill="#0E1B29"/>
<path fill-rule="evenodd" clip-rule="evenodd" d="M233.443 5.80713C233.443 5.80713 241.878 7.24834 244.142 11.2637C246.403 15.2775 247.019 24.8512 249.283 27.1155C251.546 29.3798 253.518 29.8779 253.518 29.8779C253.518 29.8779 254.118 30.9243 251.857 32.0572C249.593 33.1886 251.304 34.4248 252.713 34.4248C254.118 34.4248 252.936 37.0992 251.857 37.4105C251.857 37.4105 253.244 37.8205 252.986 39.16C252.731 40.4979 252.062 40.7546 252.062 40.7546C252.062 40.7546 251.993 42.5041 252.713 44.1518C253.433 45.7996 251.684 50.6882 240.645 48.5271C240.645 48.5271 224.236 44.6667 223.26 40.0348C222.285 35.4028 214.986 18.5639 221.207 12.3404C227.427 6.1139 233.443 5.80713 233.443 5.80713" fill="#FC7575"/>
<path fill-rule="evenodd" clip-rule="evenodd" d="M225.833 1.118C225.833 1.118 228.405 -1.56092 238.69 1.37314C248.976 4.30719 251.433 15.9508 251.433 15.9508C251.433 15.9508 244.809 11.4692 240.646 11.4692C236.479 11.4692 227.055 9.88524 225.525 8.35595C223.996 6.82514 225.833 1.118 225.833 1.118" fill="#1B3753"/>
<path fill-rule="evenodd" clip-rule="evenodd" d="M227.182 0.426758C228.618 0.426758 237.714 10.5426 235.245 18.2635C232.778 25.9828 226.914 22.5355 223.211 24.5948C219.508 26.6541 223.927 36.1746 223.261 40.035C222.594 43.8954 212.204 65.9723 212.204 65.9723C212.204 65.9723 203.463 19.2977 208.762 10.6504C214.062 2.00313 227.182 0.426758 227.182 0.426758" fill="#1B3753"/>
<path fill-rule="evenodd" clip-rule="evenodd" d="M238.114 32.3913C238.114 33.544 240.046 34.478 242.43 34.478C244.815 34.478 246.747 33.544 246.747 32.3913C246.747 31.2387 244.815 30.3047 242.43 30.3047C240.046 30.3047 238.114 31.2387 238.114 32.3913" fill="#FD5E5A"/>
<path fill-rule="evenodd" clip-rule="evenodd" d="M248.49 23.3076C248.49 23.3076 247.073 26.1551 241.301 26.0245L248.49 23.3076Z" fill="#1B3753"/>
<path fill-rule="evenodd" clip-rule="evenodd" d="M246.747 21.9106C246.747 21.9106 244.605 20.6318 242.942 20.6318C241.279 20.6318 239.745 21.3031 239.745 21.9106C239.745 21.9106 241.567 21.0479 243.007 21.2712C244.444 21.496 245.118 22.6031 245.693 22.6031C246.268 22.6031 246.747 21.9106 246.747 21.9106" fill="#1B3753"/>
<path fill-rule="evenodd" clip-rule="evenodd" d="M222.789 32.3141C222.789 32.3141 230.786 50.8631 214.726 71.5867C198.663 92.3119 176.867 83.9198 173.934 75.5322C171.003 67.1431 181.266 64.2744 181.266 64.2744C181.266 64.2744 179.307 73.7675 184.523 73.3165C189.739 72.867 191.537 71.6369 189.442 61.4193C187.348 51.2032 194.926 55.2991 199.092 48.6078C203.262 41.9181 199.092 36.8124 199.092 28.9078C199.092 21.0031 208.763 10.6504 208.763 10.6504L222.789 32.3141Z" fill="#1B3753"/>
<path fill-rule="evenodd" clip-rule="evenodd" d="M224.336 25.5203C224.336 25.5203 221.361 19.0356 219.971 20.4252C218.584 21.8148 217.89 31.3869 222.789 32.3148C227.685 33.2412 224.336 25.5203 224.336 25.5203" fill="#FC7575"/>
<path fill-rule="evenodd" clip-rule="evenodd" d="M224.123 26.3105C224.123 26.3105 222.588 22.7766 221.755 23.6088C220.926 24.441 221.82 30.01 222.941 30.01C224.058 30.01 224.396 28.0919 224.123 26.3105" fill="#FD5E5A"/>
<path fill-rule="evenodd" clip-rule="evenodd" d="M246.963 26.2383C246.963 26.9019 246.661 27.4395 246.285 27.4395C245.909 27.4395 245.604 26.9019 245.604 26.2383C245.604 25.5761 245.909 25.04 246.285 25.04C246.661 25.04 246.963 25.5761 246.963 26.2383" fill="#1B3753"/>
<path fill-rule="evenodd" clip-rule="evenodd" d="M497.398 534.214C497.398 534.214 478.668 540.16 475.909 544.61C473.151 549.058 463.264 578.441 460.733 580.972C458.205 583.504 440.335 584.995 436.2 585.932L445.68 602.39C445.68 602.39 464.952 602.788 470.356 602.39C475.755 601.992 497.398 534.214 497.398 534.214" fill="#50284C"/>
<path fill-rule="evenodd" clip-rule="evenodd" d="M528.925 538.121C528.925 538.121 558.626 566.853 554.021 599.305C554.021 599.305 547.354 587.883 534.705 590.143C534.705 590.143 528.786 577.675 527.029 569.851C525.272 562.023 528.925 538.121 528.925 538.121" fill="#885E84"/>
<path fill-rule="evenodd" clip-rule="evenodd" d="M505.797 798.472H511.876L536.077 694.151L527.265 693.686L505.797 798.472Z" fill="#1F1A15"/>
<path fill-rule="evenodd" clip-rule="evenodd" d="M604.421 800.354H598.342L574.142 696.031L582.953 695.568L604.421 800.354Z" fill="#1F1A15"/>
<path fill-rule="evenodd" clip-rule="evenodd" d="M441.75 789.095H435.672L411.471 684.772L420.283 684.309L441.75 789.095Z" fill="#1F1A15"/>
<path fill-rule="evenodd" clip-rule="evenodd" d="M361.007 796.179H367.085L391.286 691.855L382.478 691.392L361.007 796.179Z" fill="#1F1A15"/>
<path fill-rule="evenodd" clip-rule="evenodd" d="M365.512 613.361V690.093C365.512 696.153 371.285 701.064 378.406 701.064H576.389C583.51 701.064 589.283 696.153 589.283 690.093V613.361C589.283 607.302 583.51 602.389 576.389 602.389H378.406C371.285 602.389 365.512 607.302 365.512 613.361" fill="#450000"/>
</g>
<mask id="mask2" mask-type="alpha" maskUnits="userSpaceOnUse" x="365" y="601" width="225" height="100">
<path fill-rule="evenodd" clip-rule="evenodd" d="M508.857 601.48C501.738 601.48 495.962 606.386 495.962 612.44V612.44C495.962 613.106 495.962 613.269 495.962 613.215V613.215C495.961 615.828 495.955 626.129 495.937 661.038V661.038C495.513 666.764 489.914 671.297 483.068 671.297V671.297H404.663C397.546 671.297 391.77 666.391 391.77 660.34V660.34V612.44C391.77 606.386 385.998 601.48 378.878 601.48V601.48C371.756 601.48 365.982 606.386 365.982 612.44V612.44V689.08C365.982 695.131 371.756 700.037 378.878 700.037V700.037H576.877C583.999 700.037 589.773 695.131 589.773 689.08V689.08V612.44C589.773 606.386 583.999 601.48 576.877 601.48V601.48H508.857ZM495.962 612.825C495.962 612.998 495.962 613.172 495.962 613.215V613.215C495.962 612.623 495.962 612.425 495.962 612.425V612.425C495.962 612.425 495.962 612.625 495.962 612.825V612.825Z" fill="white"/>
</mask>
<g mask="url(#mask2)">
<path fill-rule="evenodd" clip-rule="evenodd" d="M508.857 601.48C501.738 601.48 495.962 606.386 495.962 612.44V612.44C495.962 613.106 495.962 613.269 495.962 613.215V613.215C495.961 615.828 495.955 626.129 495.937 661.038V661.038C495.513 666.764 489.914 671.297 483.068 671.297V671.297H404.663C397.546 671.297 391.77 666.391 391.77 660.34V660.34V612.44C391.77 606.386 385.998 601.48 378.878 601.48V601.48C371.756 601.48 365.982 606.386 365.982 612.44V612.44V689.08C365.982 695.131 371.756 700.037 378.878 700.037V700.037H576.877C583.999 700.037 589.773 695.131 589.773 689.08V689.08V612.44C589.773 606.386 583.999 601.48 576.877 601.48V601.48H508.857ZM495.962 612.825C495.962 612.998 495.962 613.172 495.962 613.215V613.215C495.962 612.623 495.962 612.425 495.962 612.425V612.425C495.962 612.425 495.962 612.625 495.962 612.825V612.825Z" fill="url(#paint0_linear)"/>
</g>
<path fill-rule="evenodd" clip-rule="evenodd" d="M342.705 765.415C342.705 765.415 340.795 766.841 340.404 770.199C340.12 772.638 341.316 776.479 341.316 779.68C341.316 787.289 339.564 789.631 339.564 789.631C339.564 789.631 294.571 789.338 294.571 787.289C294.571 785.242 311.222 773.534 317.943 773.534C324.665 773.534 329.922 758.021 329.922 758.021L341.316 762.996L342.705 765.415Z" fill="#2F3453"/>
<path fill-rule="evenodd" clip-rule="evenodd" d="M343.498 793.954C343.498 793.954 332.855 793.772 325.404 793.646C317.955 793.52 306.056 794.215 302.329 794.151C298.604 794.088 285.268 785.055 286.204 782.195C287.139 779.335 299.368 780.262 305.805 777.138C312.244 774.011 324.037 763.878 325.692 765.614C327.351 767.348 338.311 768.007 340.404 770.199C342.498 772.392 345.393 792.098 343.498 793.954" fill="#3A758D"/>
<path fill-rule="evenodd" clip-rule="evenodd" d="M340.917 788.986C311.282 783.785 319.604 792.994 290.683 784.366C297.697 787.356 308.11 790.388 315.643 789.035C319.741 788.297 324.005 788.368 328.221 788.41C332.446 788.483 336.677 788.726 340.917 788.986" fill="#ACFCDD"/>
<path fill-rule="evenodd" clip-rule="evenodd" d="M321.058 780.655C320.641 781.137 319.918 781.184 319.445 780.765C317.787 779.292 314.118 776.345 310.565 774.324C311.264 773.865 311.975 773.388 312.69 772.899C316.933 775.474 320.7 778.795 320.952 779.021C321.425 779.445 321.472 780.177 321.058 780.655" fill="#ACFCDD"/>
<path fill-rule="evenodd" clip-rule="evenodd" d="M322.826 775.933C322.273 776.239 321.577 776.027 321.278 775.466C321.251 775.415 319.723 772.595 317.097 769.859C317.76 769.401 318.408 768.961 319.033 768.545C321.665 771.371 323.175 774.15 323.288 774.364C323.593 774.925 323.382 775.631 322.826 775.933" fill="#ACFCDD"/>
<path fill-rule="evenodd" clip-rule="evenodd" d="M466.944 632.167L448.833 629.823C448.833 629.823 384.198 595.635 373.397 608.164C364.301 618.716 365.675 622.139 377.068 633.555C388.464 644.969 408.891 656.225 408.891 656.225L424.29 661.433L393.266 632.555L438.312 652.067H490.121L466.944 632.167Z" fill="#202857"/>
<path fill-rule="evenodd" clip-rule="evenodd" d="M503.758 652.068C503.758 652.068 504.107 662.719 497.914 668.925C491.72 675.132 415.526 668.679 415.526 668.679L350.08 771.484L324.955 762.664C324.955 762.664 374.752 665.117 392.737 652.068C410.718 639.021 471.2 637.9 471.2 637.9L503.758 652.068Z" fill="#3F50AE"/>
<path fill-rule="evenodd" clip-rule="evenodd" d="M344.946 765.789L343.617 765.042C343.617 765.042 344.567 763.347 346.241 760.389L347.567 761.14C345.897 764.096 344.946 765.788 344.946 765.789" fill="#9CABFC"/>
<path fill-rule="evenodd" clip-rule="evenodd" d="M421.086 662.212C415.547 661.931 412.133 661.907 410.487 662.133L410.279 660.62C412.062 660.379 415.461 660.396 421.164 660.687L421.086 662.212ZM442.523 663.647L440.38 663.494C437.426 663.28 434.546 663.07 431.801 662.88L431.908 661.358C434.652 661.548 437.537 661.755 440.489 661.97L442.632 662.124L442.523 663.647ZM463.986 665.066C460.522 664.876 456.9 664.648 453.247 664.4L453.35 662.877C456.997 663.125 460.61 663.351 464.069 663.541L463.986 665.066ZM479.207 665.574C477.809 665.574 476.318 665.553 474.75 665.515L474.787 663.987C479.118 664.094 482.839 664.054 485.445 663.846L485.567 665.368C483.858 665.506 481.718 665.574 479.207 665.574V665.574ZM397.322 678.076L396.055 677.226C398.4 673.733 400.491 670.754 402.273 668.378L403.494 669.293C401.726 671.652 399.649 674.606 397.322 678.076V678.076ZM385.722 696.194L384.425 695.387C386.382 692.23 388.304 689.168 390.158 686.26L391.442 687.085C389.59 689.985 387.673 693.041 385.722 696.194V696.194ZM374.558 714.592L373.248 713.809C375.09 710.718 376.947 707.628 378.798 704.575L380.1 705.368C378.252 708.418 376.398 711.506 374.558 714.592V714.592ZM363.635 733.143L362.316 732.373C364.073 729.358 365.894 726.244 367.759 723.077L369.07 723.853C367.208 727.018 365.388 730.131 363.635 733.143V733.143ZM352.875 751.8L351.552 751.042C353.162 748.223 354.969 745.077 356.917 741.695L358.237 742.457C356.289 745.838 354.485 748.984 352.875 751.8V751.8Z" fill="#9CABFC"/>
<path fill-rule="evenodd" clip-rule="evenodd" d="M495.672 661.792L494.97 660.433C498.484 658.609 499.527 657.889 499.536 657.883L500.415 659.132C500.371 659.162 499.316 659.9 495.672 661.792" fill="#9CABFC"/>
<path fill-rule="evenodd" clip-rule="evenodd" d="M419.032 648.572C419.032 648.572 426.146 660.028 426.146 661.3C426.146 662.573 428.305 668.045 426.146 670.207C423.986 672.371 378.38 657.99 378.38 657.99C378.38 657.99 392.606 654.427 398.706 654.427C404.802 654.427 408.74 649.464 406.581 647.3C404.423 645.137 419.032 648.572 419.032 648.572" fill="#095270"/>
<path fill-rule="evenodd" clip-rule="evenodd" d="M425.087 674.547C425.087 674.547 421.72 676.061 407.867 670.204C394.016 664.345 370.596 664.51 370.489 659.253C370.383 653.992 387.49 652.768 397.551 655.199C407.616 657.628 420.092 661.42 424.915 666.061C429.738 670.702 425.087 674.547 425.087 674.547" fill="#653870"/>
<path fill-rule="evenodd" clip-rule="evenodd" d="M370.489 659.252C369.616 652.79 394.729 648.246 419.21 661.018C429.327 666.479 428.939 671.749 425.087 674.546C434.966 663.307 394.607 655.56 385.679 655.189C381.573 655.097 370.844 655.182 370.489 659.252" fill="#CDFDEB"/>
<path fill-rule="evenodd" clip-rule="evenodd" d="M509.017 527.384C509.017 527.384 527.581 533.507 530.637 538.75C543.172 560.275 533.902 653.431 503.758 664.36C488.514 669.89 448.833 629.823 448.833 629.823C448.833 629.823 477.931 606.245 479.8 570.116C481.581 535.659 509.017 527.384 509.017 527.384" fill="#6A3565"/>
<path fill-rule="evenodd" clip-rule="evenodd" d="M448.832 629.823C464.408 618.011 477.342 599.061 480.888 577.387C481.828 569.767 480.726 539.998 509.016 527.384C499.066 530.25 490.172 537.277 484.826 546.504C472.412 567.582 485.205 582.747 458.896 618.136C455.861 622.269 452.485 626.163 448.832 629.823" fill="#EDEEFF"/>
<path fill-rule="evenodd" clip-rule="evenodd" d="M378.379 608.081C378.379 608.081 406.104 625.491 414.359 637.137C422.611 648.782 426.231 655.271 426.231 655.271L394.958 650.639C394.958 650.639 369.97 634.807 367.134 625.11C364.301 615.412 372.987 604.558 378.379 608.081" fill="#546BE8"/>
<path fill-rule="evenodd" clip-rule="evenodd" d="M379.09 612.4C376.841 610.62 375.472 609.592 375.469 609.591L376.381 608.368C376.381 608.368 377.761 609.404 380.035 611.202L379.09 612.4ZM386.185 618.179C384.934 617.131 383.753 616.156 382.659 615.266L383.62 614.08C384.719 614.974 385.909 615.955 387.164 617.009L386.185 618.179ZM393.11 624.156C391.944 623.116 390.792 622.109 389.672 621.143L390.668 619.984C391.792 620.958 392.951 621.971 394.125 623.017L393.11 624.156ZM399.825 630.36C398.72 629.299 397.607 628.252 396.496 627.229L397.53 626.106C398.646 627.136 399.769 628.188 400.882 629.261L399.825 630.36ZM406.247 636.849C405.219 635.748 404.159 634.649 403.082 633.564L404.162 632.486C405.252 633.584 406.321 634.693 407.359 635.804L406.247 636.849ZM412.195 643.738C411.325 642.622 410.347 641.443 409.3 640.231L410.449 639.231C411.518 640.461 412.506 641.66 413.397 642.795L412.195 643.738ZM417.199 651.24C416.566 650.031 415.781 648.736 414.874 647.392L416.135 646.535C417.078 647.927 417.889 649.269 418.549 650.53L417.199 651.24Z" fill="#98A6F1"/>
<path fill-rule="evenodd" clip-rule="evenodd" d="M507.66 496.898L500.255 529.579C499.853 531.359 501.078 538.954 502.274 540.335C505.052 543.535 511.373 546.332 517.147 543.448C522.18 540.936 522.53 499.706 522.53 499.706C522.53 499.706 514.106 496.873 507.66 496.898" fill="#FC7575"/>
<path fill-rule="evenodd" clip-rule="evenodd" d="M522.53 499.705C522.53 499.705 522.536 501.066 522.511 503.309C521.582 506.316 519.995 510.924 518.127 514.19C515.631 518.555 507.657 525.011 501.469 524.226L507.66 496.897C514.106 496.874 522.53 499.705 522.53 499.705" fill="#FD5E5A"/>
<path fill-rule="evenodd" clip-rule="evenodd" d="M530.488 460.064C532.579 464.857 533.754 471.161 528.991 473.237C534.222 471.711 533.858 464.57 532.283 459.362L530.488 460.064Z" fill="#132759"/>
<path fill-rule="evenodd" clip-rule="evenodd" d="M507.391 472.481C507.391 472.481 500.398 471.931 497.892 480.422C495.391 488.911 494.651 513.706 501.014 517.309C507.376 520.91 517.099 514.293 519.74 509.89C522.491 505.31 524.392 497.61 524.392 497.61C524.392 497.61 531.078 466.468 507.391 472.481" fill="#FC7575"/>
<path fill-rule="evenodd" clip-rule="evenodd" d="M528.744 510.929C528.744 510.929 526.749 512.515 525.455 509.655C525.455 509.655 522.447 503.058 526.915 499.419C531.385 495.779 538.02 490.896 538.687 482.732C539.353 474.566 529.775 472.675 529.775 472.675C529.775 472.675 530.71 460.145 516.493 461.484C516.493 461.484 514.501 458.329 506.615 457.074C498.73 455.821 499.722 460.488 495.366 458.845C491.011 457.205 491.101 453.545 493.271 452.559C493.271 452.559 484.817 454.526 482.555 460.544C480.297 466.563 492.125 469.304 492.125 469.304C492.125 469.304 482.272 468.611 488.749 474.18C495.232 479.748 498.799 480.405 504.194 476.943C509.584 473.48 512.196 472.918 514.375 474.426C516.552 475.933 514.629 481.049 518.086 482.352C521.538 483.652 521.923 493.588 521.923 493.588C521.923 493.588 524.874 493.226 523.382 499.84C521.891 506.457 520.167 510.358 524.072 511.83C527.974 513.301 528.744 510.929 528.744 510.929" fill="#132759"/>
<path fill-rule="evenodd" clip-rule="evenodd" d="M525.399 486.31C527.558 486.486 532.301 489.082 526.722 494.882C521.144 500.68 518.9 492.959 519.966 490.121C521.031 487.282 523.747 486.175 525.399 486.31" fill="#FC7575"/>
<path fill-rule="evenodd" clip-rule="evenodd" d="M503.391 491.754C503.065 495.85 502.254 499.729 502.325 503.638C503.242 503.835 504.155 504.066 505.062 504.358C503.385 504.56 502.052 504.539 501.434 504.557C501.434 504.35 500.887 498.927 503.391 491.754" fill="#132759"/>
<path fill-rule="evenodd" clip-rule="evenodd" d="M505.245 490.917C505.475 491.003 505.739 490.9 505.848 490.675C505.881 490.613 506.661 489.085 508.877 488.669C510.793 488.306 514.918 490.305 516.35 491.102C516.596 491.242 516.875 491.148 517.005 490.917C517.136 490.684 517.052 490.39 516.819 490.261C516.596 490.136 511.346 487.219 508.699 487.72C505.987 488.23 505.02 490.173 504.981 490.255C504.866 490.495 504.966 490.782 505.207 490.899C505.22 490.905 505.233 490.912 505.245 490.917" fill="#132759"/>
<path fill-rule="evenodd" clip-rule="evenodd" d="M509.591 507.294C509.591 507.294 502.287 508.148 498.565 506.424C498.565 506.424 498.631 509.668 500.771 510.99C502.912 512.313 507.873 511.865 509.591 507.294" fill="white"/>
<path fill-rule="evenodd" clip-rule="evenodd" d="M527.282 491.056C527.282 491.056 525.928 495.694 523.638 495.176C521.349 494.658 521.511 491.027 523.418 489.6C525.328 488.174 527.773 489.753 527.282 491.056" fill="#FD5E5A"/>
<path fill-rule="evenodd" clip-rule="evenodd" d="M506.464 493.124C506.39 494.062 506.933 494.869 507.669 494.928C508.409 494.989 509.07 494.275 509.144 493.336C509.217 492.398 508.679 491.59 507.939 491.531C507.198 491.473 506.539 492.185 506.464 493.124" fill="#132759"/>
<path fill-rule="evenodd" clip-rule="evenodd" d="M496.942 491.882C496.868 492.821 497.408 493.629 498.148 493.688C498.887 493.747 499.548 493.035 499.623 492.096C499.695 491.158 499.157 490.348 498.417 490.291C497.676 490.231 497.017 490.945 496.942 491.882" fill="#132759"/>
<path fill-rule="evenodd" clip-rule="evenodd" d="M500.928 489.855C501.064 490.084 500.987 490.382 500.757 490.515C500.626 490.59 500.475 490.599 500.344 490.55C500.244 490.512 500.155 490.442 500.099 490.342C499.72 489.695 498.499 487.923 497.431 487.519C497.17 487.42 496.902 487.34 496.635 487.273C496.673 486.945 496.712 486.623 496.753 486.307C497.088 486.389 497.434 486.489 497.772 486.617C499.377 487.223 500.866 489.748 500.928 489.855" fill="#132759"/>
<path fill-rule="evenodd" clip-rule="evenodd" d="M496.036 661.238C496.054 626.226 496.061 615.939 496.064 613.343V613.345V613.343V613.31V613.152V613.124V613.132V613.114V613.105V612.927V612.923V612.926V612.865V612.708V612.702V612.637V612.581C496.064 606.521 501.83 601.608 508.943 601.608H576.893C584.008 601.608 589.776 606.521 589.776 612.581V689.313C589.776 695.373 584.008 700.284 576.893 700.284H483.862L483.181 671.51C490.02 671.51 495.613 666.971 496.036 661.238" fill="#FABF44"/>
<path fill-rule="evenodd" clip-rule="evenodd" d="M538.033 700.284H576.894C584.008 700.284 589.776 695.373 589.776 689.313V612.581C589.776 606.521 584.008 601.608 576.894 601.608H538.033C530.921 601.608 525.153 606.521 525.153 612.581V689.313C525.153 695.373 530.921 700.284 538.033 700.284" fill="#890D00"/>
<path fill-rule="evenodd" clip-rule="evenodd" d="M535.113 588.509L502.089 597.193C502.089 597.193 492.378 604.22 488.013 605.615C483.646 607.011 478.307 611.837 479.356 613.32C480.4 614.8 485.886 609.769 486.778 609.922C487.669 610.074 483.553 616.03 482.885 619.936C482.218 623.844 480.881 627.635 483.112 627.329C485.342 627.023 486.961 618.225 486.961 618.225C486.961 618.225 490.393 611.575 490.947 612.361C491.5 613.145 488.656 617.712 488.656 617.712C488.656 617.712 487.98 622.647 487.684 624.383C487.461 625.68 488.65 629.565 489.663 628.137C490.257 627.297 489.979 624.089 490.669 622.257C492.087 618.5 494.403 615.522 494.403 615.522C494.403 615.522 491.921 626.774 493.481 627.041C495.041 627.308 496.656 617.988 496.656 617.988C496.656 617.988 500.467 610.226 502.13 609.535C503.791 608.841 508.365 605.886 511.9 604.656C515.437 603.422 530.053 607.48 536.576 607.567C543.099 607.652 553.681 603.602 554.56 598.469C554.827 596.898 553.852 595.165 552.369 593.515C548.055 588.719 541.345 586.87 535.113 588.509" fill="#FC7575"/>
<path fill-rule="evenodd" clip-rule="evenodd" d="M436.838 585.151L399.532 594.412C399.532 594.412 389.823 601.441 385.455 602.835C381.09 604.229 375.753 609.057 376.799 610.537C377.847 612.02 383.333 606.987 384.224 607.14C385.116 607.294 381 613.25 380.332 617.156C379.662 621.062 378.326 624.854 380.559 624.547C382.789 624.24 384.408 615.443 384.408 615.443C384.408 615.443 387.84 608.796 388.393 609.579C388.947 610.364 386.101 614.929 386.101 614.929C386.101 614.929 385.427 619.865 385.131 621.601C384.908 622.896 386.095 626.784 387.108 625.357C387.704 624.517 387.422 621.308 388.114 619.476C389.533 615.719 391.848 612.741 391.848 612.741C391.848 612.741 389.368 623.991 390.928 624.26C392.488 624.529 394.102 615.207 394.102 615.207C394.102 615.207 397.912 607.445 399.573 606.753C401.238 606.06 405.808 603.104 409.347 601.873C412.882 600.642 426.795 602.78 433.318 602.867C439.838 602.953 447.005 601.609 447.005 601.609C447.005 601.609 443.07 583.513 436.838 585.151" fill="#FD5E5A"/>
<path fill-rule="evenodd" clip-rule="evenodd" d="M546.196 482.973C546.42 482.973 546.64 482.843 546.734 482.622C559.377 454.049 525.843 428.918 525.503 428.669C525.242 428.473 524.869 428.53 524.677 428.795C524.484 429.056 524.54 429.428 524.804 429.621C525.135 429.865 557.914 454.44 545.657 482.141C545.524 482.44 545.657 482.791 545.956 482.923C546.033 482.957 546.115 482.973 546.196 482.973" fill="#411AC0"/>
<path fill-rule="evenodd" clip-rule="evenodd" d="M479.355 644.459L421.24 639.458L374.163 642.494L419.33 645.325L479.355 644.459Z" fill="#838BC5"/>
<path fill-rule="evenodd" clip-rule="evenodd" d="M479.355 648.157H421.023V642.494L479.355 644.459V648.157Z" fill="#0F1D5B"/>
<mask id="mask3" mask-type="alpha" maskUnits="userSpaceOnUse" x="376" y="572" width="45" height="75">
<path fill-rule="evenodd" clip-rule="evenodd" d="M376.294 572.865L420.701 646.953V641.361L379.367 572.865H376.294Z" fill="white"/>
</mask>
<g mask="url(#mask3)">
<path fill-rule="evenodd" clip-rule="evenodd" d="M376.294 572.865L420.701 646.953V641.361L379.367 572.865H376.294Z" fill="url(#paint1_linear)"/>
</g>
<path fill-rule="evenodd" clip-rule="evenodd" d="M335.229 588.799L375.861 573.905L420.765 648.95L370.949 647.555L335.229 588.799Z" fill="#0F1D5B"/>
<path fill-rule="evenodd" clip-rule="evenodd" d="M321.892 504.353H393.536C396.793 504.353 399.429 508.606 399.429 513.852V535.952C399.429 541.198 396.793 545.451 393.536 545.451H390.294L399.429 575.539L370.847 545.451H321.892C318.638 545.451 315.999 541.198 315.999 535.952V513.852C315.999 508.606 318.638 504.353 321.892 504.353" fill="#ED4790"/>
<path fill-rule="evenodd" clip-rule="evenodd" d="M575.771 99.7715C559.768 99.7715 546.794 105.369 546.794 112.274C546.794 115.725 550.037 118.85 555.28 121.112L552.591 133.106L562.456 123.377C566.443 124.269 570.972 124.772 575.771 124.772C591.777 124.772 604.752 119.175 604.752 112.274C604.752 105.369 591.777 99.7715 575.771 99.7715" fill="white"/>
<path fill-rule="evenodd" clip-rule="evenodd" d="M587.144 115.459C587.144 116.778 588.21 117.846 589.525 117.846C590.843 117.846 591.911 116.778 591.911 115.459C591.911 114.14 590.843 113.072 589.525 113.072C588.21 113.072 587.144 114.14 587.144 115.459" fill="#99D7FF"/>
<path fill-rule="evenodd" clip-rule="evenodd" d="M580.846 115.459C580.846 116.778 581.912 117.846 583.227 117.846C584.544 117.846 585.613 116.778 585.613 115.459C585.613 114.14 584.544 113.072 583.227 113.072C581.912 113.072 580.846 114.14 580.846 115.459" fill="#99D7FF"/>
<path fill-rule="evenodd" clip-rule="evenodd" d="M574.548 115.459C574.548 116.778 575.614 117.846 576.929 117.846C578.246 117.846 579.312 116.778 579.312 115.459C579.312 114.14 578.246 113.072 576.929 113.072C575.614 113.072 574.548 114.14 574.548 115.459" fill="#99D7FF"/>
<defs>
<linearGradient id="paint0_linear" x1="312.485" y1="682.302" x2="462.127" y2="821.084" gradientUnits="userSpaceOnUse">
<stop stop-color="#F47938"/>
<stop offset="1" stop-color="#FFFB4D"/>
</linearGradient>
<linearGradient id="paint1_linear" x1="420.703" y1="572.865" x2="376.294" y2="572.865" gradientUnits="userSpaceOnUse">
<stop stop-color="#A8A5DD"/>
<stop offset="1" stop-color="#BCB8F2"/>
</linearGradient>
</defs>
</svg>
