<svg width="786" height="805" viewBox="0 0 786 805" fill="none" xmlns="http://www.w3.org/2000/svg">
<path fill-rule="evenodd" clip-rule="evenodd" d="M732.452 697.976C729.696 697.976 727.461 695.739 727.461 692.98V129.77L550.687 328.117C548.856 330.176 545.693 330.363 543.642 328.521C541.586 326.683 541.405 323.526 543.24 321.466L737.442 103.555V692.98C737.442 695.739 735.207 697.976 732.452 697.976Z" fill="#7FCDFF"/>
<path fill-rule="evenodd" clip-rule="evenodd" d="M193.244 716.438L171.352 705.095C157.433 682.875 146.638 656.783 145.691 628.592C145.691 628.592 166.319 627.294 189.683 630.861L204.424 648.388L205.602 634.062C217.044 636.989 228.193 641.37 237.03 647.907L238.625 676.549L247.747 658.616C249.478 661.039 250.955 663.651 252.138 666.472C270.351 709.906 283.821 766.095 283.821 766.095L238.544 777.786C238.544 777.786 210.502 757.448 185.227 724.889L193.244 716.438Z" fill="#AD2500"/>
<path fill-rule="evenodd" clip-rule="evenodd" d="M232.492 759.355C244.872 761.949 252.726 759.967 255.492 759.013C236.687 744.308 218.498 724.214 203.642 705.72C202.973 705.925 202.305 706.114 201.645 706.285C189.298 709.473 178.296 706.76 169.964 702.85C169.492 702.074 169.023 701.296 168.559 700.511C177.136 704.959 189.111 708.434 202.649 704.481C198.313 699.047 194.119 693.577 189.995 688.016C179.295 689.351 167.46 685.725 158.966 682.187C158.659 681.511 158.356 680.832 158.055 680.152C166.279 683.709 178.286 687.704 188.984 686.647C168.061 658.268 153.447 634.744 153.294 634.483L149.265 629.395L153.886 632.458C154.153 632.914 166.099 651.957 182.867 675.569C185.292 662.932 175.306 636.161 172.486 628.969C173.029 629.006 173.575 629.046 174.126 629.092C177.432 637.543 187.448 664.85 184.005 677.169C194.645 692.061 207.54 708.871 221.541 724.488C223.867 717.766 207.981 682.28 214.798 664.902C218.957 654.297 217.142 643.672 215.01 636.847C215.584 637.043 216.157 637.244 216.726 637.449C218.779 644.518 220.274 654.976 216.172 665.435C209.306 682.945 226.501 719.344 222.6 725.665C225.34 728.698 228.122 731.68 230.936 734.593C232.965 698.47 232.517 697.32 227.656 684.463C224.861 677.068 222.219 670.085 226.003 663.693C229.287 658.145 228.496 649.039 227.081 641.853C227.653 642.14 228.22 642.433 228.78 642.734C230.093 649.953 230.631 658.768 227.275 664.44C221.246 674.621 233.394 686.871 233.438 702.144C233.479 715.973 232.499 733.196 232.332 736.03C238.091 741.921 243.978 747.496 249.922 752.565C251.33 750.588 256.967 741.274 250.829 726.325C245.845 714.188 253.51 695.117 259.017 684.005C259.261 684.661 259.501 685.317 259.741 685.976C254.431 697.036 247.662 714.729 252.195 725.765C258.748 741.725 252.574 751.476 251.054 753.523C258.216 759.545 265.454 764.811 272.64 768.983L270.628 769.503C269.356 768.743 268.088 767.952 266.819 767.129C261.681 770.321 252.785 771.627 242.549 767.483C236.343 764.968 230.628 765.903 226.151 767.768C225.748 767.42 225.339 767.065 224.921 766.702C229.779 764.527 236.139 763.297 243.106 766.117C254.748 770.833 262.794 767.612 265.429 766.219C262.567 764.315 259.709 762.258 256.864 760.076C249.952 762.989 239.742 762.378 232.185 760.796C227.311 759.775 222.686 760.111 218.629 761.057C218.206 760.667 217.779 760.271 217.347 759.867C221.808 758.7 226.994 758.204 232.492 759.355Z" fill="#A7CBD3"/>
<path fill-rule="evenodd" clip-rule="evenodd" d="M243.882 666.212L247.747 658.616C249.478 661.038 250.955 663.65 252.137 666.472C270.351 709.906 283.821 766.096 283.821 766.096C283.821 766.096 255.557 729.66 243.882 666.212Z" fill="#195F6D"/>
<path fill-rule="evenodd" clip-rule="evenodd" d="M423.37 692.184C421.461 692.676 393.971 686.6 355.689 709.661C317.409 732.718 293.137 763.69 293.137 763.69C293.137 763.69 342.896 760.595 384.431 742.269C425.966 723.944 423.37 692.184 423.37 692.184Z" fill="#004A58"/>
<path fill-rule="evenodd" clip-rule="evenodd" d="M297.217 759.036C319.62 733.325 356.289 703.06 391.516 694.567C389.504 717.239 383.486 734.915 366.139 749.294C336.868 759.068 307.634 762.603 297.143 763.624C297.14 762.205 297.161 760.671 297.217 759.036Z" fill="#003842"/>
<path fill-rule="evenodd" clip-rule="evenodd" d="M250.337 581.625L272.944 595.732L255.859 558.485C259.503 545.902 264.097 533.904 269.605 523.12C284.806 493.351 314.134 447.394 314.134 447.394C327.784 463.203 338.44 479.217 346.586 495.21L331.891 520.718L354.421 512.441C405.381 639.342 308.484 759.725 308.484 759.725L283.821 766.096C283.821 766.096 245.184 662.06 245.67 626.969C245.874 612.22 247.451 596.78 250.337 581.625Z" fill="#E0AA1A"/>
<path fill-rule="evenodd" clip-rule="evenodd" d="M246.633 639.481C246.326 637.29 246.088 635.209 245.922 633.258C254.804 646.201 277.429 677.038 294.704 682.194C294.846 680.63 294.997 679.061 295.163 677.495C278.851 675.84 257.319 642.084 245.795 621.831C245.859 619.989 245.945 618.137 246.051 616.281C258.392 638.523 280.688 673.244 295.486 674.575C296.9 662.365 299.105 650.258 302.435 639.267C305.171 630.239 307.258 618.254 308.837 604.681C293.45 598.198 272.883 559.111 262.808 538.161C263.289 536.958 263.777 535.766 264.277 534.584C273.595 554.151 294.597 594.444 309.185 601.609C310.271 591.633 311.104 580.884 311.732 569.877C296.598 556.362 284.062 522.698 278.638 506.36C279.289 505.195 279.951 504.027 280.617 502.852C285.262 517.111 297.454 551.279 311.943 566.001C314.838 510.89 313.799 451.321 313.766 450.405L314.329 448.151L314.869 450.302C314.904 451.328 318.297 526.232 313.594 585.915C336.666 587.493 356.096 566.548 366.062 553.165C366.302 554.52 366.528 555.87 366.734 557.22C364.206 560.479 361.193 564.055 357.748 567.606C347.546 578.13 336.921 584.872 326.421 587.583C322.031 588.717 317.664 589.145 313.358 588.851C312.006 605.009 310.106 619.889 307.463 631.654C328.314 633.366 354.237 618.78 368.368 609.523C368.255 610.8 368.133 612.071 368.003 613.338C357.713 619.957 342.4 628.53 326.958 632.518C320.117 634.285 313.247 635.152 306.781 634.552C306.297 636.508 305.79 638.367 305.264 640.115C290.914 687.454 297.718 755.99 298.39 762.334L295.501 763.079C295.302 761.275 291.304 724.209 294.45 685.184C277.799 680.658 257.233 654.43 246.633 639.481Z" fill="#CFD5F1"/>
<path fill-rule="evenodd" clip-rule="evenodd" d="M308.544 759.711L285.576 765.643C285.576 765.643 278.262 715.115 315.456 670.635L323.161 677.815L320.674 664.752C322.891 662.395 325.242 660.065 327.736 657.768L339.168 672.575L336.693 650.165C344.884 643.755 354.349 637.708 365.291 632.237C352.085 704.483 310.124 757.727 308.544 759.711Z" fill="#6670A4"/>
<path fill-rule="evenodd" clip-rule="evenodd" d="M187.449 699.027L197.726 719.033L199.597 702.298C206.601 704.472 213.611 707.174 220.405 710.526L224.831 720.648L229.511 715.512C248.089 726.771 264.09 743.7 272.382 769.048L234.26 778.893C234.26 778.893 146.43 777.377 122.014 694.499C122.014 694.499 153.035 691.078 187.449 699.027Z" fill="#469AA8"/>
<path fill-rule="evenodd" clip-rule="evenodd" d="M257.703 772.839L251.333 774.485C200.245 761.797 131.241 701.475 128.218 698.816L123.881 694.84L130.174 696.607C130.937 697.276 207.023 763.795 257.703 772.839Z" fill="#A7CBD3"/>
<path fill-rule="evenodd" clip-rule="evenodd" d="M318.775 682.563L325.378 688.717L323.246 677.522C325.143 675.506 327.158 673.509 329.296 671.539L339.088 684.226L336.968 665.027C348.073 656.337 361.916 648.425 379.168 642.016C379.168 642.016 388.704 694.785 371.705 723.497C354.706 752.209 317.951 757.52 317.951 757.52L293.166 763.919C293.166 763.919 286.913 720.671 318.775 682.563Z" fill="#E0AA1A"/>
<path fill-rule="evenodd" clip-rule="evenodd" d="M315.183 758.235L311.437 759.202C356.369 707.55 375.975 646.357 376.171 645.734L378.611 643.298L378.284 646.392C378.092 647.01 358.959 706.748 315.183 758.235Z" fill="#F3DDA3"/>
<path fill-rule="evenodd" clip-rule="evenodd" d="M292.396 763.481C292.396 763.481 312.737 705.855 340.436 681.093C368.131 656.331 424.143 656.925 424.143 656.925C424.143 656.925 418.942 668.73 410.039 684.401L389.225 687.377L403.842 694.896C389.225 718.692 367.956 746.759 344.173 757.157C299.82 776.549 292.396 763.481 292.396 763.481Z" fill="#AD2500"/>
<path fill-rule="evenodd" clip-rule="evenodd" d="M292.396 763.481C292.402 763.464 292.65 762.739 293.493 760.51C300.614 751.998 323.807 724.802 346.041 703.018C346.707 696.482 341.807 688.855 337.671 683.696C338.281 683.09 338.897 682.502 339.518 681.93C343.417 686.764 348.044 693.816 348.569 700.561C349.605 699.562 357.163 692.782 359.913 690.636C360.832 683.962 355.867 677.599 351.342 673.31C352.112 672.866 352.892 672.437 353.681 672.016C357.942 676.188 362.39 682.089 362.542 688.636C365.248 686.623 367.982 684.735 370.712 682.967C374.748 677.037 373.326 669.8 371.399 664.74C372.217 664.482 373.036 664.233 373.857 663.993C375.561 668.508 376.856 674.608 374.813 680.395C377.256 678.909 379.679 677.523 382.057 676.229C386.544 667.805 386.808 663.179 386.38 660.898C387.216 660.726 388.049 660.561 388.873 660.404C389.356 662.975 389.069 667.298 385.872 674.209C402.956 665.411 416.767 660.626 416.995 660.562L422.274 659.066L417.215 663.513C416.861 663.609 384.414 673.166 357.605 695.742C369.243 694.135 383.09 701.925 391.09 706.421C392.421 707.169 393.846 707.972 394.973 708.549C394.492 709.245 394.01 709.942 393.521 710.639C392.545 710.131 391.348 709.463 389.849 708.619C380.96 703.621 364.515 694.375 353.248 699.584C351.884 700.848 345.211 707.366 343.616 708.965C355.099 707.809 374.701 717.266 384.614 722.557C384.084 723.224 383.547 723.889 383.006 724.548C369.909 717.614 347.969 707.89 340.05 712.578C316.173 736.997 292.396 763.481 292.396 763.481Z" fill="#DE9C8C"/>
<path fill-rule="evenodd" clip-rule="evenodd" d="M187.621 479.941C162.305 479.941 141.711 459.33 141.711 433.994C141.711 408.658 162.305 388.046 187.621 388.046C212.935 388.046 233.531 408.658 233.531 433.994C233.531 459.33 212.935 479.941 187.621 479.941Z" fill="white"/>
<path fill-rule="evenodd" clip-rule="evenodd" d="M732.452 162.612C707.139 162.612 686.542 141.999 686.542 116.664C686.542 91.3277 707.139 70.7148 732.452 70.7148C757.768 70.7148 778.363 91.3277 778.363 116.664C778.363 141.999 757.768 162.612 732.452 162.612Z" fill="white"/>
<path fill-rule="evenodd" clip-rule="evenodd" d="M345.628 160.538C345.296 160.538 344.959 160.415 344.659 160.153C343.193 158.884 341.672 157.614 340.149 156.381C339.301 155.696 339.028 154.218 339.537 153.079C340.047 151.94 341.147 151.573 341.994 152.258C343.551 153.515 345.1 154.811 346.601 156.111C347.429 156.829 347.671 158.319 347.133 159.435C346.794 160.149 346.215 160.538 345.628 160.538Z" fill="#99D7FF"/>
<path fill-rule="evenodd" clip-rule="evenodd" d="M202.176 111.082H202.136C198.707 110.98 195.354 110.927 192.164 110.927H191.595C190.606 110.927 189.804 109.85 189.804 108.521C189.804 107.192 190.606 106.115 191.595 106.115H192.164C195.379 106.115 198.762 106.167 202.214 106.27C203.204 106.301 203.986 107.4 203.966 108.728C203.945 110.038 203.147 111.082 202.176 111.082ZM165.747 112.248C164.822 112.248 164.036 111.293 163.962 110.034C163.885 108.709 164.619 107.549 165.604 107.443C169.033 107.074 172.61 106.778 176.233 106.563C177.203 106.492 178.057 107.535 178.102 108.863C178.145 110.19 177.379 111.312 176.391 111.372C172.808 111.583 169.276 111.874 165.892 112.239C165.844 112.245 165.794 112.248 165.747 112.248ZM228.013 112.796C227.965 112.796 227.918 112.793 227.868 112.788C224.42 112.418 220.882 112.097 217.351 111.839C216.363 111.766 215.607 110.634 215.661 109.305C215.714 107.979 216.535 106.993 217.547 107.033C221.108 107.295 224.678 107.617 228.155 107.993C229.141 108.099 229.877 109.258 229.796 110.583C229.722 111.842 228.938 112.796 228.013 112.796ZM253.706 116.789C253.615 116.789 253.524 116.78 253.431 116.76C250.005 116.055 246.495 115.408 243.001 114.837C242.02 114.676 241.322 113.478 241.441 112.157C241.561 110.839 242.46 109.914 243.435 110.059C246.965 110.638 250.51 111.291 253.974 112.005C254.951 112.205 255.624 113.434 255.473 114.748C255.337 115.937 254.574 116.789 253.706 116.789ZM140.118 116.857C139.279 116.857 138.529 116.06 138.361 114.91C138.171 113.607 138.806 112.344 139.777 112.088C143.185 111.195 146.725 110.394 150.301 109.709C151.272 109.526 152.189 110.435 152.328 111.75C152.466 113.066 151.788 114.284 150.808 114.471C147.292 115.145 143.81 115.934 140.463 116.811C140.347 116.842 140.232 116.857 140.118 116.857ZM279.078 123.483C278.935 123.483 278.795 123.462 278.653 123.416C275.31 122.326 271.858 121.293 268.391 120.342C267.421 120.075 266.796 118.805 266.992 117.504C267.191 116.199 268.136 115.36 269.107 115.625C272.617 116.588 276.111 117.636 279.498 118.739C280.458 119.051 281.047 120.353 280.817 121.644C280.615 122.746 279.883 123.483 279.078 123.483ZM115.185 125.955C114.45 125.955 113.761 125.345 113.499 124.362C113.165 123.111 113.649 121.733 114.579 121.285C117.866 119.701 121.294 118.224 124.765 116.895C125.717 116.532 126.709 117.272 126.979 118.55C127.251 119.827 126.698 121.159 125.747 121.522C122.354 122.821 119.004 124.267 115.79 125.814C115.59 125.91 115.386 125.955 115.185 125.955ZM303.862 133.345C303.664 133.345 303.462 133.301 303.263 133.205C300.007 131.655 296.652 130.17 293.291 128.792C292.346 128.403 291.815 127.059 292.103 125.788C292.393 124.517 293.391 123.797 294.339 124.189C297.747 125.589 301.152 127.096 304.46 128.671C305.394 129.116 305.881 130.492 305.551 131.741C305.29 132.729 304.6 133.345 303.862 133.345ZM91.7806 140.592C91.1676 140.592 90.5697 140.168 90.2359 139.406C89.7321 138.261 90.0174 136.788 90.8702 136.112C93.9079 133.71 97.0884 131.426 100.319 129.318C101.211 128.739 102.281 129.237 102.713 130.431C103.144 131.627 102.774 133.069 101.883 133.647C98.7377 135.698 95.6453 137.922 92.688 140.26C92.4012 140.484 92.0886 140.592 91.7806 140.592ZM322.447 144.872C322.177 144.872 321.907 144.791 321.649 144.62C318.567 142.56 315.367 140.559 312.143 138.676C311.235 138.144 310.821 136.73 311.214 135.511C311.609 134.291 312.663 133.734 313.571 134.262C316.854 136.179 320.109 138.214 323.244 140.311C324.13 140.903 324.491 142.348 324.05 143.537C323.739 144.383 323.104 144.872 322.447 144.872ZM70.9819 161.124C70.4948 161.124 70.0063 160.859 69.6542 160.336C68.9911 159.352 69.0473 157.829 69.7786 156.936C72.4219 153.716 75.1942 150.614 78.018 147.716C78.8055 146.91 79.9284 147.112 80.5292 148.166C81.1301 149.221 80.9799 150.731 80.1924 151.537C77.449 154.356 74.7541 157.37 72.1852 160.502C71.8408 160.918 71.4113 161.124 70.9819 161.124ZM53.3652 186.52C52.9752 186.52 52.5807 186.348 52.2515 185.996C51.4776 185.168 51.3486 183.654 51.9647 182.617C54.177 178.879 56.5047 175.195 58.8839 171.664C59.5485 170.674 60.6835 170.604 61.4149 171.494C62.1493 172.385 62.2054 173.907 61.5423 174.894C59.2117 178.351 56.9326 181.956 54.7688 185.61C54.4152 186.208 53.8917 186.52 53.3652 186.52ZM38.8712 215.253C38.5693 215.253 38.2643 215.151 37.9851 214.937C37.1263 214.279 36.8243 212.809 37.3159 211.655C39.0715 207.521 40.9516 203.403 42.9044 199.41C43.4492 198.301 44.5614 197.993 45.3853 198.721C46.2108 199.449 46.4414 200.944 45.8982 202.052C43.9863 205.96 42.1457 209.994 40.4266 214.039C40.0988 214.817 39.4918 215.253 38.8712 215.253ZM27.8384 246.636C27.6275 246.636 27.412 246.586 27.2026 246.479C26.277 246.006 25.8127 244.618 26.1648 243.374C27.4227 238.929 28.8095 234.468 30.2829 230.119C30.6941 228.912 31.7548 228.377 32.6561 228.927C33.5574 229.478 33.9534 230.902 33.5437 232.114C32.1022 236.37 30.7442 240.734 29.5136 245.085C29.242 246.045 28.5607 246.636 27.8384 246.636ZM20.5975 279.948C20.4761 279.948 20.3547 279.933 20.2333 279.898C19.2637 279.629 18.6416 278.356 18.8419 277.055C19.5566 272.411 20.4018 267.712 21.3547 263.092C21.6187 261.809 22.6035 261.06 23.5579 261.414C24.5108 261.768 25.0707 263.094 24.8052 264.372C23.875 268.893 23.0481 273.489 22.3486 278.03C22.1741 279.167 21.429 279.948 20.5975 279.948ZM17.4398 314.383C17.4156 314.383 17.3928 314.383 17.3685 314.382C16.3807 314.329 15.6099 313.211 15.6478 311.884C15.7874 307.138 16.053 302.315 16.4369 297.552C16.5431 296.231 17.4262 295.276 18.411 295.418C19.3942 295.561 20.1044 296.749 19.9981 298.07C19.6218 302.723 19.3639 307.436 19.2288 312.072C19.1894 313.367 18.3958 314.383 17.4398 314.383ZM18.5976 349.048C17.7115 349.048 16.9421 348.168 16.8253 346.957C16.7176 345.867 16.6174 344.778 16.5234 343.68C16.2108 340.029 15.9695 336.316 15.8056 332.644C15.7465 331.318 16.4976 330.177 17.4854 330.097C18.461 330.024 19.3199 331.028 19.3791 332.352C19.5414 335.939 19.7781 339.566 20.0831 343.135C20.1742 344.204 20.2713 345.268 20.3744 346.33C20.5034 347.648 19.8145 348.856 18.8343 349.03C18.7539 349.042 18.675 349.048 18.5976 349.048ZM24.2559 382.898C23.4987 382.898 22.7962 382.249 22.5504 381.23C21.4594 376.684 20.4852 372.023 19.6491 367.376C19.417 366.083 20.0072 364.785 20.9677 364.473C21.9328 364.162 22.8994 364.953 23.1315 366.246C23.9463 370.776 24.8977 375.321 25.9599 379.754C26.2634 381.021 25.746 382.375 24.8052 382.782C24.6216 382.86 24.438 382.898 24.2559 382.898ZM34.3662 414.826C33.7258 414.826 33.1083 414.366 32.7851 413.557C31.1038 409.336 29.5181 404.99 28.0782 400.639C27.6745 399.424 28.0812 398.003 28.984 397.462C29.8869 396.918 30.9475 397.466 31.3496 398.68C32.7577 402.926 34.3009 407.168 35.9427 411.285C36.4116 412.456 36.0823 413.914 35.2098 414.541C34.9412 414.734 34.6514 414.826 34.3662 414.826ZM48.4383 443.918C47.9027 443.918 47.3716 443.596 47.0211 442.982C44.8315 439.18 42.7254 435.263 40.7604 431.337C40.2096 430.233 40.4266 428.74 41.2475 427.998C42.0668 427.26 43.1821 427.55 43.7344 428.651C45.6554 432.49 47.7145 436.321 49.854 440.041C50.4594 441.092 50.3168 442.604 49.5308 443.414C49.2061 443.754 48.8207 443.918 48.4383 443.918ZM65.7288 469.691C65.2827 469.691 64.835 469.468 64.4891 469.02C61.9126 465.697 59.3937 462.256 57.0039 458.792C56.3317 457.817 56.3742 456.293 57.101 455.393C57.8233 454.489 58.9582 454.542 59.632 455.522C61.9763 458.916 64.4436 462.292 66.97 465.55C67.6832 466.471 67.7059 467.995 67.0216 468.951C66.6695 469.445 66.1992 469.691 65.7288 469.691ZM85.4865 492.055C85.1163 492.055 84.74 491.901 84.4198 491.582C81.5428 488.715 78.7145 485.751 76.012 482.768C75.2488 481.924 75.138 480.407 75.7647 479.383C76.3929 478.355 77.5233 478.206 78.2881 479.051C80.9435 481.983 83.7233 484.897 86.5532 487.716C87.3468 488.509 87.5152 490.017 86.9265 491.083C86.5729 491.719 86.0343 492.055 85.4865 492.055ZM107.514 510.312C107.227 510.312 106.935 510.22 106.664 510.024C102.818 507.234 99.6785 504.916 97.3342 503.136C96.4738 502.483 96.1703 501.015 96.6574 499.859C97.146 498.699 98.24 498.297 99.0974 498.948C101.422 500.713 104.539 503.015 108.367 505.788C109.236 506.42 109.563 507.879 109.091 509.05C108.768 509.855 108.152 510.312 107.514 510.312Z" fill="#99D7FF"/>
<mask id="mask0" mask-type="alpha" maskUnits="userSpaceOnUse" x="0" y="751" width="686" height="54">
<path fill-rule="evenodd" clip-rule="evenodd" d="M0 751.485H685.656V804.178H0V751.485Z" fill="white"/>
</mask>
<g mask="url(#mask0)">
<path fill-rule="evenodd" clip-rule="evenodd" d="M685.656 777.831C685.656 792.383 532.168 804.178 342.827 804.178C153.489 804.178 0 792.383 0 777.831C0 763.282 153.489 751.485 342.827 751.485C532.168 751.485 685.656 763.282 685.656 777.831Z" fill="#F78500"/>
</g>
<path fill-rule="evenodd" clip-rule="evenodd" d="M732.452 511.231C707.136 511.231 686.542 490.618 686.542 465.283C686.542 439.947 707.136 419.334 732.452 419.334C757.768 419.334 778.363 439.947 778.363 465.283C778.363 490.618 757.768 511.231 732.452 511.231Z" fill="white"/>
<path fill-rule="evenodd" clip-rule="evenodd" d="M772.769 465.283C772.769 487.568 754.72 505.634 732.452 505.634C710.186 505.634 692.134 487.568 692.134 465.283C692.134 442.997 710.186 424.932 732.452 424.932C754.72 424.932 772.769 442.997 772.769 465.283Z" fill="#99D7FF"/>
<path fill-rule="evenodd" clip-rule="evenodd" d="M732.452 456.545C728.816 456.545 725.867 453.594 725.867 449.952C725.867 446.312 728.816 443.361 732.452 443.361C736.091 443.361 739.038 446.312 739.038 449.952C739.038 453.594 736.091 456.545 732.452 456.545ZM732.669 439.402C725.085 439.402 718.941 445.554 718.941 453.143C718.941 460.73 732.669 491.163 732.669 491.163C732.669 491.163 746.395 460.73 746.395 453.143C746.395 445.554 740.25 439.402 732.669 439.402Z" fill="white"/>
<path fill-rule="evenodd" clip-rule="evenodd" d="M187.621 334.068C162.305 334.068 141.711 313.455 141.711 288.12C141.711 262.785 162.305 242.171 187.621 242.171C212.935 242.171 233.531 262.785 233.531 288.12C233.531 313.455 212.935 334.068 187.621 334.068Z" fill="white"/>
<path fill-rule="evenodd" clip-rule="evenodd" d="M227.938 289.154C227.938 311.44 209.887 329.504 187.621 329.504C165.354 329.504 147.303 311.44 147.303 289.154C147.303 266.869 165.354 248.803 187.621 248.803C209.887 248.803 227.938 266.869 227.938 289.154Z" fill="#99D7FF"/>
<path fill-rule="evenodd" clip-rule="evenodd" d="M165.071 268.941C166.84 272.804 176.307 292.696 185.54 297.24C185.92 297.426 195.364 298.701 195.749 298.884C206.07 303.794 206.745 303.616 206.745 304.511C206.745 305.258 207.064 306.37 206.058 306.669C204.249 307.208 198.295 308.362 181.691 307.621C181.348 307.606 181.034 307.407 180.876 307.1C173.208 292.155 164.776 286.942 164.776 290.261C164.776 307.445 165.185 307.863 163.813 307.863C163.129 307.756 161.44 308.27 161.332 306.98C160.974 302.687 159.335 284.099 157.696 282.458C155.886 280.648 154.237 269.995 164.037 268.391C164.467 268.32 164.89 268.544 165.071 268.941Z" fill="white"/>
<path fill-rule="evenodd" clip-rule="evenodd" d="M172.947 298.103C173.807 306.408 173.42 306.962 174.652 306.962C175.302 306.85 177.136 307.394 177.136 305.998V304.479C175.865 302.293 174.435 300.083 172.947 298.103Z" fill="white"/>
<path fill-rule="evenodd" clip-rule="evenodd" d="M207.842 297.902C197.648 296.332 198.144 296.46 197.902 296.341C188.667 291.796 179.202 271.904 177.431 268.041C177.25 267.646 176.828 267.421 176.399 267.491C172.279 268.165 170.188 270.439 169.276 272.983C172.103 278.523 175.554 284.304 179.065 288.708C181.629 289.857 184.2 292.479 186.447 295.375C199 297.286 193.516 295.641 206.045 301.535C207.569 301.667 208.769 302.952 208.769 304.512C208.725 305.493 208.89 306.027 208.535 306.89C214.523 306.686 217.286 306.106 218.42 305.769C219.43 305.467 219.119 304.278 219.107 303.611C219.107 302.575 208.106 297.942 207.842 297.902Z" fill="white"/>
<path fill-rule="evenodd" clip-rule="evenodd" d="M772.769 116.664C772.769 138.948 754.72 157.014 732.452 157.014C710.186 157.014 692.134 138.948 692.134 116.664C692.134 94.3772 710.186 76.3127 732.452 76.3127C754.72 76.3127 772.769 94.3772 772.769 116.664Z" fill="#99D7FF"/>
<path fill-rule="evenodd" clip-rule="evenodd" d="M227.938 433.183C227.938 455.47 209.887 473.534 187.621 473.534C165.354 473.534 147.303 455.47 147.303 433.183C147.303 410.899 165.354 392.833 187.621 392.833C209.887 392.833 227.938 410.899 227.938 433.183Z" fill="#99D7FF"/>
<path fill-rule="evenodd" clip-rule="evenodd" d="M187.673 430.333C186.498 428.924 186.689 426.826 188.098 425.651C189.509 424.475 191.603 424.668 192.777 426.076C193.952 427.488 193.762 429.586 192.351 430.76C190.941 431.935 188.847 431.745 187.673 430.333ZM198.63 429.932L190.044 419.62C187.956 417.113 184.233 416.773 181.726 418.862L154.504 441.563L170.648 460.958L197.872 438.259C200.378 436.168 200.718 432.441 198.63 429.932Z" fill="white"/>
<path fill-rule="evenodd" clip-rule="evenodd" d="M191.505 426.305C191.635 426.279 204.559 423.787 209.381 419.764C213.555 416.285 213.853 409.272 206.061 410.101C199.957 410.752 194.855 419.984 192.945 423.924C192.305 425.243 190.315 424.275 190.953 422.956C193.526 417.65 198.879 408.637 205.826 407.897C215.567 406.86 216.922 416.362 210.8 421.467C205.535 425.857 192.471 428.378 191.918 428.483C190.479 428.755 190.065 426.58 191.505 426.305Z" fill="white"/>
<path fill-rule="evenodd" clip-rule="evenodd" d="M732.452 335.102C707.139 335.102 686.542 314.491 686.542 289.153C686.542 263.819 707.139 243.205 732.452 243.205C757.768 243.205 778.363 263.819 778.363 289.153C778.363 314.491 757.768 335.102 732.452 335.102Z" fill="white"/>
<path fill-rule="evenodd" clip-rule="evenodd" d="M772.769 289.154C772.769 311.44 754.72 329.504 732.452 329.504C710.186 329.504 692.134 311.44 692.134 289.154C692.134 266.869 710.186 248.803 732.452 248.803C754.72 248.803 772.769 266.869 772.769 289.154Z" fill="#99D7FF"/>
<path fill-rule="evenodd" clip-rule="evenodd" d="M569.299 216.996H358.197C329.607 216.996 306.432 240.191 306.432 268.806V713.002C306.432 741.617 329.607 764.813 358.197 764.813H569.299C597.886 764.813 621.061 741.617 621.061 713.002V268.806C621.061 240.191 597.886 216.996 569.299 216.996Z" fill="#331579"/>
<path fill-rule="evenodd" clip-rule="evenodd" d="M358.197 750.777C337.386 750.777 320.455 734.138 320.455 713.685V277.517C320.455 257.066 337.386 240.426 358.197 240.426H569.298C590.109 240.426 607.037 257.066 607.037 277.517V713.685C607.037 734.138 590.109 750.777 569.298 750.777H358.197Z" fill="#91AAFE"/>
<path fill-rule="evenodd" clip-rule="evenodd" d="M562.793 236.917H362.379C357.858 236.917 354.195 233.252 354.195 228.73C354.195 224.209 357.858 220.544 362.379 220.544H562.793C567.314 220.544 570.974 224.209 570.974 228.73C570.974 233.252 567.314 236.917 562.793 236.917Z" fill="#190B3D"/>
<path fill-rule="evenodd" clip-rule="evenodd" d="M565.203 228.876C565.203 232.551 562.227 235.529 558.558 235.529C554.886 235.529 551.911 232.551 551.911 228.876C551.911 225.202 554.886 222.224 558.558 222.224C562.227 222.224 565.203 225.202 565.203 228.876Z" fill="#331579"/>
<path fill-rule="evenodd" clip-rule="evenodd" d="M530.291 231.727H412.626C411.053 231.727 409.778 230.45 409.778 228.875C409.778 227.302 411.053 226.025 412.626 226.025H530.291C531.865 226.025 533.139 227.302 533.139 228.875C533.139 230.45 531.865 231.727 530.291 231.727Z" fill="#0E061E"/>
<mask id="mask1" mask-type="alpha" maskUnits="userSpaceOnUse" x="0" y="0" width="786" height="805">
<path fill-rule="evenodd" clip-rule="evenodd" d="M0 804.178H785.375V0H0V804.178Z" fill="white"/>
</mask>
<g mask="url(#mask1)">
<path fill-rule="evenodd" clip-rule="evenodd" d="M342.827 643.356H584.997V287.211H342.827V643.356Z" fill="white"/>
<path fill-rule="evenodd" clip-rule="evenodd" d="M450.608 448.03H570.973V302.414H450.608V448.03Z" fill="#FFF7CF"/>
<path fill-rule="evenodd" clip-rule="evenodd" d="M450.608 614.844H570.973V469.227H450.608V614.844Z" fill="#FFF7CF"/>
<path fill-rule="evenodd" clip-rule="evenodd" d="M360.041 326.977H436.585V312.357H360.041V326.977Z" fill="#FFF7CF"/>
<path fill-rule="evenodd" clip-rule="evenodd" d="M360.041 356.802H436.585V342.182H360.041V356.802Z" fill="#FFF7CF"/>
<path fill-rule="evenodd" clip-rule="evenodd" d="M360.041 386.627H436.585V372.007H360.041V386.627Z" fill="#FFF7CF"/>
<path fill-rule="evenodd" clip-rule="evenodd" d="M360.041 487.798H436.585V473.177H360.041V487.798Z" fill="#FFF7CF"/>
<path fill-rule="evenodd" clip-rule="evenodd" d="M360.041 517.623H436.585V503.002H360.041V517.623Z" fill="#FFF7CF"/>
<path fill-rule="evenodd" clip-rule="evenodd" d="M360.041 547.448H436.585V532.827H360.041V547.448Z" fill="#FFF7CF"/>
<path fill-rule="evenodd" clip-rule="evenodd" d="M445.203 663.457C445.203 665.838 443.274 667.77 440.893 667.77C438.514 667.77 436.584 665.838 436.584 663.457C436.584 661.075 438.514 659.144 440.893 659.144C443.274 659.144 445.203 661.075 445.203 663.457Z" fill="#331579"/>
<path fill-rule="evenodd" clip-rule="evenodd" d="M461.272 663.457C461.272 665.838 459.343 667.77 456.962 667.77C454.583 667.77 452.653 665.838 452.653 663.457C452.653 661.075 454.583 659.144 456.962 659.144C459.343 659.144 461.272 661.075 461.272 663.457Z" fill="#331579"/>
<path fill-rule="evenodd" clip-rule="evenodd" d="M477.34 663.457C477.34 665.838 475.412 667.77 473.031 667.77C470.652 667.77 468.722 665.838 468.722 663.457C468.722 661.075 470.652 659.144 473.031 659.144C475.412 659.144 477.34 661.075 477.34 663.457Z" fill="#331579"/>
<path fill-rule="evenodd" clip-rule="evenodd" d="M560.224 278.736C560.224 280.925 561.996 282.699 564.183 282.699C566.371 282.699 568.143 280.925 568.143 278.736C568.143 276.548 566.371 274.774 564.183 274.774C561.996 274.774 560.224 276.548 560.224 278.736Z" fill="#331579"/>
<path fill-rule="evenodd" clip-rule="evenodd" d="M562.041 278.737C562.041 279.92 563.001 280.881 564.183 280.881C565.365 280.881 566.326 279.92 566.326 278.737C566.326 277.554 565.365 276.594 564.183 276.594C563.001 276.594 562.041 277.554 562.041 278.737Z" fill="#270F5B"/>
<path fill-rule="evenodd" clip-rule="evenodd" d="M543.005 278.736C543.005 280.925 544.778 282.699 546.964 282.699C549.152 282.699 550.925 280.925 550.925 278.736C550.925 276.548 549.152 274.774 546.964 274.774C544.778 274.774 543.005 276.548 543.005 278.736Z" fill="#331579"/>
<path fill-rule="evenodd" clip-rule="evenodd" d="M544.822 278.737C544.822 279.92 545.782 280.881 546.964 280.881C548.146 280.881 549.104 279.92 549.104 278.737C549.104 277.554 548.146 276.594 546.964 276.594C545.782 276.594 544.822 277.554 544.822 278.737Z" fill="#270F5B"/>
<path fill-rule="evenodd" clip-rule="evenodd" d="M544.508 268.248L537.12 255.472C536.763 254.861 536.796 254.147 537.203 253.561C537.608 252.975 538.317 252.627 539.097 252.627H568.441C568.854 252.627 569.189 252.922 569.189 253.285C569.189 253.649 568.854 253.944 568.441 253.944H539.097C538.728 253.944 538.541 254.158 538.476 254.249C538.411 254.342 538.28 254.586 538.45 254.873L545.839 267.65C545.963 267.865 546.209 267.999 546.485 267.999H565.683L570.543 250.919C571.115 248.913 572.971 247.509 575.054 247.509H580.468C580.881 247.509 581.215 247.843 581.215 248.256C581.215 248.67 580.881 249.004 580.468 249.004H575.054C573.634 249.004 572.368 249.959 571.98 251.327L565.618 273.677H544.787C544.371 273.677 544.039 273.342 544.039 272.93C544.039 272.517 544.371 272.181 544.787 272.181H564.492L565.306 269.316H546.485C545.646 269.316 544.887 268.907 544.508 268.248Z" fill="#331579"/>
<path fill-rule="evenodd" clip-rule="evenodd" d="M521.169 264.333C521.169 272.288 514.724 278.736 506.779 278.736C498.829 278.736 492.386 272.288 492.386 264.333C492.386 256.378 498.829 249.93 506.779 249.93C514.724 249.93 521.169 256.378 521.169 264.333Z" fill="#FD5E5A"/>
<path fill-rule="evenodd" clip-rule="evenodd" d="M503.767 260.269H502.225C503.344 255.302 508.726 255.58 510.437 258.379C511.419 259.985 511.22 262.112 509.057 263.384C511.559 264.4 512.644 267.258 511.152 269.825C509.178 273.218 502.781 273.585 501.722 267.835H503.201C504.772 273.752 512.46 269.892 509.843 265.841C508.975 264.496 507.558 264.283 505.913 264.197V262.809C507.626 262.809 509.427 261.981 509.427 260.28C509.427 258.137 506.582 257.15 504.967 258.403C504.495 258.772 504.096 259.393 503.767 260.269Z" fill="white"/>
<path fill-rule="evenodd" clip-rule="evenodd" d="M403.279 686.045H584.997V677.857H403.279V686.045Z" fill="#8D75BB"/>
<path fill-rule="evenodd" clip-rule="evenodd" d="M403.279 704.321H584.997V696.132H403.279V704.321Z" fill="#8D75BB"/>
<path fill-rule="evenodd" clip-rule="evenodd" d="M187.621 334.068C162.305 334.068 141.711 313.456 141.711 288.12C141.711 262.785 162.305 242.171 187.621 242.171C212.936 242.171 233.531 262.785 233.531 288.12C233.531 313.456 212.936 334.068 187.621 334.068ZM187.621 235.153C158.394 235.153 134.7 258.867 134.7 288.12C134.7 317.372 158.394 341.086 187.621 341.086C216.849 341.086 240.543 317.372 240.543 288.12C240.543 258.867 216.849 235.153 187.621 235.153Z" fill="#7FCDFF"/>
<path fill-rule="evenodd" clip-rule="evenodd" d="M732.452 335.102C707.139 335.102 686.542 314.491 686.542 289.153C686.542 263.819 707.139 243.205 732.452 243.205C757.768 243.205 778.363 263.819 778.363 289.153C778.363 314.491 757.768 335.102 732.452 335.102ZM732.452 236.187C703.224 236.187 679.53 259.901 679.53 289.153C679.53 318.406 703.224 342.12 732.452 342.12C761.679 342.12 785.375 318.406 785.375 289.153C785.375 259.901 761.679 236.187 732.452 236.187Z" fill="#7FCDFF"/>
<path fill-rule="evenodd" clip-rule="evenodd" d="M732.452 162.612C707.139 162.612 686.542 141.999 686.542 116.663C686.542 91.3276 707.139 70.7148 732.452 70.7148C757.768 70.7148 778.363 91.3276 778.363 116.663C778.363 141.999 757.768 162.612 732.452 162.612ZM732.452 63.697C703.224 63.697 679.53 87.4109 679.53 116.663C679.53 145.916 703.224 169.63 732.452 169.63C761.679 169.63 785.375 145.916 785.375 116.663C785.375 87.4109 761.679 63.697 732.452 63.697Z" fill="#7FCDFF"/>
<path fill-rule="evenodd" clip-rule="evenodd" d="M732.452 511.231C707.136 511.231 686.542 490.618 686.542 465.283C686.542 439.947 707.136 419.334 732.452 419.334C757.768 419.334 778.363 439.947 778.363 465.283C778.363 490.618 757.768 511.231 732.452 511.231ZM732.452 412.316C703.224 412.316 679.53 436.03 679.53 465.283C679.53 494.535 703.224 518.249 732.452 518.249C761.679 518.249 785.375 494.535 785.375 465.283C785.375 436.03 761.679 412.316 732.452 412.316Z" fill="#7FCDFF"/>
<path fill-rule="evenodd" clip-rule="evenodd" d="M187.621 479.941C162.305 479.941 141.711 459.33 141.711 433.994C141.711 408.658 162.305 388.046 187.621 388.046C212.936 388.046 233.531 408.658 233.531 433.994C233.531 459.33 212.936 479.941 187.621 479.941ZM187.621 381.028C158.394 381.028 134.7 404.742 134.7 433.994C134.7 463.247 158.394 486.959 187.621 486.959C216.849 486.959 240.543 463.247 240.543 433.994C240.543 404.742 216.849 381.028 187.621 381.028Z" fill="#7FCDFF"/>
<path fill-rule="evenodd" clip-rule="evenodd" d="M367.286 343.244C366.847 343.244 366.403 343.185 365.961 343.063L236.461 307.618C233.725 306.869 232.095 303.984 232.828 301.176C233.558 298.368 236.37 296.697 239.107 297.447L368.605 332.894C371.343 333.643 372.97 336.527 372.239 339.337C371.627 341.691 369.553 343.244 367.286 343.244Z" fill="#7FCDFF"/>
<path fill-rule="evenodd" clip-rule="evenodd" d="M379.434 453.294H379.416L237.778 452.82C234.937 452.811 232.645 450.448 232.654 447.539C232.663 444.639 234.962 442.294 237.793 442.294H237.81L379.449 442.766C382.288 442.777 384.586 445.14 384.573 448.047C384.564 450.947 382.264 453.294 379.434 453.294Z" fill="#7FCDFF"/>
<path fill-rule="evenodd" clip-rule="evenodd" d="M192.453 538.796L139.679 498.358L126.755 515.032L192.453 538.796Z" fill="#0A4CFE"/>
<path fill-rule="evenodd" clip-rule="evenodd" d="M139.669 548.166L140.424 516.875L192.453 538.796L139.669 548.166Z" fill="#99D7FF"/>
<path fill-rule="evenodd" clip-rule="evenodd" d="M139.613 472.459L192.453 538.796L139.679 498.359L139.613 472.459Z" fill="#99D7FF"/>
<path fill-rule="evenodd" clip-rule="evenodd" d="M126.756 515.031L140.424 516.875L140.315 521.419L126.756 515.031Z" fill="#0033BF"/>
<path fill-rule="evenodd" clip-rule="evenodd" d="M718.105 301.261C718.387 301.251 721.326 301.349 721.326 301.529V270.659C729.896 269.268 738.427 267.883 747.05 266.482V267.415C747.05 278.392 746.967 289.37 747.09 300.346C747.143 304.93 744.028 306.943 740.897 307.505C734.911 308.58 731.351 303.387 734.826 299.647C737.324 296.957 740.122 296.506 743.583 297.267V276.305C737.336 277.449 731.109 278.591 724.809 279.745C724.809 280.053 724.762 296.667 724.731 304.686C724.716 308.999 721.818 311.616 717.757 311.811C708.36 312.267 710.023 301.571 718.105 301.261Z" fill="white"/>
<path fill-rule="evenodd" clip-rule="evenodd" d="M362.171 332.1H356.092L331.892 227.777L340.703 227.314L362.171 332.1Z" fill="#1F1A15"/>
<path fill-rule="evenodd" clip-rule="evenodd" d="M398.209 1.38187C398.209 1.38187 377.36 -2.17788 370.066 12.2342C362.775 26.6448 363.464 59.2338 373.389 67.673C383.314 76.1137 381.66 97.7304 390.355 104.113C399.051 110.496 421.203 113.377 421.203 98.35C421.203 98.35 410.407 100.18 407.671 90.8235C407.671 90.8235 423.168 100.731 430.74 89.639C438.313 78.5497 422.045 74.8791 422.045 74.8791C422.045 74.8791 428.438 78.0182 418.901 76.3719C409.368 74.7242 415.59 72.3429 415.59 64.2743C415.59 56.2086 421.485 61.9082 419.801 47.086C418.118 32.2624 405.313 0.871597 398.209 1.38187Z" fill="#0E1B29"/>
<path fill-rule="evenodd" clip-rule="evenodd" d="M347.878 319.518L345.853 333.645C345.853 333.645 342.09 344.318 342.09 345.887C342.09 346.925 343.863 355.346 348.571 356.766C350.987 357.495 360.875 346.693 362.193 341.806C363.73 336.097 359.97 318.262 359.97 318.262L347.878 319.518Z" fill="#FC7575"/>
<path fill-rule="evenodd" clip-rule="evenodd" d="M380.356 317.006C380.356 317.006 377.67 337.726 377.67 340.865C377.67 344.003 377.244 348.512 379.013 350.283C380.782 352.053 396.668 346.829 396.668 341.178C396.668 335.527 393.219 317.006 393.219 317.006H380.356Z" fill="#FC7575"/>
<path fill-rule="evenodd" clip-rule="evenodd" d="M414.672 131.75C414.672 117.602 414.087 71.5877 414.087 71.5877C414.087 71.5877 405.727 65.9186 388.998 65.9186C383.616 65.9186 378.669 64.9967 373.314 65.9717C362.011 68.0295 351.739 72.868 351.739 72.868C351.739 72.868 355.207 116.28 349.786 145.92C348.828 151.157 352.919 155.962 358.236 155.962H411.1C414.666 155.962 417.374 152.754 416.79 149.234C415.546 141.721 414.672 135.422 414.672 131.75Z" fill="#FFDA88"/>
<path fill-rule="evenodd" clip-rule="evenodd" d="M355.129 155.044C346.559 161.69 344.728 163.978 342.288 166.973C323.246 190.362 328.73 222.122 337.383 220.93C346.037 219.738 363.922 216.637 377.771 219.524C391.617 222.409 422.774 221.543 425.657 210.284C427.581 202.786 417.335 176.682 411.794 155.961L355.129 155.044Z" fill="#464A7F"/>
<path fill-rule="evenodd" clip-rule="evenodd" d="M384.149 184.298L377.67 194.476C374.485 201.774 376.345 219.251 376.345 219.251L347.878 217.808L346.523 190.963L384.149 184.298Z" fill="#35385F"/>
<path fill-rule="evenodd" clip-rule="evenodd" d="M379.212 193.826C379.212 193.826 395.369 192.094 401.428 198.158C407.485 204.222 395.944 286.797 397.388 291.417C398.831 296.037 405.754 295.46 401.714 299.502C397.675 303.544 396.668 306.286 398.54 308.163C400.417 310.039 401.136 312.783 399.407 314.516C397.675 316.247 397.1 320.867 397.1 320.867H377.763C377.763 320.867 376.329 309.029 376.329 307.008C376.329 304.986 374.019 299.214 374.019 299.214C374.019 299.214 381.221 295.455 377.763 291.996C374.305 288.533 377.763 283.333 377.763 275.825C377.763 268.32 367.097 195.269 379.212 193.826Z" fill="#6B6E98"/>
<path fill-rule="evenodd" clip-rule="evenodd" d="M330.259 193.596C335.849 188.002 344.885 187.304 353.825 193.596C362.77 199.89 359.596 215.48 359.596 229.63C359.596 243.776 358.672 278.713 360.144 283.043C361.617 287.374 366.231 291.706 364.5 296.326C362.77 300.946 361.902 299.982 364.882 302.967C367.864 305.95 366.231 308.163 366.231 311.34C366.231 314.515 364.788 324.332 364.788 324.332H346.325C346.325 324.332 345.46 306.718 340.846 299.79C336.228 292.861 339.692 277.847 339.692 275.536C339.692 273.227 333.922 270.339 333.922 260.234C333.922 250.129 327.221 196.637 330.259 193.596Z" fill="#6B6E98"/>
<path fill-rule="evenodd" clip-rule="evenodd" d="M352.631 72.8672C352.631 72.8672 349.344 78.6138 344.73 91.6075C340.116 104.601 347.877 156.09 347.877 164.752C347.877 173.415 358.731 184.298 358.731 184.298L367.963 173.904L361.904 136.367L352.631 72.8672Z" fill="#FD5E5A"/>
<path fill-rule="evenodd" clip-rule="evenodd" d="M414.088 71.5874C414.088 71.5874 427.392 74.8692 431.451 93.3483C435.512 111.826 438.814 155.137 437.542 160.335C436.273 165.53 402.811 181.601 402.811 181.601L399.984 175.924C399.984 175.924 425.362 153.981 425.362 150.805C425.362 147.63 414.499 107.882 414.499 107.882L414.088 71.5874Z" fill="#FD5E5A"/>
<path fill-rule="evenodd" clip-rule="evenodd" d="M311.707 137.525L319.207 190.801L412.677 187.475L410.828 134.064L311.707 137.525Z" fill="#241145"/>
<path fill-rule="evenodd" clip-rule="evenodd" d="M361.676 343.179C352.963 348.701 346.484 348.12 342.096 346.014C342.211 347.477 344.015 355.393 348.57 356.766C350.781 357.433 359.241 348.456 361.676 343.179Z" fill="#ED1E79"/>
<path fill-rule="evenodd" clip-rule="evenodd" d="M396.668 341.178C396.668 339.922 396.496 338.031 396.232 335.848C391.205 340.373 384.491 343.351 377.999 336.71C377.798 338.665 377.67 340.182 377.67 340.865C377.67 344.003 377.244 348.512 379.013 350.283C380.782 352.053 396.668 346.829 396.668 341.178Z" fill="#ED1E79"/>
<path fill-rule="evenodd" clip-rule="evenodd" d="M398.473 44.5124C398.473 44.5124 397.746 46.1086 396.644 48.6083C392.829 57.2707 395.257 70.556 395.45 72.8674C395.835 77.5069 393.357 87.0001 393.357 87.0001C393.357 87.0001 375.229 74.3071 374.204 65.9727L384.033 35.8394L398.473 44.5124Z" fill="#FC7575"/>
<path fill-rule="evenodd" clip-rule="evenodd" d="M384.033 35.8394L398.473 44.5124C398.473 44.5124 397.743 46.1116 396.644 48.6083C391.564 47.205 383.806 44.6415 382.122 41.6999L384.033 35.8394Z" fill="#FD5E5A"/>
<path fill-rule="evenodd" clip-rule="evenodd" d="M387.525 11.2634L409.331 23.3079C409.331 23.3079 413.857 23.4096 413.857 18.3662C413.857 13.3212 408.302 8.38246 402.646 5.49852C396.987 2.61762 389.894 1.37231 389.894 1.37231L387.525 11.2634Z" fill="#0E1B29"/>
<path fill-rule="evenodd" clip-rule="evenodd" d="M395.443 5.80713C395.443 5.80713 403.878 7.24834 406.142 11.2637C408.403 15.2775 409.019 24.8512 411.283 27.1155C413.546 29.3798 415.518 29.8779 415.518 29.8779C415.518 29.8779 416.118 30.9243 413.857 32.0572C411.593 33.1886 413.304 34.4248 414.713 34.4248C416.118 34.4248 414.936 37.0992 413.857 37.4105C413.857 37.4105 415.244 37.8205 414.986 39.16C414.731 40.4979 414.062 40.7546 414.062 40.7546C414.062 40.7546 413.993 42.5041 414.713 44.1518C415.433 45.7996 413.684 50.6882 402.645 48.5271C402.645 48.5271 386.236 44.6667 385.26 40.0348C384.285 35.4028 376.986 18.5639 383.207 12.3404C389.427 6.1139 395.443 5.80713 395.443 5.80713Z" fill="#FC7575"/>
<path fill-rule="evenodd" clip-rule="evenodd" d="M387.833 1.118C387.833 1.118 390.405 -1.56092 400.69 1.37314C410.976 4.30719 413.433 15.9508 413.433 15.9508C413.433 15.9508 406.809 11.4692 402.646 11.4692C398.479 11.4692 389.055 9.88524 387.525 8.35595C385.996 6.82514 387.833 1.118 387.833 1.118Z" fill="#1B3753"/>
<path fill-rule="evenodd" clip-rule="evenodd" d="M389.182 0.426758C390.618 0.426758 399.714 10.5426 397.245 18.2635C394.778 25.9828 388.914 22.5355 385.211 24.5948C381.508 26.6541 385.927 36.1746 385.261 40.035C384.594 43.8954 374.204 65.9723 374.204 65.9723C374.204 65.9723 365.463 19.2977 370.762 10.6504C376.062 2.00313 389.182 0.426758 389.182 0.426758Z" fill="#1B3753"/>
<path fill-rule="evenodd" clip-rule="evenodd" d="M400.114 32.3913C400.114 33.544 402.046 34.478 404.43 34.478C406.815 34.478 408.747 33.544 408.747 32.3913C408.747 31.2387 406.815 30.3047 404.43 30.3047C402.046 30.3047 400.114 31.2387 400.114 32.3913Z" fill="#FD5E5A"/>
<path fill-rule="evenodd" clip-rule="evenodd" d="M410.49 23.3076C410.49 23.3076 409.073 26.1551 403.301 26.0245L410.49 23.3076Z" fill="#1B3753"/>
<path fill-rule="evenodd" clip-rule="evenodd" d="M408.747 21.9106C408.747 21.9106 406.605 20.6318 404.942 20.6318C403.279 20.6318 401.745 21.3031 401.745 21.9106C401.745 21.9106 403.567 21.0479 405.007 21.2712C406.444 21.496 407.118 22.6031 407.693 22.6031C408.268 22.6031 408.747 21.9106 408.747 21.9106Z" fill="#1B3753"/>
<path fill-rule="evenodd" clip-rule="evenodd" d="M384.789 32.3141C384.789 32.3141 392.786 50.8631 376.726 71.5867C360.663 92.3119 338.867 83.9198 335.934 75.5322C333.003 67.1431 343.266 64.2744 343.266 64.2744C343.266 64.2744 341.307 73.7675 346.523 73.3165C351.739 72.867 353.537 71.6369 351.442 61.4193C349.348 51.2032 356.926 55.2991 361.092 48.6078C365.262 41.9181 361.092 36.8124 361.092 28.9078C361.092 21.0031 370.763 10.6504 370.763 10.6504L384.789 32.3141Z" fill="#1B3753"/>
<path fill-rule="evenodd" clip-rule="evenodd" d="M386.336 25.5203C386.336 25.5203 383.361 19.0356 381.971 20.4252C380.584 21.8148 379.89 31.3869 384.789 32.3148C389.685 33.2412 386.336 25.5203 386.336 25.5203Z" fill="#FC7575"/>
<path fill-rule="evenodd" clip-rule="evenodd" d="M386.123 26.3108C386.123 26.3108 384.588 22.7768 383.755 23.6091C382.926 24.4413 383.82 30.0102 384.941 30.0102C386.058 30.0102 386.396 28.0922 386.123 26.3108Z" fill="#FD5E5A"/>
<path fill-rule="evenodd" clip-rule="evenodd" d="M408.963 26.238C408.963 26.9017 408.661 27.4393 408.285 27.4393C407.909 27.4393 407.604 26.9017 407.604 26.238C407.604 25.5759 407.909 25.0398 408.285 25.0398C408.661 25.0398 408.963 25.5759 408.963 26.238Z" fill="#1B3753"/>
<path fill-rule="evenodd" clip-rule="evenodd" d="M659.398 534.214C659.398 534.214 640.668 540.16 637.909 544.61C635.151 549.058 625.264 578.441 622.733 580.972C620.205 583.504 602.335 584.995 598.2 585.932L607.68 602.39C607.68 602.39 626.952 602.788 632.356 602.39C637.755 601.992 659.398 534.214 659.398 534.214Z" fill="#50284C"/>
<path fill-rule="evenodd" clip-rule="evenodd" d="M690.925 538.121C690.925 538.121 720.626 566.852 716.021 599.305C716.021 599.305 709.354 587.883 696.705 590.143C696.705 590.143 690.786 577.674 689.029 569.85C687.272 562.023 690.925 538.121 690.925 538.121Z" fill="#885E84"/>
<path fill-rule="evenodd" clip-rule="evenodd" d="M667.797 798.472H673.876L698.077 694.151L689.265 693.686L667.797 798.472Z" fill="#1F1A15"/>
<path fill-rule="evenodd" clip-rule="evenodd" d="M766.421 800.354H760.342L736.142 696.031L744.953 695.568L766.421 800.354Z" fill="#1F1A15"/>
<path fill-rule="evenodd" clip-rule="evenodd" d="M603.75 789.095H597.672L573.471 684.772L582.283 684.309L603.75 789.095Z" fill="#1F1A15"/>
<path fill-rule="evenodd" clip-rule="evenodd" d="M523.007 796.179H529.085L553.286 691.855L544.478 691.392L523.007 796.179Z" fill="#1F1A15"/>
<path fill-rule="evenodd" clip-rule="evenodd" d="M527.512 613.361V690.093C527.512 696.153 533.285 701.064 540.406 701.064H738.389C745.51 701.064 751.283 696.153 751.283 690.093V613.361C751.283 607.302 745.51 602.389 738.389 602.389H540.406C533.285 602.389 527.512 607.302 527.512 613.361Z" fill="#450000"/>
</g>
<mask id="mask2" mask-type="alpha" maskUnits="userSpaceOnUse" x="527" y="601" width="225" height="100">
<path fill-rule="evenodd" clip-rule="evenodd" d="M670.857 601.48C663.738 601.48 657.962 606.386 657.962 612.44C657.962 613.106 657.962 613.269 657.962 613.215C657.961 615.828 657.955 626.129 657.937 661.038C657.513 666.764 651.914 671.297 645.068 671.297H566.663C559.546 671.297 553.77 666.391 553.77 660.34V612.44C553.77 606.386 547.998 601.48 540.878 601.48C533.756 601.48 527.982 606.386 527.982 612.44V689.08C527.982 695.131 533.756 700.037 540.878 700.037H738.877C745.999 700.037 751.773 695.131 751.773 689.08V612.44C751.773 606.386 745.999 601.48 738.877 601.48H670.857ZM657.962 612.825C657.962 612.998 657.962 613.172 657.962 613.215C657.962 612.623 657.962 612.425 657.962 612.425C657.962 612.425 657.962 612.625 657.962 612.825Z" fill="white"/>
</mask>
<g mask="url(#mask2)">
<path fill-rule="evenodd" clip-rule="evenodd" d="M670.857 601.48C663.738 601.48 657.962 606.386 657.962 612.44C657.962 613.106 657.962 613.269 657.962 613.215C657.961 615.828 657.955 626.129 657.937 661.038C657.513 666.764 651.914 671.297 645.068 671.297H566.663C559.546 671.297 553.77 666.391 553.77 660.34V612.44C553.77 606.386 547.998 601.48 540.878 601.48C533.756 601.48 527.982 606.386 527.982 612.44V689.08C527.982 695.131 533.756 700.037 540.878 700.037H738.877C745.999 700.037 751.773 695.131 751.773 689.08V612.44C751.773 606.386 745.999 601.48 738.877 601.48H670.857ZM657.962 612.825C657.962 612.998 657.962 613.172 657.962 613.215C657.962 612.623 657.962 612.425 657.962 612.425C657.962 612.425 657.962 612.625 657.962 612.825Z" fill="url(#paint0_linear)"/>
</g>
<path fill-rule="evenodd" clip-rule="evenodd" d="M504.705 765.415C504.705 765.415 502.795 766.841 502.404 770.199C502.12 772.638 503.316 776.479 503.316 779.68C503.316 787.289 501.564 789.631 501.564 789.631C501.564 789.631 456.571 789.338 456.571 787.289C456.571 785.242 473.222 773.534 479.943 773.534C486.665 773.534 491.922 758.021 491.922 758.021L503.316 762.996L504.705 765.415Z" fill="#2F3453"/>
<path fill-rule="evenodd" clip-rule="evenodd" d="M505.498 793.954C505.498 793.954 494.855 793.772 487.404 793.646C479.955 793.52 468.056 794.215 464.329 794.151C460.604 794.088 447.268 785.055 448.204 782.195C449.139 779.335 461.368 780.262 467.805 777.138C474.244 774.011 486.037 763.878 487.692 765.614C489.351 767.348 500.311 768.007 502.404 770.199C504.498 772.392 507.393 792.098 505.498 793.954Z" fill="#3A758D"/>
<path fill-rule="evenodd" clip-rule="evenodd" d="M502.917 788.986C473.282 783.785 481.604 792.994 452.683 784.366C459.697 787.356 470.11 790.388 477.643 789.035C481.741 788.297 486.005 788.368 490.221 788.41C494.446 788.483 498.677 788.726 502.917 788.986Z" fill="#ACFCDD"/>
<path fill-rule="evenodd" clip-rule="evenodd" d="M483.058 780.655C482.641 781.137 481.918 781.184 481.445 780.765C479.787 779.292 476.118 776.345 472.565 774.324C473.264 773.865 473.975 773.388 474.69 772.899C478.933 775.474 482.7 778.795 482.952 779.021C483.425 779.445 483.472 780.177 483.058 780.655Z" fill="#ACFCDD"/>
<path fill-rule="evenodd" clip-rule="evenodd" d="M484.826 775.933C484.273 776.239 483.577 776.027 483.278 775.466C483.251 775.415 481.723 772.595 479.097 769.859C479.76 769.401 480.408 768.961 481.033 768.545C483.665 771.371 485.175 774.15 485.288 774.364C485.593 774.925 485.382 775.631 484.826 775.933Z" fill="#ACFCDD"/>
<path fill-rule="evenodd" clip-rule="evenodd" d="M628.944 632.167L610.833 629.823C610.833 629.823 546.198 595.635 535.397 608.164C526.301 618.716 527.675 622.139 539.068 633.555C550.464 644.969 570.891 656.225 570.891 656.225L586.29 661.433L555.266 632.555L600.312 652.067H652.121L628.944 632.167Z" fill="#202857"/>
<path fill-rule="evenodd" clip-rule="evenodd" d="M665.758 652.068C665.758 652.068 666.107 662.718 659.914 668.925C653.72 675.132 577.526 668.679 577.526 668.679L512.08 771.484L486.955 762.664C486.955 762.664 536.752 665.116 554.737 652.068C572.718 639.021 633.2 637.9 633.2 637.9L665.758 652.068Z" fill="#3F50AE"/>
<path fill-rule="evenodd" clip-rule="evenodd" d="M506.946 765.789L505.617 765.042C505.617 765.042 506.567 763.347 508.241 760.389L509.567 761.14C507.897 764.096 506.946 765.788 506.946 765.789Z" fill="#9CABFC"/>
<path fill-rule="evenodd" clip-rule="evenodd" d="M583.086 662.212C577.547 661.931 574.133 661.907 572.487 662.133L572.279 660.621C574.062 660.379 577.461 660.396 583.164 660.687L583.086 662.212ZM604.523 663.647L602.38 663.494C599.426 663.28 596.546 663.07 593.801 662.88L593.908 661.359C596.652 661.549 599.537 661.755 602.489 661.971L604.632 662.124L604.523 663.647ZM625.986 665.066C622.522 664.876 618.9 664.648 615.247 664.401L615.35 662.877C618.997 663.125 622.61 663.351 626.069 663.541L625.986 665.066ZM641.207 665.575C639.809 665.575 638.318 665.553 636.75 665.515L636.787 663.987C641.118 664.094 644.839 664.054 647.445 663.846L647.567 665.368C645.858 665.506 643.718 665.575 641.207 665.575ZM559.322 678.076L558.055 677.226C560.4 673.733 562.491 670.755 564.273 668.378L565.494 669.294C563.726 671.652 561.649 674.606 559.322 678.076ZM547.722 696.194L546.425 695.388C548.382 692.23 550.304 689.169 552.158 686.26L553.442 687.085C551.59 689.986 549.673 693.041 547.722 696.194ZM536.558 714.593L535.248 713.809C537.09 710.719 538.947 707.628 540.798 704.576L542.1 705.368C540.252 708.418 538.398 711.507 536.558 714.593ZM525.635 733.143L524.316 732.373C526.073 729.359 527.894 726.244 529.759 723.078L531.07 723.854C529.208 727.018 527.388 730.132 525.635 733.143ZM514.875 751.8L513.552 751.042C515.162 748.224 516.969 745.077 518.917 741.695L520.237 742.457C518.289 745.838 516.485 748.985 514.875 751.8Z" fill="#9CABFC"/>
<path fill-rule="evenodd" clip-rule="evenodd" d="M657.672 661.792L656.97 660.433C660.484 658.609 661.527 657.889 661.536 657.883L662.415 659.132C662.371 659.162 661.316 659.9 657.672 661.792Z" fill="#9CABFC"/>
<path fill-rule="evenodd" clip-rule="evenodd" d="M581.032 648.572C581.032 648.572 588.146 660.028 588.146 661.3C588.146 662.573 590.305 668.045 588.146 670.207C585.986 672.371 540.38 657.99 540.38 657.99C540.38 657.99 554.606 654.427 560.706 654.427C566.802 654.427 570.74 649.464 568.581 647.3C566.423 645.137 581.032 648.572 581.032 648.572Z" fill="#095270"/>
<path fill-rule="evenodd" clip-rule="evenodd" d="M587.087 674.547C587.087 674.547 583.72 676.061 569.867 670.203C556.016 664.344 532.596 664.51 532.489 659.252C532.383 653.992 549.49 652.768 559.551 655.199C569.616 657.627 582.092 661.419 586.915 666.061C591.738 670.702 587.087 674.547 587.087 674.547Z" fill="#653870"/>
<path fill-rule="evenodd" clip-rule="evenodd" d="M532.489 659.252C531.616 652.79 556.729 648.246 581.21 661.018C591.327 666.479 590.939 671.749 587.087 674.547C596.966 663.307 556.607 655.56 547.679 655.19C543.573 655.097 532.844 655.182 532.489 659.252Z" fill="#CDFDEB"/>
<path fill-rule="evenodd" clip-rule="evenodd" d="M671.017 527.384C671.017 527.384 689.581 533.507 692.637 538.75C705.172 560.275 695.902 653.431 665.758 664.361C650.514 669.89 610.833 629.823 610.833 629.823C610.833 629.823 639.931 606.246 641.8 570.116C643.581 535.659 671.017 527.384 671.017 527.384Z" fill="#6A3565"/>
<path fill-rule="evenodd" clip-rule="evenodd" d="M610.832 629.823C626.408 618.011 639.342 599.061 642.888 577.387C643.828 569.767 642.726 539.998 671.016 527.384C661.066 530.25 652.172 537.277 646.826 546.504C634.412 567.582 647.205 582.747 620.896 618.136C617.861 622.269 614.485 626.163 610.832 629.823Z" fill="#EDEEFF"/>
<path fill-rule="evenodd" clip-rule="evenodd" d="M540.379 608.081C540.379 608.081 568.104 625.491 576.359 637.137C584.611 648.782 588.231 655.271 588.231 655.271L556.958 650.639C556.958 650.639 531.97 634.807 529.134 625.11C526.301 615.412 534.987 604.558 540.379 608.081Z" fill="#546BE8"/>
<path fill-rule="evenodd" clip-rule="evenodd" d="M541.09 612.4C538.841 610.62 537.472 609.592 537.469 609.59L538.381 608.368C538.381 608.368 539.761 609.404 542.035 611.202L541.09 612.4ZM548.185 618.179C546.934 617.131 545.753 616.156 544.659 615.266L545.62 614.08C546.719 614.974 547.909 615.955 549.164 617.009L548.185 618.179ZM555.11 624.156C553.944 623.116 552.792 622.109 551.672 621.143L552.668 619.984C553.792 620.958 554.951 621.971 556.125 623.017L555.11 624.156ZM561.825 630.36C560.72 629.298 559.607 628.252 558.496 627.228L559.53 626.106C560.646 627.136 561.769 628.188 562.882 629.26L561.825 630.36ZM568.247 636.849C567.219 635.748 566.159 634.649 565.082 633.564L566.162 632.486C567.252 633.584 568.321 634.693 569.359 635.804L568.247 636.849ZM574.195 643.738C573.325 642.622 572.347 641.443 571.3 640.231L572.449 639.23C573.518 640.461 574.506 641.66 575.397 642.795L574.195 643.738ZM579.199 651.24C578.566 650.031 577.781 648.736 576.874 647.392L578.135 646.535C579.078 647.926 579.889 649.269 580.549 650.529L579.199 651.24Z" fill="#98A6F1"/>
<path fill-rule="evenodd" clip-rule="evenodd" d="M669.66 496.898L662.255 529.58C661.853 531.36 663.078 538.954 664.274 540.335C667.052 543.535 673.373 546.332 679.147 543.448C684.18 540.936 684.53 499.706 684.53 499.706C684.53 499.706 676.106 496.874 669.66 496.898Z" fill="#FC7575"/>
<path fill-rule="evenodd" clip-rule="evenodd" d="M684.53 499.705C684.53 499.705 684.536 501.066 684.511 503.309C683.582 506.316 681.995 510.924 680.127 514.19C677.631 518.555 669.657 525.011 663.469 524.226L669.66 496.897C676.106 496.875 684.53 499.705 684.53 499.705Z" fill="#FD5E5A"/>
<path fill-rule="evenodd" clip-rule="evenodd" d="M692.488 460.064C694.579 464.857 695.754 471.161 690.991 473.237C696.222 471.711 695.858 464.57 694.283 459.363L692.488 460.064Z" fill="#132759"/>
<path fill-rule="evenodd" clip-rule="evenodd" d="M669.391 472.48C669.391 472.48 662.398 471.931 659.892 480.422C657.391 488.911 656.651 513.706 663.014 517.309C669.376 520.909 679.099 514.292 681.74 509.89C684.491 505.31 686.392 497.61 686.392 497.61C686.392 497.61 693.078 466.468 669.391 472.48Z" fill="#FC7575"/>
<path fill-rule="evenodd" clip-rule="evenodd" d="M690.744 510.929C690.744 510.929 688.749 512.515 687.455 509.655C687.455 509.655 684.447 503.058 688.915 499.419C693.385 495.779 700.02 490.896 700.687 482.732C701.353 474.566 691.775 472.675 691.775 472.675C691.775 472.675 692.71 460.145 678.493 461.484C678.493 461.484 676.501 458.329 668.615 457.074C660.73 455.821 661.722 460.488 657.366 458.845C653.011 457.205 653.101 453.545 655.271 452.559C655.271 452.559 646.817 454.526 644.555 460.544C642.297 466.563 654.125 469.304 654.125 469.304C654.125 469.304 644.272 468.611 650.749 474.18C657.232 479.748 660.799 480.405 666.194 476.943C671.584 473.48 674.196 472.918 676.375 474.426C678.552 475.933 676.629 481.049 680.086 482.352C683.538 483.652 683.923 493.588 683.923 493.588C683.923 493.588 686.874 493.226 685.382 499.84C683.891 506.457 682.167 510.358 686.072 511.83C689.974 513.301 690.744 510.929 690.744 510.929Z" fill="#132759"/>
<path fill-rule="evenodd" clip-rule="evenodd" d="M687.399 486.31C689.558 486.486 694.301 489.082 688.722 494.881C683.144 500.68 680.9 492.959 681.966 490.12C683.031 487.282 685.747 486.175 687.399 486.31Z" fill="#FC7575"/>
<path fill-rule="evenodd" clip-rule="evenodd" d="M665.391 491.755C665.065 495.85 664.254 499.729 664.325 503.638C665.242 503.836 666.155 504.067 667.062 504.358C665.385 504.56 664.052 504.539 663.434 504.557C663.434 504.351 662.887 498.927 665.391 491.755Z" fill="#132759"/>
<path fill-rule="evenodd" clip-rule="evenodd" d="M667.245 490.917C667.475 491.003 667.739 490.9 667.848 490.675C667.881 490.613 668.661 489.085 670.877 488.669C672.793 488.306 676.918 490.304 678.35 491.102C678.596 491.241 678.875 491.147 679.005 490.917C679.136 490.684 679.052 490.39 678.819 490.26C678.596 490.136 673.346 487.219 670.699 487.72C667.987 488.23 667.02 490.172 666.981 490.254C666.866 490.494 666.966 490.781 667.207 490.898C667.22 490.904 667.233 490.912 667.245 490.917Z" fill="#132759"/>
<path fill-rule="evenodd" clip-rule="evenodd" d="M671.591 507.294C671.591 507.294 664.287 508.148 660.565 506.424C660.565 506.424 660.631 509.668 662.771 510.991C664.912 512.313 669.873 511.865 671.591 507.294Z" fill="white"/>
<path fill-rule="evenodd" clip-rule="evenodd" d="M689.282 491.056C689.282 491.056 687.928 495.694 685.638 495.176C683.349 494.658 683.511 491.027 685.418 489.6C687.328 488.174 689.773 489.753 689.282 491.056Z" fill="#FD5E5A"/>
<path fill-rule="evenodd" clip-rule="evenodd" d="M668.464 493.123C668.39 494.062 668.933 494.868 669.669 494.928C670.409 494.988 671.07 494.275 671.144 493.336C671.217 492.398 670.679 491.59 669.939 491.53C669.198 491.473 668.539 492.185 668.464 493.123Z" fill="#132759"/>
<path fill-rule="evenodd" clip-rule="evenodd" d="M658.942 491.882C658.868 492.821 659.408 493.629 660.148 493.688C660.887 493.747 661.548 493.035 661.623 492.096C661.695 491.158 661.157 490.348 660.417 490.291C659.676 490.231 659.017 490.945 658.942 491.882Z" fill="#132759"/>
<path fill-rule="evenodd" clip-rule="evenodd" d="M662.928 489.855C663.064 490.084 662.987 490.382 662.757 490.515C662.626 490.59 662.475 490.599 662.344 490.55C662.244 490.512 662.155 490.442 662.099 490.342C661.72 489.695 660.499 487.923 659.431 487.519C659.17 487.42 658.902 487.34 658.635 487.273C658.673 486.945 658.712 486.623 658.753 486.307C659.088 486.389 659.434 486.489 659.772 486.617C661.377 487.223 662.866 489.748 662.928 489.855Z" fill="#132759"/>
<path fill-rule="evenodd" clip-rule="evenodd" d="M658.036 661.238C658.054 626.226 658.061 615.939 658.064 613.343V613.345V613.343V613.31V613.152V613.125V613.132V613.114V613.105V612.927V612.923V612.926V612.865V612.709V612.703V612.637V612.581C658.064 606.522 663.83 601.609 670.943 601.609H738.893C746.008 601.609 751.776 606.522 751.776 612.581V689.313C751.776 695.373 746.008 700.284 738.893 700.284H645.862L645.181 671.51C652.02 671.51 657.613 666.971 658.036 661.238Z" fill="#FABF44"/>
<path fill-rule="evenodd" clip-rule="evenodd" d="M700.033 700.284H738.894C746.008 700.284 751.776 695.373 751.776 689.313V612.581C751.776 606.521 746.008 601.608 738.894 601.608H700.033C692.921 601.608 687.153 606.521 687.153 612.581V689.313C687.153 695.373 692.921 700.284 700.033 700.284Z" fill="#890D00"/>
<path fill-rule="evenodd" clip-rule="evenodd" d="M697.113 588.509L664.089 597.193C664.089 597.193 654.378 604.22 650.013 605.615C645.646 607.011 640.307 611.837 641.356 613.32C642.4 614.8 647.886 609.769 648.778 609.922C649.669 610.074 645.553 616.03 644.885 619.936C644.218 623.844 642.881 627.635 645.112 627.329C647.342 627.023 648.961 618.225 648.961 618.225C648.961 618.225 652.393 611.575 652.947 612.361C653.5 613.145 650.656 617.712 650.656 617.712C650.656 617.712 649.98 622.647 649.684 624.383C649.461 625.68 650.65 629.565 651.663 628.137C652.257 627.297 651.979 624.089 652.669 622.257C654.087 618.5 656.403 615.522 656.403 615.522C656.403 615.522 653.921 626.774 655.481 627.041C657.041 627.308 658.656 617.988 658.656 617.988C658.656 617.988 662.467 610.226 664.13 609.535C665.791 608.841 670.365 605.886 673.9 604.656C677.437 603.422 692.053 607.48 698.576 607.567C705.099 607.652 715.681 603.602 716.56 598.469C716.827 596.898 715.852 595.165 714.369 593.515C710.055 588.719 703.345 586.87 697.113 588.509Z" fill="#FC7575"/>
<path fill-rule="evenodd" clip-rule="evenodd" d="M598.838 585.151L561.532 594.412C561.532 594.412 551.823 601.441 547.455 602.835C543.09 604.229 537.753 609.057 538.799 610.537C539.847 612.02 545.333 606.987 546.224 607.14C547.116 607.294 543 613.25 542.332 617.156C541.662 621.062 540.326 624.854 542.559 624.547C544.789 624.24 546.408 615.443 546.408 615.443C546.408 615.443 549.84 608.796 550.393 609.579C550.947 610.364 548.101 614.929 548.101 614.929C548.101 614.929 547.427 619.865 547.131 621.601C546.908 622.896 548.095 626.784 549.108 625.357C549.704 624.517 549.422 621.308 550.114 619.476C551.533 615.719 553.848 612.741 553.848 612.741C553.848 612.741 551.368 623.991 552.928 624.26C554.488 624.529 556.102 615.207 556.102 615.207C556.102 615.207 559.912 607.445 561.573 606.753C563.238 606.06 567.808 603.104 571.347 601.873C574.882 600.642 588.795 602.78 595.318 602.867C601.838 602.953 609.005 601.609 609.005 601.609C609.005 601.609 605.07 583.513 598.838 585.151Z" fill="#FD5E5A"/>
<path fill-rule="evenodd" clip-rule="evenodd" d="M708.196 482.973C708.42 482.973 708.64 482.843 708.734 482.622C721.377 454.049 687.843 428.918 687.503 428.669C687.242 428.473 686.869 428.53 686.677 428.795C686.484 429.056 686.54 429.428 686.804 429.621C687.135 429.865 719.914 454.44 707.657 482.141C707.524 482.44 707.657 482.791 707.956 482.923C708.033 482.957 708.115 482.973 708.196 482.973Z" fill="#411AC0"/>
<path fill-rule="evenodd" clip-rule="evenodd" d="M641.355 644.46L583.24 639.459L536.163 642.495L581.33 645.325L641.355 644.46Z" fill="#838BC5"/>
<path fill-rule="evenodd" clip-rule="evenodd" d="M641.355 648.157H583.023V642.494L641.355 644.459V648.157Z" fill="#0F1D5B"/>
<mask id="mask3" mask-type="alpha" maskUnits="userSpaceOnUse" x="538" y="572" width="45" height="75">
<path fill-rule="evenodd" clip-rule="evenodd" d="M538.294 572.865L582.701 646.953V641.361L541.367 572.865H538.294Z" fill="white"/>
</mask>
<g mask="url(#mask3)">
<path fill-rule="evenodd" clip-rule="evenodd" d="M538.294 572.865L582.701 646.953V641.361L541.367 572.865H538.294Z" fill="url(#paint1_linear)"/>
</g>
<path fill-rule="evenodd" clip-rule="evenodd" d="M497.229 588.799L537.861 573.905L582.765 648.95L532.949 647.555L497.229 588.799Z" fill="#0F1D5B"/>
<path fill-rule="evenodd" clip-rule="evenodd" d="M483.892 504.353H555.536C558.793 504.353 561.429 508.605 561.429 513.851V535.952C561.429 541.198 558.793 545.451 555.536 545.451H552.294L561.429 575.538L532.847 545.451H483.892C480.638 545.451 477.999 541.198 477.999 535.952V513.851C477.999 508.605 480.638 504.353 483.892 504.353Z" fill="#ED4790"/>
<path fill-rule="evenodd" clip-rule="evenodd" d="M737.771 99.7712C721.768 99.7712 708.794 105.368 708.794 112.274C708.794 115.724 712.037 118.85 717.28 121.112L714.591 133.105L724.456 123.377C728.443 124.269 732.972 124.772 737.771 124.772C753.777 124.772 766.752 119.175 766.752 112.274C766.752 105.368 753.777 99.7712 737.771 99.7712Z" fill="white"/>
<path fill-rule="evenodd" clip-rule="evenodd" d="M749.144 115.459C749.144 116.777 750.21 117.846 751.525 117.846C752.843 117.846 753.911 116.777 753.911 115.459C753.911 114.14 752.843 113.072 751.525 113.072C750.21 113.072 749.144 114.14 749.144 115.459Z" fill="#99D7FF"/>
<path fill-rule="evenodd" clip-rule="evenodd" d="M742.846 115.459C742.846 116.777 743.912 117.846 745.227 117.846C746.544 117.846 747.613 116.777 747.613 115.459C747.613 114.14 746.544 113.072 745.227 113.072C743.912 113.072 742.846 114.14 742.846 115.459Z" fill="#99D7FF"/>
<path fill-rule="evenodd" clip-rule="evenodd" d="M736.548 115.459C736.548 116.777 737.614 117.846 738.929 117.846C740.246 117.846 741.312 116.777 741.312 115.459C741.312 114.14 740.246 113.072 738.929 113.072C737.614 113.072 736.548 114.14 736.548 115.459Z" fill="#99D7FF"/>
<defs>
<linearGradient id="paint0_linear" x1="474.485" y1="682.302" x2="624.127" y2="821.084" gradientUnits="userSpaceOnUse">
<stop stop-color="#F47938"/>
<stop offset="1" stop-color="#FFFB4D"/>
</linearGradient>
<linearGradient id="paint1_linear" x1="582.703" y1="572.865" x2="538.294" y2="572.865" gradientUnits="userSpaceOnUse">
<stop stop-color="#A8A5DD"/>
<stop offset="1" stop-color="#BCB8F2"/>
</linearGradient>
</defs>
</svg>
